<svg width="706" height="600" viewBox="0 0 706 600" fill="none" xmlns="http://www.w3.org/2000/svg">
<g clip-path="url(#clip0)">
<path d="M235.653 600C362.156 600 464.707 580.019 464.707 555.372C464.707 530.725 362.156 510.744 235.653 510.744C109.15 510.744 6.59863 530.725 6.59863 555.372C6.59863 580.019 109.15 600 235.653 600Z" fill="#3F3D56"/>
<path d="M52.302 544.628C52.302 544.628 9.83184 533.215 1.81907 534.058C-6.19369 534.901 13.9581 494.917 27.3789 499.793C40.7997 504.669 58.694 517.496 68.9229 499.38C79.1518 481.264 84.8905 471.512 97.3521 472.488C109.814 473.463 127.071 464.694 139.525 472.488C151.978 480.281 160.727 489.893 177.926 489.479C195.126 489.066 211.433 450.066 224.829 465.669C238.225 481.273 254.292 495.545 266.885 490.355C279.479 485.165 293.851 492.967 305.353 501.744C316.856 510.521 336.991 506.62 344.656 499.793C352.322 492.967 358.085 488.091 374.376 489.05C390.666 490.008 442.439 501.727 461.615 516.322C480.791 530.917 436.692 549.479 415.597 549.479C394.503 549.479 390.674 555.331 372.457 564.107C354.24 572.884 324.496 559.231 303.435 573.859C282.373 588.488 255.474 566.058 219.09 573.859C182.706 581.661 190.33 592.38 169.235 584.603C148.141 576.826 155.815 573.86 125.136 571.926C94.4579 569.992 60.9101 576.802 58.0325 564.124C55.1548 551.446 36.0036 548.521 24.493 544.62C12.9824 540.719 52.302 544.628 52.302 544.628Z" fill="#3F3D56"/>
<path d="M581.294 439.438L582.947 438.38L583.435 438.066C579.814 437.452 576.51 435.623 574.068 432.882C571.625 430.141 570.19 426.65 569.997 422.984C569.804 419.318 570.867 415.696 573.009 412.714C575.151 409.732 578.245 407.568 581.781 406.578L581.699 413.24L585.362 405.992C587.484 405.893 589.605 406.213 591.603 406.933C593.601 407.653 595.438 408.76 597.008 410.189C598.578 411.619 599.851 413.344 600.755 415.266C601.658 417.187 602.174 419.268 602.272 421.388C602.272 421.702 602.272 422 602.272 422.306C603.564 420.902 604.639 419.314 605.464 417.595C607.019 414.132 607.044 410.223 606.928 405.463C606.68 396.041 606.275 386.545 605.745 377.074C601.921 376.651 598.373 374.878 595.74 372.074C593.107 369.27 591.561 365.618 591.382 361.777C591.357 361.289 591.357 360.801 591.382 360.314C591.382 360.19 591.382 360.066 591.382 359.95C591.382 359.479 591.456 359.016 591.531 358.554C591.527 358.479 591.527 358.405 591.531 358.33C591.589 357.942 591.671 357.562 591.762 357.182C591.762 357.041 591.837 356.901 591.87 356.76C591.986 356.347 592.11 355.934 592.258 355.537C592.308 355.405 592.358 355.281 592.416 355.149C592.531 354.851 592.655 354.562 592.788 354.273C592.854 354.124 592.92 353.967 592.994 353.818L593.052 353.702C594.763 350.329 597.603 347.662 601.077 346.164C604.552 344.666 608.442 344.433 612.071 345.504L611.964 354.173L615.586 347.016C617.932 348.367 619.901 350.287 621.312 352.597C622.722 354.908 623.528 357.536 623.656 360.24C623.723 361.64 623.603 363.044 623.301 364.413C623.301 364.529 623.235 364.636 623.21 364.752C623.185 364.868 623.102 365.182 623.044 365.388C622.986 365.595 622.887 365.925 622.796 366.215C622.705 366.504 622.664 366.611 622.59 366.81C622.515 367.008 622.35 367.372 622.226 367.636C622.151 367.793 622.085 367.959 622.011 368.124C621.804 368.537 621.581 368.95 621.341 369.347C621.258 369.487 621.159 369.62 621.076 369.752C620.903 370.016 620.729 370.289 620.539 370.578C620.349 370.868 620.299 370.892 620.175 371.041C620.051 371.19 619.819 371.487 619.629 371.702C619.439 371.917 619.356 372 619.216 372.149C619.075 372.297 618.819 372.562 618.604 372.76L618.182 373.157L617.446 373.768L617.066 374.066C616.677 374.347 616.288 374.611 615.875 374.892L615.643 375.025C615.303 375.233 614.953 375.423 614.593 375.595L614.13 375.802C613.841 375.934 613.543 376.066 613.237 376.173L612.708 376.364C612.41 376.471 612.113 376.562 611.807 376.645L611.261 376.785C610.93 376.868 610.591 376.934 610.252 376.992H610.186C610.406 380.992 610.605 384.989 610.781 388.983C611.744 387.004 613.102 385.243 614.771 383.807C616.441 382.371 618.386 381.292 620.487 380.635C622.589 379.978 624.803 379.757 626.993 379.986C629.183 380.215 631.304 380.889 633.224 381.967L630.371 389.802L636.25 384.157C639.402 387.037 641.282 391.05 641.476 395.314C641.549 396.811 641.41 398.311 641.063 399.768C640.331 402.931 638.662 405.8 636.275 408.001C633.888 410.203 630.893 411.634 627.68 412.11C624.467 412.585 621.186 412.082 618.263 410.667C615.34 409.251 612.911 406.988 611.294 404.173C611.294 404.578 611.294 405 611.294 405.388C611.401 409.587 611.534 414.81 609.442 419.438C607.945 422.445 605.93 425.164 603.488 427.471C602.016 428.967 600.494 430.413 598.94 431.818C597.402 433.874 595.398 435.537 593.094 436.669C590.53 438.642 587.879 440.49 585.139 442.215L583.708 443.256C582.17 444.215 580.591 445.19 579.044 446.207L579.871 446.14C583.298 445.98 586.687 446.913 589.548 448.804C592.41 450.696 594.595 453.447 595.789 456.661L585.685 464.926L596.806 462.347C596.796 465.074 596.097 467.755 594.773 470.14C593.45 472.525 591.545 474.537 589.235 475.99C586.926 477.442 584.286 478.288 581.562 478.449C578.838 478.61 576.118 478.08 573.653 476.909C573.909 477.215 574.157 477.529 574.405 477.843L575.877 479.678C582.493 488.008 584.287 495.909 581.029 501.934L577.068 499.793C580.235 493.926 575.472 486.421 572.346 482.438C571.875 481.835 571.387 481.231 570.899 480.628C566.699 475.413 561.936 469.496 562.051 462.24C562.134 451.297 572.76 444.719 581.294 439.438Z" fill="#F1F1F1"/>
<path d="M501.373 428.421L498.834 426.835C498.586 426.686 498.346 426.529 498.106 426.372C503.523 425.444 508.463 422.702 512.115 418.598C515.766 414.493 517.913 409.269 518.202 403.784C518.49 398.299 516.904 392.879 513.703 388.414C510.502 383.949 505.877 380.705 500.587 379.215L500.711 389.19L495.229 378.339H495.163C491.985 378.191 488.81 378.67 485.818 379.749C482.825 380.828 480.075 382.485 477.724 384.626C475.373 386.767 473.467 389.35 472.114 392.228C470.762 395.105 469.99 398.221 469.842 401.397C469.842 401.859 469.842 402.314 469.842 402.768C467.906 400.663 466.292 398.281 465.055 395.702C462.731 390.529 462.69 384.669 462.872 377.521C463.235 363.405 463.847 349.182 464.641 335.008C470.365 334.372 475.674 331.716 479.615 327.518C483.555 323.321 485.869 317.857 486.141 312.107C486.141 311.364 486.141 310.636 486.141 309.909V309.364C486.091 308.661 486.025 307.967 485.918 307.281C485.918 307.165 485.918 307.058 485.86 306.942C485.761 306.364 485.636 305.793 485.496 305.223C485.446 305.008 485.397 304.802 485.339 304.587C485.165 303.967 484.983 303.364 484.76 302.76C484.694 302.562 484.611 302.372 484.528 302.173C484.355 301.727 484.173 301.297 483.974 300.868C483.867 300.636 483.768 300.413 483.66 300.19C483.629 300.134 483.602 300.076 483.577 300.016C481.641 296.2 478.727 292.966 475.131 290.643C471.536 288.32 467.388 286.991 463.111 286.793C460.42 286.672 457.726 286.996 455.14 287.752L455.297 300.735L449.881 289.992C445.419 292.536 441.889 296.44 439.806 301.132C437.723 305.825 437.197 311.061 438.304 316.074C438.304 316.24 438.395 316.405 438.436 316.578C438.511 316.901 438.594 317.215 438.676 317.529C438.759 317.843 438.924 318.355 439.057 318.727C439.189 319.099 439.255 319.322 439.371 319.611C439.528 320.041 439.718 320.438 439.908 320.876C440.016 321.124 440.115 321.372 440.231 321.611C440.537 322.231 440.868 322.843 441.231 323.438C441.355 323.653 441.496 323.851 441.628 324.049C441.893 324.454 442.149 324.876 442.455 325.24C442.629 325.479 442.819 325.702 443.001 325.934C443.183 326.165 443.538 326.603 443.828 326.925L444.44 327.595C444.738 327.909 445.043 328.215 445.358 328.512L445.994 329.099C446.35 329.413 446.722 329.719 447.102 330.008C447.293 330.157 447.475 330.314 447.673 330.463C448.244 330.884 448.831 331.289 449.443 331.653C449.558 331.727 449.682 331.785 449.798 331.851C450.311 332.149 450.832 332.438 451.361 332.678L452.064 332.992C452.502 333.19 452.94 333.38 453.395 333.545C453.66 333.653 453.924 333.744 454.222 333.835C454.669 333.983 455.123 334.124 455.578 334.248L456.405 334.463C456.91 334.578 457.414 334.678 457.918 334.768H458.018C457.676 340.752 457.378 346.735 457.125 352.719C455.68 349.756 453.646 347.119 451.145 344.97C448.644 342.822 445.731 341.206 442.583 340.223C439.436 339.241 436.12 338.911 432.84 339.255C429.561 339.599 426.386 340.609 423.511 342.223L427.794 353.942L418.987 345.496C416.648 347.63 414.753 350.205 413.411 353.072C412.069 355.94 411.305 359.044 411.165 362.207C411.053 364.447 411.259 366.693 411.777 368.876C412.879 373.601 415.376 377.885 418.945 381.173C422.515 384.461 426.991 386.6 431.792 387.313C436.594 388.026 441.499 387.28 445.87 385.171C450.241 383.062 453.878 379.688 456.306 375.488C456.306 376.099 456.306 376.711 456.248 377.314C456.091 383.603 455.884 391.421 459.018 398.405C461.143 403.14 464.567 406.975 467.941 410.421C470.146 412.669 472.417 414.84 474.754 416.934C477.049 420.017 480.045 422.509 483.495 424.206C487.354 427.154 491.328 429.909 495.419 432.471L497.982 434.058C500.281 435.487 502.646 436.959 504.961 438.479C504.556 438.479 504.134 438.397 503.738 438.38C498.606 438.138 493.53 439.534 489.244 442.366C484.959 445.197 481.685 449.318 479.898 454.132L495.022 466.438L478.376 462.587C478.384 466.679 479.429 470.704 481.414 474.284C483.398 477.864 486.258 480.883 489.726 483.06C493.193 485.237 497.157 486.5 501.245 486.732C505.333 486.965 509.414 486.158 513.106 484.388C512.726 484.851 512.354 485.314 511.982 485.785C511.238 486.711 510.493 487.628 509.774 488.537C499.926 501.008 497.188 512.835 502.059 521.859L507.996 518.661C503.25 509.876 510.386 498.636 515.066 492.719C515.769 491.818 516.497 490.917 517.233 490.008C523.526 482.198 530.654 473.339 530.463 462.479C530.058 446.19 514.157 436.364 501.373 428.421Z" fill="#F1F1F1"/>
<path d="M378.7 553.355C378.7 553.355 350.081 545.785 344.69 546.339C339.298 546.893 352.868 520.438 361.906 523.661C370.944 526.884 383.009 535.38 389.897 523.388C396.785 511.397 400.647 504.942 409.056 505.587C417.466 506.231 429.076 500.422 437.469 505.587C445.862 510.752 451.75 517.107 463.343 516.835C474.936 516.562 485.909 490.744 494.948 501.066C503.986 511.388 514.793 520.851 523.278 517.413C531.762 513.975 541.47 519.141 549.201 524.95C556.933 530.76 570.511 528.182 575.662 523.661C580.814 519.141 584.709 515.917 595.69 516.562C606.671 517.207 641.542 524.95 654.459 534.636C667.375 544.322 637.664 556.579 623.458 556.579C609.251 556.579 606.663 560.455 594.392 566.264C582.12 572.074 562.101 563.033 547.895 572.719C533.688 582.405 515.604 567.554 491.061 572.719C466.518 577.884 471.687 584.984 457.472 579.818C443.257 574.653 448.434 572.719 427.769 571.43C407.105 570.141 384.497 574.653 382.554 566.264C380.611 557.876 367.669 555.934 359.954 553.355C352.239 550.777 378.7 553.355 378.7 553.355Z" fill="#3F3D56"/>
<path d="M615.726 464.116L604.646 498.058L604.166 499.537L585.618 556.364L553.865 577.81L399.671 513.008L414.282 453.95L415.06 450.843L422.882 419.231L422.899 419.157L470.364 413.223L615.726 464.116Z" fill="#F8CE6D"/>
<path opacity="0.1" d="M615.726 464.116L585.618 556.364L553.865 577.81L583.014 477.141L422.882 419.231L422.899 419.157L470.364 413.223L615.726 464.116Z" fill="black"/>
<path opacity="0.1" d="M457.48 425.562L454.925 424.008L480.542 421.322L590.29 460.099L587.197 461.719L478.93 423.562L457.48 425.562Z" fill="black"/>
<path opacity="0.1" d="M604.645 498.058L572.594 513.124L415.06 450.843L414.282 453.95L571.958 515.339L604.166 499.537" fill="black"/>
<path d="M434.086 441.529C434.989 438.621 433.176 435.474 430.036 434.5C426.895 433.525 423.617 435.092 422.714 437.999C421.811 440.907 423.624 444.054 426.765 445.028C429.905 446.003 433.183 444.436 434.086 441.529Z" fill="#3F3D56"/>
<path d="M572.933 495.259C573.837 492.352 572.023 489.205 568.883 488.23C565.743 487.256 562.465 488.823 561.561 491.73C560.658 494.638 562.471 497.785 565.612 498.759C568.752 499.734 572.03 498.167 572.933 495.259Z" fill="#3F3D56"/>
<path d="M550.991 561.99C551.894 559.083 550.081 555.936 546.941 554.961C543.8 553.987 540.522 555.554 539.619 558.461C538.716 561.369 540.529 564.516 543.669 565.49C546.81 566.465 550.088 564.898 550.991 561.99Z" fill="#3F3D56"/>
<path d="M417.099 506.001C418.002 503.094 416.189 499.947 413.048 498.972C409.908 497.997 406.63 499.564 405.727 502.472C404.824 505.379 406.637 508.526 409.777 509.501C412.918 510.475 416.196 508.908 417.099 506.001Z" fill="#3F3D56"/>
<path d="M441.661 422.628C441.33 423.702 438.676 422.628 435.302 421.57C431.929 420.512 429.299 419.355 429.63 418.264C429.96 417.173 433.136 416.611 436.51 417.661C439.883 418.711 442 421.554 441.661 422.628Z" fill="#3F3D56"/>
<path d="M458.648 418.756C458.981 417.684 456.769 416.044 453.707 415.094C450.646 414.144 447.893 414.243 447.56 415.315C447.227 416.388 449.439 418.027 452.501 418.977C455.563 419.927 458.315 419.828 458.648 418.756Z" fill="#3F3D56"/>
<path d="M513.073 448.76C512.742 449.835 509.427 448.843 506.21 447.843C502.993 446.843 500.488 445.727 500.818 444.653C501.149 443.579 504.2 443 507.434 443.967C510.667 444.934 513.421 447.67 513.073 448.76Z" fill="#3F3D56"/>
<path d="M581.674 473.38C581.302 474.587 577.779 473.537 574.364 472.479C570.949 471.422 568.295 470.207 568.667 469C569.039 467.793 572.305 467.058 575.72 468.116C579.135 469.174 582.054 472.174 581.674 473.38Z" fill="#3F3D56"/>
<path d="M601.735 470.488C601.355 471.694 597.84 470.645 594.425 469.587C591.01 468.529 588.347 467.314 588.728 466.107C589.108 464.901 592.366 464.165 595.781 465.223C599.196 466.281 602.107 469.281 601.735 470.488Z" fill="#3F3D56"/>
<path d="M611.625 464.595C611.244 465.802 608.317 464.942 605.522 464.066C602.727 463.19 600.561 462.132 600.9 460.926C601.239 459.719 604.059 458.826 606.878 459.702C609.698 460.578 611.997 463.388 611.625 464.595Z" fill="#3F3D56"/>
<path d="M545.381 440.446C545.083 441.405 542.073 440.521 539.212 439.62C536.351 438.719 534.06 437.711 534.366 436.752C534.672 435.793 537.401 435.24 540.295 436.132C543.189 437.025 545.67 439.479 545.381 440.446Z" fill="#3F3D56"/>
<path d="M481 417.79C481.333 416.718 479.461 415.184 476.818 414.364C474.175 413.543 471.762 413.748 471.429 414.82C471.096 415.892 472.968 417.427 475.611 418.247C478.254 419.067 480.667 418.863 481 417.79Z" fill="#3F3D56"/>
<path opacity="0.1" d="M510.94 481.198C511.293 480.063 511.247 478.842 510.811 477.736C510.375 476.63 509.575 475.706 508.542 475.116C509.034 474.557 509.403 473.901 509.625 473.19C509.894 472.328 509.933 471.41 509.741 470.527C509.548 469.645 509.13 468.827 508.527 468.154C507.924 467.481 507.156 466.977 506.299 466.689C505.443 466.401 504.526 466.34 503.638 466.512C503.987 465.313 503.894 464.028 503.376 462.891C502.858 461.754 501.95 460.841 500.815 460.316C499.681 459.791 498.396 459.69 497.194 460.031C495.991 460.372 494.951 461.132 494.261 462.174C493.589 461.688 492.811 461.369 491.99 461.243C491.17 461.118 490.332 461.189 489.545 461.451C488.758 461.714 488.044 462.16 487.464 462.753C486.884 463.345 486.453 464.067 486.207 464.86C486.207 464.975 486.149 465.083 486.125 465.19L485.943 465.281C485.362 464.759 484.672 464.373 483.922 464.152C483.173 463.931 482.384 463.881 481.613 464.006C480.841 464.13 480.108 464.426 479.466 464.871C478.824 465.316 478.29 465.899 477.904 466.578C477.517 467.256 477.288 468.013 477.232 468.791C477.177 469.57 477.297 470.351 477.583 471.078C477.87 471.804 478.316 472.457 478.888 472.989C479.46 473.52 480.144 473.916 480.89 474.149C481.16 474.234 481.436 474.295 481.717 474.331L481.783 476.248L506.806 486.471L506.64 484.818C507.627 484.685 508.555 484.274 509.317 483.633C510.078 482.992 510.641 482.148 510.94 481.198Z" fill="black"/>
<path opacity="0.1" d="M505.094 497.612C504.558 498.674 503.677 499.522 502.595 500.016C501.512 500.51 500.294 500.621 499.14 500.331C499.113 501.073 498.924 501.801 498.586 502.463C498.278 503.076 497.852 503.623 497.332 504.072C496.812 504.521 496.209 504.863 495.557 505.078C494.905 505.294 494.217 505.379 493.532 505.329C492.847 505.279 492.179 505.094 491.566 504.785C490.799 504.398 490.138 503.831 489.639 503.132C489.054 504.232 488.095 505.087 486.935 505.542C485.775 505.998 484.49 506.024 483.313 505.616C482.135 505.208 481.142 504.393 480.513 503.318C479.884 502.243 479.66 500.978 479.881 499.752C479.306 499.673 478.747 499.5 478.227 499.24C476.99 498.618 476.05 497.53 475.614 496.216C475.179 494.902 475.283 493.469 475.904 492.231L476.069 491.926L476.003 491.736C475.246 491.712 474.504 491.523 473.828 491.182C472.586 490.553 471.644 489.456 471.211 488.133C470.778 486.811 470.888 485.37 471.517 484.128C472.146 482.886 473.244 481.946 474.567 481.512C475.891 481.079 477.332 481.189 478.575 481.818C478.819 481.941 479.054 482.082 479.278 482.24L480.65 480.909L505.821 490.967L504.556 492.041C505.165 492.823 505.539 493.762 505.634 494.749C505.73 495.735 505.542 496.728 505.094 497.612Z" fill="black"/>
<path opacity="0.1" d="M489.73 469.95L483.652 489.636C483.204 491.08 483.325 492.64 483.99 493.997C484.656 495.354 485.816 496.404 487.233 496.934C487.986 497.214 488.788 497.337 489.591 497.297C490.394 497.256 491.18 497.053 491.901 496.699C492.622 496.344 493.264 495.847 493.786 495.236C494.309 494.626 494.701 493.916 494.94 493.149L501.017 473.454C501.25 472.691 501.325 471.887 501.238 471.094C501.151 470.3 500.903 469.532 500.51 468.837C500.118 468.141 499.588 467.533 498.953 467.048C498.318 466.563 497.591 466.212 496.817 466.016C495.356 465.644 493.809 465.844 492.491 466.576C491.173 467.307 490.186 468.515 489.73 469.95Z" fill="black"/>
<path d="M489.994 471.149L484.479 488.802C484.075 490.096 484.183 491.496 484.781 492.712C485.38 493.929 486.423 494.869 487.695 495.339C488.371 495.589 489.09 495.699 489.809 495.662C490.528 495.626 491.233 495.443 491.879 495.125C492.525 494.807 493.099 494.361 493.567 493.814C494.035 493.266 494.387 492.63 494.6 491.942L500.082 474.281C500.295 473.593 500.366 472.869 500.289 472.153C500.213 471.437 499.992 470.744 499.639 470.116C499.287 469.488 498.81 468.939 498.238 468.501C497.665 468.064 497.01 467.747 496.312 467.57C495.001 467.253 493.618 467.447 492.445 468.111C491.272 468.776 490.395 469.862 489.994 471.149Z" fill="#3F3D56"/>
<path d="M418.094 562.388C418.094 562.388 389.475 554.818 384.084 555.38C378.692 555.942 392.262 529.471 401.3 532.703C410.338 535.934 422.403 544.413 429.291 532.422C436.179 520.43 440.041 513.984 448.45 514.628C456.86 515.273 468.47 509.463 476.863 514.628C485.256 519.793 491.144 526.141 502.737 525.868C514.33 525.595 525.303 499.777 534.35 510.107C543.396 520.438 554.196 529.884 562.68 526.455C571.164 523.025 580.872 528.182 588.595 533.992C596.319 539.802 609.913 537.215 615.056 532.703C620.2 528.19 624.095 524.95 635.076 525.595C646.057 526.24 680.928 533.992 693.844 543.669C706.761 553.347 677.058 565.62 662.844 565.62C648.629 565.62 646.057 569.488 633.786 575.298C621.515 581.107 601.487 572.074 587.28 581.752C573.074 591.43 554.99 576.595 530.447 581.752C505.904 586.909 511.072 594.017 496.866 588.86C482.66 583.703 487.82 581.752 467.155 580.463C446.491 579.174 423.883 583.694 421.948 575.298C420.013 566.901 407.105 564.975 399.348 562.388C391.592 559.802 418.094 562.388 418.094 562.388Z" fill="#3F3D56"/>
<path d="M661.016 540.636C663.497 536.083 660.685 530.496 657.477 526.438C654.268 522.38 650.349 518.174 650.431 512.975C650.555 505.537 658.453 501.149 664.762 497.198C669.447 494.276 673.766 490.805 677.629 486.86C679.25 485.345 680.588 483.554 681.581 481.57C682.888 478.661 682.855 475.356 682.772 472.174C682.502 461.562 681.975 450.959 681.193 440.364" stroke="#3F3D56" stroke-width="4" stroke-miterlimit="10"/>
<path d="M693.191 439.785C693.103 437.842 692.527 435.953 691.515 434.292C690.503 432.631 689.089 431.251 687.403 430.281L684.806 435.422L684.889 429.198C683.647 428.834 682.353 428.678 681.06 428.736C678.776 428.849 676.577 429.636 674.74 430.997C672.903 432.358 671.51 434.232 670.738 436.383C669.965 438.534 669.847 440.866 670.399 443.084C670.951 445.302 672.148 447.307 673.839 448.846C675.529 450.385 677.638 451.389 679.899 451.731C682.16 452.074 684.472 451.739 686.543 450.77C688.614 449.801 690.352 448.24 691.536 446.285C692.721 444.33 693.3 442.069 693.199 439.785H693.191Z" fill="#57B793"/>
<path d="M672.494 518.289C671.276 520.647 669.285 522.516 666.854 523.581C664.422 524.646 661.698 524.844 659.138 524.141C656.578 523.437 654.337 521.876 652.792 519.718C651.247 517.561 650.49 514.938 650.65 512.289C650.809 509.64 651.875 507.127 653.668 505.17C655.461 503.213 657.873 501.932 660.499 501.54C663.125 501.149 665.805 501.672 668.091 503.021C670.378 504.37 672.131 506.463 673.056 508.95L665.804 514.876L673.784 513.033C673.776 514.862 673.334 516.664 672.494 518.289Z" fill="#57B793"/>
<path d="M666.763 495.769C663.88 495.969 661.027 495.085 658.763 493.29C656.5 491.496 654.99 488.92 654.53 486.069C654.069 483.218 654.693 480.298 656.277 477.883C657.861 475.467 660.292 473.732 663.091 473.017L663.034 477.793L665.655 472.595C667.18 472.517 668.705 472.742 670.142 473.255C671.58 473.769 672.902 474.562 674.031 475.588C675.161 476.614 676.077 477.854 676.725 479.235C677.374 480.616 677.743 482.112 677.81 483.636C677.878 484.975 677.71 486.315 677.314 487.595C676.615 489.879 675.225 491.892 673.336 493.355C671.447 494.818 669.151 495.662 666.763 495.769Z" fill="#57B793"/>
<path d="M694.936 477.033C693.155 477.099 691.382 476.752 689.757 476.02C688.131 475.289 686.697 474.192 685.565 472.815C684.434 471.438 683.636 469.819 683.233 468.083C682.831 466.348 682.834 464.543 683.245 462.809C683.655 461.075 684.46 459.459 685.597 458.087C686.735 456.716 688.174 455.625 689.803 454.9C691.431 454.176 693.205 453.837 694.986 453.91C696.767 453.983 698.508 454.467 700.071 455.322L698.02 460.942L702.238 456.893C704.498 458.961 705.845 461.841 705.984 464.901C706.039 465.975 705.941 467.052 705.694 468.099C705.121 470.557 703.76 472.761 701.818 474.374C699.875 475.986 697.459 476.92 694.936 477.033Z" fill="#57B793"/>
<path opacity="0.1" d="M691.628 442.876C688.949 443.165 686.344 444 683.657 444.165C680.969 444.331 678.017 443.694 676.322 441.603C675.404 440.479 674.941 439.058 674.172 437.827C673.438 436.683 672.432 435.737 671.245 435.074C670.545 436.537 670.16 438.131 670.116 439.752C670.071 441.373 670.369 442.985 670.988 444.484C671.607 445.983 672.535 447.335 673.711 448.452C674.887 449.57 676.284 450.428 677.813 450.971C679.342 451.513 680.968 451.729 682.586 451.603C684.204 451.477 685.777 451.013 687.203 450.24C688.63 449.468 689.878 448.404 690.867 447.118C691.856 445.833 692.563 444.354 692.943 442.777C692.507 442.793 692.069 442.827 691.628 442.876Z" fill="black"/>
<path opacity="0.1" d="M694.936 477.033C692.938 477.123 690.951 476.695 689.167 475.792C687.384 474.89 685.863 473.542 684.753 471.88C683.643 470.217 682.981 468.297 682.831 466.304C682.681 464.311 683.048 462.314 683.897 460.504C684.821 461.114 685.619 461.897 686.245 462.81C687.072 464.058 687.576 465.504 688.552 466.645C690.355 468.769 693.439 469.463 696.242 469.339C699.046 469.215 701.75 468.413 704.511 468.157C704.9 468.157 705.338 468.099 705.686 468.091C705.115 470.549 703.755 472.753 701.815 474.368C699.874 475.982 697.458 476.918 694.936 477.033Z" fill="black"/>
<path opacity="0.1" d="M666.763 495.769C664.781 495.866 662.808 495.453 661.032 494.569C659.256 493.684 657.738 492.359 656.622 490.719C655.506 489.08 654.831 487.181 654.66 485.206C654.49 483.23 654.831 481.244 655.649 479.438C656.614 480.064 657.455 480.863 658.13 481.793C659.031 483.066 659.594 484.537 660.611 485.711C662.57 487.884 665.862 488.653 668.83 488.587C671.799 488.521 674.47 487.818 677.323 487.595C676.623 489.881 675.232 491.894 673.341 493.357C671.45 494.821 669.152 495.663 666.763 495.769Z" fill="black"/>
<path opacity="0.1" d="M672.494 518.289C671.238 521.093 668.92 523.283 666.048 524.378C663.177 525.473 659.988 525.383 657.183 524.128C654.378 522.873 652.187 520.556 651.091 517.687C649.996 514.817 650.086 511.63 651.341 508.826C652.295 509.455 653.15 510.221 653.88 511.099C654.988 512.438 655.716 513.967 656.989 515.231C659.362 517.562 663.191 518.537 666.606 518.612C668.573 518.621 670.539 518.513 672.494 518.289Z" fill="black"/>
<path d="M643.51 535.388C643.51 535.388 652.672 535.107 655.434 533.141C658.196 531.174 669.492 528.835 670.211 531.984C670.931 535.132 683.971 547.686 673.635 547.736C663.298 547.785 649.605 546.132 646.851 544.43C644.097 542.727 643.51 535.388 643.51 535.388Z" fill="#656380"/>
<path opacity="0.2" d="M673.841 546.645C663.497 546.727 649.811 544.992 647.058 543.339C644.957 542.058 644.122 537.479 643.841 535.364H643.535C643.535 535.364 644.114 542.752 646.843 544.454C649.572 546.157 663.282 547.818 673.626 547.76C676.612 547.76 677.637 546.678 677.587 545.107C677.149 546.033 676.041 546.62 673.841 546.645Z" fill="black"/>
<path d="M169.682 148.083C169.623 147.481 169.711 146.874 169.938 146.314C170.608 145.124 172.361 145.446 173.684 145.785C179.009 147.124 184.616 145.909 190.09 146.223C195.564 146.537 201.741 149.273 202.841 154.645C206.819 151.828 210.246 148.307 212.954 144.256C214.476 141.983 215.799 139.38 215.592 136.653C215.294 132.719 211.995 129.777 208.935 127.281L199.839 119.843C198.643 118.742 197.26 117.863 195.754 117.248C193.654 116.529 191.355 116.868 189.139 116.868C182.524 116.868 175.437 113.86 169.533 116.868C167.052 118.132 165.217 120.298 163.43 122.413L155.294 132.041C154.679 132.654 154.232 133.413 153.995 134.248C153.764 135.421 154.368 136.579 154.574 137.76C154.963 139.909 154.029 142.198 154.748 144.264C155.93 147.694 160.09 148.182 162.637 150.141C163.588 150.876 165.076 153.355 166.201 153.331C168.218 153.306 169.624 149.661 169.682 148.083Z" fill="#3F3D56"/>
<path d="M171.021 171.074C170.93 173.752 169.368 176.132 167.863 178.355C165.853 181.314 163.728 184.388 160.553 186.041C176.511 194.463 195.101 196.422 212.466 191.512C215.253 190.686 218.544 188.967 218.379 186.066C215.071 185.165 211.648 184.231 208.836 182.24C205.479 179.859 203.263 176.157 201.832 172.322C200.402 168.488 199.674 164.388 198.673 160.397C198.608 159.987 198.43 159.604 198.161 159.289C197.705 158.963 197.146 158.816 196.59 158.876L185.575 158.678C181.052 158.678 176.14 158.57 171.939 160.488C166.713 162.884 171.17 166.628 171.021 171.074Z" fill="#FFC0C6"/>
<path opacity="0.1" d="M171.021 171.074C170.93 173.752 169.368 176.132 167.863 178.355C165.853 181.314 163.728 184.388 160.553 186.041C176.511 194.463 195.101 196.422 212.466 191.512C215.253 190.686 218.544 188.967 218.379 186.066C215.071 185.165 211.648 184.231 208.836 182.24C205.479 179.859 203.263 176.157 201.832 172.322C200.402 168.488 199.674 164.388 198.673 160.397C198.608 159.987 198.43 159.604 198.161 159.289C197.705 158.963 197.146 158.816 196.59 158.876L185.575 158.678C181.052 158.678 176.14 158.57 171.939 160.488C166.713 162.884 171.17 166.628 171.021 171.074Z" fill="black"/>
<path d="M161.438 548.132C158.726 552.264 155.178 555.76 152.201 559.702C149.224 563.645 146.735 568.24 146.702 573.174C146.663 573.487 146.693 573.805 146.792 574.105C146.891 574.406 147.055 574.68 147.273 574.909C147.611 575.128 148.003 575.25 148.406 575.264L159.9 576.736C161.647 577.039 163.428 577.101 165.192 576.917C167.091 576.542 168.921 575.876 170.617 574.942C171.912 574.434 173.04 573.576 173.875 572.463C174.429 571.554 174.577 570.438 175.107 569.512C176.703 566.711 180.721 566.835 183.913 567.322C184.831 558.802 182.474 550.306 180.134 542.058C180.033 541.552 179.815 541.076 179.498 540.669C179.08 540.268 178.564 539.983 178.001 539.843C175.247 538.942 168.591 535.413 166.275 537.066C164.58 538.289 162.81 545.942 161.438 548.132Z" fill="#575A88"/>
<path d="M216.857 564.934C219.065 563.901 221.422 562.57 223.804 563.116C227.161 563.868 228.657 567.835 231.51 569.727C233.263 570.909 235.43 571.256 237.522 571.529C243.965 572.362 250.458 572.745 256.954 572.678C259.03 572.678 261.643 572.182 262.147 570.198C262.652 568.215 260.742 566.636 259.046 565.603C255.367 563.347 251.531 561.356 247.569 559.644C245.621 558.926 243.78 557.947 242.095 556.735C239.258 554.446 237.878 550.859 236.612 547.446C235.595 544.702 234.661 538.777 232.577 536.702C230.295 534.463 227.227 535.95 224.366 536.578C219.917 537.554 214.707 538.231 211.846 542.223C207.662 548.066 204.445 570.678 216.857 564.934Z" fill="#575A88"/>
<path d="M151.11 301.207C147.311 310.549 145.222 320.498 144.941 330.578C144.742 338.107 145.553 345.611 146.371 353.099C147.678 365.22 148.99 377.342 150.308 389.463C150.728 394.503 151.522 399.506 152.681 404.43C154.111 409.926 156.435 415.173 158.097 420.578C163.24 437.421 161.777 455.587 158.378 472.868C157.926 474.763 157.687 476.704 157.667 478.653C157.766 481.57 158.891 484.347 159.619 487.173C164.067 504.405 153.83 523.537 160.512 540.066C160.681 540.656 161.053 541.168 161.562 541.512C161.897 541.638 162.255 541.695 162.613 541.679C162.971 541.664 163.322 541.576 163.646 541.421C165.549 540.759 167.376 539.895 169.095 538.843C172.695 543.196 177.345 546.561 182.607 548.62C186.526 547.653 187.262 542.892 188.544 539.066C189.521 536.348 190.317 533.567 190.925 530.744C191.492 527.279 191.783 523.775 191.794 520.264L195.184 400.967L194.936 437.372C194.818 440.32 195.003 443.272 195.49 446.182C195.986 448.603 196.896 450.926 197.417 453.347C198.153 456.81 198.062 460.397 198.029 463.942C197.822 484.969 199.748 505.964 203.776 526.603C205.099 533.364 206.686 540.19 210.068 546.182C210.18 546.457 210.347 546.706 210.559 546.913C210.771 547.121 211.023 547.283 211.301 547.388C212.02 547.545 212.681 546.975 213.227 546.471C216.494 543.585 220.576 541.782 224.911 541.311C229.246 540.841 233.62 541.725 237.431 543.843C236.703 540.339 240.044 536.264 237.654 533.603C236.968 532.835 235.942 532.463 235.173 531.793C233.652 530.496 233.288 528.314 233.073 526.322C232.135 517.457 232.135 508.518 233.073 499.653C234.239 488.57 236.86 477.397 234.925 466.43C233.52 458.471 229.732 450.727 230.485 442.719C230.981 437.347 233.478 432.397 235.198 427.281C242.707 404.917 235.198 379.992 240.631 357.033C241.88 351.76 243.765 346.058 241.499 341.14L244.948 340.091L237.787 323.752C236.265 320.273 234.677 316.694 231.998 314.016C227.5 309.545 220.777 308.347 214.501 307.405L163.447 299.446C158.924 298.711 152.821 297.008 151.11 301.207Z" fill="#3C354C"/>
<path d="M183.252 170.959C195.322 170.959 205.107 161.179 205.107 149.116C205.107 137.052 195.322 127.273 183.252 127.273C171.181 127.273 161.396 137.052 161.396 149.116C161.396 161.179 171.181 170.959 183.252 170.959Z" fill="#FFC0C6"/>
<path d="M171.336 175.124C170.276 174.497 169.024 174.277 167.813 174.504C167.218 174.716 166.66 175.02 166.159 175.405L155.823 182.645C154.341 183.564 153.02 184.72 151.912 186.066C150.142 188.471 149.861 191.669 150.093 194.645C150.605 201.355 153.318 207.686 154.789 214.248C156.261 220.81 156.261 228.298 152.028 233.554C151.299 234.308 150.691 235.169 150.225 236.107C149.973 236.909 149.858 237.747 149.886 238.587C149.733 241.728 149.799 244.876 150.084 248.008C150.547 252.05 151.738 255.975 152.383 259.983C153.516 266.81 153.21 273.81 154.087 280.645C154.048 281.102 154.104 281.562 154.253 281.996C154.401 282.43 154.639 282.829 154.95 283.166C155.261 283.503 155.639 283.772 156.06 283.956C156.481 284.139 156.935 284.233 157.394 284.231C162.505 284.979 167.668 285.319 172.833 285.248C178.811 285.248 184.781 284.917 190.752 284.603L217.924 283.174C218.311 283.223 218.704 283.188 219.076 283.07C219.448 282.952 219.79 282.754 220.077 282.49C220.365 282.227 220.591 281.903 220.74 281.543C220.89 281.183 220.959 280.795 220.942 280.405C223.324 268.983 225.722 257.355 224.597 245.752C223.87 238.256 221.687 230.992 219.636 223.752C217.982 217.884 216.394 211.727 217.635 205.752C218.462 201.81 220.471 198.165 220.992 194.182C221.293 192.109 221.113 189.994 220.464 188.002C219.816 186.01 218.718 184.194 217.254 182.694C214.211 179.777 209.771 178.669 206.736 175.744C205.903 174.798 204.996 173.919 204.024 173.116C203.528 172.721 202.931 172.472 202.301 172.399C201.671 172.326 201.033 172.431 200.46 172.702C199.9 173.099 199.437 173.616 199.104 174.215C196.457 178.231 192.488 184.851 186.907 183.81C180.87 182.727 176.653 177.686 171.336 175.124Z" fill="#3F3D56"/>
<path d="M225.945 322.793C224.01 324.24 222.571 326.81 223.464 329.05C226.093 329.518 228.803 329.142 231.204 327.975C232.751 327.223 234.677 326.165 236.017 327.256C236.451 327.673 236.787 328.181 237.001 328.744C238.45 331.814 240.207 334.73 242.244 337.446C243.716 336.752 245.262 335.992 246.147 334.628C246.681 333.699 247.026 332.674 247.164 331.612C247.683 328.952 248.066 326.268 248.313 323.57C248.487 321.612 248.52 319.438 247.18 317.983C241.433 311.785 230.716 319.231 225.945 322.793Z" fill="#FFC0C6"/>
<path d="M168.318 139.884C168.259 139.285 168.347 138.681 168.574 138.124C169.244 136.934 170.997 137.297 172.32 137.587C177.645 138.934 183.252 137.719 188.726 138.033C194.2 138.347 200.377 141.083 201.477 146.454C205.455 143.637 208.886 140.116 211.598 136.066C213.12 133.793 214.443 131.19 214.236 128.463C213.938 124.529 210.639 121.587 207.579 119.091L198.483 111.653C197.287 110.554 195.903 109.678 194.398 109.066C192.298 108.347 189.999 108.686 187.783 108.686C181.168 108.686 174.081 105.678 168.177 108.686C165.696 109.959 163.861 112.124 162.066 114.24L153.938 123.868C153.324 124.479 152.874 125.235 152.631 126.066C152.4 127.24 153.003 128.405 153.218 129.578C153.599 131.727 152.672 134.025 153.384 136.091C154.566 139.521 158.734 140 161.281 141.967C162.232 142.702 163.712 145.182 164.845 145.149C166.854 145.116 168.26 141.471 168.318 139.884Z" fill="#3F3D56"/>
<path d="M222.29 184.19C224.578 183.65 226.954 183.592 229.266 184.018C231.578 184.445 233.775 185.348 235.719 186.669C241.971 190.95 244.543 198.769 246.717 206.025L251.588 222.298C253.721 229.43 255.871 236.628 256.367 244.058C256.822 250.81 255.896 257.57 254.97 264.273C253.688 273.554 256.706 283.727 256.748 293.091C256.748 303.835 256.682 315.231 251.207 324.496C250.98 323.685 250.561 322.942 249.985 322.327C249.41 321.713 248.694 321.246 247.9 320.967C246.315 320.426 244.654 320.147 242.98 320.141L228.426 319.207C229.666 317.112 230.734 314.92 231.618 312.653C237.2 298.322 235.058 282.306 232.833 267.099C232.658 265.649 232.382 264.213 232.007 262.802C230.539 257.377 230.205 251.708 231.023 246.149C231.356 243.634 231.441 241.093 231.279 238.562C231.254 237.493 231.026 236.439 230.609 235.455C230.181 234.645 229.641 233.899 229.005 233.24L226.061 229.934C225.821 219.934 224.25 209.86 222.696 199.975C221.941 194.748 221.805 189.449 222.29 184.19Z" fill="#3F3D56"/>
<path d="M193.696 228.347C179.56 217.384 170.143 201.443 167.367 183.777C166.887 180.645 165.639 176.554 162.472 176.661C161.512 176.763 160.589 177.085 159.776 177.603L148.298 183.752C147.478 184.085 146.779 184.662 146.297 185.405C145.545 186.876 146.611 188.57 147.529 189.942C153.706 199.281 154.145 211.14 154.393 222.331C154.467 225.636 154.492 229.116 152.896 232.008C151.598 234.347 149.34 236.066 148.149 238.471C147.033 240.727 146.983 243.339 146.95 245.859C146.719 263.843 146.487 281.851 147.43 299.818C147.571 302.529 147.786 305.372 149.233 307.669C150.581 309.793 152.805 311.165 154.955 312.463L172.361 322.975C175.669 324.983 179.109 327.025 182.938 327.669C186.766 328.314 191.141 327.223 193.34 324.025C194.407 322.471 194.878 320.578 195.904 319C196.929 317.421 198.889 316.14 200.633 316.843C201.874 317.339 202.552 318.636 203.114 319.835C204.222 322.124 205.38 324.471 207.191 326.264C209.002 328.058 211.623 329.264 214.112 328.744C216.262 328.273 217.941 326.645 219.487 325.091C224.267 320.306 229.096 315.455 232.61 309.661C233.116 308.988 233.378 308.164 233.354 307.322C233.129 306.504 232.686 305.761 232.073 305.174C229.873 302.479 229.005 298.95 228.352 295.529C221.811 261.149 231.047 225.413 225.962 190.785C225.383 186.818 224.109 183.174 221.133 180.488C218.156 177.802 214.451 176.091 210.804 174.421C209.605 173.876 208.233 173.314 207.009 173.81C204.983 174.636 204.975 177.421 205.124 179.595C205.296 184.049 205.074 188.51 204.462 192.926L202.684 209.281C202.514 211.779 202.048 214.248 201.295 216.636C199.731 221.089 197.126 225.104 193.696 228.347Z" fill="#575A88"/>
<path d="M92.3083 98.405C92.3083 98.405 85.999 103.529 78.5485 90.0909C71.098 76.6529 35.1191 44.3554 35.1191 44.3554C35.1191 44.3554 30.4636 40.0992 48.1512 33.0083C65.8389 25.9174 89.9929 0 89.9929 0C89.9929 0 130.297 35.8099 134.241 53.5454C138.185 71.281 129.552 74.2893 114.734 83.7107C99.9159 93.1322 92.3083 98.405 92.3083 98.405Z" fill="#3F3D56"/>
<path d="M207.819 269.909L106.109 86.7107L114.742 83.7107L214.732 266.116C214.984 266.578 215.141 267.086 215.194 267.609C215.247 268.133 215.195 268.662 215.041 269.165C214.887 269.668 214.634 270.136 214.297 270.54C213.96 270.945 213.546 271.278 213.079 271.521C212.165 271.989 211.104 272.083 210.122 271.782C209.139 271.481 208.313 270.809 207.819 269.909Z" fill="#656380"/>
<path d="M166.052 223.141C168.714 217.446 165.986 210.876 164.166 204.86C162.717 200.078 161.853 195.138 161.595 190.149C161.421 188.579 161.596 186.99 162.107 185.496C162.378 184.755 162.855 184.107 163.482 183.628C164.109 183.149 164.86 182.859 165.647 182.793C168.021 186.344 168.969 190.658 168.301 194.876C169.842 194.479 171.405 194.173 172.981 193.959C175.026 193.684 177.101 194.14 178.842 195.245C180.584 196.35 181.878 198.034 182.499 200C185.12 208.397 186.013 217.355 182.358 225.207C181.193 227.53 179.841 229.755 178.315 231.86L170.343 243.496C169.798 244.322 169.128 245.149 168.169 245.289C167.209 245.43 166.209 244.562 165.506 243.76C163.083 241.025 158.783 237.041 159.255 233.273C159.726 229.504 164.464 226.488 166.052 223.141Z" fill="#FFC0C6"/>
<path d="M147.628 188.041C139.533 187.124 130.263 189.314 126.03 196.306C123.904 199.835 123.375 204.066 123.003 208.165C122.482 213.909 122.176 219.669 121.887 225.421L120.324 255.702C120.134 259.322 119.952 262.95 119.886 266.57C119.697 269.4 120.002 272.241 120.787 274.967C121.787 277.901 123.772 280.38 125.748 282.793C127.725 285.206 130.197 287.694 133.1 286.992C134.287 286.6 135.367 285.934 136.25 285.049L142.865 279.33C147.364 275.471 151.912 271.554 155.335 266.711C156.989 264.38 158.345 261.859 160.016 259.545C164.927 252.735 172.485 247.57 175.074 239.587C172.593 239.454 168.988 238.636 167.846 236.438C167.243 235.273 167.16 233.884 166.49 232.768C165.473 231.066 163.183 230.14 162.844 228.19C156.344 233.421 150.903 239.496 145.71 246.016L147.819 237.826C147.966 237.057 148.286 236.331 148.753 235.702C149.493 235.055 150.33 234.528 151.234 234.14C153.805 232.587 154.781 229.372 155.302 226.413C157.627 213.114 154.89 199.426 147.628 188.041Z" fill="#3F3D56"/>
</g>
<defs>
<clipPath id="clip0">
<rect width="706" height="600" fill="white"/>
</clipPath>
</defs>
</svg>
