<svg width="746" height="746" viewBox="0 0 746 746" fill="none" xmlns="http://www.w3.org/2000/svg">
<path d="M131.162 180.413C99.0986 205.016 127.268 267.62 131.43 307.814C136.98 361.303 62.1417 474.918 92.3697 519.38C131.505 576.971 273.215 518.246 342.757 521.797C406.182 525.035 539.701 606.841 584.73 562.081C639.337 507.713 533.345 384.861 532.763 307.814C532.39 258.758 569.884 172.042 532.51 140.233C467.608 85.0439 338.878 227.172 255.132 211.357C215.818 203.912 162.941 156.003 131.162 180.413Z" fill="#3F3D56"/>
<path opacity="0.9" d="M131.162 180.413C99.0986 205.016 127.268 267.62 131.43 307.814C136.98 361.303 62.1417 474.918 92.3697 519.38C131.505 576.971 273.215 518.246 342.757 521.797C406.182 525.035 539.701 606.841 584.73 562.081C639.337 507.713 533.345 384.861 532.763 307.814C532.39 258.758 569.884 172.042 532.51 140.233C467.608 85.0439 338.878 227.172 255.132 211.357C215.818 203.912 162.941 156.003 131.162 180.413Z" fill="white"/>
<path d="M365.809 632.175C525.576 632.175 655.093 624.614 655.093 615.286C655.093 605.958 525.576 598.396 365.809 598.396C206.042 598.396 76.5249 605.958 76.5249 615.286C76.5249 624.614 206.042 632.175 365.809 632.175Z" fill="#F5F5F5"/>
<path d="M557.023 236.974L538.373 266.814L501.312 286.36L486.481 290.985C485.403 291.317 484.482 292.027 483.885 292.984C483.885 292.984 475.724 304.144 475.172 308.456C475.038 309.575 478.887 307.77 479.648 306.964C481.259 305.323 484.78 300.384 484.78 300.384C484.78 300.384 492.24 303.846 494.807 303.622C497.656 303.383 502.834 300.31 504.922 298.355C506.521 296.552 508.015 294.659 509.398 292.686C509.398 292.686 542.715 283.614 551.174 276.274C557.888 270.47 568.825 245.434 568.825 245.434L557.023 236.974Z" fill="#CE7A63"/>
<path d="M576.046 210.372C576.046 210.372 564.707 212.774 549.265 239.66L569.616 251.089C569.616 251.089 587.564 214.475 576.046 210.372Z" fill="#263238"/>
<path d="M549.578 238.451L569.794 250.104C570.239 250.356 570.571 250.767 570.723 251.255C570.875 251.742 570.837 252.27 570.615 252.73L569.809 254.401C569.688 254.648 569.518 254.867 569.309 255.046C569.101 255.225 568.858 255.36 568.596 255.442C568.333 255.525 568.057 255.553 567.783 255.525C567.51 255.497 567.245 255.414 567.004 255.281L546.504 243.882C546.271 243.753 546.065 243.579 545.9 243.37C545.734 243.161 545.612 242.921 545.539 242.664C545.467 242.408 545.447 242.139 545.479 241.874C545.512 241.609 545.596 241.354 545.729 241.122L546.803 239.212C546.934 238.98 547.111 238.775 547.322 238.611C547.533 238.447 547.774 238.326 548.032 238.255C548.29 238.184 548.559 238.165 548.825 238.199C549.09 238.233 549.346 238.318 549.578 238.451Z" fill="#263238"/>
<path opacity="0.8" d="M549.578 238.451L569.794 250.104C570.239 250.356 570.571 250.767 570.723 251.255C570.875 251.742 570.837 252.27 570.615 252.73L569.809 254.401C569.688 254.648 569.518 254.867 569.309 255.046C569.101 255.225 568.858 255.36 568.596 255.442C568.333 255.525 568.057 255.553 567.783 255.525C567.51 255.497 567.245 255.414 567.004 255.281L546.504 243.882C546.271 243.753 546.065 243.579 545.9 243.37C545.734 243.161 545.612 242.921 545.539 242.664C545.467 242.408 545.447 242.139 545.479 241.874C545.512 241.609 545.596 241.354 545.729 241.122L546.803 239.212C546.934 238.98 547.111 238.775 547.322 238.611C547.533 238.447 547.774 238.326 548.032 238.255C548.29 238.184 548.559 238.165 548.825 238.199C549.09 238.233 549.346 238.318 549.578 238.451Z" fill="black"/>
<path opacity="0.2" d="M569.616 251.044C569.616 251.044 572.794 244.554 575.584 236.736L574.867 233.528L566.154 222.308C561.897 228.86 558.237 235.781 555.218 242.987L569.616 251.044Z" fill="black"/>
<path d="M657.972 568.303C658.942 581.104 659.464 589.474 659.464 589.474L645.29 591.578C645.29 591.578 643.634 582.969 641.142 569.75L657.972 568.303Z" fill="#CE7A63"/>
<path d="M638.576 587.848C636.8 587.848 634.965 587.639 634.353 586.893C634.193 586.677 634.107 586.416 634.107 586.147C634.107 585.878 634.193 585.617 634.353 585.401C634.463 585.201 634.612 585.026 634.792 584.885C634.971 584.744 635.177 584.64 635.398 584.581C637.755 583.835 642.858 586.505 643.037 586.625C643.098 586.657 643.147 586.707 643.179 586.768C643.211 586.83 643.224 586.899 643.216 586.968C643.202 587.037 643.17 587.102 643.123 587.154C643.076 587.207 643.015 587.246 642.947 587.266C641.509 587.581 640.046 587.775 638.576 587.848ZM636.218 585.147C636 585.152 635.784 585.187 635.577 585.252C635.438 585.281 635.307 585.34 635.194 585.425C635.08 585.51 634.987 585.619 634.92 585.744C634.696 586.177 634.786 586.371 634.92 586.49C635.606 587.385 639.202 587.296 641.843 586.878C640.085 585.945 638.166 585.352 636.188 585.133L636.218 585.147Z" fill="#3F3D56"/>
<path d="M642.843 587.266H642.694C640.963 586.565 637.442 583.596 637.68 581.984C637.68 581.596 637.979 581.119 638.904 580.985C639.241 580.937 639.584 580.959 639.913 581.049C640.241 581.139 640.548 581.295 640.814 581.507C642.679 582.924 643.186 586.759 643.216 586.938C643.218 586.998 643.206 587.058 643.18 587.113C643.154 587.167 643.115 587.215 643.067 587.251C642.997 587.285 642.916 587.29 642.843 587.266ZM639.158 581.626H638.964C638.352 581.701 638.322 581.94 638.307 582.029C638.307 582.999 640.575 585.341 642.38 586.326C642.155 584.714 641.442 583.209 640.336 582.014C640.005 581.744 639.584 581.61 639.158 581.641V581.626Z" fill="#3F3D56"/>
<path d="M644.275 585.237L659.837 584.7C660.121 584.694 660.399 584.783 660.626 584.953C660.853 585.124 661.016 585.366 661.09 585.64L664.328 598.203C664.397 598.468 664.414 598.745 664.377 599.017C664.339 599.289 664.249 599.551 664.11 599.788C663.972 600.024 663.788 600.232 663.569 600.398C663.35 600.563 663.101 600.685 662.836 600.754C662.692 600.768 662.547 600.768 662.403 600.754C656.793 600.843 651.795 600.754 644.812 600.963C636.576 601.231 638.695 602.156 629.012 602.619C623.178 602.888 621.895 596.293 624.357 595.89C635.636 594.085 636.696 590.623 640.918 586.416C641.855 585.626 643.05 585.206 644.275 585.237Z" fill="#263238"/>
<path opacity="0.2" d="M657.972 568.303L641.202 569.795C641.56 571.764 641.918 573.599 642.246 575.345L658.404 574.226C658.225 572.346 658.076 570.392 657.972 568.303Z" fill="black"/>
<path d="M586.535 565.856C585.237 578.627 584.341 586.983 584.341 586.983L570.018 586.565C570.018 586.565 569.899 577.777 569.765 564.334L586.535 565.856Z" fill="#CE7A63"/>
<path d="M563.558 584.058C561.783 584.058 559.933 583.835 559.336 583.089C559.174 582.874 559.086 582.612 559.086 582.343C559.086 582.073 559.174 581.811 559.336 581.597C559.444 581.398 559.591 581.224 559.768 581.083C559.945 580.942 560.148 580.837 560.365 580.776C562.738 580.045 567.825 582.745 568.004 582.865C568.066 582.9 568.117 582.953 568.149 583.016C568.18 583.08 568.193 583.152 568.183 583.223C568.169 583.29 568.137 583.352 568.089 583.402C568.042 583.453 567.981 583.488 567.915 583.506C566.482 583.818 565.024 584.002 563.558 584.058ZM561.201 581.343C560.984 581.356 560.769 581.391 560.559 581.447C560.423 581.478 560.295 581.538 560.185 581.623C560.074 581.708 559.983 581.816 559.918 581.94C559.679 582.372 559.769 582.566 559.918 582.686C560.604 583.596 564.2 583.506 566.841 583.118C565.091 582.174 563.177 581.571 561.201 581.343Z" fill="#3F3D56"/>
<path d="M567.84 583.536C567.797 583.551 567.749 583.551 567.706 583.536C565.975 582.835 562.469 579.836 562.723 578.225C562.723 577.837 563.036 577.359 563.961 577.24C564.296 577.194 564.636 577.217 564.962 577.306C565.288 577.396 565.592 577.551 565.856 577.762C567.706 579.254 568.198 583.029 568.228 583.208C568.233 583.269 568.222 583.33 568.196 583.385C568.17 583.44 568.129 583.487 568.079 583.521C568.004 583.556 567.919 583.562 567.84 583.536ZM564.2 577.852H563.976C563.364 577.852 563.334 578.165 563.319 578.24C563.319 579.209 565.572 581.567 567.363 582.566C567.155 580.955 566.451 579.448 565.348 578.255C565.017 577.982 564.598 577.839 564.17 577.852H564.2Z" fill="#3F3D56"/>
<path d="M569.302 581.492L584.849 581.059C585.134 581.048 585.415 581.135 585.643 581.306C585.872 581.477 586.034 581.722 586.102 581.999L589.265 594.577C589.335 594.842 589.352 595.119 589.315 595.391C589.277 595.663 589.187 595.925 589.048 596.162C588.91 596.399 588.726 596.606 588.507 596.772C588.288 596.938 588.039 597.059 587.773 597.128C587.63 597.144 587.485 597.144 587.341 597.128C581.731 597.128 576.733 597.024 569.75 597.233C561.514 597.456 563.633 598.381 553.95 598.799C548.116 599.038 546.863 592.428 549.325 592.04C560.619 590.295 561.693 586.833 565.945 582.656C566.89 581.879 568.08 581.467 569.302 581.492Z" fill="#263238"/>
<path opacity="0.2" d="M569.839 570.735L585.968 571.421C586.147 569.676 586.341 567.825 586.535 565.856L569.765 564.364C569.794 566.617 569.809 568.736 569.839 570.735Z" fill="black"/>
<path d="M561.752 331.552L562.737 429.025L568.272 561.395L589.683 563.722C594.464 538.759 597.084 513.431 597.516 488.018C597.769 472.173 594.069 456.328 594.084 441.766C594.084 431.024 597.829 423.057 601.544 399.483C605.125 377.103 608.736 350.381 609.213 331.06L561.752 331.552Z" fill="#3F3D56"/>
<path opacity="0.2" d="M604.26 382.236L600.932 369.375L593.159 367.778C593.159 367.778 591.503 406.003 595.263 431.188C596.65 423.922 599.142 415.149 601.649 399.483C602.484 393.888 603.379 388.129 604.26 382.236Z" fill="black"/>
<path d="M586.52 331.552L606.124 439.305L639.426 569.601L659.016 568.109C658.212 541.804 655.625 515.584 651.272 489.63C648.065 471.323 640.828 453.568 637.173 437.32C634.696 426.279 636.188 417.268 635.189 392.128C634.413 372.642 636.263 350.128 629.623 331.522L586.52 331.552Z" fill="#3F3D56"/>
<path d="M560.768 249.492C563.259 222.636 568.228 206.224 591.607 207.224C614.987 208.224 637.859 205.732 633.876 237.556C629.892 269.381 632.384 332.895 632.384 332.895H560.275C560.275 332.895 560.902 310.038 561.021 284.912C561.081 271.768 559.917 258.728 560.768 249.492Z" fill="#263238"/>
<path d="M584.177 207.567C590.712 206.388 592.935 203.852 592.324 198.302C592.19 196.916 591.965 195.54 591.652 194.184L601.813 185.694L609.273 179.517C607.259 188.544 606.214 207.448 611.615 208.761C609.079 210.984 606.677 214.952 603.23 216.653C600.157 218.145 595.77 218.459 591.667 218.459C588.937 218.086 585.938 217.414 584.834 215.907C582.372 212.565 584.177 207.567 584.177 207.567Z" fill="#CE7A63"/>
<path opacity="0.2" d="M591.652 194.184C591.965 195.54 592.19 196.916 592.324 198.302C596.143 197.556 601.873 194.154 602.395 189.857C602.365 188.451 602.17 187.054 601.813 185.694L591.652 194.184Z" fill="black"/>
<path d="M608.497 161.255C609.989 173.445 611.585 180.487 606.647 187.962C599.321 199.197 583.566 196.914 578.478 185.441C573.838 175.206 572.211 156.973 582.954 149.633C585.267 147.998 587.968 146.997 590.789 146.73C593.609 146.462 596.45 146.937 599.029 148.108C601.609 149.279 603.837 151.104 605.493 153.403C607.149 155.701 608.174 158.393 608.467 161.211L608.497 161.255Z" fill="#CE7A63"/>
<path d="M606.691 173.415C606.691 173.415 603.588 173.415 602.961 167.94C602.569 164.605 601.6 161.364 600.097 158.361C600.097 158.361 592.89 158.361 590.279 154.765C590.279 154.765 572.584 164.374 566.9 157.496C561.558 151.035 574.211 150.289 574.211 150.289C574.211 150.289 568.153 143.441 571.749 140.218C575.345 136.995 584.431 142.322 584.431 142.322C584.431 142.322 582.506 135.489 589.683 136.235C596.859 136.981 598.739 141.949 598.739 141.949C598.739 141.949 608.437 138.1 612.54 143.202C615.196 146.5 611.123 150.036 611.123 150.036C611.123 150.036 616.509 150.2 617.881 154.765C619 158.495 615.196 161.151 614.032 161.972C610.63 164.329 610.004 176.519 610.004 176.519L606.691 173.415Z" fill="#263238"/>
<path d="M573.927 153.766C573.927 153.766 565.437 157.809 567.123 163.389C568.809 168.969 574.464 167.865 576.314 166.373C578.582 164.463 582.163 156.063 582.163 156.063L573.927 153.766Z" fill="#263238"/>
<path d="M615.226 171.58C614.56 174.546 612.876 177.186 610.466 179.04C607.378 181.323 605.035 178.563 605.2 174.683C605.364 171.192 607.154 165.731 610.571 165.09C613.987 164.448 616.061 167.79 615.226 171.58Z" fill="#CE7A63"/>
<path d="M586.788 206.672C586.833 206.666 586.878 206.672 586.919 206.69C586.96 206.709 586.995 206.738 587.02 206.776C587.045 206.813 587.059 206.857 587.06 206.902C587.061 206.947 587.05 206.991 587.027 207.03C585.759 209.074 580.969 217.817 592.159 217.981C604.095 218.16 610.063 208.746 610.78 207.537C610.803 207.5 610.836 207.47 610.876 207.451C610.916 207.433 610.96 207.426 611.003 207.433L614.211 207.746C614.278 207.755 614.343 207.778 614.401 207.812C614.459 207.846 614.51 207.892 614.55 207.946C614.59 208 614.619 208.062 614.635 208.128C614.652 208.193 614.654 208.261 614.644 208.328C612.972 215.825 608.458 222.382 602.051 226.62C601.256 224.511 599.871 222.676 598.061 221.332C596.252 219.988 594.095 219.193 591.846 219.041C584.013 218.533 577.806 224.874 577.806 224.874C577.806 224.874 575.345 214.296 583.207 207.269C583.285 207.195 583.385 207.148 583.491 207.134L586.788 206.672Z" fill="#263238"/>
<path opacity="0.8" d="M586.788 206.672C586.833 206.666 586.878 206.672 586.919 206.69C586.96 206.709 586.995 206.738 587.02 206.776C587.045 206.813 587.059 206.857 587.06 206.902C587.061 206.947 587.05 206.991 587.027 207.03C585.759 209.074 580.969 217.817 592.159 217.981C604.095 218.16 610.063 208.746 610.78 207.537C610.803 207.5 610.836 207.47 610.876 207.451C610.916 207.433 610.96 207.426 611.003 207.433L614.211 207.746C614.278 207.755 614.343 207.778 614.401 207.812C614.459 207.846 614.51 207.892 614.55 207.946C614.59 208 614.619 208.062 614.635 208.128C614.652 208.193 614.654 208.261 614.644 208.328C612.972 215.825 608.458 222.382 602.051 226.62C601.256 224.511 599.871 222.676 598.061 221.332C596.252 219.988 594.095 219.193 591.846 219.041C584.013 218.533 577.806 224.874 577.806 224.874C577.806 224.874 575.345 214.296 583.207 207.269C583.285 207.195 583.385 207.148 583.491 207.134L586.788 206.672Z" fill="black"/>
<path opacity="0.2" d="M619.18 225.292C619.18 225.292 618.389 258.772 631.772 271.29C632.056 258.817 632.667 246.792 633.816 237.616C634.138 235.143 634.282 232.65 634.249 230.156L627.818 225.292H619.18Z" fill="black"/>
<path d="M626.49 252.148C626.49 252.148 608.243 212.013 621.626 211.043C635.01 210.074 648.109 237.661 648.109 237.661L626.49 252.148Z" fill="#263238"/>
<path d="M629.773 248.567C629.773 248.567 638.546 271.499 640.217 285.39C638.83 300.276 636.336 315.038 632.757 329.553C632.757 329.553 626.789 336.118 625.58 341.25C624.372 346.383 622.596 348.322 628.564 350.516C634.532 352.709 639.008 350.754 641.246 347.83C643.484 344.906 642.47 330.269 642.47 330.269C642.47 330.269 654.167 295.148 654.898 282.719C655.629 270.291 642.962 239.302 642.962 239.302L629.773 248.567Z" fill="#CE7A63"/>
<path d="M624.252 249.88L625.491 253.058C625.573 253.26 625.698 253.442 625.858 253.591C626.018 253.739 626.208 253.851 626.416 253.918C626.624 253.984 626.844 254.005 627.06 253.978C627.277 253.95 627.484 253.876 627.669 253.759L649.542 239.153C649.847 238.938 650.061 238.617 650.141 238.252C650.221 237.888 650.162 237.506 649.974 237.183L648.214 234.199C648.109 234.032 647.972 233.887 647.81 233.772C647.649 233.658 647.467 233.577 647.274 233.534C647.081 233.491 646.881 233.487 646.686 233.522C646.492 233.557 646.306 233.63 646.14 233.737L624.804 248.09C624.522 248.28 624.313 248.562 624.212 248.888C624.112 249.213 624.126 249.564 624.252 249.88Z" fill="#263238"/>
<path opacity="0.8" d="M624.252 249.88L625.491 253.058C625.573 253.26 625.698 253.442 625.858 253.591C626.018 253.739 626.208 253.851 626.416 253.918C626.624 253.984 626.844 254.005 627.06 253.978C627.277 253.95 627.484 253.876 627.669 253.759L649.542 239.153C649.847 238.938 650.061 238.617 650.141 238.252C650.221 237.888 650.162 237.506 649.974 237.183L648.214 234.199C648.109 234.032 647.972 233.887 647.81 233.772C647.649 233.658 647.467 233.577 647.274 233.534C647.081 233.491 646.881 233.487 646.686 233.522C646.492 233.557 646.306 233.63 646.14 233.737L624.804 248.09C624.522 248.28 624.313 248.562 624.212 248.888C624.112 249.213 624.126 249.564 624.252 249.88Z" fill="black"/>
<path d="M663.015 568.318L637.248 570.884L635.069 562.38L663.477 559.545L663.015 568.318Z" fill="#3F3D56"/>
<path opacity="0.3" d="M663.015 568.318L637.248 570.884L635.069 562.38L663.477 559.545L663.015 568.318Z" fill="black"/>
<path d="M591.712 566.617L566.303 565.528L565.109 556.859L593.651 558.083L591.712 566.617Z" fill="#3F3D56"/>
<path opacity="0.3" d="M591.712 566.617L566.303 565.528L565.109 556.859L593.651 558.083L591.712 566.617Z" fill="black"/>
<path d="M563.857 420.505H318.632V606.96H563.857V420.505Z" fill="#3F3D56"/>
<path opacity="0.8" d="M563.857 420.505H318.632V606.96H563.857V420.505Z" fill="white"/>
<path d="M334.611 420.505H234.095V606.96H334.611V420.505Z" fill="#3F3D56"/>
<path opacity="0.7" d="M334.611 420.505H234.095V606.96H334.611V420.505Z" fill="white"/>
<path d="M545.177 442.855H353.947V487.078H545.177V442.855Z" fill="#3F3D56"/>
<path opacity="0.7" d="M545.177 442.855H353.947V487.078H545.177V442.855Z" fill="white"/>
<path d="M545.177 493.285H353.947V537.508H545.177V493.285Z" fill="#3F3D56"/>
<path opacity="0.7" d="M545.177 493.285H353.947V537.508H545.177V493.285Z" fill="white"/>
<path d="M545.177 543.7H353.947V587.922H545.177V543.7Z" fill="#3F3D56"/>
<path opacity="0.7" d="M545.177 543.7H353.947V587.922H545.177V543.7Z" fill="white"/>
<path d="M461.416 453.15H437.693C435.943 453.148 434.237 452.6 432.812 451.584C431.387 450.568 430.314 449.134 429.741 447.481L428.129 442.855H470.98L469.368 447.481C468.797 449.135 467.724 450.571 466.299 451.587C464.873 452.603 463.166 453.15 461.416 453.15Z" fill="#3F3D56"/>
<path opacity="0.5" d="M461.416 453.15H437.693C435.943 453.148 434.237 452.6 432.812 451.584C431.387 450.568 430.314 449.134 429.741 447.481L428.129 442.855H470.98L469.368 447.481C468.797 449.135 467.724 450.571 466.299 451.587C464.873 452.603 463.166 453.15 461.416 453.15Z" fill="white"/>
<path d="M462.117 442.855L460.506 447.481C459.933 449.134 458.86 450.568 457.435 451.584C456.01 452.6 454.304 453.148 452.554 453.15H461.416C463.167 453.15 464.874 452.603 466.299 451.587C467.724 450.571 468.797 449.135 469.369 447.481L470.98 442.855H462.117Z" fill="#3F3D56"/>
<path opacity="0.6" d="M462.117 442.855L460.506 447.481C459.933 449.134 458.86 450.568 457.435 451.584C456.01 452.6 454.304 453.148 452.554 453.15H461.416C463.167 453.15 464.874 452.603 466.299 451.587C467.724 450.571 468.797 449.135 469.369 447.481L470.98 442.855H462.117Z" fill="white"/>
<path d="M461.416 503.58H437.693C435.943 503.577 434.237 503.03 432.812 502.014C431.387 500.998 430.314 499.564 429.741 497.91L428.129 493.285H470.98L469.368 497.91C468.797 499.565 467.724 501 466.299 502.017C464.873 503.033 463.166 503.579 461.416 503.58Z" fill="#3F3D56"/>
<path opacity="0.5" d="M461.416 503.58H437.693C435.943 503.577 434.237 503.03 432.812 502.014C431.387 500.998 430.314 499.564 429.741 497.91L428.129 493.285H470.98L469.368 497.91C468.797 499.565 467.724 501 466.299 502.017C464.873 503.033 463.166 503.579 461.416 503.58Z" fill="white"/>
<path d="M462.117 493.285L460.506 497.91C459.933 499.564 458.86 500.998 457.435 502.014C456.01 503.03 454.304 503.577 452.554 503.58H461.416C463.167 503.579 464.874 503.033 466.299 502.017C467.724 501 468.797 499.565 469.369 497.91L470.98 493.285H462.117Z" fill="#3F3D56"/>
<path opacity="0.6" d="M462.117 493.285L460.506 497.91C459.933 499.564 458.86 500.998 457.435 502.014C456.01 503.03 454.304 503.577 452.554 503.58H461.416C463.167 503.579 464.874 503.033 466.299 502.017C467.724 501 468.797 499.565 469.369 497.91L470.98 493.285H462.117Z" fill="white"/>
<path d="M461.416 554.009H437.693C435.943 554.007 434.237 553.459 432.812 552.444C431.387 551.428 430.314 549.993 429.741 548.34L428.204 543.7H471.054L469.443 548.34C468.868 550.007 467.783 551.451 466.343 552.468C464.903 553.485 463.179 554.025 461.416 554.009Z" fill="#3F3D56"/>
<path opacity="0.5" d="M461.416 554.009H437.693C435.943 554.007 434.237 553.459 432.812 552.444C431.387 551.428 430.314 549.993 429.741 548.34L428.204 543.7H471.054L469.443 548.34C468.868 550.007 467.783 551.451 466.343 552.468C464.903 553.485 463.179 554.025 461.416 554.009Z" fill="white"/>
<path d="M462.117 543.7L460.506 548.34C459.933 549.993 458.86 551.428 457.435 552.444C456.01 553.459 454.304 554.007 452.554 554.009H461.416C463.167 554.009 464.874 553.463 466.299 552.446C467.724 551.43 468.797 549.995 469.369 548.34L470.98 543.7H462.117Z" fill="#3F3D56"/>
<path opacity="0.6" d="M462.117 543.7L460.506 548.34C459.933 549.993 458.86 551.428 457.435 552.444C456.01 553.459 454.304 554.007 452.554 554.009H461.416C463.167 554.009 464.874 553.463 466.299 552.446C467.724 551.43 468.797 549.995 469.369 548.34L470.98 543.7H462.117Z" fill="white"/>
<path d="M569.452 420.505H339.176V430.591H569.452V420.505Z" fill="#3F3D56"/>
<path opacity="0.9" d="M569.452 420.505H339.176V430.591H569.452V420.505Z" fill="white"/>
<path d="M342.757 420.505H228.5V430.591H342.757V420.505Z" fill="#3F3D56"/>
<path opacity="0.8" d="M342.757 420.505H228.5V430.591H342.757V420.505Z" fill="white"/>
<path opacity="0.1" d="M436.917 420.251H533.569V457.298C533.569 458.591 533.315 459.871 532.82 461.066C532.325 462.261 531.599 463.346 530.685 464.261C529.771 465.175 528.685 465.901 527.49 466.395C526.296 466.89 525.015 467.145 523.722 467.145H451.151C449.282 467.145 447.431 466.777 445.704 466.062C443.977 465.346 442.408 464.298 441.086 462.976C439.765 461.654 438.716 460.085 438.001 458.358C437.286 456.631 436.917 454.781 436.917 452.911V420.251Z" fill="black"/>
<path d="M443.825 325.927H445.108C445.459 325.939 445.808 325.871 446.129 325.729C446.45 325.586 446.734 325.372 446.959 325.103C447.185 324.834 447.347 324.517 447.432 324.177C447.517 323.836 447.523 323.481 447.451 323.137L436.276 252.581C436.139 251.814 435.742 251.119 435.153 250.61C434.563 250.102 433.816 249.813 433.038 249.791H260.279L272.335 325.882L443.825 325.927Z" fill="#263238"/>
<path opacity="0.5" d="M443.825 325.927H445.108C445.459 325.939 445.808 325.871 446.129 325.729C446.45 325.586 446.734 325.372 446.959 325.103C447.185 324.834 447.347 324.517 447.432 324.177C447.517 323.836 447.523 323.481 447.451 323.137L436.276 252.581C436.139 251.814 435.742 251.119 435.153 250.61C434.563 250.102 433.816 249.813 433.038 249.791H260.279L272.335 325.882L443.825 325.927Z" fill="white"/>
<path d="M273.037 325.927C272.08 325.898 271.162 325.541 270.437 324.917C269.712 324.292 269.223 323.437 269.053 322.496L258.087 253.222C257.998 252.8 258.007 252.363 258.112 251.945C258.217 251.526 258.416 251.137 258.693 250.807C258.97 250.477 259.319 250.213 259.713 250.037C260.107 249.861 260.535 249.777 260.966 249.79C261.922 249.822 262.838 250.18 263.563 250.804C264.287 251.428 264.777 252.282 264.95 253.222L275.916 322.496C276.001 322.918 275.991 323.353 275.884 323.77C275.778 324.187 275.579 324.575 275.303 324.905C275.026 325.235 274.679 325.498 274.286 325.675C273.894 325.852 273.467 325.938 273.037 325.927Z" fill="#263238"/>
<path opacity="0.2" d="M273.037 325.927C272.08 325.898 271.162 325.541 270.437 324.917C269.712 324.292 269.223 323.437 269.053 322.496L258.087 253.222C257.998 252.8 258.007 252.363 258.112 251.945C258.217 251.526 258.416 251.137 258.693 250.807C258.97 250.477 259.319 250.213 259.713 250.037C260.107 249.861 260.535 249.777 260.966 249.79C261.922 249.822 262.838 250.18 263.563 250.804C264.287 251.428 264.777 252.282 264.95 253.222L275.916 322.496C276.001 322.918 275.991 323.353 275.884 323.77C275.778 324.187 275.579 324.575 275.303 324.905C275.026 325.235 274.679 325.498 274.286 325.675C273.894 325.852 273.467 325.938 273.037 325.927Z" fill="white"/>
<path d="M511.86 420.386H289.866L302.548 308.158H509.339C511.245 308.167 513.128 308.577 514.865 309.361C516.602 310.146 518.154 311.288 519.421 312.712C520.687 314.136 521.64 315.811 522.217 317.628C522.793 319.445 522.981 321.363 522.767 323.257L511.86 420.386Z" fill="#3F3D56"/>
<path opacity="0.2" d="M509.339 308.158H306.159V320.78H522.872C522.63 317.355 521.1 314.148 518.589 311.806C516.078 309.464 512.773 308.161 509.339 308.158Z" fill="white"/>
<path d="M313.917 420.386H253.133V319.527C253.133 316.512 254.331 313.62 256.463 311.488C258.595 309.356 261.487 308.158 264.502 308.158H311.395C313.301 308.167 315.184 308.577 316.921 309.361C318.658 310.146 320.211 311.288 321.477 312.712C322.744 314.136 323.697 315.811 324.273 317.628C324.85 319.445 325.037 321.363 324.823 323.257L313.917 420.386Z" fill="#3F3D56"/>
<path opacity="0.4" d="M313.917 420.386H253.133V319.527C253.133 316.512 254.331 313.62 256.463 311.488C258.595 309.356 261.487 308.158 264.502 308.158H311.395C313.301 308.167 315.184 308.577 316.921 309.361C318.658 310.146 320.211 311.288 321.477 312.712C322.744 314.136 323.697 315.811 324.273 317.628C324.85 319.445 325.037 321.363 324.823 323.257L313.917 420.386Z" fill="black"/>
<path d="M497.821 416.477L501.835 380.967H335.059L331.045 416.477H497.821Z" fill="#263238"/>
<path d="M398.737 410.762H567.437C568.101 410.774 568.734 411.044 569.202 411.515C569.67 411.986 569.936 412.62 569.944 413.284V413.896C569.944 414.572 569.675 415.221 569.197 415.7C568.718 416.178 568.069 416.447 567.392 416.447H398.737V410.733V410.762Z" fill="#263238"/>
<path opacity="0.1" d="M398.737 410.762H567.437C568.101 410.774 568.734 411.044 569.202 411.515C569.67 411.986 569.936 412.62 569.944 413.284V413.896C569.944 414.572 569.675 415.221 569.197 415.7C568.718 416.178 568.069 416.447 567.392 416.447H398.737V410.733V410.762Z" fill="white"/>
<path d="M498.463 410.762H544.044C544.044 407.569 542.775 404.507 540.517 402.248C538.259 399.99 535.196 398.722 532.003 398.722H499.821L498.463 410.762Z" fill="#263238"/>
<path opacity="0.3" d="M498.463 410.762H544.044C544.044 407.569 542.775 404.507 540.517 402.248C538.259 399.99 535.196 398.722 532.003 398.722H499.821L498.463 410.762Z" fill="white"/>
<path opacity="0.1" d="M299.997 308.158H403.631L396.604 249.791H292.955L299.997 308.158Z" fill="black"/>
<path d="M471.696 410.747C474.526 410.809 477.336 410.257 479.932 409.13C482.529 408.003 484.851 406.327 486.739 404.218C488.627 402.109 490.036 399.616 490.87 396.911C491.704 394.206 491.942 391.352 491.569 388.546C491.194 385.741 491.43 382.888 492.262 380.183C493.094 377.478 494.502 374.985 496.389 372.875C498.276 370.766 500.597 369.09 503.193 367.963C505.789 366.836 508.598 366.284 511.428 366.345H416.417C413.587 366.284 410.777 366.836 408.181 367.963C405.584 369.09 403.262 370.766 401.374 372.875C399.486 374.984 398.077 377.477 397.243 380.182C396.409 382.887 396.171 385.74 396.544 388.546C396.917 391.352 396.678 394.206 395.845 396.911C395.011 399.616 393.602 402.109 391.714 404.218C389.826 406.327 387.504 408.003 384.907 409.13C382.31 410.257 379.5 410.809 376.67 410.747H471.696Z" fill="#3F3D56"/>
<path opacity="0.7" d="M471.696 410.747C474.526 410.809 477.336 410.257 479.932 409.13C482.529 408.003 484.851 406.327 486.739 404.218C488.627 402.109 490.036 399.616 490.87 396.911C491.704 394.206 491.942 391.352 491.569 388.546C491.194 385.741 491.43 382.888 492.262 380.183C493.094 377.478 494.502 374.985 496.389 372.875C498.276 370.766 500.597 369.09 503.193 367.963C505.789 366.836 508.598 366.284 511.428 366.345H416.417C413.587 366.284 410.777 366.836 408.181 367.963C405.584 369.09 403.262 370.766 401.374 372.875C399.486 374.984 398.077 377.477 397.243 380.182C396.409 382.887 396.171 385.74 396.544 388.546C396.917 391.352 396.678 394.206 395.845 396.911C395.011 399.616 393.602 402.109 391.714 404.218C389.826 406.327 387.504 408.003 384.907 409.13C382.31 410.257 379.5 410.809 376.67 410.747H471.696Z" fill="white"/>
<path d="M556.874 451.345C552.959 451.259 549.205 449.766 546.3 447.138C543.396 444.51 541.535 440.924 541.059 437.037L535.971 388.547C535.234 382.513 532.346 376.948 527.839 372.871C523.331 368.793 517.505 366.477 511.428 366.346H416.417C422.493 366.477 428.317 368.794 432.822 372.872C437.327 376.949 440.212 382.515 440.946 388.547L446.049 437.037C446.519 440.927 448.378 444.516 451.283 447.145C454.189 449.774 457.946 451.265 461.864 451.345H556.874Z" fill="#3F3D56"/>
<path opacity="0.9" d="M556.874 451.345C552.959 451.259 549.205 449.766 546.3 447.138C543.396 444.51 541.535 440.924 541.059 437.037L535.971 388.547C535.234 382.513 532.346 376.948 527.839 372.871C523.331 368.793 517.505 366.477 511.428 366.346H416.417C422.493 366.477 428.317 368.794 432.822 372.872C437.327 376.949 440.212 382.515 440.946 388.547L446.049 437.037C446.519 440.927 448.378 444.516 451.283 447.145C454.189 449.774 457.946 451.265 461.864 451.345H556.874Z" fill="white"/>
<path d="M556.875 451.345C558.698 451.385 560.509 451.029 562.182 450.303C563.856 449.576 565.352 448.496 566.568 447.137C567.784 445.777 568.692 444.171 569.228 442.427C569.765 440.684 569.918 438.845 569.676 437.037H474.651C474.892 438.845 474.739 440.684 474.203 442.427C473.667 444.171 472.759 445.777 471.543 447.137C470.326 448.496 468.83 449.576 467.157 450.303C465.484 451.029 463.673 451.385 461.849 451.345H556.875Z" fill="#3F3D56"/>
<path opacity="0.6" d="M556.875 451.345C558.698 451.385 560.509 451.029 562.182 450.303C563.856 449.576 565.352 448.496 566.568 447.137C567.784 445.777 568.692 444.171 569.228 442.427C569.765 440.684 569.918 438.845 569.676 437.037H474.651C474.892 438.845 474.739 440.684 474.203 442.427C473.667 444.171 472.759 445.777 471.543 447.137C470.326 448.496 468.83 449.576 467.157 450.303C465.484 451.029 463.673 451.385 461.849 451.345H556.875Z" fill="white"/>
<path d="M404.228 410.762H391.382C391.382 409.18 391.07 407.613 390.464 406.151C389.858 404.689 388.97 403.361 387.85 402.243C386.73 401.125 385.401 400.238 383.939 399.634C382.476 399.03 380.909 398.72 379.326 398.722H333.074L331.717 410.762L331.075 416.477H404.258C404.832 416.477 405.382 416.249 405.788 415.843C406.193 415.437 406.421 414.887 406.421 414.313V412.941C406.423 412.653 406.368 412.367 406.258 412.101C406.148 411.835 405.987 411.593 405.782 411.391C405.578 411.188 405.335 411.028 405.069 410.92C404.802 410.812 404.516 410.758 404.228 410.762Z" fill="#263238"/>
<path opacity="0.3" d="M404.228 410.762H391.382C391.382 409.18 391.07 407.613 390.464 406.151C389.858 404.689 388.97 403.361 387.85 402.243C386.73 401.125 385.401 400.238 383.939 399.634C382.476 399.03 380.909 398.72 379.326 398.722H333.074L331.717 410.762L331.075 416.477H404.258C404.832 416.477 405.382 416.249 405.788 415.843C406.193 415.437 406.421 414.887 406.421 414.313V412.941C406.423 412.653 406.368 412.367 406.258 412.101C406.148 411.835 405.987 411.593 405.782 411.391C405.578 411.188 405.335 411.028 405.069 410.92C404.802 410.812 404.516 410.758 404.228 410.762Z" fill="white"/>
<path d="M304.353 361.944H236.199V420.386H304.353V361.944Z" fill="#3F3D56"/>
<path d="M246.18 361.944H236.199V420.386H246.18V361.944Z" fill="#3F3D56"/>
<path opacity="0.2" d="M246.18 361.944H236.199V420.386H246.18V361.944Z" fill="white"/>
<path d="M246.18 400.08H236.199V420.401H246.18V400.08Z" fill="#263238"/>
<path d="M304.353 361.944H276.125V420.386H304.353V361.944Z" fill="#3F3D56"/>
<path opacity="0.7" d="M304.353 361.944H276.125V420.386H304.353V361.944Z" fill="white"/>
<path d="M304.353 387.801H276.125V420.386H304.353V387.801Z" fill="#3F3D56"/>
<path d="M276.125 361.944H266.144V420.386H276.125V361.944Z" fill="#3F3D56"/>
<path opacity="0.5" d="M276.125 361.944H266.144V420.386H276.125V361.944Z" fill="white"/>
<path d="M276.125 387.801H266.144V420.386H276.125V387.801Z" fill="#3F3D56"/>
<path opacity="0.2" d="M276.125 387.801H266.144V420.386H276.125V387.801Z" fill="black"/>
<path d="M266.143 361.944H256.162V420.386H266.143V361.944Z" fill="#3F3D56"/>
<path opacity="0.4" d="M266.143 361.944H256.162V420.386H266.143V361.944Z" fill="white"/>
<path d="M266.143 394.992H256.162V420.386H266.143V394.992Z" fill="#3F3D56"/>
<path opacity="0.4" d="M266.143 394.992H256.162V420.386H266.143V394.992Z" fill="black"/>
<path d="M256.162 361.944H246.18V420.386H256.162V361.944Z" fill="#3F3D56"/>
<path opacity="0.3" d="M256.162 361.944H246.18V420.386H256.162V361.944Z" fill="white"/>
<path d="M256.162 391.172H246.18V420.401H256.162V391.172Z" fill="#3F3D56"/>
<path opacity="0.6" d="M256.162 391.172H246.18V420.401H256.162V391.172Z" fill="black"/>
<path d="M273.782 414.537C273.734 415.144 273.46 415.71 273.013 416.122C272.566 416.535 271.981 416.764 271.372 416.764C270.764 416.764 270.178 416.535 269.732 416.122C269.285 415.71 269.011 415.144 268.963 414.537C268.963 413.209 271.365 410.225 271.365 410.225C271.365 410.225 273.782 413.284 273.782 414.537Z" fill="white"/>
<path d="M272.827 414.776C272.827 414.982 272.745 415.179 272.6 415.324C272.454 415.47 272.257 415.552 272.051 415.552C271.619 415.552 271.887 415.209 271.887 414.776C271.887 414.343 271.619 414 272.051 414C272.257 414 272.454 414.082 272.6 414.227C272.745 414.373 272.827 414.57 272.827 414.776Z" fill="#3F3D56"/>
<path d="M263.547 414.537C263.547 415.174 263.294 415.785 262.843 416.236C262.393 416.686 261.782 416.939 261.145 416.939C260.508 416.939 259.897 416.686 259.446 416.236C258.996 415.785 258.743 415.174 258.743 414.537C258.743 413.209 261.145 410.225 261.145 410.225C261.145 410.225 263.547 413.284 263.547 414.537Z" fill="white"/>
<path d="M262.592 414.776C262.592 414.878 262.572 414.979 262.533 415.073C262.494 415.167 262.437 415.252 262.365 415.324C262.293 415.397 262.207 415.454 262.113 415.493C262.019 415.532 261.918 415.552 261.816 415.552C261.384 415.552 261.652 415.209 261.652 414.776C261.652 414.343 261.384 414 261.816 414C261.918 414 262.019 414.02 262.113 414.059C262.207 414.098 262.293 414.155 262.365 414.227C262.437 414.299 262.494 414.385 262.533 414.479C262.572 414.573 262.592 414.674 262.592 414.776Z" fill="#3F3D56"/>
<path d="M252.67 414.537C252.67 415.174 252.417 415.785 251.967 416.236C251.516 416.686 250.905 416.939 250.268 416.939C249.631 416.939 249.02 416.686 248.57 416.236C248.119 415.785 247.866 415.174 247.866 414.537C247.866 413.209 250.268 410.225 250.268 410.225C250.268 410.225 252.67 413.284 252.67 414.537Z" fill="white"/>
<path d="M251.716 414.776C251.716 414.982 251.634 415.179 251.488 415.324C251.343 415.47 251.146 415.552 250.94 415.552C250.507 415.552 250.776 415.209 250.776 414.776C250.776 414.343 250.507 414 250.94 414C251.146 414 251.343 414.082 251.488 414.227C251.634 414.373 251.716 414.57 251.716 414.776Z" fill="#3F3D56"/>
<path d="M243.599 414.537C243.551 415.144 243.277 415.71 242.83 416.122C242.383 416.535 241.798 416.764 241.189 416.764C240.581 416.764 239.995 416.535 239.549 416.122C239.102 415.71 238.828 415.144 238.78 414.537C238.78 413.209 241.197 410.225 241.197 410.225C241.197 410.225 243.599 413.284 243.599 414.537Z" fill="white"/>
<path d="M242.644 414.776C242.644 414.982 242.563 415.179 242.417 415.324C242.272 415.47 242.074 415.552 241.869 415.552C241.436 415.552 241.704 415.209 241.704 414.776C241.704 414.343 241.436 414 241.869 414C242.074 414 242.272 414.082 242.417 414.227C242.563 414.373 242.644 414.57 242.644 414.776Z" fill="#3F3D56"/>
<path d="M413.075 308.158H309.426L296.938 229.32H400.587L413.075 308.158Z" fill="#3F3D56"/>
<path opacity="0.9" d="M413.075 308.158H309.426L296.938 229.32H400.587L413.075 308.158Z" fill="white"/>
<path d="M350.218 316.304H498.329C497.272 313.887 495.534 311.83 493.326 310.386C491.119 308.941 488.538 308.172 485.9 308.172H337.774C340.414 308.173 342.996 308.942 345.206 310.386C347.416 311.83 349.157 313.887 350.218 316.304Z" fill="#3F3D56"/>
<path opacity="0.5" d="M350.218 316.304H498.329C497.272 313.887 495.534 311.83 493.326 310.386C491.119 308.941 488.538 308.172 485.9 308.172H337.774C340.414 308.173 342.996 308.942 345.206 310.386C347.416 311.83 349.157 313.887 350.218 316.304Z" fill="white"/>
<path d="M514.531 400.721C505.266 398.871 497.328 395.992 498.462 391.769C499.596 387.547 512.95 400.14 514.561 391.769C516.172 383.399 494.121 385.19 502.729 379.058C507.489 375.671 507.459 370.374 506.474 366.316H493.375C492.673 369.673 493.852 373.343 491.435 373.776C489.018 374.209 487.884 370.046 486.302 366.316H476.963C478.201 372.12 487.048 379.744 482.155 383.101C475.709 387.577 462.848 361.542 455.672 372.911C448.495 384.28 478.678 389.666 475.665 395.962C472.651 402.258 452.076 387.92 453.568 400.721C455.06 413.523 480.185 407.868 480.185 407.868L474.456 417.521L477.873 420.237L480.857 411.911C484.184 403.884 486.482 410.106 489.152 413.941C497.746 426.25 518.679 419.028 501.491 410.554C484.303 402.079 490.764 401.378 505.848 407.868C520.932 414.358 523.796 402.571 514.531 400.721Z" fill="#3F3D56"/>
<path opacity="0.2" d="M514.531 400.721C505.266 398.871 497.328 395.992 498.462 391.769C499.596 387.547 512.95 400.14 514.561 391.769C516.172 383.399 494.121 385.19 502.729 379.058C507.489 375.671 507.459 370.374 506.474 366.316H493.375C492.673 369.673 493.852 373.343 491.435 373.776C489.018 374.209 487.884 370.046 486.302 366.316H476.963C478.201 372.12 487.048 379.744 482.155 383.101C475.709 387.577 462.848 361.542 455.672 372.911C448.495 384.28 478.678 389.666 475.665 395.962C472.651 402.258 452.076 387.92 453.568 400.721C455.06 413.523 480.185 407.868 480.185 407.868L474.456 417.521L477.873 420.237L480.857 411.911C484.184 403.884 486.482 410.106 489.152 413.941C497.746 426.25 518.679 419.028 501.491 410.554C484.303 402.079 490.764 401.378 505.848 407.868C520.932 414.358 523.796 402.571 514.531 400.721Z" fill="white"/>
</svg>
