<svg width="734" height="544" viewBox="0 0 734 544" fill="none" xmlns="http://www.w3.org/2000/svg">
<g clip-path="url(#clip0)">
<path d="M528.194 322.72L533.968 319.156C534.517 318.808 535.058 318.437 535.614 318.089C523.23 315.959 511.944 309.663 503.626 300.243C495.307 290.824 490.453 278.845 489.869 266.29C489.445 257.656 491.077 249.045 494.631 241.164C497.94 233.791 502.826 227.234 508.944 221.955C515.062 216.676 522.264 212.804 530.041 210.611L529.755 233.34L542.239 208.601C542.29 208.593 542.342 208.593 542.393 208.601C549.627 208.263 556.857 209.354 563.67 211.811C570.483 214.267 576.745 218.042 582.099 222.92C587.453 227.797 591.794 233.682 594.874 240.237C597.954 246.793 599.713 253.891 600.05 261.126C600.096 262.178 600.05 263.214 600.05 264.219C604.394 259.263 608.336 253.952 610.949 248.13C616.236 236.34 616.36 222.989 615.919 206.761C615.084 174.599 613.701 142.198 611.892 109.89C598.858 108.442 586.767 102.393 577.791 92.8296C568.816 83.266 563.544 70.8147 562.924 57.7127C562.846 56.0196 562.87 54.3574 562.924 52.703C562.924 52.2932 562.924 51.8758 562.985 51.466C563.094 49.8657 563.241 48.2808 563.488 46.7191C563.488 46.4562 563.581 46.2088 563.627 45.946C563.854 44.6214 564.124 43.3122 564.439 42.0186C564.562 41.5392 564.678 41.0522 564.81 40.5729C565.196 39.1658 565.583 37.7819 566.116 36.4135C566.278 35.9574 566.472 35.5167 566.642 35.0683C567.036 34.0633 567.461 33.0737 567.909 32.0918C568.149 31.5738 568.381 31.0636 568.636 30.5456C568.698 30.4142 568.752 30.2827 568.821 30.1513C574.641 18.6539 584.306 9.55973 596.134 4.44958C607.962 -0.660574 621.207 -1.46358 633.566 2.18014L633.195 31.7594L645.563 7.32906C655.708 13.1368 663.73 22.0366 668.458 32.7284C673.187 43.4202 674.373 55.344 671.844 66.7581H671.906C671.821 67.1524 671.698 67.5313 671.605 67.9178C671.435 68.6445 671.249 69.3635 671.048 70.0825C670.785 71.0025 670.492 71.9071 670.19 72.8116C669.958 73.4842 669.734 74.1723 669.479 74.8372C669.108 75.8113 668.706 76.7622 668.258 77.7131C668.01 78.2698 667.786 78.8342 667.485 79.3831C666.779 80.8056 666.006 82.1972 665.166 83.5579C664.88 84.0295 664.555 84.4779 664.254 84.9495C663.666 85.8617 663.071 86.7663 662.43 87.6476C662.035 88.1888 661.61 88.7068 661.193 89.2402C660.59 90.0133 659.971 90.7865 659.33 91.49C658.874 92.008 658.41 92.5182 657.931 93.0362C657.258 93.7475 656.563 94.4355 655.844 95.1159C655.372 95.572 654.893 96.0282 654.398 96.4611C653.587 97.1801 652.736 97.8682 651.878 98.5408C651.445 98.8809 651.028 99.2366 650.58 99.5613C649.276 100.53 647.928 101.44 646.537 102.29C646.274 102.445 645.996 102.576 645.764 102.731C644.605 103.419 643.445 104.061 642.201 104.664C641.683 104.919 641.142 105.143 640.608 105.383C639.611 105.831 638.606 106.264 637.578 106.658C636.983 106.883 636.372 107.091 635.762 107.3C634.749 107.648 633.721 107.965 632.67 108.251C632.051 108.421 631.441 108.591 630.815 108.738C629.686 109.009 628.534 109.233 627.375 109.426C627.298 109.426 627.228 109.426 627.151 109.473C627.913 123.1 628.591 136.735 629.184 150.378C632.471 143.627 637.104 137.62 642.796 132.724C648.488 127.828 655.121 124.147 662.286 121.906C669.452 119.665 677 118.913 684.467 119.694C691.933 120.476 699.162 122.775 705.709 126.45L695.961 153.161L716.013 133.903C726.746 143.743 733.14 157.438 733.791 171.986C734.046 177.091 733.575 182.206 732.392 187.178C729.873 197.938 724.179 207.692 716.049 215.175C707.92 222.659 697.729 227.526 686.799 229.145C675.87 230.764 664.706 229.061 654.756 224.256C644.806 219.451 636.529 211.767 631 202.2C631 203.583 631.101 204.975 631.139 206.359C631.503 220.677 631.959 238.489 624.824 254.4C619.993 265.185 612.209 273.944 604.518 281.791C599.517 286.902 594.33 291.842 589.012 296.627C583.783 303.65 576.957 309.327 569.1 313.187C560.365 319.919 551.321 326.222 541.968 332.098L536.287 335.762C531.038 339.017 525.658 342.357 520.379 345.813C521.306 345.72 522.226 345.619 523.169 345.581C534.855 345.033 546.413 348.215 556.173 354.668C565.932 361.12 573.388 370.508 577.463 381.476L543.004 409.533L580.88 400.742C580.87 410.069 578.496 419.241 573.98 427.401C569.464 435.561 562.954 442.443 555.058 447.404C547.161 452.365 538.137 455.244 528.826 455.77C519.516 456.297 510.225 454.454 501.819 450.415C502.67 451.482 503.528 452.541 504.378 453.6C506.071 455.711 507.756 457.806 509.402 459.885C531.819 488.282 538.065 515.248 526.957 535.805L513.461 528.507C524.282 508.499 508.05 482.893 497.359 469.395C495.744 467.354 494.09 465.297 492.42 463.21C478.097 445.428 461.864 425.235 462.274 400.487C462.853 363.223 499.099 340.749 528.194 322.72Z" fill="#F2F2F2"/>
<path d="M352.093 544C546.549 544 704.186 536.731 704.186 527.765C704.186 518.798 546.549 511.529 352.093 511.529C157.637 511.529 0 518.798 0 527.765C0 536.731 157.637 544 352.093 544Z" fill="#3F3D56"/>
<path d="M636.542 521.711C638.861 517.452 636.233 512.233 633.234 508.429C630.235 504.626 626.579 500.698 626.656 495.835C626.764 488.877 634.146 484.772 640.052 481.084C644.425 478.345 648.46 475.099 652.072 471.413C653.588 469.995 654.841 468.319 655.774 466.465C656.988 463.743 656.957 460.651 656.88 457.667C656.622 447.74 656.132 437.824 655.411 427.917" stroke="#3F3D56" stroke-width="4" stroke-miterlimit="10"/>
<path d="M666.627 427.392C666.541 425.575 666 423.81 665.055 422.256C664.11 420.703 662.79 419.412 661.216 418.501L658.789 423.31L658.859 417.496C657.199 416.998 655.443 416.907 653.74 417.229C652.038 417.552 650.437 418.278 649.074 419.348C647.71 420.418 646.623 421.8 645.905 423.377C645.186 424.954 644.857 426.681 644.945 428.412C645.08 431.283 646.35 433.982 648.475 435.916C649.528 436.874 650.758 437.615 652.097 438.097C653.435 438.579 654.856 438.792 656.277 438.725C657.698 438.658 659.092 438.312 660.379 437.706C661.667 437.1 662.822 436.247 663.78 435.195C664.737 434.142 665.478 432.911 665.96 431.572C666.442 430.234 666.655 428.813 666.588 427.392H666.627Z" fill="#57B793"/>
<path d="M647.279 500.837C646.143 503.044 644.283 504.794 642.011 505.792C639.739 506.791 637.193 506.978 634.799 506.322C632.405 505.667 630.31 504.208 628.863 502.191C627.417 500.174 626.708 497.72 626.855 495.243C627.002 492.765 627.996 490.413 629.67 488.58C631.345 486.748 633.598 485.547 636.053 485.179C638.507 484.811 641.013 485.298 643.152 486.558C645.29 487.818 646.93 489.775 647.797 492.101L641.026 497.613L648.478 495.882C648.478 497.605 648.068 499.304 647.279 500.837Z" fill="#57B793"/>
<path d="M641.922 479.739C640.499 479.808 639.076 479.594 637.735 479.112C636.395 478.629 635.162 477.886 634.109 476.925C633.057 475.965 632.204 474.806 631.6 473.515C630.996 472.224 630.653 470.827 630.59 469.403C630.504 467.705 630.825 466.011 631.526 464.462C632.175 463.012 633.135 461.722 634.337 460.683C635.539 459.644 636.954 458.881 638.483 458.448L638.428 462.924L640.887 458.053C643.762 457.919 646.573 458.933 648.701 460.871C650.829 462.81 652.1 465.514 652.234 468.39C652.368 471.266 651.355 474.077 649.417 476.205C647.479 478.334 644.774 479.605 641.899 479.739H641.922Z" fill="#57B793"/>
<path d="M668.258 462.182C665.388 462.317 662.582 461.306 660.456 459.372C658.331 457.438 657.061 454.739 656.926 451.868C656.791 448.998 657.801 446.191 659.735 444.065C661.669 441.94 664.368 440.67 667.238 440.535C669.266 440.434 671.282 440.912 673.05 441.911L671.133 447.168L675.076 443.38C677.191 445.313 678.453 448.008 678.585 450.871C678.634 451.874 678.541 452.879 678.307 453.855C677.766 456.148 676.492 458.201 674.678 459.704C672.865 461.206 670.611 462.076 668.258 462.182Z" fill="#57B793"/>
<path opacity="0.1" d="M665.166 430.252C662.662 430.53 660.227 431.311 657.715 431.466C655.203 431.62 652.443 431.017 650.851 429.061C649.993 428.01 649.568 426.68 648.841 425.536C648.157 424.467 647.219 423.582 646.112 422.961C645.458 424.33 645.098 425.821 645.057 427.337C645.015 428.854 645.293 430.362 645.872 431.764C646.451 433.166 647.318 434.431 648.417 435.476C649.517 436.521 650.823 437.324 652.252 437.832C653.682 438.339 655.202 438.541 656.714 438.423C658.226 438.306 659.697 437.871 661.03 437.149C662.364 436.426 663.531 435.431 664.455 434.228C665.379 433.025 666.04 431.642 666.395 430.167C665.978 430.182 665.568 430.213 665.166 430.252Z" fill="black"/>
<path opacity="0.1" d="M668.258 462.181C666.387 462.276 664.523 461.884 662.849 461.042C661.176 460.201 659.749 458.939 658.709 457.381C657.669 455.822 657.051 454.021 656.916 452.152C656.781 450.283 657.133 448.411 657.939 446.719C658.8 447.301 659.54 448.044 660.118 448.907C660.891 450.075 661.355 451.42 662.267 452.494C663.952 454.481 666.843 455.131 669.464 455.007C672.084 454.883 674.604 454.149 677.194 453.909C677.549 453.909 677.92 453.847 678.283 453.84C677.746 456.131 676.477 458.185 674.668 459.691C672.859 461.196 670.609 462.07 668.258 462.181Z" fill="black"/>
<path opacity="0.1" d="M641.922 479.739C640.499 479.808 639.076 479.594 637.735 479.111C636.395 478.629 635.162 477.886 634.109 476.925C633.057 475.965 632.204 474.806 631.6 473.515C630.996 472.224 630.653 470.826 630.59 469.403C630.504 467.705 630.825 466.011 631.526 464.462C632.425 465.051 633.211 465.797 633.845 466.666C634.687 467.856 635.213 469.225 636.164 470.323C637.996 472.364 641.072 473.083 643.847 473.013C646.622 472.943 649.119 472.294 651.793 472.093C651.133 474.228 649.831 476.107 648.065 477.475C646.299 478.843 644.154 479.634 641.922 479.739Z" fill="black"/>
<path opacity="0.1" d="M647.279 500.837C646.695 502.136 645.861 503.307 644.825 504.284C643.789 505.261 642.57 506.024 641.239 506.53C639.908 507.036 638.49 507.274 637.067 507.232C635.644 507.19 634.243 506.867 632.944 506.284C631.645 505.7 630.474 504.866 629.497 503.83C628.521 502.793 627.758 501.574 627.252 500.243C626.746 498.912 626.508 497.494 626.55 496.07C626.592 494.647 626.915 493.245 627.498 491.946C628.389 492.538 629.19 493.254 629.879 494.072C630.907 495.333 631.587 496.755 632.785 497.938C635.004 500.11 638.583 501.03 641.767 501.092C643.608 501.116 645.448 501.031 647.279 500.837Z" fill="black"/>
<path d="M620.186 516.802C620.186 516.802 628.743 516.539 631.325 514.699C633.907 512.859 644.465 510.663 645.138 513.617C645.81 516.57 658.008 528.306 648.338 528.352C638.668 528.399 625.875 526.806 623.301 525.26C620.727 523.714 620.186 516.802 620.186 516.802Z" fill="#656380"/>
<path opacity="0.2" d="M648.508 527.324C638.846 527.401 626.045 525.778 623.471 524.232C621.516 523.041 620.727 518.75 620.472 516.771H620.186C620.186 516.771 620.727 523.675 623.278 525.275C625.829 526.876 638.645 528.43 648.315 528.368C651.105 528.368 652.072 527.347 652.017 525.878C651.654 526.752 650.587 527.309 648.508 527.324Z" fill="black"/>
<path d="M150.275 497.861C144.663 487.47 151.048 474.744 158.345 465.483C165.642 456.221 174.578 446.588 174.385 434.782C174.106 417.82 156.111 407.808 141.734 398.817C131.065 392.144 121.224 384.232 112.415 375.245C108.882 371.635 105.458 367.785 103.402 363.177C100.433 356.543 100.511 349.006 100.704 341.738C101.322 317.514 102.518 293.336 104.291 269.205" stroke="#3F3D56" stroke-width="4" stroke-miterlimit="10"/>
<path d="M76.9505 267.883C77.1622 263.458 78.482 259.156 80.7889 255.374C83.0957 251.592 86.3157 248.449 90.153 246.236L96.0741 257.949L95.8963 243.77C101.275 242.184 107.019 242.35 112.298 244.242C117.577 246.135 122.118 249.656 125.265 254.299C128.413 258.941 130.004 264.463 129.808 270.068C129.613 275.674 127.641 281.072 124.179 285.484C120.716 289.895 115.941 293.092 110.543 294.612C105.145 296.133 99.4035 295.898 94.1478 293.942C88.8921 291.986 84.3939 288.41 81.3028 283.73C78.2117 279.05 76.6875 273.509 76.9505 267.906V267.883Z" fill="#57B793"/>
<path d="M124.118 446.905C126.777 452.088 131.073 456.248 136.339 458.738C141.605 461.228 147.546 461.909 153.238 460.674C158.931 459.44 164.056 456.361 167.819 451.913C171.581 447.466 173.77 441.901 174.045 436.081C174.229 432.423 173.642 428.767 172.321 425.35C170.39 420.34 166.979 416.035 162.544 413.009C158.108 409.984 152.856 408.38 147.487 408.411C142.117 408.442 136.885 410.106 132.484 413.183C128.083 416.26 124.723 420.604 122.85 425.637L139.369 439.073L121.196 434.844C121.188 439.041 122.19 443.177 124.118 446.905Z" fill="#57B793"/>
<path d="M137.173 395.555C143.658 395.852 150.026 393.753 155.064 389.658C160.102 385.563 163.458 379.758 164.494 373.348C165.53 366.939 164.173 360.372 160.682 354.898C157.19 349.424 151.808 345.426 145.56 343.664L145.699 354.557L139.747 342.705H139.678C132.67 342.378 125.819 344.849 120.632 349.574C115.445 354.299 112.347 360.891 112.02 367.901C111.693 374.91 114.164 381.762 118.888 386.95C123.613 392.138 130.204 395.236 137.212 395.563L137.173 395.555Z" fill="#57B793"/>
<path d="M72.9693 352.825C77.0639 353.024 81.1489 352.269 84.9018 350.619C88.6546 348.969 91.9726 346.469 94.5939 343.317C97.2152 340.164 99.068 336.445 100.006 332.454C100.944 328.463 100.942 324.308 99.9993 320.317C99.0567 316.327 97.1997 312.611 94.5749 309.461C91.9501 306.312 88.6292 303.815 84.8745 302.169C81.1198 300.524 77.034 299.773 72.9396 299.977C68.8452 300.181 64.8543 301.334 61.2818 303.346L65.9197 316.156L56.3425 306.902C53.7823 309.232 51.7066 312.044 50.2343 315.178C48.7621 318.311 47.922 321.704 47.7624 325.163C47.6396 327.61 47.8661 330.062 48.4349 332.446C49.7496 338.05 52.8568 343.073 57.2847 346.751C61.7126 350.429 67.2195 352.561 72.9693 352.825Z" fill="#57B793"/>
<path opacity="0.1" d="M80.5058 274.934C86.6123 275.607 92.5488 277.501 98.6708 277.879C104.793 278.258 111.525 276.797 115.398 272.035C117.485 269.468 118.529 266.221 120.291 263.422C121.961 260.815 124.25 258.661 126.954 257.152C128.638 260.505 129.59 264.177 129.746 267.926C129.902 271.674 129.26 275.413 127.861 278.894C126.462 282.375 124.339 285.519 121.633 288.117C118.926 290.714 115.699 292.707 112.163 293.961C108.628 295.216 104.867 295.704 101.129 295.394C97.3904 295.083 93.761 293.981 90.4812 292.16C87.2014 290.34 84.3463 287.842 82.1054 284.833C79.8644 281.825 78.2889 278.374 77.4834 274.71C78.5115 274.756 79.5163 274.826 80.5058 274.934Z" fill="black"/>
<path opacity="0.1" d="M72.9693 352.825C77.5271 353.035 82.0618 352.063 86.1333 350.004C90.2048 347.944 93.6749 344.867 96.2067 341.071C98.7384 337.274 100.246 332.888 100.583 328.337C100.92 323.786 100.075 319.225 98.1299 315.097C96.0299 316.509 94.2238 318.316 92.8118 320.416C90.9257 323.261 89.7894 326.547 87.5709 329.16C83.451 334 76.4168 335.585 70.032 335.299C63.6472 335.013 57.4865 333.188 51.1326 332.608C50.2514 332.531 49.3547 332.469 48.4658 332.446C49.7791 338.046 52.8817 343.064 57.3034 346.742C61.7251 350.419 67.2249 352.555 72.9693 352.825Z" fill="black"/>
<path opacity="0.1" d="M137.173 395.555C141.686 395.767 146.179 394.819 150.221 392.801C154.264 390.783 157.723 387.762 160.267 384.028C162.811 380.293 164.356 375.969 164.754 371.467C165.152 366.966 164.391 362.437 162.542 358.314C160.364 359.761 158.47 361.595 156.954 363.726C154.897 366.625 153.614 369.965 151.21 372.64C146.75 377.611 139.252 379.366 132.489 379.203C125.942 379.064 119.634 377.456 113.125 376.954C114.737 382.15 117.91 386.723 122.213 390.052C126.516 393.38 131.739 395.302 137.173 395.555Z" fill="black"/>
<path opacity="0.1" d="M124.118 446.905C126.777 452.088 131.073 456.248 136.339 458.738C141.605 461.228 147.545 461.909 153.238 460.675C158.931 459.44 164.056 456.361 167.819 451.913C171.581 447.466 173.77 441.901 174.045 436.081C174.229 432.423 173.642 428.767 172.321 425.351C170.145 426.78 168.191 428.523 166.523 430.523C164.011 433.615 162.349 437.063 159.443 439.924C154.032 445.227 145.305 447.423 137.537 447.655C133.053 447.67 128.572 447.42 124.118 446.905Z" fill="black"/>
<path d="M333.325 513.308L231.291 534.182L228.972 533.95L139.307 524.904V411.257L249.07 392.702L328.687 401.979L328.71 402.482L328.718 402.729L333.325 513.308Z" fill="#3F3D56"/>
<path opacity="0.1" d="M333.325 513.307L231.291 534.181L228.972 533.95V417.442L328.71 402.482L333.325 513.307Z" fill="black"/>
<path opacity="0.05" d="M328.718 402.729L328.687 402.753L228.972 417.442L139.307 411.257L249.07 392.702L328.687 401.979L328.71 402.482L328.718 402.729Z" fill="black"/>
<path d="M445.407 517.946L343.373 538.82L341.055 538.588L251.389 529.543V415.895L361.152 397.341L440.769 406.618L440.792 407.121L440.8 407.368L445.407 517.946Z" fill="#3F3D56"/>
<path opacity="0.1" d="M445.407 517.946L343.374 538.82L341.055 538.588V422.08L440.792 407.121L445.407 517.946Z" fill="black"/>
<path opacity="0.05" d="M440.8 407.368L440.769 407.391L341.055 422.08L251.389 415.895L361.152 397.341L440.769 406.618L440.792 407.121L440.8 407.368Z" fill="black"/>
<path d="M375.066 406.618L273.032 427.492L270.713 427.26L181.047 418.215V304.567L290.811 286.013L370.428 295.29L370.451 295.793L370.459 296.04L375.066 406.618Z" fill="#3F3D56"/>
<path opacity="0.1" d="M375.066 406.618L273.032 427.492L270.713 427.26V310.752L370.451 295.792L375.066 406.618Z" fill="black"/>
<path opacity="0.05" d="M370.459 296.04L370.428 296.063L270.713 310.752L181.047 304.567L290.811 286.013L370.428 295.29L370.451 295.793L370.459 296.04Z" fill="black"/>
<path d="M433.039 411.38L379.789 422.281L378.575 422.157L331.779 417.434V358.121L389.064 348.434L430.62 353.281L430.635 353.544V353.668L433.039 411.38Z" fill="#3F3D56"/>
<path opacity="0.1" d="M433.04 411.38L379.789 422.281L378.576 422.158V361.352L430.636 353.544L433.04 411.38Z" fill="black"/>
<path opacity="0.05" d="M430.635 353.668L430.62 353.683L378.575 361.352L331.779 358.121L389.064 348.434L430.62 353.281L430.635 353.544V353.668Z" fill="black"/>
<path d="M290.038 296.187L236.787 307.08L235.574 306.964L188.777 302.241V242.927L246.063 233.24L287.618 238.088L287.634 238.35V238.474L290.038 296.187Z" fill="#3F3D56"/>
<path opacity="0.1" d="M290.039 296.187L236.788 307.08L235.574 306.964V246.159L287.635 238.35L290.039 296.187Z" fill="black"/>
<path opacity="0.05" d="M287.634 238.474L287.618 238.49L235.574 246.159L188.777 242.927L246.063 233.24L287.618 238.088L287.634 238.35V238.474Z" fill="black"/>
<path d="M383.569 293.868L330.318 304.761L329.104 304.645L282.308 299.921V240.608L339.594 230.921L381.149 235.768L381.165 236.031V236.155L383.569 293.868Z" fill="#3F3D56"/>
<path opacity="0.1" d="M383.569 293.867L330.319 304.76L329.105 304.644V243.839L381.165 236.031L383.569 293.867Z" fill="black"/>
<path opacity="0.05" d="M381.165 236.155L381.149 236.17L329.104 243.84L282.308 240.608L339.594 230.921L381.149 235.768L381.165 236.031V236.155Z" fill="black"/>
<path d="M411.396 234.338L358.145 245.231L356.932 245.115L310.135 240.391V181.078L367.421 171.391L408.976 176.239L408.992 176.501V176.625L411.396 234.338Z" fill="#3F3D56"/>
<path opacity="0.1" d="M411.396 234.338L358.146 245.231L356.932 245.115V184.31L408.992 176.501L411.396 234.338Z" fill="black"/>
<path opacity="0.05" d="M408.992 176.625L408.976 176.641L356.932 184.31L310.135 181.078L367.421 171.391L408.976 176.239L408.992 176.501V176.625Z" fill="black"/>
<path d="M447.665 113.083C447.1 118.108 443.266 122.159 441.844 126.999C439.711 134.305 443.39 142.152 448.461 147.873C452.547 152.419 457.495 156.108 463.017 158.728C468.54 161.347 474.527 162.845 480.632 163.134C482.426 163.288 484.232 163.091 485.95 162.554C487.48 161.931 488.859 160.988 489.993 159.786C493.796 155.96 495.844 150.664 496.656 145.322C497.468 139.979 497.158 134.544 496.842 129.156C496.841 128.041 496.637 126.935 496.239 125.893C495.721 124.903 495.009 124.027 494.144 123.319C491.402 120.799 488.381 118.602 485.139 116.771C483.747 115.997 482.255 115.224 481.367 113.887C480.757 112.822 480.36 111.648 480.199 110.431L479.202 105.359C479.026 103.897 478.527 102.492 477.741 101.246C475.987 98.8808 472.624 98.556 469.679 98.4401L458.857 98.0149C455.495 97.8834 451.073 96.917 447.788 97.5819C444.696 98.1927 445.74 101.022 446.296 103.589C447.101 106.693 447.56 109.877 447.665 113.083Z" fill="#FFC0C6"/>
<path opacity="0.1" d="M447.665 113.083C447.1 118.108 443.266 122.159 441.844 126.999C439.711 134.305 443.39 142.152 448.461 147.873C452.547 152.419 457.495 156.108 463.017 158.728C468.54 161.347 474.527 162.845 480.632 163.134C482.426 163.288 484.232 163.091 485.95 162.554C487.48 161.931 488.859 160.988 489.993 159.786C493.796 155.96 495.844 150.664 496.656 145.322C497.468 139.979 497.158 134.544 496.842 129.156C496.841 128.041 496.637 126.935 496.239 125.893C495.721 124.903 495.009 124.027 494.144 123.319C491.402 120.799 488.381 118.602 485.139 116.771C483.747 115.997 482.255 115.224 481.367 113.887C480.757 112.822 480.36 111.648 480.199 110.431L479.202 105.359C479.026 103.897 478.527 102.492 477.741 101.246C475.987 98.8808 472.624 98.556 469.679 98.4401L458.857 98.0149C455.495 97.8834 451.073 96.917 447.788 97.5819C444.696 98.1927 445.74 101.022 446.296 103.589C447.101 106.693 447.56 109.877 447.665 113.083Z" fill="black"/>
<path d="M516.39 339.419L511.799 389.764C510.6 402.969 509.379 416.228 507.029 429.262C506.256 433.754 505.267 438.223 504.138 442.653C501 454.953 496.447 466.975 494.979 479.584C494.932 479.948 494.894 480.357 494.855 480.69C494.553 483.473 494.291 486.287 493.309 488.885C492.536 490.81 491.446 492.565 490.65 494.467C489.104 498.27 488.857 502.476 488.663 506.597C483.091 503.451 476.989 501.354 470.661 500.412C467.569 499.956 464.206 499.639 462.158 497.319C459.839 494.799 460.109 490.941 460.496 487.555C461.712 477.041 462.923 466.532 464.129 456.028C464.531 451.508 465.307 447.029 466.448 442.637C466.865 441.176 467.368 439.738 467.878 438.3C468.581 436.321 469.292 434.342 469.826 432.308C470.566 429.042 471.077 425.727 471.356 422.389C472.601 411.813 474.1 401.26 475.414 390.692L475.484 390.135C477.455 374.116 478.955 358.02 478.522 341.885C478.46 339.496 478.359 337.107 478.205 334.711C477.988 331.24 477.672 329.4 480.524 327.227C483.701 324.83 487.883 323.153 491.516 321.583C493.471 320.733 515.006 313.079 515.478 314.765C516.478 318.344 516.998 322.041 517.024 325.758C517.068 330.32 516.856 334.881 516.39 339.419Z" fill="#605D82"/>
<path opacity="0.1" d="M507.03 429.262C506.257 433.754 505.267 438.223 504.139 442.653C501 454.953 496.447 466.975 494.979 479.584C494.932 479.948 494.894 480.357 494.855 480.69C485.255 466.975 477.169 452.224 467.801 438.362C468.504 436.383 469.215 434.404 469.749 432.37C470.517 429.085 471.055 425.75 471.356 422.389C472.601 411.813 474.101 401.26 475.415 390.692L475.484 390.135C476.027 392.378 476.804 394.557 477.803 396.637C484.095 409.424 499.045 415.888 506.357 428.126C506.599 428.507 506.823 428.886 507.03 429.262Z" fill="black"/>
<path d="M429.128 316.837C429.445 327.088 431.084 337.255 432.723 347.382L436.101 368.256C437.948 379.699 439.881 391.365 445.291 401.609C449.342 409.278 455.17 415.818 460.45 422.691C473.42 439.591 483.167 458.741 495.466 476.136C499.045 481.193 504.154 486.666 510.253 485.607C514.257 484.919 517.163 481.579 520.302 479.012C524.012 475.982 528.48 473.763 531.402 469.959C534.323 466.156 534.895 459.847 530.938 457.141C529.585 456.221 527.939 455.873 526.408 455.286C520.278 452.966 516.305 446.967 513.785 440.906C511.265 434.845 509.727 428.343 506.365 422.707C499.052 410.468 484.095 404.005 477.803 391.21C474.278 384.051 473.938 375.748 473.675 367.808L472.987 347.467C472.91 345.241 472.856 342.929 473.76 340.896C476.164 335.484 483.43 334.974 489.32 334.286C496 333.506 502.471 331.465 508.39 328.271C511.783 326.439 515.092 324.104 516.893 320.702C518.547 317.61 518.771 313.969 518.964 310.459L521.005 273.589C521.183 270.419 521.337 267.133 520.232 264.165C517.426 256.696 507.996 254.253 500.026 254.609C485.2 255.274 471.519 261.652 457.512 265.966C454.042 267.033 450.555 267.992 446.976 268.711C443.885 269.337 440.02 269.082 437.051 270.087C431.733 271.88 431.865 283.523 431.115 288.348C429.568 297.761 428.903 307.299 429.128 316.837Z" fill="#605D82"/>
<path d="M508.243 487.169C509.549 488.491 509.975 490.424 510.315 492.248C512.204 502.374 513.187 512.648 513.252 522.948C513.167 523.909 513.358 524.875 513.801 525.732C514.171 526.239 514.67 526.64 515.246 526.891C519.026 528.693 523.409 526.18 526.563 523.42C532.399 518.31 537.338 511.444 537.67 503.69C537.756 501.696 537.531 499.678 537.879 497.706C538.389 494.784 540.098 492.24 541.597 489.689C544.163 485.34 546.237 480.72 547.781 475.912C548.353 474.103 548.74 471.83 547.317 470.57C546.819 470.174 546.25 469.878 545.64 469.696L528.557 463.357C527.073 462.808 523.394 472.263 522.814 473.299C521.384 475.827 519.961 477.258 517.094 477.845C514.226 478.433 510.686 477.582 507.949 479.043C503.311 481.51 505.623 484.532 508.243 487.169Z" fill="#535070"/>
<path d="M481.9 493.005C481.583 492.374 481.141 491.814 480.601 491.359C479.812 490.856 478.913 490.551 477.981 490.47C474.734 489.913 470.885 489.55 468.635 491.969C466.533 494.235 466.896 497.922 465.141 500.474C464.585 501.247 463.827 501.943 463.348 502.793C462.752 504.095 462.487 505.523 462.575 506.952C462.482 510.887 462.39 514.838 462.668 518.765C462.892 522.059 463.441 525.515 465.505 528.097C468.813 532.241 474.781 532.836 480.068 533.099L484.358 533.323C485.537 533.461 486.733 533.351 487.867 532.998C488.57 532.675 489.201 532.213 489.721 531.641C490.242 531.068 490.642 530.397 490.897 529.666C493.131 524.115 489.599 518.139 487.419 512.573C484.907 506.164 485.355 499.059 481.9 493.005Z" fill="#535070"/>
<path d="M446.428 84.7487C446.373 84.1859 446.455 83.6183 446.667 83.0942C447.293 81.9887 448.932 82.3211 450.169 82.5994C455.139 83.8519 460.38 82.7154 465.505 83.0092C470.63 83.303 476.396 85.862 477.424 90.8872C481.142 88.2555 484.346 84.9643 486.878 81.1769C488.3 79.0508 489.537 76.6156 489.344 74.0643C489.065 70.3843 485.981 67.632 483.16 65.2972L474.657 58.3392C473.537 57.3116 472.244 56.4898 470.838 55.9116C468.875 55.239 466.726 55.5637 464.655 55.5637C458.471 55.5637 451.839 52.7419 446.327 55.5637C444.008 56.7466 442.285 58.7799 440.615 60.759L433.017 69.7581C432.441 70.3317 432.021 71.0419 431.795 71.8223C431.579 72.9201 432.143 74.0024 432.344 75.108C432.7 77.1181 431.834 79.2673 432.499 81.2001C433.604 84.4008 437.5 84.8569 439.881 86.6969C440.762 87.3773 442.153 89.7043 443.212 89.6734C445.075 89.6348 446.374 86.2331 446.428 84.7487Z" fill="#3F3D56"/>
<path d="M459.321 111.29C472.769 111.29 483.67 100.386 483.67 86.9365C483.67 73.4867 472.769 62.5835 459.321 62.5835C445.874 62.5835 434.972 73.4867 434.972 86.9365C434.972 100.386 445.874 111.29 459.321 111.29Z" fill="#FFC0C6"/>
<path d="M465.026 140.227C464.201 137.867 462.647 135.829 460.59 134.409C458.532 132.989 456.077 132.26 453.578 132.326C452.861 132.463 452.119 132.368 451.46 132.055C451.086 131.77 450.786 131.399 450.586 130.973C449.11 128.308 447.921 125.493 447.038 122.577C446.652 121.286 446.118 119.763 444.812 119.43C443.761 119.16 442.686 119.84 441.983 120.667C441.359 121.555 440.683 122.404 439.958 123.211C436.866 125.948 431.455 123.45 428.216 125.963C427.683 126.373 427.242 126.899 426.67 127.277C426.114 127.617 425.513 127.877 424.885 128.05C418.598 130.096 412.434 132.505 406.426 135.264C408.59 148.283 410.801 161.549 415.872 173.726C418.283 179.524 421.012 185.207 422.944 191.183C427.227 204.426 427.412 218.597 427.466 232.521C427.466 242.046 427.466 251.772 424.374 260.786C423.679 262.827 422.828 264.853 422.635 266.971C422.442 269.089 423.076 271.486 424.815 272.754C425.822 273.418 426.977 273.824 428.178 273.937C433.519 274.71 438.899 273.303 444.155 272.081C458.246 268.819 472.624 266.948 486.963 265.123L511.002 262.031C512.727 261.91 514.415 261.472 515.98 260.74C520.379 258.335 520.796 251.717 518.06 247.512C516.753 245.494 514.906 243.839 513.801 241.706C512.695 239.572 512.61 236.572 514.504 235.095C518.369 232.08 517.21 226.491 517.395 221.605C517.91 207.936 517.841 194.278 517.186 180.63C516.99 177.8 516.943 174.961 517.047 172.126C517.318 167.317 518.508 162.609 519.699 157.931L527.003 129.171C525.094 126.156 521.438 124.239 517.983 123.373C514.527 122.507 510.917 122.252 507.509 121.193C500.552 119.028 494.306 113.539 487.017 114.049C486.464 114.059 485.92 114.191 485.425 114.436C483.786 115.371 484.041 117.737 483.94 119.624C483.709 123.806 480.632 127.293 477.246 129.744C473.861 132.194 469.98 133.972 466.865 136.763C466.324 137.171 465.879 137.693 465.561 138.291C465.244 138.89 465.061 139.55 465.026 140.227Z" fill="#3F3D56"/>
<path d="M368.55 167.51C366.937 168.559 365.223 169.442 363.433 170.146C361.732 170.819 359.915 171.353 358.524 172.528C357.835 173.125 357.257 173.84 356.816 174.638C355.992 176.1 355.576 177.756 355.61 179.434C355.644 181.112 356.128 182.75 357.011 184.177C357.893 185.604 359.143 186.768 360.629 187.547C362.114 188.327 363.782 188.693 365.458 188.608C367.692 188.492 369.802 187.588 371.85 186.699L389.026 179.223C391.932 177.963 395.071 176.494 396.447 173.633C396.604 173.365 396.664 173.051 396.617 172.744C396.484 172.407 396.23 172.132 395.905 171.971C392.035 169.452 388.649 166.257 385.911 162.539C385.207 161.58 384.365 159.323 383.345 158.743C379.712 156.725 371.464 165.624 368.55 167.51Z" fill="#FFC0C6"/>
<path d="M552.148 161.441L558.479 168.677C559.839 170.223 561.199 171.77 562.436 173.44C565.48 177.632 567.92 182.23 569.687 187.1C571.063 190.711 572.207 194.561 571.727 198.396C571.406 200.362 570.875 202.287 570.143 204.14C568.983 207.701 567.543 211.165 565.837 214.5C564.413 217.03 562.803 219.451 561.022 221.744C556.118 228.242 550.753 234.378 544.967 240.105C542.803 242.247 541.875 245.718 540.955 248.609C539.216 253.951 535.08 258.119 531.084 262.061C529.799 263.42 528.377 264.643 526.841 265.71C524.54 267.195 521.848 267.96 519.111 267.906C517.916 267.913 516.734 267.668 515.64 267.187C512.904 265.888 511.512 262.726 511.226 259.711C510.974 256.971 511.432 254.213 512.556 251.702C516.189 243.654 525.519 240.167 532.112 234.291C535.977 230.851 538.938 226.521 541.86 222.246C543.839 219.574 545.492 216.675 546.783 213.61C548.252 209.675 547.68 205.021 548.971 201.032C549.512 199.339 550.517 197.816 551.066 196.138C551.615 194.461 551.8 192.474 550.772 191.028C550.002 190.104 549.017 189.382 547.904 188.925C543.691 186.791 538.976 184.039 538.172 179.377C537.85 176.795 538.525 174.188 540.058 172.087C541.584 170.012 543.368 168.141 545.369 166.52C547.201 164.866 550.3 163.034 552.148 161.441Z" fill="#FFC0C6"/>
<path d="M364.484 177.607C363.371 175.349 361.972 173.046 359.714 171.925C358.616 171.451 357.432 171.206 356.236 171.206C355.04 171.206 353.856 171.451 352.758 171.925C350.57 172.87 348.521 174.108 346.667 175.605L341.209 179.632C339.972 180.444 338.878 181.455 337.97 182.624C337.105 184.043 336.532 185.62 336.285 187.263C335.512 191.028 334.886 194.901 335.427 198.713C336.293 204.898 340.003 210.248 344.085 214.948C346.636 217.871 349.789 220.824 353.67 220.955C355.347 221.009 357.21 220.344 357.906 218.821C358.148 218.216 358.277 217.572 358.284 216.92C358.702 210.054 356.244 203.351 353.384 197.097C352.611 195.396 351.776 193.633 351.838 191.77C351.814 191.454 351.896 191.139 352.07 190.873C352.315 190.616 352.644 190.455 352.997 190.417C356.916 189.644 363.672 192.69 366.416 188.338C368.194 185.462 365.751 180.166 364.484 177.607Z" fill="#FFC0C6"/>
<path d="M445.144 77.0871C445.096 76.5238 445.18 75.957 445.392 75.4326C446.018 74.3193 447.656 74.6595 448.893 74.9378C453.863 76.1903 459.104 75.0538 464.229 75.3476C469.354 75.6414 475.113 78.2004 476.149 83.2256C479.863 80.5896 483.066 77.2992 485.602 73.5153C487.024 71.3815 488.261 68.9462 488.068 66.3949C487.79 62.7149 484.698 59.9626 481.884 57.6356L473.381 50.6776C472.264 49.6501 470.974 48.8283 469.57 48.25C467.599 47.5774 465.458 47.9021 463.387 47.9021C457.203 47.9021 450.571 45.0803 445.059 47.9021C442.74 49.085 441.017 51.1183 439.347 53.0974L431.741 62.0964C431.169 62.6714 430.751 63.3814 430.527 64.1606C430.311 65.2585 430.875 66.3408 431.076 67.4464C431.432 69.4565 430.566 71.6057 431.231 73.5308C432.336 76.7392 436.232 77.1953 438.613 79.0353C439.494 79.7157 440.885 82.0427 441.944 82.0118C443.776 81.9731 445.075 78.5714 445.144 77.0871Z" fill="#3F3D56"/>
<path d="M393.432 143.822C392.451 144.459 391.588 145.263 390.881 146.196C389.992 147.548 389.807 149.288 389.042 150.68C387.403 153.726 383.561 154.816 381.173 157.313C380.785 157.654 380.515 158.109 380.4 158.612C380.385 159.292 380.612 159.955 381.041 160.483L392.589 178.635C396.454 178.975 400.118 176.563 403.968 176.888C405.398 177.004 406.874 177.499 408.25 177.074C409.233 176.635 410.156 176.072 410.994 175.396C413.313 173.943 416.343 173.772 418.268 171.863C420.193 169.953 420.355 167.147 420.332 164.542C420.366 162.28 420.136 160.023 419.644 157.815C417.943 150.857 412.617 145.492 409.278 139.323C407.647 136.315 406.766 134.56 403.326 136.624C399.886 138.689 396.686 141.441 393.432 143.822Z" fill="#3F3D56"/>
<path d="M533.659 134.645C535.829 136.055 537.786 137.768 539.471 139.732C541.226 141.997 542.223 144.781 543.916 147.1C545.609 149.419 547.781 151.089 549.636 153.161C552.458 156.3 554.367 160.119 556.237 163.915C551.658 169.874 546.668 175.506 541.303 180.769C540.705 181.473 539.916 181.988 539.031 182.253C538.431 182.318 537.824 182.232 537.266 182.004C536.707 181.776 536.214 181.413 535.831 180.947C534.996 180.081 534.408 178.998 533.612 178.094C531.736 176.159 529.236 174.951 526.555 174.684C523.896 174.425 521.22 174.387 518.555 174.569C517.969 174.638 517.377 174.539 516.846 174.282C516.452 174.011 516.132 173.644 515.919 173.216C512.827 167.897 513.793 161.217 514.898 155.14L517.426 141.224C517.795 138.567 518.504 135.969 519.536 133.493C520.495 131.444 522.628 127.965 525.272 128.584C527.915 129.202 531.425 133.037 533.659 134.645Z" fill="#3F3D56"/>
<path d="M313.227 236.657L259.977 247.55L258.763 247.434L211.967 242.711V183.398L269.252 173.71L310.808 178.558L310.823 178.821V178.944L313.227 236.657Z" fill="#3F3D56"/>
<path opacity="0.1" d="M313.228 236.657L259.977 247.55L258.764 247.434V186.629L310.824 178.821L313.228 236.657Z" fill="black"/>
<path opacity="0.05" d="M310.823 178.944L310.808 178.96L258.763 186.629L211.967 183.398L269.252 173.71L310.808 178.558L310.823 178.821V178.944Z" fill="black"/>
<path d="M341.055 177.901L287.804 188.802L286.59 188.678L239.794 183.954V124.641L297.08 114.954L338.635 119.802L338.651 120.064V120.188L341.055 177.901Z" fill="#3F3D56"/>
<path opacity="0.1" d="M341.055 177.9L287.804 188.801L286.591 188.678V127.872L338.651 120.064L341.055 177.9Z" fill="black"/>
<path opacity="0.05" d="M338.651 120.188L338.635 120.204L286.59 127.873L239.794 124.641L297.08 114.954L338.635 119.802L338.651 120.064V120.188Z" fill="black"/>
</g>
<defs>
<clipPath id="clip0">
<rect width="734" height="544" fill="white"/>
</clipPath>
</defs>
</svg>
