<svg width="740" height="480" viewBox="0 0 740 480" fill="none" xmlns="http://www.w3.org/2000/svg">
<path d="M674.959 478.58L653.823 414.771C653.823 414.771 677.071 438.029 677.071 457.112L672.898 412.982C672.898 412.982 684.82 429.083 683.628 453.534C682.435 477.984 674.959 478.58 674.959 478.58Z" fill="#E6E6E6"/>
<path d="M221.083 420.479L200.456 358.204C200.456 358.204 223.145 380.902 223.145 399.526L219.072 356.458C219.072 356.458 230.707 372.172 229.544 396.034C228.38 419.897 221.083 420.479 221.083 420.479Z" fill="#E6E6E6"/>
<path d="M543.034 449.216C543.069 490.182 461.854 477.581 362.428 477.667C263.002 477.753 183.015 490.493 182.98 449.527C182.944 408.561 264.13 399.581 363.556 399.496C462.982 399.41 542.999 408.25 543.034 449.216Z" fill="#E6E6E6"/>
<path d="M740 477.643H0V479.517H740V477.643Z" fill="#3F3D56"/>
<path d="M473.353 393.892H460.354L454.168 343.733H473.353V393.892Z" fill="#A0616A"/>
<path d="M449.625 390.177H476.138V405.968H435.285V404.523C435.285 400.718 436.796 397.069 439.485 394.378C442.175 391.688 445.822 390.177 449.625 390.177Z" fill="#2F2E41"/>
<path d="M568.897 467.924H555.898L549.712 417.765H568.897V467.924Z" fill="#A0616A"/>
<path d="M545.17 464.209H571.683V480H530.83V478.555C530.83 474.751 532.341 471.101 535.03 468.411C537.72 465.72 541.367 464.209 545.17 464.209Z" fill="#2F2E41"/>
<path d="M628.854 318.91C629.753 317.82 630.402 316.545 630.755 315.177C631.109 313.809 631.158 312.379 630.899 310.99C630.64 309.601 630.08 308.285 629.258 307.135C628.436 305.986 627.373 305.031 626.142 304.337L595.952 181.3L576.648 189.609L612.557 308.575C611.53 310.721 611.324 313.169 611.981 315.457C612.637 317.744 614.109 319.711 616.118 320.984C618.126 322.258 620.532 322.751 622.88 322.368C625.227 321.986 627.353 320.756 628.854 318.91Z" fill="#A0616A"/>
<path d="M605.309 70.2498C604.231 69.1229 602.92 68.2462 601.467 67.6812C600.014 67.1162 598.455 66.8767 596.9 66.9797C595.345 67.0827 593.831 67.5255 592.465 68.2771C591.1 69.0287 589.915 70.0707 588.996 71.3298L542.268 76.6967L549.376 94.7282L591.872 86.7713C594.089 88.1767 596.744 88.7198 599.334 88.2977C601.924 87.8756 604.269 86.5177 605.926 84.4812C607.582 82.4447 608.434 79.8711 608.32 77.2482C608.206 74.6252 607.135 72.1352 605.309 70.2498Z" fill="#A0616A"/>
<path d="M528.304 306.15L548.694 459.251L574.073 454.024C574.073 454.024 570.341 342.524 583.03 329.083C595.719 315.641 566.709 292.094 566.709 292.094L528.304 306.15Z" fill="#2F2E41"/>
<path d="M536.734 263.98L527.367 278.037C527.367 278.037 455.24 248.05 455.24 295.842C455.24 343.634 451.113 376.068 449.62 378.309C448.127 380.549 466.891 386.362 475.848 384.868C475.848 384.868 486.898 307.82 486.152 303.339C486.152 303.339 556.905 338.044 570.341 335.057C583.776 332.07 586.951 321.496 589.19 315.522C591.429 309.548 588.253 262.106 588.253 262.106L543.469 248.433L536.734 263.98Z" fill="#2F2E41"/>
<path d="M537.998 179.583L535.328 176.377C535.328 176.377 505.425 109.066 517.172 90.9023C528.92 72.7389 580.182 70.0678 581.784 71.1363C583.386 72.2047 577.958 86.0765 581.696 92.4872C581.696 92.4872 541.985 101.1 539.315 102.169C536.645 103.237 559.891 142.722 559.891 142.722L557.221 166.761L537.998 179.583Z" fill="#CCCCCC"/>
<path d="M590.329 146.461C590.329 146.461 562.561 149.666 561.493 149.666C560.425 149.666 559.891 142.722 559.891 142.722L535.328 176.377C535.328 176.377 523.227 274.017 526.431 272.414C529.634 270.811 588.727 280.016 589.261 275.742C589.795 271.468 588.727 250.099 590.329 249.031C591.931 247.963 618.096 181.719 618.096 181.719C618.096 181.719 615.426 167.83 606.348 163.022C597.27 158.214 590.329 146.461 590.329 146.461Z" fill="#CCCCCC"/>
<path d="M609.552 172.638L618.096 181.72C618.096 181.72 630.79 286.077 623.849 289.282C616.907 292.488 603.241 292.094 603.241 292.094L589.795 242.62L609.552 172.638Z" fill="#CCCCCC"/>
<path d="M563.646 139.852C577.22 139.852 588.224 128.843 588.224 115.263C588.224 101.683 577.22 90.6745 563.646 90.6745C550.071 90.6745 539.067 101.683 539.067 115.263C539.067 128.843 550.071 139.852 563.646 139.852Z" fill="#A0616A"/>
<path d="M557.878 119.1C557.546 113.998 551.113 113.823 546.002 113.775C540.892 113.727 534.782 113.909 531.89 109.693C529.979 106.907 530.344 103.04 531.923 100.053C533.502 97.0655 536.099 94.7682 538.653 92.5581C545.249 86.8521 552.047 81.1914 559.966 77.5392C567.884 73.887 577.164 72.4113 585.376 75.3431C595.465 78.9445 609.103 97.4833 610.28 108.135C611.458 118.786 607.203 129.644 600.031 137.603C592.859 145.562 576.443 142.351 566.112 145.182C572.393 136.29 568.253 120.131 558.191 115.978L557.878 119.1Z" fill="#2F2E41"/>
<path d="M338.828 437.16C371.414 437.16 397.83 410.732 397.83 378.132C397.83 345.531 371.414 319.103 338.828 319.103C306.242 319.103 279.825 345.531 279.825 378.132C279.825 410.732 306.242 437.16 338.828 437.16Z" fill="#3F3D56"/>
<path d="M299.425 314.909C291.248 314.91 283.246 312.539 276.387 308.084C269.529 303.629 264.108 297.281 260.781 289.807L167.155 78.8695C164.054 71.8821 162.413 64.3341 162.335 56.6892C162.257 49.0444 163.742 41.4643 166.7 34.4148C169.657 27.3653 174.025 20.9955 179.533 15.6968C185.042 10.3981 191.576 6.28249 198.733 3.60295C205.89 0.923402 213.52 -0.263467 221.152 0.115303C228.785 0.494074 236.259 2.43048 243.116 5.80548C249.973 9.18049 256.068 13.9228 261.025 19.7409C265.983 25.559 269.699 32.33 271.945 39.6377L339.741 260.247C341.682 266.561 342.116 273.243 341.007 279.756C339.899 286.269 337.279 292.431 333.358 297.746C329.437 303.062 324.325 307.384 318.432 310.365C312.539 313.346 306.029 314.902 299.425 314.909H299.425Z" fill="#3F3D56"/>
</svg>
