<svg width="719" height="562" viewBox="0 0 719 562" fill="none" xmlns="http://www.w3.org/2000/svg">
<g clip-path="url(#clip0)">
<path opacity="0.1" d="M252.213 551.115C321.481 551.115 377.633 540.489 377.633 527.381C377.633 514.273 321.481 503.646 252.213 503.646C182.946 503.646 126.794 514.273 126.794 527.381C126.794 540.489 182.946 551.115 252.213 551.115Z" fill="#3F3D56"/>
<path opacity="0.1" d="M417.744 79.2562C371.65 77.6625 327.75 62.7931 285.829 46.5292C243.909 30.2654 202.387 12.2513 157.397 3.63558C128.46 -1.90666 95.3641 -2.69637 72.0536 12.7849C49.612 27.7255 42.3617 53.4446 38.466 77.3281C35.5317 95.2995 33.8081 114.217 41.8418 131.043C47.4255 142.725 57.3252 152.543 64.1766 163.734C88.0141 202.665 71.1633 250.674 45.3388 288.687C33.2313 306.516 19.1652 323.549 9.81395 342.509C0.462686 361.469 -3.8604 383.268 4.32284 402.662C12.4277 421.872 31.7499 436.272 52.6816 446.41C95.1931 467.006 145.268 472.897 194.133 476.241C302.267 483.626 410.971 480.432 519.39 477.223C559.516 476.042 599.812 474.84 639.283 468.643C661.204 465.199 683.831 459.735 699.749 446.545C719.947 429.804 724.954 401.46 711.415 380.472C688.71 345.255 625.95 336.511 610.061 298.726C601.329 277.923 610.296 254.758 622.994 235.47C650.229 194.085 695.874 157.78 698.275 110.482C699.927 77.9969 677.984 45.462 644.054 30.0875C608.494 13.973 559.174 16.0007 532.95 42.6731C505.922 70.1069 458.447 80.672 417.744 79.2562Z" fill="#3F3D56"/>
<path d="M381.115 257.362L359.301 242.67L370.304 226.307L312.687 221.718L291.983 237.711L266.066 223.198L244.45 225.795L244.194 220.103C243.926 214.169 243.33 208.255 242.406 202.388C242.499 200.609 242.563 198.567 242.556 196.347C242.556 186.992 241.288 174.591 235.719 166.324L237.001 154.813L226.602 142.54C228.272 139.217 230.176 136.017 232.3 132.964C232.656 132.452 233.012 131.954 233.397 131.47C246.893 130.495 257.541 119.411 257.541 105.857C257.541 105.231 257.541 104.605 257.469 103.986C257.469 103.737 257.42 103.481 257.391 103.232C258.709 103.944 260.04 104.655 261.372 105.366C261.622 105.722 261.906 106.078 262.22 106.498L262.284 106.576L262.683 107.067L262.811 107.216C262.953 107.387 263.103 107.551 263.253 107.721L263.352 107.835C263.73 108.255 264.129 108.682 264.556 109.102C264.607 109.143 264.654 109.188 264.698 109.237L265.232 109.735L265.382 109.87C265.838 110.276 266.322 110.667 266.806 111.037L266.963 111.151L267.576 111.57L267.775 111.698C268.01 111.841 268.252 111.99 268.487 112.125L268.573 112.175C268.85 112.324 269.135 112.467 269.42 112.602L269.563 112.659C269.805 112.763 270.042 112.863 270.275 112.958L270.496 113.036C270.745 113.121 270.987 113.2 271.243 113.271L271.4 113.313C271.714 113.392 272.027 113.456 272.347 113.506H272.383C272.685 113.554 272.989 113.585 273.295 113.598H273.501C273.774 113.612 274.047 113.612 274.32 113.598H274.498C274.84 113.578 275.18 113.538 275.517 113.477C277.11 113.268 278.64 112.719 280.004 111.869C280.351 111.637 280.658 111.351 280.915 111.023C282.34 109.159 280.773 107.117 280.773 107.117C280.217 105.793 276.614 104.861 276.614 104.861C276.614 104.861 265.218 100.109 265.218 96.3239C265.218 92.5389 262.369 72.9027 232.962 68.4135C232.962 68.4135 213.833 67.3392 208.455 77.5699L208.341 78.7651C206.76 79.7541 205.45 81.739 203.89 82.3224C203.216 82.467 202.566 82.7066 201.96 83.0339V82.8987C201.78 83.056 201.632 83.2469 201.526 83.4607C201.191 84.1267 200.99 84.8519 200.935 85.5951C200.774 86.503 200.458 87.3766 200.002 88.1777C199.874 88.4053 199.731 88.624 199.574 88.8322V88.8322L199.453 89.0243C200.28 89.0887 201.11 88.9545 201.875 88.633C201.754 89.6071 201.515 90.5628 201.162 91.4788C201.615 91.4935 202.063 91.3779 202.452 91.1458C202.84 90.9137 203.154 90.575 203.356 90.1698V90.1129L203.449 89.9848C203.628 89.6554 203.776 89.3101 203.89 88.9532L203.812 89.0386C203.954 88.5761 204.082 88.1065 204.239 87.6512C204.311 87.3947 204.429 87.1536 204.588 86.9398C204.778 86.7483 205.011 86.6042 205.267 86.5189C205.523 86.4336 205.795 86.4096 206.062 86.4489L205.77 92.6172H205.899C205.727 93.0659 205.517 93.4991 205.272 93.912C204.261 95.5484 202.423 96.6654 201.746 98.4582C201.455 99.3229 201.343 100.238 201.419 101.148C201.419 101.681 201.483 102.222 201.526 102.755V102.713C201.625 104.136 201.654 105.487 200.885 106.633C200.358 107.415 199.51 108.006 199.218 108.895C199.137 109.143 199.101 109.403 199.111 109.664C199.168 110.443 199.331 111.212 199.596 111.947C199.599 111.933 199.599 111.919 199.596 111.905C199.773 112.446 199.815 113.023 199.717 113.584C199.396 115.007 197.666 116.195 197.751 117.554C197.746 117.732 197.773 117.911 197.829 118.08C198.162 118.744 198.739 119.254 199.439 119.503C200.537 120.127 201.798 120.405 203.057 120.3C203.529 120.215 203.985 120.059 204.41 119.837C203.912 120.983 203.399 122.114 202.879 123.188C202.801 123.359 202.715 123.53 202.63 123.701C202.63 123.701 198.228 120.762 195.728 126.753C194.999 127.998 194.477 129.353 194.183 130.765C194.058 131.33 193.881 131.883 193.656 132.416C192.546 134.293 190.885 135.783 188.898 136.685C183.799 139.018 163.202 164.68 162.839 171.325C162.66 173.919 162.221 176.489 161.528 178.995C159.907 184.897 159.49 191.064 160.303 197.13C160.558 199.09 160.979 201.025 161.564 202.914C163.75 209.552 165.21 221.938 165.21 221.938L167.575 243.439C167.487 246.406 167.616 249.376 167.959 252.325C165.545 255.078 155.852 266.554 159.555 269.677C162.404 272.139 167.39 271.733 170.189 271.228C167.831 277.055 164.121 287.186 163.629 294.144C162.917 304.439 164.847 318.077 167.902 323.314C170.958 328.55 181.142 341.982 181.142 341.982C181.142 341.982 180.665 360.409 184.305 367.104C187.944 373.799 189.411 387.686 189.411 387.686C189.411 387.686 192.808 399.411 191.106 403.722C189.404 408.034 194.261 411.62 189.162 414.487C184.062 417.354 177.539 481.975 177.539 481.975C177.539 481.975 174.911 524.328 177.539 526.484C177.679 526.586 177.829 526.674 177.987 526.747V540.976C177.987 540.976 176.164 543.964 183.578 544.569C188.656 544.975 203.05 545.893 211.589 546.426L218.206 546.839C218.206 546.839 233.874 549.955 240.797 546.839C247.719 543.723 259.991 543.794 258.167 535.562C257.926 534.442 257.602 533.341 257.199 532.268C255.197 527.16 251.8 526.576 245.54 525.154C245.177 525.075 244.828 525.004 244.507 524.947C237.912 523.802 235.747 526.868 232.051 522.877C228.839 519.426 218.611 515.563 215.129 514.339C215.214 514.083 215.321 513.834 215.407 513.571C214.42 513.404 213.503 512.957 212.764 512.283L222.201 512.881L227.82 513.23C227.82 513.23 241.139 515.883 247.05 513.23C252.961 510.576 263.359 510.647 261.807 503.653C261.602 502.7 261.329 501.764 260.988 500.85C259.286 496.51 256.394 496.034 251.074 494.831C250.768 494.767 250.483 494.703 250.198 494.653C244.593 493.679 242.755 496.283 239.614 492.896C236.922 490.008 228.426 486.771 225.37 485.668C225.37 484.088 223.234 481.84 221.888 479.585C220.307 476.952 223.227 467.739 223.227 467.739L224.893 429.513C225.528 429.23 226.199 429.039 226.887 428.944C226.887 428.944 234.422 421.758 232.72 414.103C232.373 411.787 232.193 409.45 232.179 407.109C234.657 404.811 238.069 401.417 239.038 399.326C240.619 395.918 239.038 379.405 239.038 379.405V316.263L251.644 317.537L263.082 318.711L266.564 319.066L278.002 320.219L304.29 322.873L327.978 318.39L338.226 316.455L359.301 312.471V260.962L381.115 257.362ZM207.615 86.6765L206.148 86.52C206.632 86.5413 207.145 86.6338 207.615 86.6765Z" fill="url(#paint0_linear)"/>
<path d="M329.986 290.807C322.864 300.988 297.26 295.595 297.26 295.595L277.418 277.048L274.748 274.536L279.227 265.031C279.227 265.031 280.652 265.423 283.095 266.12C295.921 269.841 335.997 282.248 329.986 290.807Z" fill="#EFB7B9"/>
<path opacity="0.1" d="M283.08 266.12C282.204 269.165 279.804 273.725 277.418 277.048L274.748 274.536L279.227 265.031C279.227 265.031 280.666 265.423 283.08 266.12Z" fill="black"/>
<path d="M215.029 158.932C215.029 158.932 196.74 167.035 197.637 186.935C198.283 199.755 199.681 212.526 201.825 225.183C201.825 225.183 198.086 255.128 213.654 262.847C229.223 270.566 243.631 276.913 243.631 276.913C243.631 276.913 267.989 279.531 271.015 280.612C274.042 281.694 283.5 265.159 281.756 262.584C280.011 260.008 257.655 254.609 254.806 250.311C251.957 246.014 245.369 243.36 245.369 243.36C245.369 243.36 238.567 239.248 238.104 235.534C237.642 231.821 239.436 229.053 239.892 227.424C240.348 225.795 241.502 210.064 241.502 210.064C241.502 210.064 249.179 154.073 215.029 158.932Z" fill="#DCE6F2"/>
<path opacity="0.1" d="M227.101 224.365C227.101 224.365 202.01 228.562 204.439 237.334C204.439 237.334 213.548 227.865 227.101 224.365Z" fill="black"/>
<path opacity="0.1" d="M227.293 227.915C227.293 227.915 213.498 239.163 216.197 239.739C218.897 240.315 227.293 227.915 227.293 227.915Z" fill="black"/>
<path opacity="0.1" d="M233.924 231.835C233.924 231.835 230.228 239.398 232.5 238.885C234.772 238.373 233.924 231.835 233.924 231.835Z" fill="black"/>
<path opacity="0.1" d="M284.006 266.924L282.482 266.49C282.916 265.067 283.037 263.914 282.681 263.381C280.936 260.805 258.595 255.413 255.753 251.108C252.911 246.804 246.316 244.157 246.316 244.157C246.316 244.157 239.515 240.045 239.052 236.331C238.589 232.617 240.383 229.85 240.839 228.221C241.295 226.591 242.449 210.854 242.449 210.854C242.449 210.854 250.105 154.87 215.955 159.729C215.955 159.729 197.665 167.839 198.556 187.739C199.202 200.559 200.602 213.331 202.751 225.987C202.751 225.987 199.011 255.932 214.58 263.651C230.149 271.37 244.557 277.717 244.557 277.717C244.557 277.717 268.907 280.328 271.941 281.416C273.088 281.829 275.16 279.702 277.19 276.778L278.344 277.852L298.186 296.392C298.186 296.392 323.79 301.792 330.912 291.611C336.93 283.045 296.861 270.638 284.006 266.924Z" fill="black"/>
<path d="M204.503 84.2434C203.805 84.3796 203.138 84.6372 202.53 85.0047C201.818 85.5952 201.818 86.6054 201.64 87.4877C201.43 88.7149 200.943 89.8781 200.215 90.8884C201.026 90.9478 201.838 90.8137 202.587 90.4971C202.465 91.4709 202.226 92.4264 201.875 93.3429C202.318 93.3542 202.756 93.2374 203.135 93.0064C203.514 92.7755 203.818 92.4403 204.011 92.041C204.388 91.2393 204.686 90.4029 204.901 89.5438C204.968 89.2868 205.084 89.0452 205.243 88.8323C205.898 88.0568 207.116 88.4054 208.128 88.505C208.969 88.5759 209.815 88.4207 210.576 88.0554C211.337 87.6901 211.987 87.1281 212.458 86.4276C213.533 84.7983 213.597 80.6292 211.034 80.1881C208.356 79.747 206.689 83.4324 204.503 84.2434Z" fill="#965D7B"/>
<g opacity="0.1">
<path opacity="0.1" d="M202.459 85.8799C202.523 85.5313 202.566 85.1684 202.644 84.8198C201.967 85.4103 201.932 86.4135 201.754 87.3028C201.664 87.8159 201.523 88.3188 201.333 88.804C201.894 87.9111 202.276 86.9181 202.459 85.8799V85.8799Z" fill="black"/>
<path opacity="0.1" d="M202.687 91.7565C203.041 90.841 203.28 89.8851 203.399 88.9106C202.686 89.2105 201.914 89.3443 201.141 89.3019C200.916 89.8023 200.642 90.279 200.322 90.7249C201.13 90.7873 201.94 90.6555 202.687 90.3407C202.568 91.3151 202.329 92.2711 201.974 93.1865C202.418 93.1969 202.855 93.0797 203.234 92.8489C203.613 92.618 203.917 92.2833 204.111 91.8845C204.288 91.5611 204.432 91.2202 204.538 90.8671C204.329 91.1589 204.05 91.3933 203.726 91.5488C203.403 91.7042 203.045 91.7756 202.687 91.7565V91.7565Z" fill="black"/>
<path opacity="0.1" d="M208.94 86.9186C207.928 86.819 206.703 86.4704 206.048 87.2459C205.892 87.4605 205.776 87.7015 205.706 87.9573C205.642 88.1423 205.585 88.3344 205.535 88.5265C206.212 87.9929 207.309 88.2775 208.228 88.37C209.069 88.4386 209.913 88.2824 210.674 87.9173C211.435 87.5522 212.085 86.9914 212.558 86.2925C212.774 85.9471 212.935 85.5703 213.035 85.1755C212.547 85.7786 211.919 86.2529 211.205 86.5568C210.491 86.8607 209.713 86.9849 208.94 86.9186Z" fill="black"/>
</g>
<path d="M225.94 143.002L236.801 156.051L235.384 169.22L222.258 148.694L225.94 143.002Z" fill="#DCE6F2"/>
<path opacity="0.1" d="M236.794 156.051L235.462 168.437L235.377 169.22L223.533 150.693L222.258 148.694L222.628 148.118L225.933 143.002L226.667 143.885L236.794 156.051Z" fill="black"/>
<path d="M242.435 125.337C238.76 126.39 235.249 130.004 232.193 134.394C230.128 137.423 228.281 140.594 226.667 143.885C225.662 145.891 224.779 147.819 224.046 149.498L223.533 150.693C222.294 153.617 221.603 155.574 221.603 155.574C221.603 155.574 193.471 134.444 197.922 133.021C199.418 132.544 201.383 129.343 203.328 125.309L203.57 124.796C204.802 122.207 206.013 119.318 207.088 116.6C209.289 111.015 210.92 106.163 210.92 106.163C210.92 106.163 253.652 122.136 242.435 125.337Z" fill="#EFB7B9"/>
<path d="M259.264 104.975C259.264 104.975 265.759 116.714 274.484 115.114C283.208 113.513 279.619 108.81 279.619 108.81L259.264 104.975Z" fill="#444053"/>
<path d="M246.68 511.323C240.925 513.948 227.913 511.323 227.913 511.323L222.429 510.981C215.307 510.526 203.385 509.758 199.168 509.416C193.015 508.911 194.525 506.393 194.525 506.393V491.175L224.38 483.619C224.38 483.619 236.182 487.653 239.415 491.175C242.485 494.533 244.279 491.95 249.756 492.918C250.027 492.967 250.312 493.024 250.611 493.095C255.81 494.284 258.63 494.753 260.297 499.057C260.632 499.962 260.901 500.889 261.102 501.832C262.64 508.762 252.427 508.712 246.68 511.323Z" fill="#A36468"/>
<path opacity="0.1" d="M260.297 499.057C259.227 499.725 258.102 500.301 256.935 500.779C253.018 502.565 249.293 504.742 245.333 506.428C241.374 508.114 237.107 509.317 232.82 508.997C230.577 508.833 228.283 508.285 226.14 508.925C224.814 509.437 223.565 510.129 222.429 510.982C215.307 510.526 203.385 509.758 199.168 509.416C193.015 508.911 194.525 506.393 194.525 506.393V504.614C194.745 504.614 194.995 504.55 195.28 504.529C196.754 504.505 198.221 504.724 199.624 505.176C202.715 506.016 205.792 506.841 208.883 507.666C209.137 506.708 209.584 505.811 210.196 505.031C210.808 504.25 211.573 503.603 212.444 503.127C214.208 502.191 216.188 501.737 218.184 501.811C222.977 501.875 227.514 504.144 232.3 504.372C233.638 504.495 234.985 504.269 236.21 503.718C236.865 503.39 237.442 502.914 238.083 502.551C239.109 502.055 240.193 501.689 241.309 501.462C244.448 500.682 247.53 499.688 250.533 498.488C251.387 498.154 252.384 497.549 252.27 496.639C252.121 495.429 250.219 495.287 249.721 494.177C249.633 493.977 249.592 493.759 249.602 493.541C249.612 493.322 249.672 493.109 249.778 492.918C250.048 492.967 250.333 493.024 250.632 493.095C255.81 494.284 258.63 494.753 260.297 499.057Z" fill="black"/>
<path d="M240.597 544.619C233.831 547.707 218.519 544.619 218.519 544.619L212.073 544.242C203.726 543.709 189.667 542.819 184.703 542.399C177.46 541.802 179.241 538.842 179.241 538.842V520.906L214.374 512.013C214.374 512.013 228.262 516.759 232.065 520.906C235.676 524.855 237.763 521.817 244.237 522.955C244.557 523.012 244.892 523.083 245.241 523.162C251.359 524.585 254.678 525.118 256.636 530.184C257.033 531.247 257.349 532.339 257.583 533.449C259.35 541.603 247.363 541.539 240.597 544.619Z" fill="#A36468"/>
<path opacity="0.1" d="M256.622 530.184C255.363 530.969 254.041 531.647 252.669 532.211C248.061 534.31 243.674 536.871 239.016 538.856C234.358 540.841 229.337 542.25 224.288 541.88C221.653 541.688 218.953 541.026 216.454 541.795C214.887 542.404 213.413 543.228 212.073 544.242C203.726 543.708 189.667 542.819 184.703 542.399C177.46 541.802 179.241 538.842 179.241 538.842V536.75C179.536 536.702 179.833 536.669 180.131 536.651C181.866 536.619 183.594 536.876 185.245 537.412L196.134 540.343C196.438 539.213 196.969 538.156 197.695 537.237C198.421 536.318 199.327 535.557 200.358 535C202.434 533.895 204.766 533.36 207.117 533.449C212.757 533.528 218.092 536.195 223.725 536.466C225.294 536.609 226.873 536.347 228.312 535.705C229.088 535.313 229.736 534.751 230.52 534.331C231.724 533.742 233 533.312 234.316 533.051C237.989 532.125 241.596 530.956 245.113 529.55C246.117 529.152 247.292 528.441 247.157 527.373C246.979 525.95 244.742 525.78 244.151 524.471C244.052 524.234 244.006 523.979 244.019 523.723C244.031 523.467 244.101 523.216 244.222 522.991C244.543 523.048 244.878 523.119 245.227 523.197C251.344 524.563 254.663 525.118 256.622 530.184Z" fill="black"/>
<path d="M225.285 421.544L223.383 466.245C223.383 466.245 220.534 475.373 222.08 477.984C223.625 480.595 226.232 483.199 225.285 484.743C224.338 486.287 212.942 502.978 209.26 496.574C205.578 490.171 201.946 462.425 201.946 462.425L205.343 428.154L225.285 421.544Z" fill="#444053"/>
<path d="M233.532 310.173L238.817 317.231V378.615C238.817 378.615 240.362 394.979 238.817 398.358C237.271 401.738 229.437 408.496 229.437 408.496L222.849 374.702L224.274 338.952L233.532 310.173Z" fill="#444053"/>
<path opacity="0.1" d="M225.285 421.544L223.383 466.245C223.383 466.245 220.534 475.373 222.08 477.984C223.625 480.595 226.232 483.199 225.285 484.743C224.338 486.287 212.942 502.978 209.26 496.574C205.578 490.171 201.946 462.425 201.946 462.425L205.343 428.154L225.285 421.544Z" fill="black"/>
<path opacity="0.1" d="M233.532 310.173L238.817 317.231V378.615C238.817 378.615 240.362 394.979 238.817 398.358C237.271 401.738 229.437 408.496 229.437 408.496L222.849 374.702L224.274 338.952L233.532 310.173Z" fill="black"/>
<path d="M238.817 283.992V317.195L232.884 343.042C232.884 343.042 230.983 405.416 232.642 413C234.301 420.584 226.944 427.706 226.944 427.706C226.944 427.706 222.671 428.182 222.671 431.498C222.671 434.813 215.549 444.304 215.549 444.304L215.784 462.802C215.784 462.802 218.875 497.428 214.125 504.066C209.374 510.704 215.784 511.657 215.784 511.657C209.851 531.101 181.363 526.598 178.792 524.464C176.221 522.329 178.792 480.353 178.792 480.353C178.792 480.353 185.159 416.322 190.145 413.477C195.13 410.631 190.387 407.073 192.046 402.805C193.706 398.536 190.387 386.918 190.387 386.918C190.387 386.918 188.962 373.158 185.401 366.52C181.84 359.883 182.31 341.62 182.31 341.62C182.31 341.62 172.34 328.337 169.377 323.122C166.414 317.907 164.505 304.389 165.217 294.187C165.702 287.293 169.327 277.254 171.627 271.477C172.731 268.71 173.529 266.917 173.529 266.917L174.205 267.095L213.106 277.268L238.817 283.992Z" fill="#444053"/>
<path opacity="0.1" d="M242.435 125.337C238.76 126.39 235.249 130.004 232.193 134.394H231.396C226.917 134.397 222.517 133.219 218.64 130.979C214.764 128.739 211.548 125.517 209.317 121.637C208.385 120.03 207.635 118.324 207.081 116.551C209.282 110.966 210.912 106.114 210.912 106.114C210.912 106.114 253.652 122.136 242.435 125.337Z" fill="black"/>
<path d="M256.857 107.551C256.863 111.443 255.975 115.286 254.261 118.782C252.546 122.277 250.051 125.333 246.968 127.714C243.885 130.095 240.296 131.738 236.478 132.515C232.659 133.292 228.713 133.183 224.944 132.196C221.174 131.21 217.681 129.372 214.734 126.825C211.788 124.277 209.466 121.088 207.947 117.503C206.428 113.918 205.754 110.033 205.975 106.146C206.197 102.26 207.309 98.4757 209.225 95.0859C209.997 93.7086 210.898 92.4079 211.917 91.2014C213.596 89.2026 215.57 87.4706 217.771 86.0647C221.489 83.7049 225.755 82.3487 230.154 82.1287C234.553 81.9087 238.934 82.8324 242.869 84.8095C246.803 86.7866 250.157 89.7496 252.603 93.4088C255.048 97.068 256.502 101.298 256.821 105.687C256.836 106.313 256.857 106.932 256.857 107.551Z" fill="#EFB7B9"/>
<path opacity="0.1" d="M235.462 168.437L235.377 169.22L223.533 150.722C222.294 153.646 221.603 155.602 221.603 155.602C221.603 155.602 193.471 134.444 197.922 133.021C199.418 132.544 201.383 129.343 203.328 125.309L203.57 124.796C205.635 130.943 217.636 143.23 222.628 148.153C223.205 148.723 223.682 149.192 224.053 149.534L224.815 150.245L225.214 150.644C227.03 152.515 234.693 160.768 235.462 168.437Z" fill="black"/>
<path d="M244.315 231.202L243.019 272.872L242.791 280.292C242.791 280.292 227.436 278.869 213.106 277.304C201.568 276.045 190.693 274.686 189.019 273.889C186.883 272.886 182.303 272.11 178.692 271.62C175.9 271.243 173.707 271.043 173.707 271.043C173.707 271.043 172.888 271.285 171.627 271.513C168.878 272.011 164.049 272.416 161.236 269.976C157.639 266.853 167.09 255.505 169.448 252.78L169.968 252.19L169.077 243.972L166.763 222.664C166.763 222.664 165.338 210.392 163.202 203.811C162.631 201.94 162.218 200.024 161.97 198.084C161.176 192.073 161.582 185.965 163.166 180.112C163.843 177.625 164.272 175.078 164.448 172.507C164.804 165.926 184.924 140.491 189.909 138.179C192.152 137.134 193.957 135.337 195.009 133.099C195.356 132.396 195.617 131.653 195.785 130.887C197.922 121.638 203.327 125.309 203.327 125.309C204.631 132.544 224.808 151.697 224.808 151.697L225.206 152.095C227.208 154.144 236.125 163.763 235.491 171.973C235.364 175.029 235.821 178.081 236.837 180.966C240.941 193.875 243.3 207.274 243.852 220.807L244.315 231.202Z" fill="#DCE6F2"/>
<path opacity="0.1" d="M215.727 181.72C215.727 181.72 210.742 193.815 207.003 195.771C203.264 197.728 217.508 199.898 215.727 181.72Z" fill="black"/>
<path opacity="0.1" d="M219.466 204.309C219.466 204.309 208.071 205.732 208.071 207.866C208.071 210 219.466 204.309 219.466 204.309Z" fill="black"/>
<path opacity="0.1" d="M231.396 218.182C231.396 218.182 214.837 253.399 210.208 254.466C205.578 255.534 231.396 218.182 231.396 218.182Z" fill="black"/>
<path opacity="0.1" d="M224.494 153.482L210.799 159.43L194.268 134.486C194.616 133.783 194.876 133.04 195.045 132.274C197.181 123.025 202.587 126.696 202.587 126.696C203.89 133.932 224.067 153.084 224.067 153.084L224.494 153.482Z" fill="black"/>
<path d="M225.206 152.059L211.511 158.007L194.98 133.064C195.328 132.36 195.588 131.617 195.757 130.851C197.893 121.602 203.299 125.273 203.299 125.273C204.602 132.509 224.779 151.661 224.779 151.661L225.206 152.059Z" fill="#DCE6F2"/>
<path opacity="0.1" d="M242.791 280.292C242.791 280.292 227.436 278.869 213.106 277.304L238.817 284.027V291.853C237.691 292.871 236.716 293.397 236.082 293.127C233.119 291.882 208.94 287.969 208.94 287.969C208.94 287.969 194.895 280.854 179.739 272.317C179.371 272.113 179.015 271.89 178.671 271.648C176.904 270.449 175.381 268.926 174.184 267.159C171.385 263.11 170.018 257.91 169.426 252.809C169.094 249.885 168.97 246.942 169.056 244.001C169.13 240.666 169.434 237.34 169.968 234.048C168.502 221.294 167.789 208.466 167.831 195.629C168.009 175.708 186.705 168.594 186.705 168.594C221.069 165.57 210.414 221.063 210.414 221.063C210.414 221.063 208.427 236.715 207.886 238.316C207.344 239.917 205.4 242.585 205.663 246.32C205.927 250.055 212.494 254.523 212.494 254.523C212.494 254.523 218.903 257.526 221.546 261.972C223.469 265.252 235.961 269.699 243.019 272.872L242.791 280.292Z" fill="black"/>
<path opacity="0.1" d="M254.3 91.7565C254.313 92.9283 254.07 94.0889 253.588 95.1572C253.223 96.029 252.799 96.8752 252.32 97.69C251.571 99.1889 250.507 100.509 249.201 101.56C247.555 102.734 245.476 103.061 243.503 103.538C241.53 104.015 239.479 104.776 238.354 106.455C237.744 107.534 237.336 108.716 237.15 109.941C236.961 111.166 236.472 112.324 235.726 113.314C235.337 113.797 234.799 114.137 234.196 114.281C233.592 114.425 232.958 114.365 232.393 114.11C231.797 113.709 231.345 113.128 231.104 112.453C230.292 110.624 230.085 108.597 229.757 106.626C229.43 104.655 228.967 102.628 227.756 101.041C226.545 99.4544 224.402 98.4086 222.5 99.0275C221.864 99.2723 221.283 99.643 220.794 100.117C220.304 100.592 219.916 101.16 219.651 101.788C219.125 103.045 218.763 104.365 218.576 105.715C217.693 110.544 216.65 115.344 215.449 120.115C215.413 120.311 215.332 120.495 215.214 120.656C215.025 120.844 214.769 120.952 214.502 120.955C212.907 121.168 211.375 120.051 209.766 120.172C209.6 120.183 209.435 120.209 209.274 120.25C206.672 115.732 205.523 110.524 205.983 105.332C206.443 100.14 208.489 95.2142 211.845 91.2229L211.974 91.1873C213.044 90.8076 214.017 90.1952 214.822 89.3944C215.851 88.3667 216.803 87.2658 217.671 86.1004L218.241 85.3889C219.878 83.4189 221.743 81.6493 223.796 80.117C224.357 79.6583 225 79.3106 225.691 79.0925C226.282 78.9775 226.888 78.9582 227.486 79.0356C229.945 79.3306 232.425 79.4234 234.9 79.3131C236.624 79.0423 238.362 78.8666 240.106 78.7866C244.614 78.9147 248.46 82.0949 251.309 85.581C252.84 87.3668 254.207 89.4229 254.3 91.7565Z" fill="black"/>
<path d="M205.899 95.7619C204.909 97.384 203.121 98.4868 202.452 100.265C201.469 102.848 203.128 106.064 201.604 108.369C201.098 109.144 200.265 109.721 199.98 110.61C199.496 112.111 200.821 113.712 200.479 115.256C200.137 116.8 198.1 118.102 198.641 119.61C198.961 120.268 199.522 120.777 200.208 121.033C201.287 121.651 202.529 121.927 203.769 121.822C205.713 121.502 207.159 119.596 209.132 119.453C210.734 119.34 212.266 120.449 213.861 120.243C214.128 120.234 214.383 120.125 214.573 119.937C214.694 119.779 214.775 119.593 214.808 119.396C216.005 114.63 217.049 109.83 217.942 104.997C218.124 103.646 218.483 102.326 219.01 101.069C219.277 100.443 219.666 99.8754 220.155 99.4013C220.645 98.9272 221.224 98.5558 221.859 98.3089C223.761 97.697 225.897 98.7358 227.115 100.322C228.333 101.909 228.796 103.937 229.124 105.907C229.451 107.878 229.658 109.906 230.463 111.734C230.707 112.412 231.161 112.995 231.759 113.399C232.827 114.018 234.266 113.527 235.085 112.602C235.835 111.612 236.325 110.45 236.509 109.223C236.695 107.999 237.103 106.82 237.713 105.744C238.838 104.065 240.896 103.303 242.862 102.827C244.828 102.35 246.9 102.016 248.56 100.842C249.864 99.7914 250.928 98.4741 251.679 96.9785C252.733 95.1429 253.716 93.1508 253.631 91.0378C253.538 88.7327 252.171 86.6766 250.711 84.8837C247.862 81.3976 244.009 78.2174 239.5 78.0964C237.756 78.1693 236.018 78.3451 234.294 78.6229C231.819 78.7341 229.339 78.6389 226.88 78.3383C226.282 78.2669 225.677 78.2885 225.085 78.4024C224.394 78.6134 223.752 78.9619 223.198 79.4269C221.143 80.9565 219.276 82.7237 217.636 84.6916C216.578 86.0921 215.432 87.4229 214.203 88.6758C213.397 89.4779 212.425 90.0925 211.354 90.4758C210.642 90.675 209.93 90.5327 209.253 90.7532C207.152 91.4149 206.874 94.154 205.899 95.7619Z" fill="#965D7B"/>
<path opacity="0.1" d="M274.484 115.106C268.786 116.152 264.064 111.549 261.451 108.191C260.648 107.171 259.917 106.097 259.264 104.975L278.821 108.661L279.612 108.81C279.612 108.81 283.208 113.513 274.484 115.106Z" fill="black"/>
<g opacity="0.1">
<path opacity="0.1" d="M200.479 113.221C200.558 112.291 200.417 111.354 200.066 110.489C200.066 110.56 200.002 110.631 199.98 110.702C199.674 111.656 200.087 112.645 200.351 113.634C200.407 113.501 200.45 113.363 200.479 113.221V113.221Z" fill="black"/>
<path opacity="0.1" d="M202.174 101.574C202.1 102.558 202.12 103.547 202.231 104.527C202.304 103.543 202.285 102.555 202.174 101.574Z" fill="black"/>
<path opacity="0.1" d="M251.636 94.9224C250.887 96.4213 249.823 97.7413 248.517 98.7927C246.872 99.9666 244.799 100.294 242.819 100.771C240.839 101.247 238.795 102.008 237.67 103.688C237.061 104.767 236.653 105.948 236.466 107.174C236.281 108.401 235.791 109.563 235.042 110.553C234.223 111.478 232.784 111.976 231.716 111.35C231.118 110.946 230.664 110.363 230.42 109.685C229.615 107.857 229.401 105.836 229.081 103.858C228.76 101.88 228.283 99.8599 227.072 98.2733C225.862 96.6868 223.718 95.641 221.816 96.2599C221.181 96.5058 220.601 96.8768 220.111 97.351C219.622 97.8253 219.233 98.393 218.968 99.0204C218.44 100.277 218.081 101.597 217.899 102.948C217.011 107.781 215.967 112.581 214.766 117.347C214.732 117.544 214.652 117.73 214.531 117.888C214.34 118.076 214.086 118.185 213.818 118.194C212.223 118.4 210.692 117.291 209.089 117.404C207.116 117.547 205.671 119.453 203.726 119.766C202.486 119.878 201.242 119.602 200.165 118.977C199.67 118.764 199.226 118.449 198.862 118.052C198.695 118.29 198.585 118.563 198.539 118.85C198.494 119.138 198.514 119.431 198.598 119.709C198.912 120.372 199.475 120.883 200.165 121.132C201.242 121.757 202.486 122.033 203.726 121.922C205.671 121.609 207.116 119.702 209.089 119.56C210.692 119.446 212.223 120.556 213.818 120.35C214.086 120.341 214.34 120.231 214.531 120.044C214.652 119.885 214.732 119.7 214.766 119.503C215.962 114.76 217.007 109.96 217.899 105.103C218.081 103.753 218.44 102.433 218.968 101.176C219.233 100.549 219.622 99.981 220.111 99.5068C220.601 99.0325 221.181 98.6615 221.816 98.4156C223.718 97.7967 225.855 98.8425 227.072 100.429C228.29 102.016 228.753 104.043 229.081 106.014C229.409 107.985 229.615 110.012 230.42 111.841C230.664 112.519 231.118 113.102 231.716 113.506C232.784 114.125 234.223 113.634 235.042 112.709C235.791 111.718 236.281 110.557 236.466 109.329C236.653 108.104 237.061 106.923 237.67 105.843C238.795 104.164 240.854 103.41 242.819 102.926C244.785 102.442 246.858 102.122 248.517 100.948C249.823 99.897 250.887 98.577 251.636 97.0781C252.691 95.2497 253.673 93.2576 253.588 91.1446C253.574 90.8729 253.545 90.6021 253.502 90.3335C253.159 91.9619 252.527 93.5159 251.636 94.9224V94.9224Z" fill="black"/>
</g>
<path opacity="0.1" d="M253.616 95.1357C255.443 98.3796 256.525 101.988 256.786 105.701C250.44 102.144 244.472 98.2377 241.459 96.8788C236.21 94.5097 216.582 94.8654 209.203 95.0859C209.975 93.7086 210.876 92.4079 211.895 91.2014C213.581 89.201 215.563 87.4688 217.771 86.0647C220.696 84.2105 223.968 82.9717 227.388 82.4238C230.808 81.8759 234.305 82.0306 237.663 82.8783C241.021 83.726 244.171 85.2489 246.92 87.354C249.67 89.4591 251.96 92.1021 253.652 95.1215L253.616 95.1357Z" fill="black"/>
<path opacity="0.1" d="M276.264 112.09C272.839 113.143 267.248 111.108 261.451 108.191C260.648 107.171 259.917 106.097 259.264 104.975L278.821 108.661C280.117 109.543 280.445 110.802 276.264 112.09Z" fill="black"/>
<path d="M232.913 70.4698C232.913 70.4698 214.217 69.4026 208.961 79.5408L208.114 88.5265L206.689 88.37L206.404 94.4814C206.404 94.4814 234.978 93.2363 241.48 96.1675C247.983 99.0987 268.188 113.869 276.286 111.378C284.384 108.888 275.574 106.576 275.574 106.576C275.574 106.576 264.428 101.859 264.428 98.1596C264.428 94.46 261.664 74.9164 232.913 70.4698Z" fill="#444053"/>
<path opacity="0.1" d="M196.854 403.573C196.854 403.573 208.783 415.134 213.947 414.245C213.947 414.245 199.346 413 196.854 403.573Z" fill="black"/>
<path opacity="0.1" d="M194.361 408.93C194.361 408.93 195.429 414.878 198.278 414.295C201.127 413.711 194.361 408.93 194.361 408.93Z" fill="black"/>
<path opacity="0.1" d="M213.056 508.335C213.056 508.335 196.12 521.497 198.976 521.853C201.832 522.208 213.056 508.335 213.056 508.335Z" fill="black"/>
<path d="M235.711 247.11L290.551 238.195V290.06L238.446 287.336L235.711 247.11Z" fill="#3F3D56"/>
<path opacity="0.05" d="M235.711 247.11L290.551 238.195V290.06L238.446 287.336L235.711 247.11Z" fill="black"/>
<path d="M290.551 238.195L356.316 243.111L352.677 288.246L290.551 290.06V238.195Z" fill="#3F3D56"/>
<path opacity="0.1" d="M290.551 238.195L356.316 243.111L352.677 288.246L290.551 290.06V238.195Z" fill="black"/>
<path d="M310.771 222.365L290.551 238.195L356.316 243.112L367.064 226.912L310.771 222.365Z" fill="#3F3D56"/>
<path d="M215.855 229.821L265.225 223.817L290.551 238.195L235.712 247.11L215.855 229.821Z" fill="#3F3D56"/>
<path d="M302.573 251.663V322.574L276.884 319.942L265.71 318.803L262.305 318.448L251.138 317.302L235.711 315.723V247.11L290.544 250.838L302.573 251.663Z" fill="#3F3D56"/>
<path d="M356.316 243.111V312.265L335.727 316.213L325.713 318.134L302.573 322.574V251.663L356.316 243.111Z" fill="#3F3D56"/>
<path opacity="0.05" d="M356.316 243.111V312.265L335.727 316.213L325.713 318.134L302.573 322.574V251.663L356.316 243.111Z" fill="black"/>
<path d="M215.855 262.036L235.712 247.11L302.573 251.663L292.731 268.226L215.855 262.036Z" fill="#3F3D56"/>
<path opacity="0.1" d="M215.855 262.036L235.712 247.11L302.573 251.663L292.731 268.226L215.855 262.036Z" fill="white"/>
<path d="M356.316 243.111L302.573 251.663L320.065 267.315L377.633 257.668L356.316 243.111Z" fill="#3F3D56"/>
<path opacity="0.1" d="M356.316 243.111L302.573 251.663L320.065 267.315L377.633 257.668L356.316 243.111Z" fill="white"/>
<path opacity="0.1" d="M335.727 316.213L325.713 318.134V303.358L335.093 300.995L335.727 316.213Z" fill="white"/>
<path opacity="0.1" d="M276.884 310.166V319.941L265.709 318.803V310.166H276.884Z" fill="white"/>
<path opacity="0.1" d="M262.305 313.247V318.447L251.138 317.302V313.247H262.305Z" fill="white"/>
<path opacity="0.1" d="M295.85 304.98C288.194 314.762 262.911 308.003 262.911 308.003L244.123 288.424L241.573 285.77L246.558 276.521C246.558 276.521 247.983 276.991 250.362 277.816C262.953 282.213 302.296 296.748 295.85 304.98Z" fill="black"/>
<path d="M295.138 303.557C287.482 313.339 262.199 306.581 262.199 306.581L243.411 287.001L240.861 284.348L245.846 275.099C245.846 275.099 247.271 275.568 249.649 276.393C262.241 280.79 301.584 295.325 295.138 303.557Z" fill="#EFB7B9"/>
<path opacity="0.1" d="M249.621 276.393C248.581 279.382 245.939 283.807 243.382 287.001L240.832 284.348L245.818 275.099C245.818 275.099 247.249 275.568 249.621 276.393Z" fill="black"/>
<path d="M187.417 165.748C187.417 165.748 168.722 172.862 168.544 192.783C168.501 205.62 169.214 218.449 170.68 231.202C170.68 231.202 165.339 260.905 180.473 269.443C195.607 277.98 209.673 285.095 209.673 285.095C209.673 285.095 233.853 289.008 236.823 290.253C239.793 291.498 250.112 275.49 248.51 272.822C246.908 270.154 224.893 263.573 222.279 259.126C219.666 254.68 213.227 251.685 213.227 251.685C213.227 251.685 206.661 247.21 206.397 243.474C206.134 239.739 208.071 237.071 208.619 235.471C209.168 233.87 211.155 218.218 211.155 218.218C211.155 218.218 221.781 162.689 187.417 165.748Z" fill="#DCE6F2"/>
<path opacity="0.1" d="M195.963 231.7C195.963 231.7 170.68 234.546 172.639 243.439C172.639 243.439 182.246 234.467 195.963 231.7Z" fill="black"/>
<path opacity="0.1" d="M195.963 235.257C195.963 235.257 181.612 245.751 184.248 246.462C186.883 247.174 195.963 235.257 195.963 235.257Z" fill="black"/>
<path opacity="0.1" d="M202.373 239.526C202.373 239.526 198.278 246.882 200.593 246.498C202.907 246.114 202.373 239.526 202.373 239.526Z" fill="black"/>
<path d="M465.619 79.9606C465.619 79.9606 438.555 78.3313 441.717 97.2987C441.717 97.2987 441.083 100.65 444.124 102.172C444.124 102.172 444.174 100.749 446.902 101.24C447.873 101.403 448.861 101.451 449.843 101.382C451.175 101.294 452.441 100.771 453.447 99.8955V99.8955C453.447 99.8955 461.06 96.758 464.023 84.3218C464.023 84.3218 466.217 81.604 466.16 80.9068L461.588 82.8633C461.588 82.8633 463.147 86.1573 461.915 88.8964C461.915 88.8964 461.773 82.9842 460.89 83.1194C460.711 83.1194 458.518 84.2649 458.518 84.2649C458.518 84.2649 461.203 89.9992 459.173 94.1754C459.173 94.1754 459.942 87.1036 457.677 84.6775L454.458 86.5557C454.458 86.5557 457.599 92.4822 455.47 97.3201C455.47 97.3201 456.018 89.8996 453.782 87.0111L450.862 89.2806C450.862 89.2806 453.817 95.1288 452.015 99.1414C452.015 99.1414 451.78 90.5043 450.228 89.8498C450.228 89.8498 447.678 92.098 447.294 93.0229C447.294 93.0229 449.309 97.2916 448.056 99.5042C448.056 99.5042 447.286 93.7486 446.631 93.7201C446.631 93.7201 444.089 97.5335 443.825 100.123C443.948 97.7089 444.702 95.3689 446.012 93.3359C444.546 93.6129 443.194 94.3129 442.123 95.3493C442.123 95.3493 442.515 92.6529 446.638 92.4181C446.638 92.4181 448.775 89.5225 449.302 89.3447C449.302 89.3447 445.2 89.0031 442.714 90.1059C442.714 90.1059 444.901 87.566 450.057 88.683L452.906 86.3352C452.906 86.3352 447.507 85.6237 445.214 86.4135C445.214 86.4135 447.849 84.1653 453.682 85.8016L456.816 83.9305C456.816 83.9305 452.215 82.9344 449.473 83.2973C449.473 83.2973 452.364 81.7392 457.734 83.4253L459.978 82.4222C459.978 82.4222 456.602 81.7605 455.619 81.6538C454.636 81.5471 454.579 81.2768 454.579 81.2768C456.715 80.9217 458.908 81.168 460.911 81.9882C460.911 81.9882 465.718 80.2594 465.619 79.9606Z" fill="#3F3D56"/>
<path opacity="0.1" d="M547.85 174.826C547.85 174.826 520.786 173.197 523.948 192.164C523.948 192.164 523.315 195.515 526.356 197.038C526.356 197.038 526.405 195.615 529.14 196.106C530.112 196.269 531.099 196.317 532.082 196.248C533.398 196.153 534.647 195.633 535.643 194.768V194.768C535.643 194.768 543.263 191.624 546.226 179.187C546.226 179.187 548.413 176.477 548.327 175.779L543.755 177.729C543.755 177.729 545.315 181.023 544.09 183.762C544.09 183.762 543.94 177.85 543.064 177.985C542.886 177.985 540.685 179.13 540.685 179.13C540.685 179.13 543.377 184.872 541.348 189.041C541.348 189.041 542.117 181.969 539.845 179.543L536.661 181.4C536.661 181.4 539.802 187.326 537.673 192.164C537.673 192.164 538.221 184.744 535.985 181.855L533.072 184.132C533.072 184.132 536.02 189.973 534.226 193.986C534.226 193.986 533.99 185.348 532.438 184.694C532.438 184.694 529.888 186.942 529.496 187.867C529.496 187.867 531.519 192.136 530.266 194.348C530.266 194.348 529.496 188.593 528.841 188.564C528.841 188.564 526.299 192.378 526.035 194.967C526.162 192.553 526.919 190.213 528.229 188.18C526.761 188.458 525.407 189.157 524.333 190.193C524.333 190.193 524.732 187.497 528.855 187.262C528.855 187.262 530.956 184.367 531.519 184.189C531.519 184.189 527.417 183.847 524.931 184.95C524.931 184.95 527.118 182.41 532.267 183.563L535.116 181.215C535.116 181.215 529.71 180.503 527.424 181.293C527.424 181.293 530.059 179.045 535.892 180.681L539.026 178.81C539.026 178.81 534.418 177.821 531.676 178.177C531.676 178.177 534.574 176.619 539.944 178.305L542.188 177.302C542.188 177.302 538.812 176.64 537.822 176.534C536.832 176.427 536.782 176.156 536.782 176.156C538.92 175.801 541.115 176.048 543.121 176.868C543.121 176.868 547.935 175.125 547.85 174.826Z" fill="#3F3D56"/>
<path opacity="0.1" d="M383.437 157.986C383.437 157.986 389.669 131.598 370.411 131.505C370.411 131.505 367.213 130.31 365.198 133.042C365.198 133.042 366.572 133.334 365.639 135.938C365.317 136.859 365.102 137.814 364.998 138.784C364.86 140.106 365.158 141.437 365.846 142.576V142.576C365.846 142.576 367.648 150.615 379.378 155.652C379.378 155.652 381.685 158.27 382.383 158.299L381.244 153.468C381.244 153.468 377.725 154.443 375.233 152.757C375.233 152.757 381.094 153.617 381.101 152.757C381.101 152.579 380.389 150.224 380.389 150.224C380.389 150.224 374.271 151.889 370.497 149.178C370.497 149.178 377.341 151.142 380.126 149.327L378.844 145.827C378.844 145.827 372.434 147.912 368.047 144.988C368.047 144.988 375.275 146.795 378.509 145.087L376.764 141.829C376.764 141.829 370.497 143.735 366.843 141.281C366.843 141.281 375.389 142.519 376.315 141.11C376.315 141.11 374.535 138.214 373.687 137.674C373.687 137.674 369.158 138.94 367.163 137.325C367.163 137.325 372.968 137.546 373.103 136.934C373.103 136.934 369.777 133.782 367.242 133.071C369.605 133.608 371.787 134.751 373.573 136.386C373.547 134.895 373.087 133.444 372.249 132.21C372.249 132.21 374.841 133.064 374.385 137.19C374.385 137.19 376.878 139.751 376.956 140.335C376.956 140.335 377.989 136.358 377.327 133.718C377.327 133.718 379.463 136.308 377.448 141.181L379.271 144.418C379.271 144.418 380.923 139.225 380.503 136.834C380.503 136.834 382.276 139.808 379.663 145.272L380.98 148.68C380.98 148.68 382.739 144.312 382.853 141.565C382.853 141.565 383.9 144.682 381.315 149.683L381.927 152.059C381.927 152.059 383.152 148.851 383.423 147.897C383.694 146.944 383.971 146.937 383.971 146.937C383.961 149.101 383.347 151.22 382.198 153.055C382.198 153.055 383.131 158.021 383.437 157.986Z" fill="#3F3D56"/>
<path opacity="0.1" d="M324.168 166.978C324.168 166.978 302.431 150.736 294.661 168.33C294.661 168.33 292.289 170.785 293.991 173.723C293.991 173.723 294.803 172.578 296.84 174.477C297.562 175.148 298.36 175.73 299.219 176.213C300.382 176.86 301.725 177.11 303.044 176.925V176.925C303.044 176.925 311.134 178.483 320.45 169.725C320.45 169.725 323.776 168.658 324.089 168.031L319.182 167.171C319.182 167.171 318.669 170.778 316.141 172.393C316.141 172.393 319.268 167.37 318.456 167.007C318.292 166.929 315.842 166.651 315.842 166.651C315.842 166.651 314.93 172.926 310.942 175.295C310.942 175.295 315.479 169.81 314.916 166.537L311.191 166.338C311.191 166.338 310.557 173.019 306.113 175.893C306.113 175.893 310.65 169.995 310.386 166.352L306.697 166.651C306.697 166.651 305.949 173.147 302.239 175.509C302.239 175.509 306.79 168.167 305.857 166.772C305.857 166.772 302.488 167.249 301.655 167.804C301.655 167.804 301.007 172.457 298.728 173.638C298.728 173.638 301.256 168.409 300.743 168.046C300.743 168.046 296.52 169.831 294.86 171.866C296.296 169.918 298.216 168.378 300.43 167.398C299.052 166.826 297.537 166.668 296.071 166.943C296.071 166.943 297.88 164.908 301.455 166.978C301.455 166.978 304.803 165.719 305.372 165.876C305.372 165.876 302.132 163.336 299.447 162.895C299.447 162.895 302.68 161.97 306.348 165.741L310.045 165.363C310.045 165.363 305.935 161.806 303.578 161.209C303.578 161.209 307.018 160.775 310.985 165.342L314.631 165.506C314.631 165.506 311.334 162.148 308.848 160.938C308.848 160.938 312.117 161.223 315.678 165.584L318.107 165.975C318.107 165.975 315.65 163.571 314.88 162.945C314.111 162.318 314.218 162.055 314.218 162.055C316.199 162.932 317.898 164.341 319.125 166.125C319.125 166.125 324.075 167.27 324.168 166.978Z" fill="#3F3D56"/>
<path opacity="0.1" d="M396.535 16.0717C396.535 16.0717 374.798 -0.177907 367.028 17.4235C367.028 17.4235 364.656 19.878 366.359 22.8163C366.359 22.8163 367.17 21.6709 369.207 23.5705C369.933 24.2375 370.733 24.8177 371.593 25.2993C372.756 25.9468 374.099 26.1967 375.418 26.0108V26.0108C375.418 26.0108 383.508 27.5689 392.824 18.8037C392.824 18.8037 396.15 17.7437 396.456 17.1105L391.549 16.2638C391.549 16.2638 391.044 19.8709 388.508 21.4859C388.508 21.4859 391.642 16.463 390.83 16.1002C390.666 16.0219 388.216 15.7445 388.216 15.7445C388.216 15.7445 387.276 22.0337 383.288 24.3886C383.288 24.3886 387.817 18.9033 387.262 15.6306L383.537 15.4314C383.537 15.4314 382.896 22.112 378.459 24.9792C378.459 24.9792 382.996 19.0812 382.732 15.4385L379.05 15.7374C379.05 15.7374 378.295 22.2401 374.585 24.6021C374.585 24.6021 379.143 17.2599 378.21 15.8654C378.21 15.8654 374.841 16.3421 374.008 16.897C374.008 16.897 373.36 21.5499 371.081 22.731C371.081 22.731 373.609 17.5018 373.096 17.1318C373.096 17.1318 368.873 18.9247 367.213 20.9594C368.647 19.0091 370.567 17.4685 372.783 16.4915C371.404 15.9153 369.885 15.7569 368.417 16.0362C368.417 16.0362 370.233 14.0014 373.808 16.0717C373.808 16.0717 377.156 14.8053 377.725 14.969C377.725 14.969 374.485 12.4291 371.8 11.9809C371.8 11.9809 375.026 11.0631 378.694 14.8267L382.39 14.4496C382.39 14.4496 378.288 10.8923 375.924 10.2876C375.924 10.2876 379.363 9.86073 383.338 14.4283L386.984 14.5848C386.984 14.5848 383.687 11.2267 381.194 10.0244C381.194 10.0244 384.47 10.3089 388.031 14.6702L390.453 15.0615C390.453 15.0615 387.988 12.6852 387.219 12.0734C386.45 11.4615 386.557 11.1912 386.557 11.1912C388.539 12.0667 390.238 13.4757 391.464 15.2607C391.464 15.2607 396.414 16.3421 396.535 16.0717Z" fill="#3F3D56"/>
<path opacity="0.1" d="M479.592 36.6543C479.592 36.6543 470.903 10.9636 454.515 21.0592C454.515 21.0592 451.168 21.7706 450.905 25.1216C450.905 25.1216 452.222 24.6378 452.806 27.3413C453.023 28.303 453.35 29.2365 453.782 30.1231C454.37 31.3164 455.33 32.2873 456.517 32.8907V32.8907C456.517 32.8907 462.3 38.7602 474.949 36.8179C474.949 36.8179 478.289 37.8282 478.901 37.4796L475.34 33.9863C475.34 33.9863 472.876 36.6685 469.87 36.5618C469.87 36.5618 475.305 34.1998 474.856 33.4385C474.763 33.2891 472.904 31.6741 472.904 31.6741C472.904 31.6741 468.589 36.3199 463.959 36.014C463.959 36.014 470.803 34.0646 472.199 31.0338L469.251 28.7642C469.251 28.7642 464.935 33.9009 459.643 33.7444C459.643 33.7444 466.765 31.4606 468.567 28.3018L465.362 26.4591C465.362 26.4591 461.089 31.3895 456.659 31.233C456.659 31.233 464.579 27.7682 464.6 26.0892C464.6 26.0892 461.559 24.5738 460.555 24.5595C460.555 24.5595 457.378 28.0243 454.857 27.7113C454.857 27.7113 459.9 24.8299 459.686 24.2394C459.686 24.2394 455.199 23.3216 452.671 24.0615C454.958 23.2661 457.413 23.0822 459.793 23.5279C458.98 22.275 457.819 21.2861 456.453 20.6821C456.453 20.6821 459.102 20.0347 460.875 23.7627C460.875 23.7627 464.351 24.6236 464.721 25.0718C464.721 25.0718 463.496 21.1517 461.538 19.2592C461.538 19.2592 464.721 20.3335 465.59 25.5342L468.852 27.3129C468.852 27.3129 467.506 22.041 465.882 20.1983C465.882 20.1983 468.966 21.792 469.636 27.8038L472.556 30.0022C472.556 30.0022 471.744 25.3635 470.376 22.9588C470.376 22.9588 472.912 25.0504 473.367 30.6638L475.141 32.3571C475.141 32.3571 474.486 28.9848 474.215 28.0314C473.944 27.0781 474.165 27.0141 474.165 27.0141C475.297 28.8597 475.896 30.9822 475.896 33.1468C475.896 33.1468 479.343 36.8393 479.592 36.6543Z" fill="#3F3D56"/>
<path opacity="0.1" d="M422.886 37.9206C422.886 37.9206 395.894 34.9183 398.123 54.0493C398.123 54.0493 397.318 57.3647 400.259 59.0295C400.259 59.0295 400.38 57.6066 403.108 58.2469C404.072 58.4541 405.057 58.5519 406.043 58.5386C407.374 58.5146 408.662 58.0575 409.71 57.2366V57.2366C409.71 57.2366 417.481 54.4833 421.106 42.2107C421.106 42.2107 423.428 39.6139 423.378 38.9095L418.713 40.6313C418.713 40.6313 420.137 43.9964 418.713 46.6715C418.713 46.6715 418.862 40.7593 418.001 40.8518C417.822 40.8518 415.572 41.8763 415.572 41.8763C415.572 41.8763 417.965 47.7458 415.729 51.8367C415.729 51.8367 416.854 44.8075 414.71 42.2747L411.398 43.9822C411.398 43.9822 414.247 50.0651 411.861 54.7892C411.861 54.7892 412.787 47.4043 410.7 44.4091L407.674 46.5434C407.674 46.5434 410.323 52.5268 408.322 56.4469C408.322 56.4469 408.528 47.8098 407.011 47.077C407.011 47.077 404.347 49.2114 403.913 50.0936C403.913 50.0936 405.715 54.4335 404.355 56.6034C404.355 56.6034 403.877 50.8193 403.251 50.7624C403.251 50.7624 400.516 54.4406 400.117 57.0374C400.364 54.6299 401.238 52.329 402.652 50.364C401.175 50.568 399.788 51.1985 398.664 52.1782C398.664 52.1782 399.191 49.5102 403.322 49.4818C403.322 49.4818 405.565 46.7 406.171 46.5506C406.171 46.5506 402.09 46.0027 399.547 46.9774C399.547 46.9774 401.862 44.5443 406.947 45.9601L409.945 43.7617C409.945 43.7617 404.526 42.666 402.232 43.3775C402.232 43.3775 404.981 41.2431 410.722 43.1996L413.948 41.485C413.948 41.485 409.397 40.2613 406.641 40.4818C406.641 40.4818 409.611 39.0589 414.888 41.0297L417.181 40.1403C417.181 40.1403 413.841 39.3079 412.858 39.1514C411.876 38.9949 411.84 38.7246 411.84 38.7246C413.993 38.4778 416.172 38.8324 418.136 39.749C418.136 39.749 422.936 38.2194 422.886 37.9206Z" fill="#3F3D56"/>
<path opacity="0.1" d="M659.054 247.209C659.054 247.209 632.075 244.207 634.304 263.317C634.304 263.317 633.5 266.632 636.441 268.297C636.441 268.297 636.562 266.874 639.29 267.507C640.253 267.722 641.238 267.819 642.224 267.799C643.557 267.779 644.846 267.321 645.892 266.497V266.497C645.892 266.497 653.662 263.744 657.252 251.478C657.252 251.478 659.574 248.874 659.524 248.177L654.859 249.892C654.859 249.892 656.283 253.264 654.859 255.939C654.859 255.939 655.008 250.02 654.147 250.119C653.969 250.119 651.718 251.137 651.718 251.137C651.718 251.137 654.111 257.006 651.875 261.097C651.875 261.097 653 254.075 650.856 251.535L647.544 253.25C647.544 253.25 650.393 259.333 648.014 264.057C648.014 264.057 648.933 256.672 646.846 253.669L643.82 255.804C643.82 255.804 646.469 261.787 644.468 265.7C644.468 265.7 644.674 257.063 643.157 256.337C643.157 256.337 640.501 258.472 640.059 259.354C640.059 259.354 641.868 263.694 640.501 265.864C640.501 265.864 640.024 260.08 639.397 260.023C639.397 260.023 636.662 263.701 636.263 266.298C636.51 263.89 637.384 261.589 638.799 259.624C637.32 259.825 635.932 260.456 634.81 261.439C634.81 261.439 635.337 258.764 639.468 258.735C639.468 258.735 641.719 255.953 642.317 255.811C642.317 255.811 638.236 255.256 635.693 256.231C635.693 256.231 638.008 253.805 643.1 255.22L646.092 253.022C646.092 253.022 640.736 252.012 638.407 252.709C638.407 252.709 641.156 250.575 646.896 252.524L650.123 250.817C650.123 250.817 645.572 249.593 642.815 249.813C642.815 249.813 645.785 248.39 651.063 250.361L653.356 249.465C653.356 249.465 650.016 248.632 649.033 248.483C648.05 248.334 648.014 248.056 648.014 248.056C650.167 247.805 652.347 248.157 654.31 249.073C654.31 249.073 659.125 247.515 659.054 247.209Z" fill="#3F3D56"/>
<path opacity="0.1" d="M700.297 272.381C700.297 272.381 673.319 269.385 675.548 288.488C675.548 288.488 674.751 291.803 677.685 293.468C677.685 293.468 677.806 292.045 680.534 292.686C681.495 292.895 682.477 292.99 683.461 292.97C684.787 292.943 686.068 292.489 687.115 291.675V291.675C687.115 291.675 694.878 288.922 698.467 276.649C698.467 276.649 700.796 274.053 700.739 273.348L696.074 275.063C696.074 275.063 697.498 278.435 696.074 281.11C696.074 281.11 696.224 275.198 695.362 275.291C695.184 275.291 692.933 276.308 692.933 276.308C692.933 276.308 695.326 282.177 693.09 286.268C693.09 286.268 694.215 279.246 692.071 276.713L688.76 278.421C688.76 278.421 691.609 284.504 689.23 289.228C689.23 289.228 690.149 281.843 688.062 278.848L685.035 280.982C685.035 280.982 687.684 286.966 685.69 290.886C685.69 290.886 685.89 282.241 684.373 281.516C684.373 281.516 681.716 283.65 681.275 284.532C681.275 284.532 683.084 288.872 681.716 291.042C681.716 291.042 681.239 285.258 680.612 285.201C680.612 285.201 677.877 288.879 677.486 291.476C677.732 289.07 678.604 286.769 680.014 284.803C678.536 285.007 677.15 285.637 676.026 286.617C676.026 286.617 676.56 283.942 680.69 283.92C680.69 283.92 682.934 281.139 683.539 280.989C683.539 280.989 679.458 280.441 676.916 281.416C676.916 281.416 679.23 278.983 684.323 280.399L687.314 278.2C687.314 278.2 681.958 277.19 679.629 277.887C679.629 277.887 682.378 275.753 688.119 277.709L691.345 275.995C691.345 275.995 686.794 274.771 684.038 274.992C684.038 274.992 687.008 273.569 692.285 275.54L694.578 274.65C694.578 274.65 691.238 273.818 690.263 273.661C689.287 273.505 689.237 273.234 689.237 273.234C691.39 272.988 693.569 273.342 695.533 274.259C695.533 274.259 700.369 272.687 700.297 272.381Z" fill="#3F3D56"/>
<path opacity="0.1" d="M608.729 60.3598C608.729 60.3598 586.993 44.1173 579.223 61.7116C579.223 61.7116 576.851 64.1661 578.553 67.1044C578.553 67.1044 579.365 65.959 581.402 67.8586C582.123 68.5291 582.922 69.1118 583.781 69.5945C584.944 70.2411 586.287 70.4908 587.605 70.306V70.306C587.605 70.306 595.696 71.8641 605.019 63.106C605.019 63.106 608.338 62.0389 608.651 61.4128L603.758 60.5306C603.758 60.5306 603.245 64.1377 600.717 65.7527C600.717 65.7527 603.844 60.7298 603.032 60.367C602.868 60.2887 600.425 60.0112 600.425 60.0112C600.425 60.0112 599.506 66.2863 595.518 68.6554C595.518 68.6554 600.055 63.1701 599.492 59.8974L595.767 59.6982C595.767 59.6982 595.133 66.3787 590.689 69.253C590.689 69.253 595.233 63.3551 594.962 59.7124L591.273 60.0112C591.273 60.0112 590.561 66.5068 586.815 68.8688C586.815 68.8688 591.373 61.5266 590.433 60.1322C590.433 60.1322 587.064 60.6088 586.231 61.1638C586.231 61.1638 585.59 65.8167 583.311 66.9977C583.311 66.9977 585.832 61.7685 585.319 61.4057C585.319 61.4057 581.096 63.1914 579.436 65.2262C580.872 63.278 582.792 61.7379 585.006 60.7582C583.628 60.1863 582.113 60.028 580.647 60.3029C580.647 60.3029 582.463 58.2682 586.038 60.3385C586.038 60.3385 589.379 59.0792 589.948 59.2357C589.948 59.2357 586.708 56.6958 584.023 56.2547C584.023 56.2547 587.256 55.3299 590.924 59.1006L594.62 58.7235C594.62 58.7235 590.518 55.1662 588.154 54.5686C588.154 54.5686 591.594 54.1346 595.561 58.7021L599.214 58.8658C599.214 58.8658 595.91 55.5077 593.424 54.2982C593.424 54.2982 596.7 54.5828 600.254 58.944L602.683 59.3353C602.683 59.3353 600.226 56.9306 599.456 56.3045C598.687 55.6785 598.801 55.4721 598.801 55.4721C600.78 56.35 602.476 57.7587 603.701 59.5417C603.701 59.5417 608.637 60.6515 608.729 60.3598Z" fill="#3F3D56"/>
<path opacity="0.1" d="M625.523 177.622C625.523 177.622 618.031 151.561 601.18 160.917C601.18 160.917 597.804 161.436 597.384 164.809C597.384 164.809 598.723 164.389 599.186 167.114C599.357 168.093 599.644 169.048 600.04 169.96C600.569 171.186 601.484 172.205 602.647 172.862V172.862C602.647 172.862 608.159 178.981 620.879 177.615C620.879 177.615 624.17 178.767 624.797 178.454L621.428 174.797C621.428 174.797 618.843 177.373 615.851 177.131C615.851 177.131 621.378 174.997 620.951 174.235C620.865 174.079 619.085 172.379 619.085 172.379C619.085 172.379 614.569 176.832 609.954 176.313C609.954 176.313 616.884 174.677 618.408 171.731L615.559 169.326C615.559 169.326 611.015 174.264 605.738 173.88C605.738 173.88 612.917 171.909 614.897 168.843L611.777 166.858C611.777 166.858 607.255 171.589 602.868 171.233C602.868 171.233 610.937 168.124 611.037 166.452C611.037 166.452 608.06 164.802 607.056 164.745C607.056 164.745 603.73 168.06 601.201 167.633C601.201 167.633 606.372 164.979 606.187 164.382C606.187 164.382 601.742 163.265 599.186 163.884C601.501 163.198 603.956 163.127 606.308 163.677C605.554 162.39 604.44 161.351 603.103 160.689C603.103 160.689 605.781 160.156 607.376 163.962C607.376 163.962 610.802 164.972 611.158 165.442C611.158 165.442 610.111 161.465 608.238 159.494C608.238 159.494 611.371 160.704 612.005 165.94L615.182 167.868C615.182 167.868 614.071 162.532 612.532 160.654C612.532 160.654 615.538 162.383 615.944 168.416L618.793 170.742C618.793 170.742 618.187 166.075 616.934 163.628C616.934 163.628 619.377 165.833 619.576 171.454L621.271 173.232C621.271 173.232 620.773 169.832 620.559 168.864C620.345 167.896 620.559 167.761 620.559 167.761C621.613 169.654 622.118 171.802 622.019 173.965C622.019 173.965 625.267 177.793 625.523 177.622Z" fill="#3F3D56"/>
<path opacity="0.1" d="M458.568 236.345C458.568 236.345 444.017 213.451 430.507 227.153C430.507 227.153 427.416 228.576 427.957 231.956C427.957 231.956 429.132 231.173 430.343 233.663C430.778 234.546 431.319 235.372 431.953 236.125C432.802 237.152 433.965 237.872 435.264 238.174V238.174C435.264 238.174 442.28 242.499 454.102 237.605C454.102 237.605 457.585 237.79 458.098 237.313L453.825 234.752C453.825 234.752 452.065 237.953 449.124 238.558C449.124 238.558 453.839 235.001 453.205 234.346C453.084 234.218 450.89 233.094 450.89 233.094C450.89 233.094 447.806 238.629 443.234 239.433C443.234 239.433 449.423 235.911 450.064 232.653L446.653 231.152C446.653 231.152 443.683 237.164 438.512 238.266C438.512 238.266 444.851 234.36 445.883 230.86L442.322 229.836C442.322 229.836 439.317 235.648 435.008 236.537C435.008 236.537 441.874 231.287 441.496 229.651C441.496 229.651 438.177 228.904 437.223 229.131C437.223 229.131 434.965 233.251 432.416 233.549C432.416 233.549 436.632 229.551 436.283 229.025C436.283 229.025 431.703 229.202 429.424 230.519C431.457 229.203 433.8 228.442 436.219 228.313C435.136 227.289 433.777 226.604 432.309 226.342C432.309 226.342 434.723 225.083 437.294 228.285C437.294 228.285 440.855 228.285 441.347 228.64C441.347 228.64 439.21 225.083 436.867 223.753C436.867 223.753 440.214 224.037 442.294 228.882L445.891 229.836C445.891 229.836 443.319 225.033 441.318 223.66C441.318 223.66 444.687 224.471 446.774 230.156L450.135 231.579C450.135 231.579 448.241 227.274 446.339 225.261C446.339 225.261 449.302 226.684 451.075 232.027L453.212 233.258C453.212 233.258 451.788 230.134 451.282 229.274C450.776 228.413 450.976 228.213 450.976 228.213C452.517 229.734 453.604 231.653 454.116 233.756C454.116 233.756 458.375 236.587 458.568 236.345Z" fill="#3F3D56"/>
<path d="M554.196 119.368C554.196 119.368 540.357 96.0393 526.42 109.315C526.42 109.315 523.286 110.667 523.727 114.039C523.727 114.039 524.917 113.285 526.056 115.811C526.464 116.709 526.978 117.554 527.588 118.329C528.405 119.378 529.547 120.129 530.835 120.464V120.464C530.835 120.464 537.708 125.003 549.68 120.464C549.68 120.464 553.156 120.755 553.683 120.293L549.502 117.604C549.502 117.604 547.65 120.741 544.688 121.26C544.688 121.26 549.509 117.824 548.904 117.177C548.776 117.042 546.625 115.846 546.625 115.846C546.625 115.846 543.37 121.289 538.791 121.951C538.791 121.951 545.086 118.621 545.82 115.391L542.458 113.812C542.458 113.812 539.303 119.738 534.097 120.684C534.097 120.684 540.557 116.977 541.696 113.513L538.178 112.374C538.178 112.374 534.987 118.066 530.657 118.849C530.657 118.849 537.68 113.812 537.352 112.168C537.352 112.168 534.062 111.314 533.079 111.514C533.079 111.514 530.693 115.562 528.136 115.782C528.136 115.782 532.473 111.926 532.146 111.385C532.146 111.385 527.559 111.421 525.244 112.666C527.318 111.417 529.682 110.73 532.103 110.674C531.05 109.616 529.711 108.889 528.25 108.582C528.25 108.582 530.707 107.394 533.235 110.674C533.235 110.674 536.796 110.795 537.274 111.158C537.274 111.158 535.258 107.601 532.95 106.135C532.95 106.135 536.284 106.519 538.214 111.428L541.775 112.495C541.775 112.495 539.36 107.615 537.395 106.178C537.395 106.178 540.742 107.095 542.651 112.837L545.963 114.381C545.963 114.381 544.203 110.019 542.401 107.978C542.401 107.978 545.314 109.493 546.931 114.886L549.018 116.181C549.018 116.181 547.679 113.015 547.209 112.14C546.739 111.264 546.938 111.072 546.938 111.072C548.431 112.64 549.459 114.591 549.908 116.707C549.908 116.707 553.989 119.603 554.196 119.368Z" fill="#3F3D56"/>
<path d="M466.644 168.423C466.644 168.423 467.356 141.316 448.504 145.137C448.504 145.137 445.129 144.617 443.704 147.705C443.704 147.705 445.129 147.705 444.73 150.444C444.599 151.421 444.585 152.41 444.687 153.39C444.816 154.719 445.379 155.969 446.289 156.947C446.289 156.947 449.687 164.446 462.229 166.993C462.229 166.993 465.013 169.092 465.711 168.978L463.575 164.481C463.575 164.481 460.334 166.146 457.549 165.015C457.549 165.015 463.461 164.666 463.297 163.798C463.297 163.62 462.072 161.458 462.072 161.458C462.072 161.458 456.417 164.339 452.179 162.447C452.179 162.447 459.301 162.98 461.63 160.639L459.643 157.488C459.643 157.488 453.817 160.817 448.903 158.854C448.903 158.854 456.346 159.152 459.166 156.826L456.794 153.98C456.794 153.98 451.047 157.125 446.973 155.46C446.973 155.46 455.605 154.941 456.232 153.368C456.232 153.368 453.896 150.9 452.956 150.523C452.956 150.523 448.782 152.657 446.503 151.504C446.503 151.504 452.201 150.551 452.236 149.918C452.236 149.918 448.341 147.506 445.713 147.328C448.136 147.371 450.506 148.048 452.585 149.292C452.261 147.838 451.518 146.51 450.449 145.471C450.449 145.471 453.162 145.777 453.533 149.882C453.533 149.882 456.502 151.889 456.695 152.443C456.695 152.443 456.901 148.338 455.712 145.891C455.712 145.891 458.333 147.99 457.35 153.169L459.793 155.972C459.793 155.972 460.348 150.551 459.458 148.296C459.458 148.296 461.794 150.85 460.355 156.726L462.328 159.793C462.328 159.793 463.169 155.161 462.72 152.436C462.72 152.436 464.372 155.282 462.862 160.696L463.945 162.902C463.945 162.902 464.493 159.508 464.565 158.519C464.636 157.53 464.906 157.466 464.906 157.466C465.335 159.589 465.165 161.788 464.415 163.82C464.415 163.82 466.331 168.515 466.644 168.423Z" fill="#3F3D56"/>
<path opacity="0.1" d="M497.81 512.853C508.403 512.853 516.99 511.403 516.99 509.616C516.99 507.828 508.403 506.378 497.81 506.378C487.218 506.378 478.631 507.828 478.631 509.616C478.631 511.403 487.218 512.853 497.81 512.853Z" fill="#3F3D56"/>
<path opacity="0.1" d="M427.893 562C438.486 562 447.073 560.551 447.073 558.763C447.073 556.975 438.486 555.526 427.893 555.526C417.3 555.526 408.713 556.975 408.713 558.763C408.713 560.551 417.3 562 427.893 562Z" fill="#3F3D56"/>
<path opacity="0.1" d="M66.3347 536.822C76.9274 536.822 85.5144 535.372 85.5144 533.585C85.5144 531.797 76.9274 530.347 66.3347 530.347C55.7421 530.347 47.155 531.797 47.155 533.585C47.155 535.372 55.7421 536.822 66.3347 536.822Z" fill="#3F3D56"/>
<path opacity="0.1" d="M573.368 558.763C583.961 558.763 592.548 557.314 592.548 555.526C592.548 553.738 583.961 552.289 573.368 552.289C562.776 552.289 554.188 553.738 554.188 555.526C554.188 557.314 562.776 558.763 573.368 558.763Z" fill="#3F3D56"/>
<path d="M593.338 519.291C609.155 519.291 621.976 517.125 621.976 514.453C621.976 511.782 609.155 509.616 593.338 509.616C577.522 509.616 564.701 511.782 564.701 514.453C564.701 517.125 577.522 519.291 593.338 519.291Z" fill="#3F3D56"/>
<path d="M605.211 506.535C606.518 505.474 607.47 504.039 607.939 502.423C608.295 500.786 607.597 498.83 606.037 498.232C604.285 497.563 602.412 498.773 600.987 499.997C599.563 501.22 597.946 502.622 596.087 502.366C597.042 501.5 597.756 500.402 598.16 499.179C598.564 497.956 598.645 496.65 598.395 495.386C598.314 494.863 598.093 494.371 597.754 493.963C596.778 492.925 595.019 493.373 593.851 494.191C590.148 496.795 589.115 501.818 589.094 506.343C588.723 504.714 589.037 503.013 589.029 501.363C589.022 499.712 588.559 497.805 587.142 496.937C586.272 496.453 585.289 496.207 584.293 496.226C582.627 496.169 580.768 496.333 579.636 497.549C578.211 499.057 578.589 501.597 579.814 503.241C581.039 504.884 582.912 505.944 584.635 507.097C586.015 507.92 587.192 509.04 588.082 510.377C588.184 510.563 588.267 510.758 588.332 510.96H598.772C601.11 509.784 603.276 508.295 605.211 506.535V506.535Z" fill="#3F3D56"/>
<path d="M53.458 518.537C53.458 518.537 64.3904 518.203 67.7021 515.855C71.0139 513.507 84.5316 510.711 85.3506 514.475C86.1696 518.238 101.788 533.179 89.4386 533.279C77.089 533.378 60.7439 531.358 57.4535 529.351C54.1631 527.345 53.458 518.537 53.458 518.537Z" fill="#A8A8A8"/>
<path opacity="0.2" d="M89.6452 531.97C77.2955 532.069 60.9504 530.049 57.66 528.042C55.1531 526.52 54.156 521.049 53.8212 518.523H53.458C53.458 518.523 54.1702 527.338 57.4392 529.337C60.7083 531.336 77.0747 533.364 89.4244 533.264C92.9854 533.264 94.2175 531.969 94.1534 530.091C93.6549 531.237 92.2946 531.948 89.6452 531.97Z" fill="black"/>
</g>
<defs>
<linearGradient id="paint0_linear" x1="158.815" y1="308.359" x2="381.115" y2="308.359" gradientUnits="userSpaceOnUse">
<stop stop-color="#808080" stop-opacity="0.25"/>
<stop offset="0.54" stop-color="#808080" stop-opacity="0.12"/>
<stop offset="1" stop-color="#808080" stop-opacity="0.1"/>
</linearGradient>
<clipPath id="clip0">
<rect width="719" height="562" fill="white"/>
</clipPath>
</defs>
</svg>
