<svg width="700" height="512" viewBox="0 0 700 512" fill="none" xmlns="http://www.w3.org/2000/svg">
<g clip-path="url(#clip0)">
<path opacity="0.1" d="M70.4088 51.2669C66.052 53.0437 61.5807 55.3242 59.1865 59.3219C56.6507 63.545 56.9542 68.789 57.4263 73.6751C61.5402 116.052 72.378 161.12 53.6631 199.506C44.5787 218.128 29.3842 233.051 17.2988 249.964C5.21328 266.876 -3.91153 287.991 1.69958 307.887C8.55162 332.198 34.1254 345.676 51.3633 364.384C62.6463 376.616 70.5571 391.48 81.0847 404.348C91.6123 417.216 106.038 428.553 122.844 429.308C147.015 430.402 166.681 409.884 190.38 405.13C214.659 400.264 239.106 412.648 258.792 427.472C278.479 442.296 296.384 460.256 319.321 469.511C344.652 479.74 373.207 478.176 399.873 484.321C424.152 489.923 446.502 501.837 470.605 508.188C494.709 514.539 522.96 514.155 541.634 497.932C565.974 476.717 564.059 438.928 579.604 410.865C594.043 384.79 622.308 369.224 641.333 346.173C675.566 304.685 674.447 241.272 645.379 196.151C616.312 151.03 563.661 123.709 509.822 116.595C485.544 113.393 460.543 113.831 437.202 106.545C374.724 87.0537 337.544 17.2171 273.758 2.68496C233.212 -6.53686 193.779 9.43392 159.242 29.0908C129.265 46.1555 101.607 38.5447 70.4088 51.2669Z" fill="#3F3D56"/>
<path d="M131.295 188.169C131.295 188.169 108.277 209.523 83.5735 210.159C73.1997 210.362 63.1729 213.868 54.9986 220.15C51.1348 223.153 47.559 226.497 44.3159 230.141" stroke="#535461" stroke-width="2" stroke-miterlimit="10"/>
<path d="M28.7369 230.665C32.055 229.008 44.7205 230.108 44.7205 230.108C44.7205 230.108 38.1517 240.815 34.8336 242.472C34.0389 242.935 33.156 243.233 32.2394 243.347C31.3229 243.461 30.3924 243.388 29.5055 243.134C28.6187 242.879 27.7945 242.449 27.084 241.868C26.3735 241.288 25.7919 240.57 25.3753 239.76C24.9586 238.949 24.7158 238.063 24.6619 237.156C24.608 236.25 24.7441 235.342 25.0618 234.489C25.3795 233.637 25.8721 232.857 26.5089 232.199C27.1457 231.541 27.9133 231.019 28.7639 230.665H28.7369Z" fill="#3F3D56"/>
<path d="M42.07 211.737C45.7725 212.122 55.7943 219.812 55.7943 219.812C55.7943 219.812 44.3293 225.288 40.6605 224.91C38.944 224.656 37.3936 223.76 36.332 222.41C35.2704 221.059 34.7793 219.359 34.9608 217.662C35.1424 215.965 35.9827 214.402 37.3069 213.298C38.6311 212.195 40.3371 211.636 42.07 211.737Z" fill="#3F3D56"/>
<path d="M73.6862 196.482C76.6806 198.65 81.388 210.265 81.388 210.265C81.388 210.265 68.7023 209.317 65.7079 207.156C64.3583 206.084 63.4808 204.542 63.258 202.851C63.0352 201.159 63.4842 199.448 64.5116 198.074C65.539 196.699 67.0657 195.767 68.7745 195.47C70.4832 195.174 72.2424 195.537 73.6862 196.482Z" fill="#3F3D56"/>
<path d="M100.251 190.244C103.576 191.882 110.212 202.549 110.212 202.549C110.212 202.549 97.5469 203.722 94.2221 202.085C93.3832 201.725 92.6276 201.2 92.0015 200.544C91.3753 199.888 90.8916 199.113 90.5799 198.267C90.2681 197.421 90.1349 196.521 90.1882 195.623C90.2416 194.724 90.4804 193.846 90.8901 193.041C91.2998 192.237 91.8719 191.523 92.5715 190.942C93.2711 190.362 94.0836 189.928 94.9594 189.666C95.8352 189.404 96.7561 189.321 97.6659 189.42C98.5757 189.519 99.4553 189.8 100.251 190.244Z" fill="#3F3D56"/>
<path d="M62.8415 231.885C63.9476 228.391 60.7104 216.298 60.7104 216.298C60.7104 216.298 51.0798 224.466 49.9738 227.96C49.6621 228.803 49.5278 229.7 49.579 230.596C49.6302 231.491 49.8658 232.368 50.2716 233.171C50.6773 233.975 51.2448 234.689 51.9397 235.271C52.6345 235.853 53.4423 236.29 54.3139 236.556C55.1856 236.822 56.1032 236.911 57.011 236.818C57.9187 236.725 58.7979 236.452 59.5952 236.015C60.3925 235.578 61.0913 234.987 61.6493 234.277C62.2073 233.567 62.6129 232.753 62.8415 231.885Z" fill="#3F3D56"/>
<path d="M93.8175 224.175C93.8175 220.515 87.0397 209.934 87.0397 209.934C87.0397 209.934 80.336 220.541 80.3428 224.214C80.3481 225.973 81.0638 227.657 82.3324 228.896C83.6009 230.136 85.3185 230.829 87.1071 230.824C88.8958 230.819 90.609 230.115 91.87 228.868C93.131 227.621 93.8364 225.933 93.831 224.175H93.8175Z" fill="#3F3D56"/>
<path d="M122.878 212.665C123.499 209.059 118.643 197.503 118.643 197.503C118.643 197.503 110.206 206.864 109.592 210.471C109.385 212.163 109.849 213.868 110.887 215.233C111.925 216.598 113.458 217.518 115.167 217.801C116.877 218.084 118.632 217.709 120.068 216.754C121.503 215.799 122.51 214.337 122.878 212.672V212.665Z" fill="#3F3D56"/>
<path d="M161.205 131.618C161.205 131.618 133.48 116.649 125.239 93.7166C121.853 84.0737 115.376 75.7709 106.78 70.0555C102.678 67.3723 98.3346 65.0644 93.8042 63.1606" stroke="#535461" stroke-width="2" stroke-miterlimit="10"/>
<path d="M88.5438 48.7412C91.1672 51.3334 93.993 63.5253 93.993 63.5253C93.993 63.5253 81.6108 60.6745 78.9874 58.0757C77.8288 56.811 77.2094 55.1567 77.2575 53.4554C77.3055 51.7542 78.0173 50.1362 79.2454 48.9366C80.4735 47.737 82.1239 47.0477 83.8548 47.0113C85.5858 46.9749 87.2646 47.5943 88.5438 48.7412Z" fill="#3F3D56"/>
<path d="M110.968 55.3905C111.737 58.9705 107.373 70.7116 107.373 70.7116C107.373 70.7116 98.5589 61.7019 97.79 58.1153C97.5618 57.2479 97.5148 56.344 97.6519 55.4583C97.789 54.5725 98.1072 53.7233 98.5875 52.9618C99.0678 52.2004 99.7001 51.5425 100.446 51.028C101.192 50.5135 102.037 50.1529 102.929 49.9682C103.82 49.7834 104.741 49.7783 105.635 49.9531C106.529 50.1278 107.377 50.4789 108.129 50.9851C108.882 51.4913 109.521 52.142 110.01 52.8981C110.499 53.6541 110.828 54.4997 110.975 55.3839L110.968 55.3905Z" fill="#3F3D56"/>
<path d="M135.449 80.3115C134.276 83.7788 124.477 91.7543 124.477 91.7543C124.477 91.7543 121.496 79.6022 122.669 76.1282C123.233 74.4579 124.45 73.0763 126.05 72.2874C127.651 71.4985 129.505 71.367 131.204 71.9217C132.903 72.4765 134.308 73.6721 135.111 75.2455C135.913 76.8188 136.047 78.6412 135.483 80.3115H135.449Z" fill="#3F3D56"/>
<path d="M149.666 103.217C149.106 106.83 140.818 116.317 140.818 116.317C140.818 116.317 135.786 104.834 136.346 101.221C136.439 100.328 136.716 99.4631 137.16 98.6784C137.603 97.8937 138.204 97.2058 138.926 96.6562C139.648 96.1067 140.476 95.707 141.36 95.4814C142.244 95.2558 143.165 95.2089 144.068 95.3437C144.971 95.4785 145.836 95.7922 146.612 96.2656C147.388 96.739 148.058 97.3624 148.581 98.0979C149.105 98.8334 149.471 99.6658 149.657 100.545C149.844 101.423 149.847 102.33 149.666 103.21V103.217Z" fill="#3F3D56"/>
<path d="M97.8436 81.0206C101.566 80.9808 112.276 74.2319 112.276 74.2319C112.276 74.2319 101.411 67.7348 97.6885 67.7746C95.8998 67.7948 94.1926 68.5127 92.9424 69.7703C91.6922 71.0279 91.0014 72.7222 91.0219 74.4805C91.0425 76.2388 91.7728 77.917 93.0521 79.146C94.3314 80.375 96.055 81.0541 97.8436 81.0339V81.0206Z" fill="#3F3D56"/>
<path d="M114.812 107.632C118.346 106.498 126.513 96.9119 126.513 96.9119C126.513 96.9119 114.165 93.9087 110.631 95.0423C109.759 95.287 108.946 95.702 108.241 96.2626C107.535 96.8232 106.952 97.5179 106.527 98.305C106.101 99.0922 105.841 99.9556 105.763 100.844C105.684 101.732 105.789 102.627 106.07 103.474C106.351 104.322 106.804 105.105 107.4 105.776C107.996 106.448 108.724 106.995 109.54 107.383C110.356 107.772 111.244 107.995 112.15 108.039C113.055 108.083 113.961 107.947 114.812 107.639V107.632Z" fill="#3F3D56"/>
<path d="M134.909 131.273C138.592 130.743 148.29 122.655 148.29 122.655C148.29 122.655 136.636 117.643 132.96 118.173C132.055 118.265 131.178 118.536 130.382 118.969C129.586 119.403 128.888 119.991 128.329 120.697C127.77 121.403 127.363 122.213 127.131 123.078C126.899 123.943 126.847 124.845 126.979 125.73C127.111 126.615 127.424 127.465 127.899 128.228C128.374 128.991 129.001 129.652 129.743 130.17C130.484 130.689 131.325 131.054 132.214 131.245C133.103 131.436 134.022 131.448 134.916 131.28L134.909 131.273Z" fill="#3F3D56"/>
<path d="M352.003 494.842C486.837 494.842 596.141 387.394 596.141 254.85C596.141 122.305 486.837 14.8569 352.003 14.8569C217.17 14.8569 107.866 122.305 107.866 254.85C107.866 387.394 217.17 494.842 352.003 494.842Z" fill="url(#paint0_linear)"/>
<path d="M352.003 490.865C484.602 490.865 592.094 385.197 592.094 254.85C592.094 124.502 484.602 18.835 352.003 18.835C219.404 18.835 111.912 124.502 111.912 254.85C111.912 385.197 219.404 490.865 352.003 490.865Z" fill="#3F3D56"/>
<path d="M352.003 442.468C457.411 442.468 542.862 358.469 542.862 254.85C542.862 151.231 457.411 67.231 352.003 67.231C246.594 67.231 161.144 151.231 161.144 254.85C161.144 358.469 246.594 442.468 352.003 442.468Z" fill="#DDE1EC"/>
<path opacity="0.3" d="M357.398 100.379H346.607V266.12H357.398V100.379Z" fill="#535461"/>
<g opacity="0.1">
<path opacity="0.1" d="M515.886 250.872H363.468V264.131H515.886V250.872Z" fill="black"/>
<path opacity="0.1" d="M255.86 201.265L249.603 213.011L345.505 262.38L351.762 250.634L255.86 201.265Z" fill="black"/>
<path opacity="0.1" d="M352.003 277.391C363.177 277.391 372.235 268.486 372.235 257.502C372.235 246.517 363.177 237.613 352.003 237.613C340.829 237.613 331.771 246.517 331.771 257.502C331.771 268.486 340.829 277.391 352.003 277.391Z" fill="black"/>
</g>
<path d="M515.885 248.22H363.468V261.479H515.885V248.22Z" fill="#535461"/>
<path d="M351.807 247.998L255.904 198.628L249.647 210.375L345.549 259.744L351.807 247.998Z" fill="#535461"/>
<path d="M352.003 274.739C363.177 274.739 372.235 265.834 372.235 254.85C372.235 243.866 363.177 234.961 352.003 234.961C340.829 234.961 331.771 243.866 331.771 254.85C331.771 265.834 340.829 274.739 352.003 274.739Z" fill="#535461"/>
<g opacity="0.1">
<path opacity="0.1" d="M175.968 277.39C175.968 173.769 261.416 89.7717 366.826 89.7717C396.413 89.746 425.598 96.4926 452.072 109.477C478.546 122.462 501.581 141.328 519.352 164.58C486.872 106.558 424.152 67.231 351.989 67.231C246.579 67.231 161.131 151.228 161.131 254.85C161.069 295.557 174.536 335.169 199.484 367.659C184.013 340.006 175.922 308.95 175.968 277.39Z" fill="black"/>
</g>
<path d="M528.349 116.834C526.083 114.693 507.01 128.768 507.01 128.768C507.01 128.768 500.219 129.987 501.837 134.568C503.456 139.15 494.722 164.806 494.722 164.806L491.168 159.92C491.512 154.186 489.907 150.122 488.342 147.589C488.214 147.384 488.086 147.185 487.958 146.999L488.579 146.787C488.342 143.658 483.251 138.891 480.546 136.557C480.546 136.219 480.546 135.894 480.546 135.55C480.715 131.811 482.239 127.866 480.546 124.478C478.631 120.613 473.027 118.671 472.554 114.428C472.271 111.895 474.011 109.608 474.78 107.168C476.614 101.334 472.804 95.3807 469.162 90.3554C467.929 88.4713 466.427 86.7702 464.704 85.3037C463.063 84.1239 461.26 83.1776 459.349 82.4927C454.015 80.3712 448.559 79.3038 443.056 77.852C437.775 76.473 432.906 75.8167 427.544 77.547C426.272 77.8842 425.11 78.5398 424.172 79.4497C422.897 80.8552 422.729 82.8573 421.893 84.5346C420.544 87.2329 417.637 88.8439 415.068 90.5742C412.498 92.3046 409.922 94.678 409.908 97.6613C409.908 101.898 414.831 104.563 416.477 108.507C418.015 112.18 416.477 116.271 415.621 120.142C415.263 121.394 415.228 122.713 415.519 123.981C415.859 124.926 416.371 125.802 417.03 126.567C418.048 127.892 419.141 129.126 420.227 130.385L419.728 130.577C410.677 129.663 404.857 140.959 404.857 140.959C405.275 141.046 405.673 141.145 406.064 141.258L405.68 141.748C402.945 145.24 400.71 149.083 399.037 153.171L391.618 162.943C391.618 162.943 390 138.506 393.884 133.01C397.769 127.515 390.33 124.153 390.33 124.153C390.33 124.153 374.144 106.439 371.898 107.964C369.653 109.489 377.395 128.734 384.186 131.791C384.186 131.791 384.861 137.897 383.512 141.868C382.696 144.38 378.339 170.886 378.339 170.886C378.339 170.886 374.461 193.181 392.245 182.156C403.798 175.009 411.264 162.705 415.068 154.974C415.333 154.431 415.582 153.912 415.816 153.417C415.992 154.236 416.111 155.067 416.174 155.903L416.848 181.447C417.019 187.765 415.616 194.028 412.761 199.691L404.837 215.49L405.72 215.755L405.187 216.511C399.967 224.062 391.092 241.04 409.362 249.692L433.641 252.748L432.346 258.854C432.346 258.854 422.324 277.483 419.411 290.312C417.601 298.168 414.775 305.763 411.001 312.912L411.749 313.303C411.594 313.476 411.432 313.655 411.277 313.84C409.805 315.468 408.832 317.472 408.472 319.621L405.181 324.209C405.181 324.209 403.886 343.143 406.475 347.731C407.892 350.237 412.592 351.828 416.592 352.756C422.527 354.142 427.315 348.116 424.165 343.15L424.125 343.084H424.064C423.39 340.001 421.326 330.434 422 326.801C422.189 325.767 422.365 324.739 422.452 323.692C422.615 322.316 423.04 320.982 423.707 319.761C423.815 319.555 423.929 319.356 424.044 319.157L424.395 319.303C425.48 319.761 426.553 320.192 427.571 320.569C425.993 321.982 424.873 324.905 426.222 330.918C426.222 330.918 426.35 345.961 427.517 348.328C428.684 350.695 441.741 353.824 444.007 351.384C446.273 348.944 442.55 340.538 442.55 340.538L442.435 340.617C441.687 335.745 440.763 327.02 443.035 323.586C443.953 322.2 444.843 320.768 445.639 319.429L446.131 318.6C450.353 320.669 454.817 322.227 457.259 321.146C457.259 321.146 467.928 296.709 467.281 293.66C466.633 290.61 483.77 256.09 483.77 256.09C483.77 256.09 498.317 240.179 480.539 229.213C474.895 225.719 470.781 223.372 467.793 221.788L465.291 208.926C464.005 202.184 464.235 195.246 465.965 188.6L468.663 178.483L468.886 177.621C468.886 177.621 475.677 163.878 475.353 157.461C475.328 156.962 475.385 156.463 475.522 155.982C475.596 156.287 475.677 156.605 475.765 156.937C477.549 163.607 479.9 170.118 482.792 176.401C487.951 187.844 495.606 186.936 499.801 185.312C500.699 184.97 501.496 184.414 502.121 183.695C502.746 182.975 503.18 182.113 503.382 181.188C504.893 174.068 509.04 154.119 509.303 148.61C509.538 144.302 510.079 140.016 510.922 135.782C521.564 129.663 530.615 118.976 528.349 116.834Z" fill="url(#paint1_linear)"/>
<path d="M449.179 312.554C449.179 312.554 447.756 315.358 445.807 318.726C445.045 320.052 444.195 321.477 443.325 322.85C440.243 327.696 443.325 343.136 443.325 343.136L436.581 344.045L429.837 340.73L428.603 329.526V321.332L436.291 312.879L439.663 309.219L449.179 312.554Z" fill="#F8BDC5"/>
<g opacity="0.1">
<path opacity="0.1" d="M449.179 312.554C449.179 312.554 447.756 315.358 445.807 318.726C442.829 317.162 439.951 315.422 437.188 313.515L436.594 313.104L436.277 312.879L439.649 309.219L449.179 312.554Z" fill="black"/>
</g>
<path d="M482.151 255.924C482.151 255.924 465.824 290.14 466.444 293.169C467.065 296.199 456.895 320.424 456.895 320.424C454.575 321.498 450.312 319.953 446.293 317.904C443.262 316.316 440.334 314.545 437.525 312.601L436.932 312.19L436.575 311.938L463.376 238.959L439.663 221.861L437.91 220.595L427.308 212.904L459.68 218.659C459.68 218.659 460.806 218.52 466.761 221.795C469.621 223.366 473.593 225.719 479.083 229.26C496.004 240.179 482.151 255.924 482.151 255.924Z" fill="#5E52AD"/>
<g opacity="0.03">
<path opacity="0.03" d="M482.151 255.924C482.151 255.924 465.824 290.14 466.444 293.169C467.065 296.199 456.895 320.424 456.895 320.424C454.575 321.498 450.312 319.953 446.293 317.904C443.262 316.316 440.334 314.545 437.525 312.601L436.932 312.19L436.575 311.938L463.376 238.959L439.663 221.861L437.91 220.595L427.308 212.904L459.68 218.659C459.68 218.659 460.806 218.52 466.761 221.795C469.621 223.366 473.593 225.719 479.083 229.26C496.004 240.179 482.151 255.924 482.151 255.924Z" fill="black"/>
</g>
<path d="M432.548 318.607C432.548 318.607 424.536 317.394 427.315 330.116C427.315 330.116 427.436 345.033 428.549 347.353C429.662 349.673 442.104 352.802 444.256 350.383C446.407 347.963 442.867 339.636 442.867 339.636C442.867 339.636 433.782 346.146 431.314 339.179C428.845 332.211 432.548 318.607 432.548 318.607Z" fill="#5D3E53"/>
<path d="M426.997 316.187C426.123 317.006 425.412 317.977 424.9 319.051C424.264 320.268 423.859 321.589 423.706 322.95C423.625 323.984 423.457 325.011 423.281 326.032C422.513 330.348 425.46 343.137 425.46 343.137L413.752 344.953L409.442 340.412L408.519 330.421C409.669 326.996 410.291 323.42 410.366 319.814C410.366 317.208 411.715 314.881 413.064 313.184C413.978 312.052 415.027 311.03 416.187 310.141C416.187 310.141 429.466 314.066 426.997 316.187Z" fill="#F8BDC5"/>
<g opacity="0.1">
<path opacity="0.1" d="M426.998 316.187C426.124 317.006 425.412 317.977 424.9 319.051C420.105 316.923 415.067 314.238 413.233 313.244L413.091 313.171C414.006 312.038 415.054 311.017 416.214 310.128C416.214 310.128 429.466 314.066 426.998 316.187Z" fill="black"/>
</g>
<path d="M464.893 246.841C464.893 246.841 457.198 261.075 452.261 272.883C449.024 280.639 442.334 299.109 438.099 310.87L437.478 312.607C435.617 317.812 434.376 321.332 434.376 321.332C433.555 321.337 432.739 321.219 431.955 320.981C431.226 320.788 430.41 320.53 429.54 320.212L428.562 319.847C427.591 319.476 426.539 319.045 425.534 318.594C420.638 316.446 415.418 313.648 413.523 312.627L412.808 312.236C416.423 305.117 419.121 297.583 420.84 289.808C423.612 277.092 433.162 258.649 433.162 258.649L434.396 252.589L411.291 249.56C393.884 241.007 402.341 224.148 407.312 216.663C408.159 215.364 409.075 214.109 410.056 212.904L428.542 216.882C428.542 216.882 431.456 217.797 437.93 220.615L440.904 221.94C444.532 223.578 448.997 225.686 454.392 228.391C472.588 237.434 464.893 246.841 464.893 246.841Z" fill="#5E52AD"/>
<path d="M425.345 342.228C426.004 343.32 426.32 344.579 426.253 345.847C426.185 347.115 425.737 348.335 424.965 349.353C424.194 350.371 423.133 351.142 421.916 351.568C420.7 351.995 419.382 352.057 418.129 351.749C414.346 350.827 409.861 349.249 408.512 346.763C406.05 342.222 407.278 323.447 407.278 323.447L410.515 318.753C410.515 318.753 408.822 339.497 412.828 341.294C416.834 343.09 425.305 342.136 425.305 342.136L425.345 342.228Z" fill="#5D3E53"/>
<path d="M428.623 78.8926C427.393 79.2292 426.275 79.8813 425.386 80.7821C424.172 82.1743 424.037 84.1632 423.214 85.8272C421.933 88.4791 419.168 90.1033 416.713 91.7939C414.258 93.4844 411.81 95.8645 411.796 98.8213C411.796 103.024 416.517 105.663 418.055 109.568C419.518 113.214 418.055 117.265 417.239 121.103C416.899 122.346 416.866 123.651 417.144 124.909C417.466 125.842 417.955 126.711 418.588 127.475C421.562 131.452 425.258 134.979 427.247 139.507C428.758 142.948 429.176 146.747 429.574 150.479C430.147 155.849 430.72 161.319 429.682 166.623C429.581 166.94 429.581 167.28 429.682 167.597C429.859 167.901 430.138 168.136 430.471 168.26C432.433 169.197 434.568 169.735 436.748 169.84C438.927 169.946 441.105 169.617 443.152 168.874C445.199 168.131 447.072 166.989 448.658 165.516C450.244 164.044 451.511 162.271 452.383 160.305C453.731 157.301 454.251 153.675 456.921 151.726C457.233 151.472 457.608 151.305 458.007 151.242C458.637 151.259 459.247 151.46 459.761 151.819C463.227 153.662 467.429 153.715 471.293 152.959C473.627 152.501 476.014 151.686 477.558 149.896C480.6 146.343 478.907 141.032 479.11 136.398C479.271 132.692 480.721 128.781 479.11 125.426C477.289 121.594 471.941 119.671 471.495 115.482C471.226 112.976 472.885 110.702 473.62 108.288C475.367 102.501 471.738 96.6004 468.272 91.6215C467.106 89.7643 465.677 88.079 464.03 86.6161C462.475 85.4523 460.758 84.5145 458.931 83.8317C453.853 81.7301 448.673 80.6694 443.42 79.2373C438.388 77.8252 433.755 77.1689 428.623 78.8926Z" fill="#85555C"/>
<path d="M454.42 165.383H436.548V136.915C437.079 134.181 437.39 131.41 437.478 128.628C437.478 127.693 437.478 126.739 437.478 125.777C437.31 122.383 436.595 118.995 434.72 116.927C429.79 111.477 450.737 112.385 450.737 112.385C451.38 114.888 452.214 117.339 453.233 119.718C454.75 123.43 456.769 126.924 459.235 130.106C461.404 132.938 464.184 135.263 467.375 136.915C479.676 142.975 454.42 165.383 454.42 165.383Z" fill="#F8BDC5"/>
<g opacity="0.1">
<path opacity="0.1" d="M453.212 119.718C451.398 122.044 448.971 123.837 446.194 124.905C443.417 125.973 440.396 126.275 437.458 125.777C437.289 122.383 436.574 118.995 434.699 116.927C429.77 111.477 450.717 112.385 450.717 112.385C451.36 114.888 452.194 117.339 453.212 119.718Z" fill="black"/>
</g>
<path d="M440.243 125.114C449.261 125.114 456.571 117.928 456.571 109.064C456.571 100.2 449.261 93.0137 440.243 93.0137C431.226 93.0137 423.916 100.2 423.916 109.064C423.916 117.928 431.226 125.114 440.243 125.114Z" fill="#F8BDC5"/>
<path d="M508.015 136.617C507.213 140.817 506.7 145.065 506.477 149.332C506.228 154.789 502.276 174.571 500.833 181.632C500.651 182.537 500.244 183.385 499.648 184.098C499.053 184.812 498.288 185.37 497.42 185.723C493.414 187.334 486.13 188.235 481.234 176.892C478.474 170.65 476.234 164.198 474.537 157.6C473.937 155.382 473.486 153.127 473.188 150.851L483.979 145.096C484.995 146.03 485.855 147.115 486.528 148.312C488.019 150.824 489.55 154.855 489.226 160.537L492.598 165.383C492.598 165.383 500.914 139.945 499.342 135.404C497.771 130.862 504.272 129.649 504.272 129.649C504.272 129.649 522.448 115.727 524.606 117.842C526.764 119.957 518.178 130.557 508.015 136.617Z" fill="#F8BDC5"/>
<path d="M419.606 148.729C418.764 151.098 417.796 153.422 416.706 155.69C413.078 163.361 405.97 175.579 394.963 182.647C378.022 193.546 381.718 171.442 381.718 171.442C381.718 171.442 385.865 145.163 386.648 142.676C387.882 138.738 387.261 132.686 387.261 132.686C380.794 129.656 373.402 110.582 375.554 109.064C377.705 107.546 393.088 125.115 393.088 125.115C393.088 125.115 400.176 128.429 396.46 133.899C392.744 139.368 394.302 163.573 394.302 163.573L401.431 153.9C403.017 149.864 405.147 146.056 407.764 142.577C409.112 140.767 410.057 139.673 410.057 139.673L419.606 148.729Z" fill="#F8BDC5"/>
<g opacity="0.1">
<path opacity="0.1" d="M486.535 148.311C484.269 149.133 475.495 152.614 474.524 157.593C473.923 155.375 473.473 153.12 473.175 150.844L483.965 145.089C484.989 146.024 485.856 147.111 486.535 148.311Z" fill="black"/>
</g>
<g opacity="0.1">
<path opacity="0.1" d="M419.606 148.729C418.764 151.098 417.796 153.422 416.706 155.69C416.288 152.694 414.568 145.03 407.764 142.557C409.112 140.747 410.057 139.653 410.057 139.653L419.606 148.729Z" fill="black"/>
</g>
<g opacity="0.1">
<path opacity="0.1" d="M454.419 165.383H436.547V136.915C437.078 134.181 437.39 131.41 437.478 128.628C441.154 132.115 440.243 137.518 440.243 137.518L449.793 158.733L454.419 139.978L452.882 137.558L459.221 130.146C461.391 132.978 464.17 135.303 467.361 136.955C479.676 142.974 454.419 165.383 454.419 165.383Z" fill="black"/>
</g>
<g opacity="0.1">
<path opacity="0.1" d="M467.044 223.512C467.044 223.512 453.043 222.418 440.897 221.901L439.676 221.848C437.95 221.781 436.304 221.728 434.693 221.689C422.904 221.41 409.571 217.359 407.305 216.65C408.155 215.355 409.073 214.105 410.056 212.904L428.542 216.882C428.542 216.882 431.455 217.797 437.93 220.615L427.308 212.904L459.68 218.659C459.68 218.659 460.806 218.52 466.761 221.795L467.044 223.512Z" fill="black"/>
</g>
<path d="M454.42 141.158L452.882 138.738L459.72 130.696C459.72 130.696 473.822 137.492 477.518 136C477.518 136 486.454 143.293 486.758 147.509C486.758 147.509 473.822 151.745 474.126 158.117C474.429 164.488 467.989 178.098 467.989 178.098L465.291 188.984C463.631 195.581 463.401 202.448 464.617 209.138L467.078 222.616C467.078 222.616 447.669 221.105 434.706 220.8C421.744 220.495 406.981 215.655 406.981 215.655L414.541 200.016C417.268 194.372 418.603 188.176 418.44 181.93L417.765 156.612C417.765 156.612 417.151 143.896 406.975 141.774C406.975 141.774 412.518 130.57 421.137 131.479C421.137 131.479 433.695 126.327 437.424 129.808C441.154 133.289 440.237 138.745 440.237 138.745L449.786 159.96L454.42 141.158Z" fill="#ED677B"/>
<g opacity="0.1">
<path opacity="0.1" d="M428.461 105.756C430.936 105.756 432.879 103.177 435.354 103.309C436.635 103.376 437.734 104.178 438.793 104.901C442.794 107.624 447.246 109.643 451.951 110.867C453.779 111.345 455.714 111.703 457.549 111.265C459.383 110.827 461.103 109.409 461.312 107.559C461.363 106.744 461.253 105.927 460.988 105.153C458.911 98.0405 454.213 91.9445 447.81 88.0547C445.247 86.51 442.118 85.3299 439.279 86.2979C436.716 87.1663 435.064 89.5265 433.209 91.469C431.811 92.9234 430.224 94.1896 428.488 95.2346C427.139 96.0368 425.116 96.5605 424.34 98.0323C422.877 100.777 425.177 105.729 428.461 105.756Z" fill="black"/>
</g>
<path d="M428.461 105.153C430.936 105.153 432.879 102.574 435.354 102.706C436.635 102.773 437.734 103.575 438.793 104.298C442.794 107.021 447.246 109.04 451.951 110.264C453.779 110.742 455.714 111.1 457.549 110.662C459.383 110.224 461.103 108.806 461.312 106.956C461.363 106.141 461.253 105.324 460.988 104.55C458.911 97.4375 454.213 91.3415 447.81 87.4517C445.247 85.907 442.118 84.7269 439.279 85.6948C436.716 86.5633 435.064 88.9235 433.209 90.8659C431.811 92.3204 430.224 93.5866 428.488 94.6316C427.139 95.4338 425.116 95.9575 424.34 97.4293C422.877 100.2 425.177 105.12 428.461 105.153Z" fill="#85555C"/>
<path opacity="0.05" d="M420.996 174.313C420.996 174.313 436.089 179.763 445.949 175.526L450.879 175.831C450.879 175.831 459.073 181.48 467.739 178.954" fill="black"/>
<path opacity="0.05" d="M492.463 165.23C492.463 165.23 490.001 170.985 491.229 172.802L492.463 165.23Z" fill="black"/>
<path opacity="0.05" d="M394.194 163.414C394.194 163.414 395.429 169.169 394.194 170.985V163.414Z" fill="black"/>
<path d="M649.675 294.542C649.675 294.542 621.458 322.28 637.388 363.437C653.317 404.593 610.087 473.038 610.087 473.038C610.087 473.038 610.553 472.971 611.436 472.826C669.389 462.768 698.179 397.619 665.956 349.216C653.944 331.217 644.112 310.108 649.675 294.542Z" fill="#3F3D56"/>
<path opacity="0.1" d="M649.675 295.005C649.675 295.005 621.458 322.744 637.388 363.901C653.317 405.057 610.087 473.495 610.087 473.495C610.087 473.495 610.553 473.429 611.436 473.283C669.389 463.226 698.179 398.076 665.956 349.673C653.944 331.681 644.112 310.572 649.675 295.005Z" fill="black"/>
<path d="M649.675 294.542C649.675 294.542 633.746 328.538 649.675 356.277C665.605 384.015 652.373 461.854 610.081 473.038" stroke="#535461" stroke-miterlimit="10"/>
<path d="M699.933 406.728C699.933 406.728 667.736 401.69 664.802 430.051C661.869 458.413 602.871 462.344 602.871 462.344L603.977 463.067C652.67 494.491 699.224 483.082 692.204 441.355C689.614 425.848 689.83 410.268 699.933 406.728Z" fill="#3F3D56"/>
<path d="M699.933 406.728C699.933 406.728 674.939 412.118 677.003 434.46C679.066 456.802 639.91 483.579 602.898 462.351" stroke="#535461" stroke-miterlimit="10"/>
<path d="M671.607 463.378C671.607 463.378 646.249 458.393 639.485 451.743C632.721 445.094 602.291 433.465 598.912 441.799C595.533 450.132 553.268 478.361 582.005 483.347C610.741 488.332 649.628 489.976 658.078 486.661C666.529 483.347 671.607 463.378 671.607 463.378Z" fill="#A8A8A8"/>
<path opacity="0.2" d="M582.005 480.237C610.749 485.223 649.628 486.867 658.079 483.552C664.519 481.02 668.991 468.861 670.758 463.199L671.601 463.372C671.601 463.372 666.529 483.314 658.079 486.635C649.628 489.956 610.742 488.299 582.005 483.32C573.71 481.882 571.336 478.5 572.233 474.224C572.934 477.015 575.827 479.163 582.005 480.237Z" fill="black"/>
</g>
<defs>
<linearGradient id="paint0_linear" x1="352.003" y1="494.842" x2="352.003" y2="14.8569" gradientUnits="userSpaceOnUse">
<stop stop-color="#808080" stop-opacity="0.25"/>
<stop offset="0.54" stop-color="#808080" stop-opacity="0.12"/>
<stop offset="1" stop-color="#808080" stop-opacity="0.1"/>
</linearGradient>
<linearGradient id="paint1_linear" x1="118024" y1="164919" x2="118024" y2="49633.3" gradientUnits="userSpaceOnUse">
<stop stop-color="#808080" stop-opacity="0.25"/>
<stop offset="0.54" stop-color="#808080" stop-opacity="0.12"/>
<stop offset="1" stop-color="#808080" stop-opacity="0.1"/>
</linearGradient>
<clipPath id="clip0">
<rect width="700" height="512" fill="white"/>
</clipPath>
</defs>
</svg>
