<svg width="743" height="556" viewBox="0 0 743 556" fill="none" xmlns="http://www.w3.org/2000/svg">
<g clip-path="url(#clip0)">
<path opacity="0.25" d="M705.051 214.978V165.403H675.609V214.978H640.744V138.291H615.177V80.97H594.257V22.0996H550.87V80.97H529.951V138.291H505.158V69.3509H491.211V34.4934H482.689V69.3509H433.103V289.34H395.139V266.102H371.895V289.34H333.931V214.978H265.75V165.403H236.308V214.978H234.759V310.255H203.768V254.483H166.578V310.255H135.587V138.291H111.569V80.97H23.2434V138.291H0V441.164H135.587H234.759H333.931H433.103H505.158H640.744H739.916V214.978H705.051Z" fill="#3F3D56"/>
<path opacity="0.4" d="M47.2615 156.107H14.7207V174.698H47.2615V156.107Z" fill="white"/>
<path opacity="0.4" d="M87.5505 174.698H120.091V156.107H87.5505V174.698Z" fill="white"/>
<path opacity="0.4" d="M47.2615 192.514H14.7207V211.105H47.2615V192.514Z" fill="white"/>
<path opacity="0.4" d="M87.5505 211.104H120.091V192.514H87.5505V211.104Z" fill="white"/>
<path opacity="0.4" d="M47.2615 228.921H14.7207V247.511H47.2615V228.921Z" fill="white"/>
<path opacity="0.4" d="M87.5505 247.511H120.091V228.921H87.5505V247.511Z" fill="white"/>
<path opacity="0.4" d="M47.2615 265.327H14.7207V283.918H47.2615V265.327Z" fill="white"/>
<path opacity="0.4" d="M87.5505 283.918H120.091V265.327H87.5505V283.918Z" fill="white"/>
<path opacity="0.4" d="M47.2615 301.734H14.7207V320.325H47.2615V301.734Z" fill="white"/>
<path opacity="0.4" d="M87.5505 320.325H120.091V301.734H87.5505V320.325Z" fill="white"/>
<path opacity="0.4" d="M47.2615 338.141H14.7207V356.731H47.2615V338.141Z" fill="white"/>
<path opacity="0.4" d="M87.5505 356.731H120.091V338.141H87.5505V356.731Z" fill="white"/>
<path opacity="0.4" d="M47.2615 374.547H14.7207V393.138H47.2615V374.547Z" fill="white"/>
<path opacity="0.4" d="M87.5505 393.138H120.091V374.548H87.5505V393.138Z" fill="white"/>
<path opacity="0.4" d="M223.137 328.845H147.208V338.141H223.137V328.845Z" fill="white"/>
<path opacity="0.4" d="M223.137 342.788H147.208V352.084H223.137V342.788Z" fill="white"/>
<path opacity="0.4" d="M223.137 356.731H147.208V366.027H223.137V356.731Z" fill="white"/>
<path opacity="0.4" d="M421.481 333.493H345.553V342.789H421.481V333.493Z" fill="white"/>
<path opacity="0.4" d="M421.481 347.436H345.553V356.731H421.481V347.436Z" fill="white"/>
<path opacity="0.4" d="M421.481 361.379H345.553V370.674H421.481V361.379Z" fill="white"/>
<path opacity="0.4" d="M223.137 370.674H147.208V379.97H223.137V370.674Z" fill="white"/>
<path opacity="0.4" d="M223.137 384.617H147.208V393.913H223.137V384.617Z" fill="white"/>
<path opacity="0.4" d="M223.137 398.56H147.208V407.856H223.137V398.56Z" fill="white"/>
<path opacity="0.4" d="M271.948 232.794H251.029V259.905H271.948V232.794Z" fill="white"/>
<path opacity="0.4" d="M296.742 259.905H317.661V232.794H296.742V259.905Z" fill="white"/>
<path opacity="0.4" d="M271.948 276.172H251.029V303.283H271.948V276.172Z" fill="white"/>
<path opacity="0.4" d="M296.742 303.283H317.661V276.172H296.742V303.283Z" fill="white"/>
<path opacity="0.4" d="M271.948 319.55H251.029V346.661H271.948V319.55Z" fill="white"/>
<path opacity="0.4" d="M296.742 346.661H317.661V319.55H296.742V346.661Z" fill="white"/>
<path opacity="0.4" d="M271.948 362.928H251.029V390.04H271.948V362.928Z" fill="white"/>
<path opacity="0.4" d="M296.742 390.04H317.661V362.928H296.742V390.04Z" fill="white"/>
<path opacity="0.4" d="M460.995 87.167H433.103V122.799H460.995V87.167Z" fill="white"/>
<path opacity="0.4" d="M460.995 138.291H433.103V173.923H460.995V138.291Z" fill="white"/>
<path opacity="0.4" d="M460.995 189.416H433.103V225.048H460.995V189.416Z" fill="white"/>
<path opacity="0.4" d="M460.995 240.54H433.103V276.172H460.995V240.54Z" fill="white"/>
<path opacity="0.4" d="M460.995 291.664H433.103V327.296H460.995V291.664Z" fill="white"/>
<path opacity="0.4" d="M460.995 342.788H433.103V378.42H460.995V342.788Z" fill="white"/>
<path opacity="0.4" d="M624.861 159.98H521.041V190.19H624.861V159.98Z" fill="white"/>
<path opacity="0.4" d="M625.248 225.048H521.428V255.257H625.248V225.048Z" fill="white"/>
<path opacity="0.4" d="M625.636 290.115H521.815V320.325H625.636V290.115Z" fill="white"/>
<path opacity="0.4" d="M626.023 355.182H522.203V385.392H626.023V355.182Z" fill="white"/>
<path opacity="0.4" d="M37.1897 97.2368H23.2437V126.672H37.1897V97.2368Z" fill="white"/>
<path opacity="0.4" d="M739.916 232.794H705.051V277.721H739.916V232.794Z" fill="white"/>
<path opacity="0.4" d="M739.916 297.861H705.051V342.788H739.916V297.861Z" fill="white"/>
<path opacity="0.4" d="M739.916 362.928H705.051V407.856H739.916V362.928Z" fill="white"/>
<path opacity="0.1" d="M205.069 59.0332H199.739C200.243 59.0562 200.747 58.9767 201.219 58.7997C201.692 58.6226 202.124 58.3516 202.489 58.003C202.854 57.6544 203.144 57.2354 203.343 56.7714C203.541 56.3075 203.643 55.8081 203.643 55.3034C203.643 54.7988 203.541 54.2994 203.343 53.8355C203.144 53.3715 202.854 52.9525 202.489 52.6039C202.124 52.2553 201.692 51.9843 201.219 51.8072C200.747 51.6302 200.243 51.5507 199.739 51.5737H156.56C155.6 51.6174 154.694 52.0295 154.03 52.7242C153.366 53.4189 152.996 54.3427 152.996 55.3034C152.996 56.2642 153.366 57.188 154.03 57.8827C154.694 58.5774 155.6 58.9894 156.56 59.0332H161.891C161.387 59.0102 160.883 59.0897 160.41 59.2667C159.938 59.4438 159.506 59.7148 159.141 60.0634C158.776 60.412 158.485 60.831 158.287 61.295C158.089 61.7589 157.986 62.2583 157.986 62.7629C157.986 63.2676 158.089 63.7669 158.287 64.2309C158.485 64.6949 158.776 65.1139 159.141 65.4625C159.506 65.8111 159.938 66.0821 160.41 66.2591C160.883 66.4362 161.387 66.5157 161.891 66.4927H154.43C153.47 66.5364 152.563 66.9485 151.9 67.6432C151.236 68.3379 150.865 69.2617 150.865 70.2224C150.865 71.1832 151.236 72.107 151.9 72.8017C152.563 73.4964 153.47 73.9084 154.43 73.9522H197.608C198.568 73.9084 199.474 73.4964 200.138 72.8017C200.802 72.107 201.173 71.1832 201.173 70.2224C201.173 69.2617 200.802 68.3379 200.138 67.6432C199.474 66.9485 198.568 66.5364 197.608 66.4927H205.069C205.574 66.5157 206.077 66.4362 206.55 66.2591C207.022 66.0821 207.454 65.8111 207.819 65.4625C208.184 65.1139 208.475 64.6949 208.673 64.2309C208.872 63.7669 208.974 63.2676 208.974 62.7629C208.974 62.2583 208.872 61.7589 208.673 61.295C208.475 60.831 208.184 60.412 207.819 60.0634C207.454 59.7148 207.022 59.4438 206.55 59.2667C206.077 59.0897 205.574 59.0102 205.069 59.0332V59.0332Z" fill="#252223"/>
<path opacity="0.1" d="M395.665 152.761H390.335C390.839 152.784 391.343 152.705 391.815 152.527C392.288 152.35 392.72 152.079 393.085 151.731C393.45 151.382 393.74 150.963 393.939 150.499C394.137 150.035 394.239 149.536 394.239 149.031C394.239 148.527 394.137 148.027 393.939 147.563C393.74 147.099 393.45 146.68 393.085 146.332C392.72 145.983 392.288 145.712 391.815 145.535C391.343 145.358 390.839 145.279 390.335 145.301H347.156C346.196 145.345 345.29 145.757 344.626 146.452C343.962 147.147 343.592 148.07 343.592 149.031C343.592 149.992 343.962 150.916 344.626 151.61C345.29 152.305 346.196 152.717 347.156 152.761H352.487C351.983 152.738 351.479 152.817 351.006 152.995C350.534 153.172 350.102 153.443 349.737 153.791C349.372 154.14 349.081 154.559 348.883 155.023C348.685 155.487 348.582 155.986 348.582 156.491C348.582 156.995 348.685 157.495 348.883 157.959C349.081 158.423 349.372 158.842 349.737 159.19C350.102 159.539 350.534 159.81 351.006 159.987C351.479 160.164 351.983 160.243 352.487 160.22H345.026C344.521 160.198 344.018 160.277 343.545 160.454C343.072 160.631 342.641 160.902 342.276 161.251C341.911 161.599 341.62 162.018 341.422 162.482C341.223 162.946 341.121 163.446 341.121 163.95C341.121 164.455 341.223 164.954 341.422 165.418C341.62 165.882 341.911 166.301 342.276 166.65C342.641 166.998 343.072 167.269 343.545 167.446C344.018 167.624 344.521 167.703 345.026 167.68H388.204C388.708 167.703 389.212 167.624 389.685 167.446C390.157 167.269 390.589 166.998 390.954 166.65C391.319 166.301 391.609 165.882 391.808 165.418C392.006 164.954 392.109 164.455 392.109 163.95C392.109 163.446 392.006 162.946 391.808 162.482C391.609 162.018 391.319 161.599 390.954 161.251C390.589 160.902 390.157 160.631 389.685 160.454C389.212 160.277 388.708 160.198 388.204 160.22H395.665C396.169 160.243 396.673 160.164 397.146 159.987C397.618 159.81 398.05 159.539 398.415 159.19C398.78 158.842 399.071 158.423 399.269 157.959C399.467 157.495 399.57 156.995 399.57 156.491C399.57 155.986 399.467 155.487 399.269 155.023C399.071 154.559 398.78 154.14 398.415 153.791C398.05 153.443 397.618 153.172 397.146 152.995C396.673 152.817 396.169 152.738 395.665 152.761V152.761Z" fill="#252223"/>
<path opacity="0.1" d="M720.299 30.3726H714.969C715.473 30.3955 715.976 30.3161 716.449 30.139C716.922 29.9619 717.354 29.6909 717.719 29.3423C718.083 28.9937 718.374 28.5748 718.572 28.1108C718.771 27.6468 718.873 27.1474 718.873 26.6428C718.873 26.1382 718.771 25.6388 718.572 25.1748C718.374 24.7108 718.083 24.2919 717.719 23.9433C717.354 23.5947 716.922 23.3237 716.449 23.1466C715.976 22.9695 715.473 22.8901 714.969 22.9131H671.79C670.83 22.9568 669.924 23.3689 669.26 24.0635C668.596 24.7582 668.226 25.682 668.226 26.6428C668.226 27.6036 668.596 28.5274 669.26 29.2221C669.924 29.9167 670.83 30.3288 671.79 30.3726H677.121C676.616 30.3496 676.113 30.429 675.64 30.6061C675.167 30.7832 674.736 31.0542 674.371 31.4028C674.006 31.7514 673.715 32.1703 673.517 32.6343C673.318 33.0983 673.216 33.5977 673.216 34.1023C673.216 34.6069 673.318 35.1063 673.517 35.5703C673.715 36.0343 674.006 36.4532 674.371 36.8018C674.736 37.1504 675.167 37.4214 675.64 37.5985C676.113 37.7756 676.616 37.855 677.121 37.8321H669.659C669.155 37.8091 668.652 37.8885 668.179 38.0656C667.706 38.2427 667.274 38.5137 666.909 38.8623C666.545 39.2109 666.254 39.6298 666.056 40.0938C665.857 40.5578 665.755 41.0572 665.755 41.5618C665.755 42.0664 665.857 42.5658 666.056 43.0298C666.254 43.4938 666.545 43.9127 666.909 44.2613C667.274 44.6099 667.706 44.8809 668.179 45.058C668.652 45.2351 669.155 45.3145 669.659 45.2916H712.838C713.342 45.3145 713.846 45.2351 714.318 45.058C714.791 44.8809 715.223 44.6099 715.588 44.2613C715.953 43.9127 716.243 43.4938 716.442 43.0298C716.64 42.5658 716.742 42.0664 716.742 41.5618C716.742 41.0572 716.64 40.5578 716.442 40.0938C716.243 39.6298 715.953 39.2109 715.588 38.8623C715.223 38.5137 714.791 38.2427 714.318 38.0656C713.846 37.8885 713.342 37.8091 712.838 37.8321H720.299C720.803 37.855 721.307 37.7756 721.78 37.5985C722.252 37.4214 722.684 37.1504 723.049 36.8018C723.414 36.4532 723.704 36.0343 723.903 35.5703C724.101 35.1063 724.204 34.6069 724.204 34.1023C724.204 33.5977 724.101 33.0983 723.903 32.6343C723.704 32.1703 723.414 31.7514 723.049 31.4028C722.684 31.0542 722.252 30.7832 721.78 30.6061C721.307 30.429 720.803 30.3496 720.299 30.3726V30.3726Z" fill="#252223"/>
<path d="M618.314 3.5168C611.784 3.4544 605.257 3.84782 598.782 4.6942V4.6942C598.782 3.45129 598.288 2.25929 597.409 1.38042C596.53 0.501556 595.338 0.0078125 594.095 0.0078125C592.851 0.0078125 591.659 0.501556 590.78 1.38042C589.901 2.25929 589.407 3.45129 589.407 4.6942V4.6942C582.932 3.84782 576.405 3.4544 569.875 3.5168C555.425 3.5168 543.703 5.06602 543.703 7.03353C543.703 9.00104 555.417 10.5503 569.875 10.5503C576.405 10.6127 582.932 10.2192 589.407 9.37285V9.37285C589.407 9.9366 589.509 10.4957 589.709 11.0228C589.286 11.2833 588.932 11.6418 588.676 12.068C588.421 12.4942 588.272 12.9755 588.241 13.4715C588.211 13.9674 588.3 14.4634 588.502 14.9175C588.703 15.3717 589.011 15.7707 589.399 16.081C588.262 16.4688 587.218 17.0893 586.333 17.9028C585.449 18.7163 584.744 19.7051 584.263 20.8061C582.966 19.8162 581.398 19.2459 579.769 19.1717L531.105 17.0028C529.334 14.6331 527.034 12.7094 524.388 11.3849C521.742 10.0603 518.824 9.37134 515.865 9.37285H485.23C482.247 9.37147 479.305 10.0719 476.643 11.4176C473.981 12.7632 471.672 14.7163 469.905 17.119L423.681 19.1872C422.173 19.2536 420.715 19.745 419.474 20.6047C418.564 18.6543 416.959 17.1132 414.973 16.2824C415.471 15.9654 415.868 15.5128 416.117 14.9779C416.366 14.4431 416.458 13.8481 416.38 13.2631C416.303 12.6781 416.06 12.1273 415.681 11.6755C415.301 11.2237 414.8 10.8898 414.237 10.7129C414.366 10.2781 414.432 9.8266 414.43 9.37285C420.906 10.2193 427.432 10.6127 433.963 10.5503C448.412 10.5503 460.135 9.00104 460.135 7.03353C460.135 5.06602 448.42 3.5168 433.963 3.5168C427.432 3.4544 420.906 3.84782 414.43 4.6942V4.6942C414.43 3.46157 413.941 2.27942 413.069 1.40781C412.197 0.536205 411.015 0.0465395 409.782 0.0465395C408.549 0.0465395 407.366 0.536205 406.495 1.40781C405.623 2.27942 405.133 3.46157 405.133 4.6942C398.658 3.84782 392.131 3.4544 385.601 3.5168C371.151 3.5168 359.429 5.06602 359.429 7.03353C359.429 9.00104 371.143 10.5503 385.601 10.5503C392.131 10.6127 398.658 10.2192 405.133 9.37285V9.37285C405.133 9.9366 405.235 10.4957 405.435 11.0228C405 11.29 404.637 11.6608 404.379 12.1021C404.121 12.5435 403.977 13.0417 403.959 13.5524C403.94 14.0631 404.048 14.5704 404.274 15.0291C404.499 15.4879 404.834 15.8838 405.249 16.1817C403.609 16.7998 402.197 17.9024 401.199 19.3428C400.201 20.7832 399.665 22.4932 399.663 24.2454V30.024C399.665 32.2992 400.566 34.4816 402.169 36.0962C403.773 37.7108 405.949 38.627 408.224 38.6454H411.657C413.002 38.6454 414.329 38.3301 415.531 37.7247C416.732 37.1194 417.775 36.2409 418.576 35.1596C420.002 36.4888 421.864 37.2518 423.813 37.3053L469.138 38.5757C470.585 40.8591 472.499 42.81 474.755 44.3C470.416 48.7076 453.495 68.251 456.222 102.69C456.222 102.69 458.957 107.764 465.984 102.69C465.984 102.69 461.491 64.316 486.648 48.5139C487.074 49.7379 487.871 50.7989 488.927 51.5498C489.984 52.3007 491.248 52.7043 492.544 52.7046H495.759C492.121 54.1392 489.098 56.7979 487.211 60.2222C485.324 63.6466 484.691 67.6219 485.421 71.4629C486.151 75.3039 488.199 78.7698 491.212 81.263C494.224 83.7561 498.012 85.1203 501.923 85.1203C505.833 85.1203 509.621 83.7561 512.634 81.263C515.646 78.7698 517.694 75.3039 518.424 71.4629C519.155 67.6219 518.522 63.6466 516.634 60.2222C514.747 56.7979 511.724 54.1392 508.086 52.7046H511.301C512.598 52.7043 513.862 52.3007 514.918 51.5498C515.975 50.7989 516.771 49.7379 517.198 48.5139C542.355 64.316 537.861 102.69 537.861 102.69C544.888 107.764 547.623 102.69 547.623 102.69C550.722 63.247 528.091 43.3395 528.091 43.3395H527.68C529.346 42.0213 530.781 40.4349 531.926 38.6454L579.637 37.3131C581.688 37.2663 583.643 36.4346 585.099 34.9892C585.893 36.1323 586.951 37.0662 588.185 37.7111C589.418 38.3559 590.789 38.6924 592.181 38.6919H595.613C596.747 38.6919 597.869 38.4687 598.916 38.035C599.963 37.6014 600.915 36.9657 601.716 36.1644C602.518 35.3631 603.153 34.4119 603.587 33.3649C604.021 32.318 604.244 31.1959 604.244 30.0627V24.2841C604.244 22.6176 603.761 20.9868 602.853 19.5888C601.946 18.1909 600.653 17.0855 599.131 16.4063C599.66 16.1133 600.092 15.6717 600.374 15.136C600.655 14.6003 600.773 13.9939 600.714 13.3917C600.655 12.7896 600.42 12.2179 600.04 11.7474C599.659 11.2769 599.149 10.928 598.573 10.7439C598.702 10.3091 598.768 9.85759 598.767 9.40384C605.242 10.2502 611.769 10.6437 618.299 10.5812C632.748 10.5812 644.471 9.03203 644.471 7.06452C644.471 5.097 632.772 3.5168 618.314 3.5168Z" fill="url(#paint0_linear)"/>
<path d="M501.927 83.2706C510.673 83.2706 517.763 76.1819 517.763 67.4375C517.763 58.6932 510.673 51.6045 501.927 51.6045C493.181 51.6045 486.09 58.6932 486.09 67.4375C486.09 76.1819 493.181 83.2706 501.927 83.2706Z" fill="#3F3D56"/>
<path d="M501.927 78.1194C507.828 78.1194 512.611 73.3369 512.611 67.4375C512.611 61.5381 507.828 56.7556 501.927 56.7556C496.026 56.7556 491.243 61.5381 491.243 67.4375C491.243 73.3369 496.026 78.1194 501.927 78.1194Z" fill="#3F3D56"/>
<path opacity="0.2" d="M501.927 78.1194C507.828 78.1194 512.611 73.3369 512.611 67.4375C512.611 61.5381 507.828 56.7556 501.927 56.7556C496.026 56.7556 491.243 61.5381 491.243 67.4375C491.243 73.3369 496.026 78.1194 501.927 78.1194Z" fill="#F5F5F5"/>
<path d="M501.927 74.4323C505.791 74.4323 508.923 71.3007 508.923 67.4376C508.923 63.5745 505.791 60.4429 501.927 60.4429C498.063 60.4429 494.931 63.5745 494.931 67.4376C494.931 71.3007 498.063 74.4323 501.927 74.4323Z" fill="#3F3D56"/>
<path opacity="0.25" d="M501.927 74.4323C505.791 74.4323 508.923 71.3007 508.923 67.4376C508.923 63.5745 505.791 60.4429 501.927 60.4429C498.063 60.4429 494.931 63.5745 494.931 67.4376C494.931 71.3007 498.063 74.4323 501.927 74.4323Z" fill="black"/>
<path d="M477.242 43.8662C477.242 43.8662 455.881 62.6582 458.825 99.8395C458.825 99.8395 461.405 104.627 468.038 99.8395C468.038 99.8395 462.513 52.6967 499.347 43.8584L477.242 43.8662Z" fill="#3F3D56"/>
<path d="M526.604 43.8662C526.604 43.8662 547.972 62.6582 545.051 99.8395C545.051 99.8395 542.471 104.627 535.839 99.8395C535.839 99.8395 541.363 52.6967 504.53 43.8584L526.604 43.8662Z" fill="#3F3D56"/>
<path d="M515.09 11.8206H486.175C476.257 11.8206 468.216 19.8595 468.216 29.776C468.216 39.6926 476.257 47.7315 486.175 47.7315H515.09C525.009 47.7315 533.05 39.6926 533.05 29.776C533.05 19.8595 525.009 11.8206 515.09 11.8206Z" fill="#3F3D56"/>
<path d="M478.838 39.5903L428.253 38.1727C426.278 38.1182 424.402 37.2953 423.024 35.879C421.647 34.4627 420.876 32.5648 420.877 30.5893V28.6528C420.877 26.7005 421.63 24.8235 422.979 23.4124C424.329 22.0013 426.171 21.1648 428.121 21.0771L478.707 18.8075C479.73 18.7614 480.753 18.9233 481.712 19.2832C482.672 19.6431 483.548 20.1937 484.289 20.9017C485.03 21.6097 485.619 22.4605 486.022 23.4026C486.425 24.3447 486.633 25.3586 486.633 26.3832V32.0146C486.632 33.0276 486.428 34.0303 486.034 34.9634C485.639 35.8964 485.061 36.741 484.335 37.4471C483.608 38.1533 482.748 38.7068 481.804 39.0749C480.86 39.443 479.851 39.6182 478.838 39.5903V39.5903Z" fill="#3F3D56"/>
<path d="M524.643 39.5903L575.229 38.1727C577.204 38.1182 579.08 37.2953 580.458 35.879C581.835 34.4627 582.606 32.5648 582.605 30.5893V28.6528C582.605 26.7005 581.852 24.8235 580.502 23.4124C579.153 22.0013 577.311 21.1648 575.361 21.0771L524.775 18.8075C523.751 18.7614 522.729 18.9233 521.769 19.2832C520.81 19.6431 519.933 20.1937 519.193 20.9017C518.452 21.6097 517.862 22.4605 517.46 23.4026C517.057 24.3447 516.849 25.3586 516.849 26.3832V32.0146C516.85 33.0276 517.053 34.0303 517.448 34.9634C517.843 35.8964 518.42 36.741 519.147 37.4471C519.874 38.1533 520.734 38.7068 521.678 39.0749C522.622 39.443 523.631 39.6182 524.643 39.5903V39.5903Z" fill="#3F3D56"/>
<path opacity="0.2" d="M478.838 39.5903L428.253 38.1727C426.278 38.1182 424.402 37.2953 423.024 35.879C421.647 34.4627 420.876 32.5648 420.877 30.5893V28.6528C420.877 26.7005 421.63 24.8235 422.979 23.4124C424.329 22.0013 426.171 21.1648 428.121 21.0771L478.707 18.8075C479.73 18.7614 480.753 18.9233 481.712 19.2832C482.672 19.6431 483.548 20.1937 484.289 20.9017C485.03 21.6097 485.619 22.4605 486.022 23.4026C486.425 24.3447 486.633 25.3586 486.633 26.3832V32.0146C486.632 33.0276 486.428 34.0303 486.034 34.9634C485.639 35.8964 485.061 36.741 484.335 37.4471C483.608 38.1533 482.748 38.7068 481.804 39.0749C480.86 39.443 479.851 39.6182 478.838 39.5903V39.5903Z" fill="#F5F5F5"/>
<path opacity="0.2" d="M524.643 39.5903L575.229 38.1727C577.204 38.1182 579.08 37.2953 580.458 35.879C581.835 34.4627 582.606 32.5648 582.605 30.5893V28.6528C582.605 26.7005 581.852 24.8235 580.502 23.4124C579.153 22.0013 577.311 21.1648 575.361 21.0771L524.775 18.8075C523.751 18.7614 522.729 18.9233 521.769 19.2832C520.81 19.6431 519.933 20.1937 519.193 20.9017C518.452 21.6097 517.862 22.4605 517.46 23.4026C517.057 24.3447 516.849 25.3586 516.849 26.3832V32.0146C516.85 33.0276 517.053 34.0303 517.448 34.9634C517.843 35.8964 518.42 36.741 519.147 37.4471C519.874 38.1533 520.734 38.7068 521.678 39.0749C522.622 39.443 523.631 39.6182 524.643 39.5903V39.5903Z" fill="#F5F5F5"/>
<path d="M416.282 17.7153H414.066C409.287 17.7153 405.412 21.5891 405.412 26.3677V30.7908C405.412 35.5693 409.287 39.4432 414.066 39.4432H416.282C421.062 39.4432 424.937 35.5693 424.937 30.7908V26.3677C424.937 21.5891 421.062 17.7153 416.282 17.7153Z" fill="#3F3D56"/>
<path d="M589.787 17.7153H587.571C582.792 17.7153 578.917 21.5891 578.917 26.3677V30.7908C578.917 35.5693 582.792 39.4432 587.571 39.4432H589.787C594.567 39.4432 598.442 35.5693 598.442 30.7908V26.3677C598.442 21.5891 594.567 17.7153 589.787 17.7153Z" fill="#3F3D56"/>
<path d="M418.305 12.9282H412.409C410.782 12.9282 409.464 14.2461 409.464 15.8717V15.8795C409.464 17.5052 410.782 18.823 412.409 18.823H418.305C419.931 18.823 421.249 17.5052 421.249 15.8795V15.8717C421.249 14.2461 419.931 12.9282 418.305 12.9282Z" fill="#3F3D56"/>
<path d="M419.413 7.4052C419.413 4.96243 417.434 2.98218 414.992 2.98218C412.551 2.98218 410.572 4.96243 410.572 7.4052V11.8205C410.572 14.2633 412.551 16.2435 414.992 16.2435C417.434 16.2435 419.413 14.2633 419.413 11.8205V7.4052Z" fill="#3F3D56"/>
<path d="M392.148 12.9283C405.781 12.9283 416.832 11.4439 416.832 9.61294C416.832 7.78193 405.781 6.29761 392.148 6.29761C378.515 6.29761 367.463 7.78193 367.463 9.61294C367.463 11.4439 378.515 12.9283 392.148 12.9283Z" fill="#3F3D56"/>
<path d="M437.829 12.9283C451.462 12.9283 462.514 11.4439 462.514 9.61294C462.514 7.78193 451.462 6.29761 437.829 6.29761C424.196 6.29761 413.145 7.78193 413.145 9.61294C413.145 11.4439 424.196 12.9283 437.829 12.9283Z" fill="#3F3D56"/>
<path d="M592.173 12.9282H586.277C584.651 12.9282 583.333 14.2461 583.333 15.8717V15.8795C583.333 17.5052 584.651 18.823 586.277 18.823H592.173C593.799 18.823 595.117 17.5052 595.117 15.8795V15.8717C595.117 14.2461 593.799 12.9282 592.173 12.9282Z" fill="#3F3D56"/>
<path d="M593.281 7.4052C593.281 4.96243 591.302 2.98218 588.861 2.98218C586.42 2.98218 584.441 4.96243 584.441 7.4052V11.8205C584.441 14.2633 586.42 16.2435 588.861 16.2435C591.302 16.2435 593.281 14.2633 593.281 11.8205V7.4052Z" fill="#3F3D56"/>
<path d="M566.024 12.9283C579.657 12.9283 590.709 11.4439 590.709 9.61294C590.709 7.78193 579.657 6.29761 566.024 6.29761C552.391 6.29761 541.34 7.78193 541.34 9.61294C541.34 11.4439 552.391 12.9283 566.024 12.9283Z" fill="#3F3D56"/>
<path d="M611.698 12.9283C625.331 12.9283 636.382 11.4439 636.382 9.61294C636.382 7.78193 625.331 6.29761 611.698 6.29761C598.065 6.29761 587.013 7.78193 587.013 9.61294C587.013 11.4439 598.065 12.9283 611.698 12.9283Z" fill="#3F3D56"/>
<path opacity="0.2" d="M392.148 12.9283C405.781 12.9283 416.832 11.4439 416.832 9.61294C416.832 7.78193 405.781 6.29761 392.148 6.29761C378.515 6.29761 367.463 7.78193 367.463 9.61294C367.463 11.4439 378.515 12.9283 392.148 12.9283Z" fill="#F5F5F5"/>
<path opacity="0.2" d="M437.829 12.9283C451.462 12.9283 462.514 11.4439 462.514 9.61294C462.514 7.78193 451.462 6.29761 437.829 6.29761C424.196 6.29761 413.145 7.78193 413.145 9.61294C413.145 11.4439 424.196 12.9283 437.829 12.9283Z" fill="#F5F5F5"/>
<path opacity="0.2" d="M566.024 12.9283C579.657 12.9283 590.709 11.4439 590.709 9.61294C590.709 7.78193 579.657 6.29761 566.024 6.29761C552.391 6.29761 541.34 7.78193 541.34 9.61294C541.34 11.4439 552.391 12.9283 566.024 12.9283Z" fill="#F5F5F5"/>
<path opacity="0.2" d="M611.698 12.9283C625.331 12.9283 636.382 11.4439 636.382 9.61294C636.382 7.78193 625.331 6.29761 611.698 6.29761C598.065 6.29761 587.013 7.78193 587.013 9.61294C587.013 11.4439 598.065 12.9283 611.698 12.9283Z" fill="#F5F5F5"/>
<path d="M510.767 40.9148H493.087C489.83 40.9148 487.19 43.5522 487.19 46.8057C487.19 50.0592 489.83 52.6966 493.087 52.6966H510.767C514.023 52.6966 516.663 50.0592 516.663 46.8057C516.663 43.5522 514.023 40.9148 510.767 40.9148Z" fill="#3F3D56"/>
<path opacity="0.2" d="M510.767 40.9148H493.087C489.83 40.9148 487.19 43.5522 487.19 46.8057C487.19 50.0592 489.83 52.6966 493.087 52.6966H510.767C514.023 52.6966 516.663 50.0592 516.663 46.8057C516.663 43.5522 514.023 40.9148 510.767 40.9148Z" fill="#F5F5F5"/>
<path d="M528.68 102.132H463.048V167.75H528.68H545.446V102.132H528.68Z" fill="#67647E"/>
<path opacity="0.25" d="M545.454 102.132H528.68V167.75H545.454V102.132Z" fill="black"/>
<path opacity="0.25" d="M483.464 113.07H471.067V119.631H483.464V113.07Z" fill="black"/>
<path d="M498.913 94.4172C501.702 98.3677 501.237 103.457 501.237 103.457C501.237 103.457 496.294 102.148 493.489 98.1973C490.685 94.2468 489.616 90.2033 491.165 89.1576C492.715 88.1119 496.124 90.459 498.913 94.4172Z" fill="#67647E"/>
<path d="M503.631 94.4172C500.842 98.3677 501.307 103.457 501.307 103.457C501.307 103.457 506.25 102.148 509.055 98.1973C511.859 94.2468 512.929 90.2033 511.379 89.1576C509.829 88.1119 506.42 90.459 503.631 94.4172Z" fill="#67647E"/>
<path d="M158.032 273.809L157.947 274.073C157.983 273.988 158.012 273.899 158.032 273.809V273.809Z" fill="url(#paint1_linear)"/>
<path d="M407.442 488.074C407.496 487.997 407.55 487.927 407.589 487.85L407.674 487.687C407.713 487.61 407.76 487.54 407.791 487.462L407.853 487.3C407.853 487.222 407.915 487.145 407.938 487.067C407.961 486.99 407.938 486.967 407.977 486.913C408.015 486.858 408.015 486.758 408.031 486.672C408.046 486.587 408.031 486.579 408.031 486.525C408.031 486.471 408.031 486.363 408.031 486.277C408.031 486.192 408.031 486.192 408.031 486.146C408.031 486.099 408.031 485.975 408.031 485.89C408.031 485.805 408.031 485.813 408.031 485.774C408.031 485.735 408.031 485.596 408.031 485.51V485.41C408.031 485.317 408.031 485.224 407.969 485.131V485.046C407.969 484.945 407.907 484.852 407.876 484.751V484.689C407.84 484.586 407.798 484.485 407.752 484.387V484.341C407.705 484.232 407.654 484.126 407.597 484.023L407.411 483.69C406.697 482.584 405.798 481.609 404.753 480.809C396.765 484.101 386.933 480.336 386.933 480.336C386.933 480.336 373.762 473.76 374.715 475.634C375.033 476.269 374.87 477.532 374.514 478.942C368.207 477.617 364.728 474.232 362.838 471.196L370.02 463.45C370.02 463.45 340.88 447.005 337.595 438.546C334.31 430.087 318.327 406.128 318.327 406.128C318.327 406.128 313.159 387.336 303.761 383.107C303.761 383.107 285.019 360.721 274.071 341.526C277.945 331.851 283.368 316.738 282.144 310.286C280.595 302.245 282.199 287.047 282.842 281.672C288.04 286.01 309.184 303.183 317.389 302.772C320.341 302.625 323.518 301.045 326.501 298.938C333.598 294.445 339.951 286.327 339.951 286.327C338.99 286.42 338.207 285.553 337.572 284.081C345.421 275.56 361.676 258.023 363.45 257.667C365.774 257.194 378.488 235.118 371.438 230.416C364.387 225.714 351.704 242.631 351.232 245.908C350.914 248.139 341.082 257.93 334.791 264.003C334.791 263.848 334.791 263.763 334.791 263.763L333.861 264.227C333.861 263.933 333.861 263.763 333.861 263.763L317.629 271.873L303.784 252.957C303.784 252.957 300.026 232.755 290.613 229.463C281.199 226.171 274.249 216.031 274.249 216.031C274.162 216.36 274.092 216.694 274.04 217.03C273.567 216.403 273.312 216.031 273.312 216.031C273.312 216.031 273.312 216.116 273.25 216.256C272.54 213.363 272.359 210.367 272.715 207.41L272.847 207.332C272.901 206.968 272.963 206.62 273.025 206.287C277.831 203.372 281.434 198.833 283.181 193.491C284.928 188.15 284.703 182.359 282.547 177.169C284.941 175.496 288.412 174.458 291.364 173.187C295.538 171.485 299.195 168.721 301.971 165.17C300.354 164.766 298.658 164.8 297.059 165.271C296.857 163.094 299.383 160.623 297.415 158.966C296.207 157.935 293.952 158.028 292.232 158.54C290.512 159.051 288.939 159.887 287.111 160.089C283.926 160.476 280.912 158.935 278.642 157.269C276.372 155.604 274.234 153.652 271.197 152.862C265.161 151.312 259.18 154.883 253.121 156.402C243.39 158.834 237.625 161.437 237.153 167.634C235.9 168.475 234.746 169.455 233.713 170.554C231.621 172.371 230.175 174.817 229.591 177.525C228.77 181.739 230.474 186.046 232.535 189.795C233.705 191.941 239.33 203.056 243.15 201.592C244.207 202.807 245.385 203.91 246.667 204.885C246.543 206.163 246.365 207.456 246.163 208.758C245.302 209.228 244.366 209.55 243.397 209.71C241.295 210.101 239.159 210.288 237.021 210.268C233.678 210.243 230.339 210.039 227.019 209.656C223.791 209.283 220.544 209.097 217.295 209.098C215.675 209.093 214.057 209.171 212.445 209.331H212.197L211.236 209.447H211.089L210.043 209.617H209.927L209.075 209.788L208.881 209.827L208.013 210.036L207.161 210.276L207.021 210.315L206.355 210.524L206.208 210.57C205.704 210.741 205.232 210.926 204.782 211.112L204.643 211.174L204.085 211.415L203.984 211.461L203.357 211.755H203.303L202.76 212.026L202.628 212.096L202.102 212.367L201.435 212.716L201.032 212.925L200.846 213.026L200.296 213.305C195.593 215.628 150.013 227.867 142.025 252.298L142.188 252.446L142.366 252.608C142.234 252.965 142.102 253.321 141.986 253.677C141.986 253.677 142.761 254.374 143.97 255.505C141.824 264.847 136.075 288.721 133.053 289.852C129.295 291.261 125.065 319.922 134.936 318.985C144.806 318.047 144.806 295.026 144.806 295.026C144.806 295.026 151.315 277.582 156.111 268.728C156.937 269.831 157.574 271.064 157.993 272.376V272.477V272.384C158.109 272.787 158.128 273.212 158.048 273.623C158.512 272.26 160.922 266.001 165.95 266.838C171.32 267.736 191.603 247.759 193.525 245.846C193.478 246.365 193.416 247.016 193.354 247.767C193.354 248.209 193.277 248.681 193.238 249.192V249.355V249.742V249.998V250.393V250.672V251.067V251.423L193.199 252.004V252.477V252.81V253.282V253.6V254.096V254.429V254.971V255.281L193.145 256.133V256.249L193.099 257.024V257.295V257.945V258.255V258.921V259.2L193.06 259.975V260.13C193.06 260.465 193.044 260.804 193.013 261.145V261.206C193.013 261.516 193 261.826 192.975 262.136V262.407V263.182V263.492C192.975 263.75 192.975 264.008 192.975 264.266V264.53C192.975 265.237 192.951 265.952 192.905 266.675V266.83C192.905 267.135 192.905 267.44 192.905 267.744V268.023C192.905 268.297 192.905 268.57 192.905 268.844V269.131C192.905 269.43 192.905 269.732 192.905 270.037V270.215C192.905 270.954 192.905 271.697 192.905 272.446C192.905 272.524 192.905 272.601 192.905 272.686C192.905 272.975 192.905 273.265 192.905 273.554C192.905 273.652 192.905 273.753 192.905 273.856C192.905 274.13 192.905 274.406 192.905 274.685C192.905 274.762 192.905 274.84 192.905 274.917C192.905 285.165 193.533 295.599 195.834 301.548C197.055 304.746 197.705 308.134 197.755 311.556C197.538 317.744 195.917 323.802 193.013 329.272V329.272L193.564 329.101L193.463 329.279L193.765 329.186C193.3 330.155 192.99 330.689 192.99 330.689C192.99 330.689 193.672 330.472 194.888 330.116C193.153 336.235 191.998 345.655 195.338 357.475C195.338 357.475 197.22 367.808 195.81 371.573C194.4 375.338 192.99 405.4 192.99 405.4C192.99 405.4 190.17 409.157 185.002 406.81C179.834 404.463 116.395 396.477 116.395 396.477C116.395 396.477 116.248 396.732 116 397.189C114.048 396.577 111.235 395.64 109.182 394.78C109.957 393.711 110.646 393.099 111.227 393.185C111.227 393.185 107.842 391.55 104.154 390.257L103.48 390.024L102.821 389.807H102.775L102.147 389.614H102.077L101.504 389.451H101.388L100.845 389.312H100.706L100.187 389.195H100.04L99.5747 389.102H99.3965L98.9782 389.033H98.7767L98.3971 388.986H98.1879H97.8315H97.1109H96.8243H96.6383L96.3826 389.04H96.2122L95.9952 389.118L95.8403 389.172C95.7707 389.207 95.7035 389.245 95.6388 389.288L95.5226 389.358C95.428 389.428 95.3422 389.508 95.267 389.598C92.9426 392.418 79.7713 446.447 85.8688 450.204L86.3957 450.521L86.6126 450.645L86.8916 450.8L87.1627 450.94L87.3564 451.04L87.6508 451.18L87.7981 451.249L88.1002 451.381L88.2087 451.428L88.5186 451.544H88.5883L88.906 451.644H88.9447C92.3538 452.566 93.485 449.414 97.6145 442.659C101.659 436.044 106.858 427.701 111.398 424.611C111.499 424.835 111.599 425.06 111.708 425.277C111.708 425.277 159.171 430.443 176.557 436.121C193.943 441.799 207.548 449.29 218.852 436.121C228.971 424.324 239.082 386.066 241.058 378.312L241.352 377.15V377.049V376.949L278.944 405.609L295.393 424.874C295.393 424.874 318.42 457.291 322.65 457.764C326.88 458.236 345.932 489.26 345.932 489.26L346.645 488.485C346.815 489.345 346.947 490.135 347.048 490.809C345.498 494.535 346.932 499.027 348.342 501.986L348.404 502.11L348.566 502.436L348.652 502.606L348.807 502.908L348.884 503.055L349.047 503.365L349.132 503.512L349.256 503.737L349.318 503.853L349.481 504.132L349.55 504.248L349.651 504.411L349.705 504.504L349.829 504.705L349.876 504.783L349.953 504.899V504.953L350.031 505.077L350.077 505.139C350.077 505.139 399.423 493.396 405.528 489.647C405.722 489.531 405.9 489.407 406.071 489.283L406.226 489.159L406.535 488.911L406.69 488.764L406.931 488.539L407.07 488.377L407.256 488.16L407.442 488.074Z" fill="url(#paint2_linear)"/>
<path d="M120.858 396.314C120.858 396.314 109.872 393.107 109.415 391.736C108.958 390.365 99.7998 416.903 99.7998 416.903L108.958 423.309C108.958 423.309 118.573 417.817 123.609 418.731C128.645 419.645 120.858 396.314 120.858 396.314Z" fill="#4C4C56"/>
<path d="M357.507 461.753C357.507 461.753 358.879 474.147 373.987 475.479C389.095 476.812 363.915 487.873 363.915 487.873L344.692 489.244C344.692 489.244 344.235 481.498 341.028 475.518C337.82 469.538 357.507 461.753 357.507 461.753Z" fill="#4C4C56"/>
<path d="M198.677 322.633C198.677 322.633 189.984 335.902 195.935 356.956C195.935 356.956 197.763 367.026 196.392 370.682C195.02 374.338 193.649 403.634 193.649 403.634C193.649 403.634 190.906 407.298 185.901 405.005C180.896 402.712 119.076 394.935 119.076 394.935C119.076 394.935 109.004 412.325 114.497 422.821C114.497 422.821 160.729 427.856 177.665 433.348C194.602 438.84 207.882 446.16 218.86 433.348C229.839 420.536 240.833 375.686 240.833 375.686L277.449 403.572L293.472 422.333C293.472 422.333 315.902 453.906 320.024 454.363C324.145 454.82 343.368 485.023 343.368 485.023L366.712 459.855C366.712 459.855 338.285 443.906 335.085 435.664C331.885 427.422 316.32 404.091 316.32 404.091C316.32 404.091 311.284 385.787 302.134 381.666C302.134 381.666 269.175 342.308 265.975 324.004C262.775 305.7 211.035 314.407 211.035 314.407L198.677 322.633Z" fill="#5F5D7E"/>
<path d="M368.951 480.948C368.951 480.948 372.158 473.628 371.275 471.792C370.392 469.956 383.122 476.393 383.122 476.393C383.122 476.393 392.737 480.057 400.515 476.85C400.515 476.85 407.38 481.885 401.43 485.541C395.479 489.198 347.42 500.646 347.42 500.646C347.42 500.646 340.098 490.119 346.048 484.17L368.951 480.948Z" fill="#986365"/>
<path opacity="0.1" d="M335.085 435.664C331.878 427.43 316.32 404.091 316.32 404.091C316.32 404.091 311.284 385.787 302.134 381.666C302.134 381.666 269.175 342.308 265.975 324.004C265.316 320.232 262.589 317.606 258.684 315.816L252.3 334.988L243.583 361.17C241.902 366.22 240.306 371.852 240.484 377.073C240.709 376.205 240.825 375.725 240.825 375.725L277.441 403.611L293.464 422.372C293.464 422.372 315.894 453.945 320.016 454.402C324.138 454.859 343.36 485.061 343.36 485.061L366.704 459.894C366.704 459.894 338.285 443.906 335.085 435.664Z" fill="black"/>
<path d="M273.281 205.024C273.281 205.024 269.407 214.861 274.428 224.017C279.448 233.173 272.367 249.417 267.788 250.354C263.209 251.291 244.901 239.37 243.529 231.593C242.158 223.816 249.48 207.797 245.854 197.27L273.281 205.024Z" fill="#FDC2CC"/>
<path opacity="0.1" d="M248.565 221.957C248.565 221.957 262.751 250.788 278.317 230.191C278.317 230.191 293.882 261.764 288.846 266.799C285.265 270.283 281.441 273.509 277.403 276.451L269.167 334.113C269.167 334.113 222.478 318.094 202.799 320.844L233.015 248.542L248.565 221.957Z" fill="black"/>
<path d="M248.565 220.586C248.565 220.586 262.751 249.417 278.317 228.82C278.317 228.82 293.882 260.393 288.846 265.428C285.264 268.899 281.439 272.111 277.403 275.041L269.167 332.703C269.167 332.703 222.478 316.684 202.799 319.434L233.015 247.132L248.565 220.586Z" fill="#3F3D56"/>
<path d="M147.41 253.987C147.41 253.987 139.662 289.681 135.966 291.052C132.271 292.423 128.219 320.34 137.795 319.426C147.371 318.512 147.41 296.087 147.41 296.087C147.41 296.087 157.482 269.084 161.596 265.877C165.71 262.67 147.41 253.987 147.41 253.987Z" fill="#FDC2CC"/>
<path d="M327.299 270.463C327.299 270.463 347.9 251.245 348.357 248.038C348.815 244.831 361.172 228.363 368.037 232.933C374.901 237.503 362.544 259.014 360.289 259.479C358.034 259.944 330.995 289.689 330.995 289.689L327.299 270.463Z" fill="#FDC2CC"/>
<path opacity="0.1" d="M246.505 213.033C246.505 213.033 243.987 216.008 227.05 214.18C210.113 212.352 205.991 215.551 201.42 217.844C196.849 220.137 152.446 232.027 144.66 255.8C144.66 255.8 162.054 271.362 160.225 275.475C160.225 275.475 162.549 267.729 167.973 268.612C173.396 269.495 194.982 248.015 194.982 248.015C194.982 248.015 190.86 288.295 196.353 302.47C201.846 316.645 193.61 330.844 193.61 330.844C193.61 330.844 232.52 318.45 249.914 324.438C249.914 324.438 259.986 279.131 251.285 260.827C242.584 242.523 254.95 225.133 254.95 225.133L246.505 213.033Z" fill="black"/>
<path opacity="0.1" d="M246.962 211.662C246.962 211.662 244.444 214.637 227.507 212.809C210.57 210.981 206.448 214.18 201.877 216.473C197.306 218.766 152.903 230.656 145.117 254.429C145.117 254.429 162.511 269.991 160.682 274.104C160.682 274.104 163.006 266.358 168.43 267.241C173.853 268.124 195.439 246.644 195.439 246.644C195.439 246.644 191.317 286.924 196.81 301.099C202.303 315.274 194.075 329.496 194.075 329.496C194.075 329.496 232.985 317.102 250.379 323.09C250.379 323.09 260.451 277.783 251.75 259.479C243.049 241.175 255.43 223.777 255.43 223.777L246.962 211.662Z" fill="black"/>
<path d="M246.505 211.662C246.505 211.662 243.987 214.637 227.05 212.809C210.113 210.981 205.991 214.18 201.42 216.473C196.849 218.766 152.446 230.656 144.66 254.429C144.66 254.429 162.054 269.991 160.225 274.104C160.225 274.104 162.549 266.358 167.973 267.241C173.396 268.124 194.982 246.644 194.982 246.644C194.982 246.644 190.86 286.924 196.353 301.099C201.846 315.274 193.61 329.473 193.61 329.473C193.61 329.473 232.52 317.079 249.914 323.067C249.914 323.067 259.986 277.76 251.285 259.456C242.584 241.152 254.973 223.777 254.973 223.777L246.505 211.662Z" fill="#068DB4"/>
<path opacity="0.1" d="M272.142 219.904C272.142 219.904 278.782 229.742 287.932 232.949C297.082 236.156 300.747 255.831 300.747 255.831L314.476 274.592L330.955 266.381C330.955 266.381 331.413 288.806 335.992 288.349C335.992 288.349 324.548 302.997 315.39 303.454C306.232 303.911 280.61 281.873 280.61 281.873C280.61 281.873 277.867 302.013 279.696 311.618C281.524 321.223 268.252 350.519 268.252 350.519L249.944 346.855C249.944 346.855 259.559 310.247 271.46 304.298C271.46 304.298 271.46 279.588 269.632 273.639C267.803 267.69 281.532 245.265 279.704 240.687C278.673 238.123 274.644 232.631 272.607 227.643C271.671 225.17 271.509 222.471 272.142 219.904V219.904Z" fill="black"/>
<path opacity="0.1" d="M273.513 218.982C273.513 218.982 280.153 228.82 289.303 232.027C298.454 235.234 302.118 254.909 302.118 254.909L315.847 273.67L332.327 265.436C332.327 265.436 332.784 287.861 337.363 287.404C337.363 287.404 325.92 302.052 316.762 302.509C307.604 302.966 281.974 280.998 281.974 280.998C281.974 280.998 279.231 301.138 281.06 310.743C282.888 320.348 269.616 349.644 269.616 349.644L251.308 345.98C251.308 345.98 260.923 309.372 272.824 303.423C272.824 303.423 272.824 278.713 270.995 272.764C269.167 266.815 282.896 244.39 281.067 239.812C280.037 237.248 276.008 231.756 273.97 226.767C273.028 224.28 272.869 221.563 273.513 218.982V218.982Z" fill="black"/>
<path d="M272.599 218.982C272.599 218.982 279.239 228.82 288.389 232.027C297.54 235.234 301.204 254.909 301.204 254.909L314.941 273.67L331.421 265.436C331.421 265.436 331.878 287.861 336.457 287.404C336.457 287.404 325.013 302.052 315.855 302.509C306.697 302.966 281.068 280.998 281.068 280.998C281.068 280.998 278.325 301.138 280.153 310.743C281.982 320.348 268.71 349.644 268.71 349.644L250.402 345.98C250.402 345.98 260.017 309.372 271.918 303.423C271.918 303.423 271.918 278.713 270.089 272.764C268.261 266.815 281.99 244.39 280.161 239.812C279.131 237.248 275.102 231.756 273.064 226.767C272.119 224.28 271.957 221.564 272.599 218.982V218.982Z" fill="#068DB4"/>
<path opacity="0.05" d="M273.374 219.757C273.374 219.757 280.014 229.595 289.164 232.802C298.314 236.008 301.979 255.684 301.979 255.684L315.716 274.445L332.195 266.21C332.195 266.21 332.652 288.635 337.231 288.178C337.231 288.178 325.788 302.826 316.63 303.283C307.472 303.74 281.842 281.772 281.842 281.772C281.842 281.772 279.099 301.912 280.928 311.517C282.756 321.123 269.484 350.418 269.484 350.418L251.176 346.755C251.176 346.755 260.791 310.146 272.692 304.197C272.692 304.197 272.692 279.487 270.863 273.538C269.035 267.589 282.764 245.164 280.936 240.586C279.905 238.022 275.876 232.53 273.839 227.542C272.894 225.055 272.732 222.339 273.374 219.757V219.757Z" fill="black"/>
<path d="M113.993 391.736C113.993 391.736 100.721 385.33 98.4281 388.072C96.1347 390.814 83.3198 443.441 89.2701 447.105C95.2205 450.769 95.6776 448.019 100.714 439.785C105.75 431.551 112.614 420.567 117.65 421.024C117.65 421.024 102.999 415.989 103.464 414.161C103.929 412.333 110.794 391.279 113.993 391.736Z" fill="#986365"/>
<path opacity="0.1" d="M246.652 209.06C250.279 211.807 254.643 213.411 259.186 213.667C263.729 213.922 268.246 212.817 272.158 210.493C272.379 208.935 272.758 207.403 273.289 205.922L245.823 198.176C246.954 201.406 247.031 205.186 246.652 209.06Z" fill="black"/>
<path d="M263.635 191.158C269.213 191.639 276.031 190.593 278.084 186.797C278.681 185.705 278.805 184.473 279.409 183.412C281.16 180.267 286.165 178.981 290.186 177.215C294.251 175.557 297.811 172.865 300.514 169.407C298.938 169.013 297.285 169.048 295.726 169.508C295.532 167.393 297.973 164.977 296.075 163.365C294.897 162.366 292.704 162.459 291.023 162.955C289.342 163.451 287.823 164.264 286.034 164.504C282.934 164.884 279.998 163.381 277.782 161.754C275.566 160.127 273.49 158.23 270.53 157.463C264.657 155.914 258.823 159.438 252.927 160.91C240.833 163.939 234.968 167.223 238.253 177.734C240.686 185.519 253.485 190.283 263.635 191.158Z" fill="#865A61"/>
<path d="M260.466 212.801C273.106 212.801 283.353 202.556 283.353 189.919C283.353 177.282 273.106 167.037 260.466 167.037C247.826 167.037 237.579 177.282 237.579 189.919C237.579 202.556 247.826 212.801 260.466 212.801Z" fill="#FDC2CC"/>
<path opacity="0.1" d="M242.677 186.433C243.785 181.94 246.985 177.75 251.44 176.503C255.229 175.441 259.257 176.596 262.961 177.936C266.664 179.276 270.437 180.841 274.366 180.608C278.294 180.376 282.416 177.665 282.71 173.745C282.781 173.139 282.682 172.524 282.423 171.971C282.023 171.321 281.46 170.786 280.789 170.422C275.032 166.75 268.485 163.861 261.659 163.97C256.042 164.062 250.673 166.169 245.451 168.245C238.865 170.864 231.373 174.527 230.017 181.483C229.242 185.589 230.877 189.764 232.884 193.436C234.046 195.558 239.671 206.697 243.39 204.861C244.893 204.149 241.964 189.315 242.677 186.433Z" fill="black"/>
<path d="M243.591 185.519C244.699 181.026 247.899 176.836 252.354 175.589C256.143 174.527 260.171 175.682 263.875 177.022C267.578 178.362 271.352 179.926 275.28 179.694C279.208 179.462 283.33 176.751 283.624 172.831C283.695 172.225 283.596 171.61 283.337 171.057C282.938 170.407 282.374 169.872 281.703 169.508C275.946 165.836 269.399 162.947 262.573 163.055C256.956 163.148 251.587 165.255 246.365 167.331C239.779 169.949 232.287 173.613 230.931 180.569C230.156 184.675 231.791 188.85 233.798 192.522C234.96 194.644 240.585 205.783 244.304 203.947C245.807 203.234 242.886 188.401 243.591 185.519Z" fill="#865A61"/>
<path opacity="0.5" d="M90.6495 447.57C84.6991 443.906 97.514 391.279 99.8074 388.537C100.807 387.336 103.921 387.886 107.106 388.893C103.495 387.631 99.5827 386.701 98.436 388.119C96.1117 390.861 83.3278 443.488 89.2781 447.152C90.2898 447.84 91.4112 448.35 92.5942 448.662C91.9224 448.342 91.2727 447.977 90.6495 447.57V447.57Z" fill="white"/>
<path opacity="0.5" d="M403.119 479.662C403.739 481.211 403.553 483.063 400.988 484.635C395.038 488.299 346.978 499.74 346.978 499.74C346.501 499.024 346.063 498.282 345.669 497.517C346.18 498.605 346.77 499.653 347.435 500.654C347.435 500.654 395.472 489.213 401.446 485.549C404.521 483.659 404.173 481.397 403.119 479.662Z" fill="white"/>
<g opacity="0.05">
<path opacity="0.05" d="M162.673 269.541C158.869 263.422 148.363 253.987 148.363 253.987C156.111 230.191 200.545 218.293 205.124 216.031C207.649 214.769 210.036 213.227 214.514 212.406C207.541 212.917 204.604 214.916 201.467 216.488C196.888 218.812 152.493 230.671 144.706 254.444C144.706 254.444 161.426 269.402 160.349 273.864C160.869 272.3 161.656 270.838 162.673 269.541V269.541Z" fill="black"/>
<path opacity="0.05" d="M160.31 273.871L160.225 274.127C160.261 274.045 160.29 273.959 160.31 273.871V273.871Z" fill="black"/>
<path opacity="0.05" d="M247.031 212.414L246.504 211.639C246.504 211.639 245.923 212.321 243.459 212.832C244.658 212.773 245.851 212.633 247.031 212.414V212.414Z" fill="black"/>
<path opacity="0.05" d="M168.507 267.287C169.2 267.222 169.876 267.038 170.506 266.745C169.809 266.784 169.128 266.968 168.507 267.287V267.287Z" fill="black"/>
<path opacity="0.05" d="M228.057 322.06C236.247 321.161 244.242 321.146 249.937 323.09C249.937 323.09 250.045 322.61 250.224 321.75C243.979 320.534 235.96 320.96 228.057 322.06Z" fill="black"/>
<path opacity="0.05" d="M197.701 328.295C199.251 325.197 204.806 312.943 200.026 300.665C194.532 286.482 198.654 246.21 198.654 246.21C198.654 246.21 197.105 247.759 194.687 250.083C193.843 260.068 191.844 289.464 196.369 301.153C201.862 315.336 193.626 329.527 193.626 329.527C193.626 329.527 195.152 329.016 197.701 328.295Z" fill="black"/>
</g>
<path opacity="0.1" d="M607.87 476.564C602.354 479.406 596.574 481.862 590.872 484.31C569.805 493.202 548.421 502.172 525.79 505.224C483.316 510.949 439.448 495.449 397.695 505.093C362.714 513.164 333.784 537.897 299.608 548.912C283.717 554.032 267.183 556.039 250.502 556.039H248.31C246.244 556.013 244.193 555.961 242.158 555.884C225.244 555.249 208.261 552.747 191.681 549.547C139.329 539.478 86.0472 521.019 46.022 487.036C162.572 465.711 402.638 433.038 607.87 476.564Z" fill="#252223"/>
</g>
<defs>
<linearGradient id="paint0_linear" x1="501.927" y1="104.952" x2="501.927" y2="6.80357e-05" gradientUnits="userSpaceOnUse">
<stop stop-color="#808080" stop-opacity="0.25"/>
<stop offset="0.54" stop-color="#808080" stop-opacity="0.12"/>
<stop offset="1" stop-color="#808080" stop-opacity="0.1"/>
</linearGradient>
<linearGradient id="paint1_linear" x1="185.604" y1="390.989" x2="185.604" y2="390.9" gradientUnits="userSpaceOnUse">
<stop stop-color="#808080" stop-opacity="0.25"/>
<stop offset="0.54" stop-color="#808080" stop-opacity="0.12"/>
<stop offset="1" stop-color="#808080" stop-opacity="0.1"/>
</linearGradient>
<linearGradient id="paint2_linear" x1="141813" y1="262301" x2="141813" y2="101722" gradientUnits="userSpaceOnUse">
<stop stop-color="#808080" stop-opacity="0.25"/>
<stop offset="0.54" stop-color="#808080" stop-opacity="0.12"/>
<stop offset="1" stop-color="#808080" stop-opacity="0.1"/>
</linearGradient>
<clipPath id="clip0">
<rect width="743" height="556" fill="white"/>
</clipPath>
</defs>
</svg>
