<svg width="712" height="510" viewBox="0 0 712 510" fill="none" xmlns="http://www.w3.org/2000/svg">
<g clip-path="url(#clip0)">
<path d="M358.689 310.15C477.773 544.488 370.501 571.86 104.019 303.981C33.904 233.498 38.166 118.173 110.197 49.6436C182.227 -18.8861 296.247 -16.1241 364.866 55.8128C433.485 127.75 313.666 221.553 358.689 310.15Z" fill="#F2F2F2"/>
<path d="M206.456 70.8469H129.629V138.806H206.456V70.8469Z" fill="#D0CDE1"/>
<path d="M245.915 137.719H90.2031V147.995H245.915V137.719Z" fill="#3F3D56"/>
<path d="M619.76 368.584H464.048V378.86H619.76V368.584Z" fill="#3F3D56"/>
<path d="M619.76 220.611H90.2031V230.887H619.76V220.611Z" fill="#3F3D56"/>
<path d="M394.081 319.26C420.221 319.26 441.412 298.097 441.412 271.991C441.412 245.885 420.221 224.722 394.081 224.722C367.941 224.722 346.75 245.885 346.75 271.991C346.75 298.097 367.941 319.26 394.081 319.26Z" fill="#3F3D56"/>
<path d="M387.907 75.7233C387.907 100.891 377.057 101.673 359.382 101.673C341.707 101.673 323.899 100.891 323.899 75.7233C323.899 50.5557 338.228 30.1533 355.903 30.1533C373.579 30.1533 387.907 50.5557 387.907 75.7233Z" fill="#2F2E41"/>
<path d="M344.006 76.7485C344.006 76.7485 351.551 108.261 348.808 111.687C346.064 115.112 372.13 122.648 372.13 122.648L383.105 92.5049L376.932 91.8199C376.932 91.8199 368.014 89.7647 370.758 72.6382C373.502 55.5116 344.006 76.7485 344.006 76.7485Z" fill="#FFB9B9"/>
<path opacity="0.1" d="M344.006 76.7485C344.006 76.7485 351.551 108.261 348.808 111.687C346.064 115.112 372.13 122.648 372.13 122.648L383.105 92.5049L376.932 91.8199C376.932 91.8199 368.014 89.7647 370.758 72.6382C373.502 55.5116 344.006 76.7485 344.006 76.7485Z" fill="black"/>
<path d="M356.01 85.6545C368.323 85.6545 378.304 75.6863 378.304 63.39C378.304 51.0936 368.323 41.1255 356.01 41.1255C343.698 41.1255 333.717 51.0936 333.717 63.39C333.717 75.6863 343.698 85.6545 356.01 85.6545Z" fill="#FFB9B9"/>
<path d="M334.06 188.756L318.283 202.457C318.283 202.457 270.266 220.269 281.241 247.671C292.216 275.074 312.795 315.492 312.795 315.492L318.283 328.509H332.002L340.919 324.398L338.861 318.918C338.861 318.918 334.06 311.382 334.06 307.272C334.06 303.161 325.828 255.892 320.341 252.467C320.341 252.467 347.779 225.749 367.671 224.379C387.564 223.009 393.052 218.214 404.027 224.379C415.002 230.545 458.217 242.191 458.217 242.191C458.217 242.191 481.54 284.665 493.201 292.2C504.862 299.736 514.466 325.083 514.466 325.083L533.672 321.658L524.069 301.791C524.069 301.791 514.466 287.405 514.466 281.239C514.466 275.074 482.912 215.474 460.275 205.883C437.639 196.292 426.666 187.474 426.666 187.474L376.589 190.811L334.06 188.756Z" fill="#2F2E41"/>
<path d="M318.283 318.918C318.283 318.918 313.481 315.492 310.051 322.343C306.622 329.194 297.018 344.95 297.018 344.95C297.018 344.95 268.894 366.187 290.159 371.667C290.159 371.667 300.448 372.352 318.283 360.021C336.118 347.69 349.151 341.525 349.837 339.47C350.523 337.414 345.721 314.122 340.919 314.122C336.118 314.122 337.49 325.083 332.002 325.083C328.081 325.177 324.177 325.636 320.341 326.453L318.283 318.918Z" fill="#2F2E41"/>
<path d="M539.938 325.541C539.32 323.789 538.36 322.178 537.114 320.799C535.869 319.42 534.361 318.302 532.68 317.509C530.998 316.716 529.176 316.264 527.318 316.18C525.461 316.095 523.605 316.379 521.858 317.016C520.804 317.41 520.091 317.821 519.954 318.232C519.268 320.288 513.06 321.303 512.391 320.11C511.722 318.918 506.92 315.492 510.35 328.508C513.78 341.525 524.069 369.612 529.557 374.407C535.045 379.203 554.251 378.518 555.623 373.722C556.995 368.927 554.937 360.021 552.193 356.596C549.45 353.171 544.648 342.21 543.962 338.099C543.639 336.165 541.797 330.741 539.938 325.541Z" fill="#2F2E41"/>
<path d="M416.895 228.837C416.895 228.837 422.292 252.069 432.887 246.61C443.483 241.151 421.27 219.408 421.27 219.408L416.895 228.837Z" fill="#FFB9B9"/>
<path d="M357.902 215.82C357.902 215.82 363.299 239.052 373.895 233.594C384.491 228.135 362.278 206.392 362.278 206.392L357.902 215.82Z" fill="#FFB9B9"/>
<path d="M342.291 180.535C342.291 180.535 338.176 196.977 343.663 201.087C349.151 205.198 358.068 204.513 373.159 209.993C388.25 215.474 412.259 209.993 412.945 202.457C413.631 194.922 409.515 164.779 409.515 164.779L342.291 180.535Z" fill="#575A89"/>
<path d="M410.201 177.795C402.264 180.234 397.044 180.501 394.541 182.954C394.229 183.252 393.959 183.591 393.738 183.961C391.68 187.386 382.763 188.756 371.102 186.016C367.195 184.992 363.132 184.695 359.118 185.139C355.132 185.543 351.12 186.386 343.663 186.016C330.651 185.365 324.429 142.816 321.48 131.417C321.322 130.793 321.171 130.266 321.027 129.841C318.283 121.62 332.688 113.399 334.746 111.344C336.804 109.289 342.977 101.068 348.657 100.212C354.33 99.3556 362.87 111.344 362.87 111.344C362.87 111.344 376.246 95.2453 374.874 91.1349C373.502 87.0245 387.907 89.7648 390.651 89.0797C392.201 88.6892 398.677 90.3813 404.02 91.9296C406.251 92.573 408.232 93.8804 409.699 95.6772C411.166 97.4741 412.049 99.675 412.231 101.986C412.32 103.103 412.417 104.315 412.513 105.617C414.214 127.991 417.012 175.706 410.201 177.795Z" fill="#D0CDE1"/>
<path opacity="0.1" d="M359.118 185.139C355.132 185.543 351.12 186.386 343.663 186.016C330.651 185.365 324.429 142.816 321.479 131.416C321.973 127.868 322.399 125.73 322.399 125.73L326.171 130.868C326.171 130.868 344.349 160.669 349.151 168.889C351.113 172.246 355.139 178.583 359.118 185.139Z" fill="black"/>
<path d="M326.514 122.99L320.34 125.73C320.34 125.73 312.109 166.834 326.514 187.386C340.919 207.938 346.407 211.363 349.15 214.788C349.971 215.784 351.03 216.558 352.229 217.037C353.428 217.516 354.728 217.685 356.01 217.529C356.01 217.529 353.266 224.379 358.068 224.379C362.87 224.379 380.704 217.529 375.903 215.473C371.101 213.418 366.299 209.993 367.671 206.568C369.043 203.142 351.894 177.11 347.093 168.889C342.291 160.669 326.514 122.99 326.514 122.99Z" fill="#D0CDE1"/>
<path opacity="0.1" d="M410.201 177.795C402.264 180.234 397.044 180.501 394.541 182.953C393.909 176.185 393.937 169.807 395.11 164.779C399.326 146.733 402.508 107.658 402.312 97.9853C402.289 96.8375 402.535 98.6704 403.684 98.6704V99.3555C408.76 99.3555 410.187 97.5538 411.614 102.418C411.902 103.391 412.204 104.459 412.513 105.617C414.214 127.991 417.012 175.706 410.201 177.795Z" fill="black"/>
<path d="M401.283 94.2178H403.385C405.856 94.2167 408.26 95.0151 410.238 96.4935C412.216 97.9718 413.661 100.05 414.357 102.418C416.978 111.653 419.026 121.04 420.49 130.526C424.606 155.873 429.407 218.899 428.721 220.269C428.035 221.639 436.953 228.49 432.837 229.86C428.721 231.23 421.176 233.97 417.746 234.655C414.316 235.34 407.457 228.49 407.457 228.49C407.457 228.49 393.052 185.331 397.853 164.779C402.655 144.227 401.283 94.2178 401.283 94.2178Z" fill="#D0CDE1"/>
<path d="M375.232 47.5587C375.232 54.3749 365.869 59.9005 354.319 59.9005C342.768 59.9005 332.138 63.5522 332.138 56.736C332.138 49.9197 342.769 35.2168 354.319 35.2168C365.869 35.2168 375.232 40.7424 375.232 47.5587Z" fill="#2F2E41"/>
<path d="M324.089 79.9949C324.089 79.9949 323.235 102.939 346.065 101.673C368.895 100.407 342.98 82.0609 342.98 82.0609L324.089 79.9949Z" fill="#2F2E41"/>
<path d="M675.705 312.325L601.588 292.127L583.675 357.688L657.792 377.887L675.705 312.325Z" fill="#068DB4"/>
<path d="M712 474.726C712 481.652 691.847 488.119 657.028 493.565C593.934 503.444 482.692 510 355.997 510C159.388 510 0 494.209 0 474.726C0 472.034 3.05936 469.397 8.85567 466.875C15.3928 464.019 25.4215 461.299 38.4683 458.758C65.3646 453.517 105.102 449.037 153.571 445.707C209.833 441.85 277.873 439.555 351.27 439.466C352.841 439.459 354.417 439.457 355.997 439.459C364.839 439.459 373.603 439.491 382.289 439.555C386.371 439.583 390.434 439.619 394.479 439.665C437.707 440.124 478.618 441.35 515.797 443.2C517.456 443.282 519.11 443.371 520.756 443.453C521.318 443.481 521.881 443.515 522.443 443.542C522.594 443.549 522.745 443.556 522.896 443.57C530.202 443.953 537.347 444.362 544.332 444.796C546.623 444.933 548.894 445.077 551.144 445.228C573.005 446.646 593.186 448.297 611.336 450.153C614.437 450.468 617.478 450.79 620.459 451.119C643.425 453.633 662.762 456.49 677.661 459.593C699.68 464.176 712 469.307 712 474.726Z" fill="#3F3D56"/>
<path opacity="0.4" d="M487.371 463.123C487.371 471.988 460.934 479.489 424.428 482.051C415.73 482.661 406.449 482.99 396.825 482.99C376.507 482.99 357.76 481.524 342.648 479.044H342.641C320.567 475.42 306.279 469.638 306.279 463.123C306.279 452.148 346.819 443.256 396.825 443.256C446.831 443.256 487.371 452.148 487.371 463.123Z" fill="black"/>
<path d="M424.427 482.051C415.73 482.661 406.449 482.99 396.825 482.99C376.507 482.99 357.76 481.524 342.648 479.044L408.678 448.305L424.427 482.051Z" fill="#3F3D56"/>
<path d="M41.5001 463.147C41.5001 475.079 34.3987 479.245 25.6373 479.245C25.4343 479.245 25.2314 479.242 25.0299 479.237C24.624 479.229 24.2211 479.21 23.824 479.182C15.9166 478.623 9.77441 474.243 9.77441 463.147C9.77441 451.666 24.4649 437.177 25.5716 436.102L25.573 436.101C25.6154 436.059 25.6373 436.038 25.6373 436.038C25.6373 436.038 41.5001 451.217 41.5001 463.147Z" fill="#3F3D56"/>
<path d="M25.0594 477.419L30.8614 469.324L25.0448 478.308L25.0302 479.237C24.6243 479.229 24.2213 479.21 23.8242 479.182L24.4491 467.246L24.4447 467.153L24.455 467.137L24.5148 466.008L18.6836 457.001L24.5323 465.162L24.5469 465.401L25.0185 456.383L20.0268 447.076L25.0798 454.801L25.5718 436.103L25.5733 436.038V436.101L25.4915 450.845L30.4613 445L25.4711 452.115L25.3397 460.19L29.981 452.44L25.3207 461.379L25.2477 465.868L31.9827 455.081L25.2214 467.434L25.0594 477.419Z" fill="#3F3D56"/>
<path d="M603.297 480.274C603.297 492.205 596.196 496.371 587.434 496.371C587.231 496.371 587.028 496.368 586.827 496.364C586.421 496.355 586.018 496.336 585.621 496.308C577.714 495.75 571.571 491.37 571.571 480.274C571.571 468.793 586.262 454.304 587.368 453.229L587.37 453.227C587.412 453.185 587.434 453.165 587.434 453.165C587.434 453.165 603.297 468.344 603.297 480.274Z" fill="#3F3D56"/>
<path d="M586.856 494.546L592.658 486.45L586.841 495.435L586.827 496.364C586.421 496.355 586.018 496.336 585.621 496.308L586.245 484.372L586.241 484.279L586.251 484.263L586.311 483.135L580.48 474.128L586.329 482.289L586.343 482.528L586.815 473.51L581.823 464.203L586.876 471.928L587.368 453.229L587.37 453.165V453.228L587.288 467.972L592.258 462.126L587.267 469.242L587.136 477.317L591.777 469.567L587.117 478.505L587.044 482.995L593.779 472.208L587.018 484.561L586.856 494.546Z" fill="#3F3D56"/>
<path d="M204.691 429.823C204.691 443.769 196.391 448.638 186.15 448.638C185.913 448.638 185.676 448.634 185.441 448.629C184.966 448.619 184.495 448.597 184.031 448.564C174.789 447.912 167.61 442.792 167.61 429.823C167.61 416.405 184.78 399.47 186.074 398.214L186.075 398.212C186.125 398.163 186.15 398.139 186.15 398.139C186.15 398.139 204.691 415.88 204.691 429.823Z" fill="#3F3D56"/>
<path d="M185.475 446.504L192.256 437.042L185.458 447.544L185.441 448.629C184.966 448.619 184.495 448.597 184.031 448.564L184.762 434.614L184.756 434.505L184.768 434.486L184.838 433.167L178.023 422.64L184.859 432.179L184.876 432.458L185.427 421.918L179.593 411.04L185.499 420.069L186.074 398.214L186.075 398.139V398.212L185.98 415.445L191.789 408.613L185.956 416.93L185.802 426.367L191.227 417.31L185.78 427.756L185.695 433.003L193.567 420.396L185.664 434.834L185.475 446.504Z" fill="#3F3D56"/>
</g>
<defs>
<clipPath id="clip0">
<rect width="712" height="510" fill="white"/>
</clipPath>
</defs>
</svg>
