<svg width="638" height="413" viewBox="0 0 638 413" fill="none" xmlns="http://www.w3.org/2000/svg">
<g clip-path="url(#clip0)">
<path d="M638 408.332H0V413H638V408.332Z" fill="#85848B"/>
<path d="M505.462 325.907C505.462 329.498 484.557 339.966 459.726 339.966C434.895 339.966 415.547 329.498 415.547 325.907C415.547 322.316 435.673 323.473 460.529 323.473C485.384 323.473 505.462 322.31 505.462 325.907Z" fill="#504F60"/>
<path opacity="0.2" d="M505.462 325.907C505.462 329.498 484.557 339.966 459.726 339.966C434.895 339.966 415.547 329.498 415.547 325.907" fill="black"/>
<path d="M255.394 260.019C259.424 260.536 263.606 260.864 267.466 259.611C268.074 259.422 268.742 259.002 268.681 258.393C268.638 258.172 268.544 257.964 268.408 257.785C266.953 255.6 265.73 253.268 264.761 250.828C264.722 250.701 264.643 250.59 264.536 250.512C264.41 250.466 264.272 250.466 264.147 250.512C262.366 250.981 260.828 252.131 259.059 252.624C258.157 252.872 257.216 252.942 256.287 252.831C255.485 252.739 254.391 252.076 253.661 252.161C254.074 254.821 255.084 257.304 255.394 260.019Z" fill="#3F3D56"/>
<path d="M331.613 253.281C334.269 251.455 337.023 249.538 338.591 246.72C338.703 246.552 338.768 246.356 338.779 246.154C338.753 245.955 338.675 245.767 338.555 245.607C337.061 243.229 335.137 241.15 332.883 239.478C331.707 240.31 330.644 241.292 329.722 242.399C329.054 243.105 327.206 244.225 327.188 245.302C327.188 245.911 327.893 246.617 328.221 247.128C328.665 247.785 329.084 248.455 329.485 249.137C329.716 249.471 331.826 253.147 331.613 253.281Z" fill="#3F3D56"/>
<path d="M271.191 268.168C271.239 268.795 271.067 269.419 270.705 269.933C270.421 270.219 270.07 270.428 269.684 270.541C264.049 272.562 257.527 270.042 251.904 272.033C250.749 272.44 249.655 273.031 248.494 273.42C247.11 273.837 245.682 274.09 244.239 274.175C242.251 274.364 240.251 274.485 238.257 274.54C236.742 274.647 235.22 274.514 233.747 274.144C233.01 273.956 232.322 273.614 231.726 273.141C231.13 272.668 230.64 272.075 230.288 271.4C229.983 270.795 229.922 270.095 230.118 269.446C230.206 269.223 230.332 269.018 230.489 268.837C230.87 268.409 231.317 268.046 231.814 267.76L233.887 266.421C234.859 265.733 235.915 265.173 237.029 264.754C237.85 264.486 238.719 264.37 239.552 264.145C242.464 263.293 244.688 260.98 246.755 258.759L249.576 255.746C249.839 255.415 250.174 255.146 250.554 254.961C250.946 254.83 251.361 254.791 251.77 254.845C254.51 255.041 257.155 255.929 259.46 257.426C260.048 257.868 260.684 258.244 261.356 258.546C263.009 259.191 265.131 258.704 266.657 257.888C267.38 257.499 267.222 257.28 267.526 256.586C267.83 255.892 268.571 255.448 269.216 256.081C269.41 256.3 269.548 256.563 269.617 256.848C270.225 258.856 269.994 261.017 269.994 263.122C269.976 263.452 270.017 263.781 270.115 264.096C270.27 264.414 270.456 264.715 270.669 264.997C270.712 265.072 270.75 265.149 270.784 265.228C271.156 266.161 271.296 267.169 271.191 268.168V268.168Z" fill="#514E7F"/>
<path d="M271.191 268.168C271.239 268.795 271.067 269.419 270.705 269.933C270.421 270.219 270.07 270.428 269.684 270.541C264.049 272.562 257.527 270.042 251.904 272.033C250.749 272.44 249.655 273.031 248.494 273.42C247.11 273.837 245.682 274.09 244.239 274.175C242.251 274.364 240.251 274.485 238.257 274.54C236.742 274.647 235.22 274.514 233.747 274.144C233.01 273.956 232.322 273.614 231.726 273.141C231.13 272.668 230.64 272.075 230.288 271.4C229.983 270.795 229.922 270.095 230.118 269.446C230.206 269.223 230.332 269.018 230.489 268.837C230.817 269.525 231.054 270.438 231.261 270.767C231.54 271.254 231.92 271.676 232.375 272.004C232.83 272.333 233.349 272.56 233.899 272.672C234.722 272.722 235.547 272.617 236.33 272.361C241.436 271.095 246.865 271.077 251.77 269.16C253.454 268.497 255.059 267.614 256.827 267.212C258.596 266.811 260.475 266.92 262.298 266.768C265.179 266.537 267.97 265.666 270.808 265.21C271.175 266.15 271.306 267.165 271.191 268.168V268.168Z" fill="#464353"/>
<path d="M344.518 252.91C344.251 255.052 342.895 256.896 341.406 258.46C339.917 260.025 338.233 261.431 337.048 263.232C335.589 265.466 334.932 268.235 333.036 270.122C332.308 270.808 331.49 271.391 330.604 271.856C329.612 272.442 328.564 272.925 327.474 273.299C324.641 274.205 321.59 273.998 318.629 273.779C317.668 273.77 316.717 273.587 315.821 273.238C315.413 273.03 315.023 272.79 314.654 272.519C313.912 272.062 313.287 271.437 312.83 270.694C312.606 270.29 312.543 269.816 312.654 269.367C312.823 268.873 313.114 268.429 313.499 268.077C314.165 267.383 314.88 266.738 315.639 266.147C316.679 265.475 317.617 264.655 318.423 263.713C318.917 262.968 319.281 262.145 319.499 261.278C319.929 259.76 320.192 258.198 320.283 256.622C320.28 255.575 320.388 254.531 320.605 253.506C321.055 251.9 322.246 250.463 322.113 248.802C322.058 248.564 322.08 248.315 322.173 248.09C322.315 247.914 322.512 247.791 322.733 247.743C323.661 247.372 324.641 247.144 325.638 247.067C326.138 247.033 326.64 247.11 327.106 247.293C327.573 247.476 327.994 247.761 328.337 248.126C328.75 248.625 329.024 249.343 329.632 249.538C329.933 249.62 330.249 249.633 330.556 249.575C332.051 249.423 333.632 249.234 334.811 248.266C335.356 247.777 335.794 247.18 336.097 246.512C336.401 245.845 336.563 245.122 336.574 244.389C336.574 243.835 336.324 243.257 337.181 243.172C337.826 243.087 338.336 243.781 338.665 244.207C339.85 245.795 341.066 247.457 341.509 249.392C341.682 249.325 341.865 249.29 342.05 249.289C342.43 249.285 342.804 249.374 343.141 249.546C343.479 249.719 343.77 249.971 343.989 250.281C344.474 251.066 344.661 251.998 344.518 252.91Z" fill="#514E7F"/>
<path d="M344.518 252.91C344.25 255.052 342.895 256.896 341.406 258.46C339.916 260.025 338.233 261.431 337.047 263.232C335.588 265.466 334.932 268.235 333.035 270.122C332.307 270.808 331.489 271.391 330.604 271.856C329.612 272.442 328.563 272.925 327.473 273.299C324.641 274.205 321.589 273.998 318.629 273.779C317.668 273.77 316.717 273.587 315.821 273.238C315.413 273.03 315.023 272.79 314.654 272.519C313.912 272.062 313.287 271.437 312.83 270.694C313.4 270.419 314.022 270.27 314.654 270.255C315.967 270.328 316.927 271.57 318.185 271.953C319.979 272.495 321.766 271.229 323.583 270.797C324.768 270.517 326.015 270.59 327.188 270.188C328.165 269.81 329.069 269.262 329.856 268.57C330.936 267.797 331.896 266.87 332.707 265.819C333.381 264.767 333.941 263.647 334.379 262.477C335.339 260.236 336.468 258.071 337.758 256.002C337.949 255.674 338.18 255.372 338.445 255.101C338.731 254.839 339.053 254.657 339.375 254.425C340.591 253.506 341.096 251.991 341.521 250.506C341.636 250.055 341.797 249.616 342.001 249.197C342.381 249.194 342.755 249.282 343.092 249.455C343.43 249.628 343.721 249.88 343.94 250.189C344.463 250.993 344.669 251.963 344.518 252.91V252.91Z" fill="#464353"/>
<path d="M217.056 63.1559C218.569 64.2911 219.814 65.7456 220.703 67.4162C221.554 69.0839 226.459 82.023 226.173 83.9036C227.772 82.2908 234.076 82.0291 235.693 80.4163C236.367 79.7407 240.008 76.369 240.555 75.5839C241.103 74.7987 245.163 73.1494 245.607 72.3217C247.266 69.3456 233.839 58.0679 235.559 55.1283C235.654 54.9932 235.703 54.831 235.699 54.6658C235.659 54.527 235.581 54.4024 235.474 54.3067C234.374 53.1807 232.915 52.4808 231.59 51.647C230.264 50.8132 228.988 49.6508 228.629 48.1171C227.366 48.6995 226.205 49.4848 225.195 50.442C222.731 52.5559 220.31 54.7124 217.931 56.9116C217.001 57.7758 215.202 58.9261 214.77 60.1616C214.259 61.4883 216.168 62.4317 217.056 63.1559Z" fill="#A1616A"/>
<path d="M238.792 58.3662C236.732 59.7523 234.807 61.3295 233.042 63.0769C231.376 64.7262 229.796 66.6373 229.395 68.9439C229.224 69.8508 229.249 70.7698 229.109 71.6888C228.501 75.6752 225.061 78.5966 223.541 82.3274C223.101 83.4789 222.777 84.6716 222.574 85.8878C222.147 88.1932 221.914 90.5303 221.875 92.8747C221.839 95.1448 224.064 96.7089 224.878 98.8269C225.693 100.945 225.912 103.124 226.325 105.296C227.103 109.399 228.532 113.355 229.972 117.286C232.969 125.576 242.683 148.49 245.679 156.785C254.864 154.479 279.312 149.178 287.446 144.315C290.157 142.696 268.632 124.431 271.532 123.172C271.697 123.146 271.855 123.082 271.992 122.984C272.128 122.887 272.241 122.759 272.32 122.611C272.399 122.463 272.442 122.299 272.447 122.131C272.451 121.963 272.417 121.796 272.346 121.644C269.447 108.948 260.377 98.5165 256.262 86.1556C254.834 81.8648 252.269 78.201 250.323 74.1232C248.561 70.429 247.618 66.3451 245.509 62.8334C245.111 62.1099 244.591 61.4612 243.971 60.9163C243.445 60.5124 242.876 60.1675 242.275 59.8877C241.072 59.3035 239.953 58.9566 238.792 58.3662Z" fill="#514E7F"/>
<path d="M217.542 61.7135C225.482 61.7135 231.918 55.2692 231.918 47.3198C231.918 39.3703 225.482 32.926 217.542 32.926C209.602 32.926 203.166 39.3703 203.166 47.3198C203.166 55.2692 209.602 61.7135 217.542 61.7135Z" fill="#A1616A"/>
<path d="M232.167 54.0815C232.883 53.4199 233.783 52.9913 234.748 52.8522C235.713 52.7131 236.697 52.8701 237.571 53.3025C238.543 53.8077 239.394 54.8301 239.176 55.9013L246.306 56.0108C247.441 55.9798 248.575 56.084 249.686 56.3212C250.803 56.5648 251.801 57.1912 252.506 58.0923C252.591 58.2079 252.688 58.3479 252.834 58.3662C252.953 58.368 253.069 58.3294 253.163 58.2566C254.259 57.7058 255.495 57.494 256.712 57.648C260.566 57.8976 264.128 59.8269 267.149 62.237C267.694 62.612 268.117 63.1389 268.365 63.7524C268.614 64.5619 268.317 65.5783 268.973 66.1565C268.973 72.8512 271.271 79.1078 272.803 85.6321C273.076 86.7946 274.189 87.8232 274.961 88.7361C275.914 89.7482 276.693 90.9124 277.264 92.1808C278.565 95.5647 276.772 99.5451 278.036 102.941C278.571 104.377 279.605 105.558 280.468 106.806C281.606 108.247 282.325 109.973 282.547 111.797C282.601 112.612 282.498 113.434 282.547 114.231C282.628 115.328 282.832 116.412 283.155 117.463C283.673 119.427 284.216 121.388 284.784 123.348C285.708 126.513 286.911 129.927 289.744 131.613C282.905 132.775 275.696 133.914 269.18 131.534C268.271 131.223 267.408 130.791 266.615 130.25C264.262 128.57 263.125 125.697 262.11 122.983C260.98 119.94 259.831 116.842 259.6 113.604C259.602 112.574 259.457 111.549 259.168 110.561C258.506 108.796 256.737 107.731 255.132 106.751C253.32 105.757 251.678 104.479 250.269 102.965C249.57 102.203 249.034 101.305 248.696 100.328C248.357 99.35 248.222 98.313 248.3 97.281C248.421 96.2768 248.816 95.3091 248.853 94.2988C248.889 93.2885 248.439 92.1322 247.473 91.8644C242.495 90.355 240.118 84.4514 239.012 79.3634C238.534 76.7337 238.32 74.0628 238.373 71.3906L238.306 66.1991C237.619 65.5733 237.067 64.814 236.682 63.9676C236.298 63.1211 236.089 62.2051 236.069 61.2754C236.135 60.7329 236.125 60.1839 236.039 59.6443C235.799 58.9847 235.407 58.3907 234.896 57.9097C233.797 56.7803 232.877 55.4893 232.167 54.0815V54.0815Z" fill="#464353"/>
<path d="M216.854 70.5385C216.69 72.1452 217.055 73.7946 216.696 75.3709C216.557 75.9795 216.314 76.5881 216.137 77.1541C215.598 79.423 215.831 81.807 216.8 83.928C217.767 86.0282 218.925 88.0349 220.259 89.9229C220.71 90.5674 221.081 91.2643 221.365 91.9983C221.595 92.769 221.737 93.5631 221.79 94.3658C222.142 97.5887 222.707 100.785 223.48 103.933C224.161 106.66 231.893 129.97 233.692 132.13C234.019 132.609 234.514 132.946 235.078 133.074C235.485 133.089 235.89 133.005 236.257 132.83L239.905 131.43C240.215 131.335 240.502 131.178 240.75 130.968C241.091 130.568 241.277 130.058 241.272 129.532C241.534 126.561 233.783 103.087 232.799 100.282C229.82 91.8096 225.857 83.642 223.918 74.8718C223.377 72.4374 223.091 68.6883 221.31 66.7468C220.575 65.9435 220.824 66.2843 219.942 66.7042C219.497 66.8977 219.066 67.1235 218.654 67.3798C218.138 67.7389 217.709 68.2089 217.397 68.7554C217.086 69.3018 216.901 69.9111 216.854 70.5385Z" fill="#464353"/>
<path d="M227.924 86.6121C228.902 91.7914 229.911 96.9585 230.914 102.138L245.187 98.3948C245.302 96.8976 244.506 95.51 243.971 94.1345C242.67 90.8663 242.64 87.2268 241.588 83.8672C240.792 81.311 239.406 78.9618 238.658 76.3873C238.227 74.8901 238.008 73.3443 237.583 71.8288C237.126 70.3406 236.566 68.8864 235.905 67.4772C235.104 65.4334 234.059 63.4941 232.793 61.7014C230.969 62.3831 229.024 63.1743 227.984 64.8236C227.451 65.753 227.147 66.7962 227.097 67.8667C226.848 71.0741 228.009 74.2998 227.626 77.4889C227.231 80.5261 227.332 83.6072 227.924 86.6121V86.6121Z" fill="#3F3D56"/>
<path d="M245.424 155.507C246.226 158.55 245.065 161.752 244.117 164.764C242.689 169.302 241.716 173.971 241.212 178.702C241.15 179.905 240.908 181.093 240.494 182.225C240.044 183.242 239.279 184.1 238.756 185.068C237.321 187.612 237.358 190.716 237.668 193.625C237.874 195.542 238.184 197.453 238.567 199.34C239.035 201.646 239.613 204.056 238.938 206.308C240.069 206.059 240.835 207.526 240.762 208.676C240.689 209.826 240.318 211.11 240.871 212.102C242.269 212.614 242.281 214.537 242.239 216.028C242.262 218.613 242.588 221.187 243.211 223.696C245.327 233.881 247.572 244.036 249.946 254.164C255.083 255.758 261.083 257.42 265.982 255.21C266.894 254.803 267.805 254.152 268.012 253.166C268.066 252.634 267.999 252.098 267.818 251.595L265.496 243.136C264.93 241.091 264.365 238.979 264.663 236.879C264.888 235.315 265.569 233.629 264.803 232.247C264.541 231.773 264.128 231.401 263.824 230.951C262.608 229.168 263.247 226.782 263.344 224.622C263.382 224.137 263.349 223.649 263.247 223.173C263.08 222.618 262.847 222.084 262.554 221.585C260.635 217.854 259.713 213.69 259.879 209.497C259.952 208.962 259.878 208.418 259.666 207.921C259.519 207.716 259.387 207.501 259.271 207.276C259.18 206.885 259.225 206.475 259.399 206.114C258.702 205.584 258.073 204.971 257.527 204.288C257.864 204.078 258.149 203.794 258.36 203.458C258.572 203.121 258.704 202.741 258.748 202.346C258.791 201.951 258.744 201.551 258.61 201.177C258.477 200.803 258.26 200.464 257.976 200.186C258.224 200.136 258.453 200.018 258.639 199.845C258.824 199.673 258.957 199.452 259.025 199.208C259.092 198.964 259.09 198.706 259.02 198.463C258.95 198.22 258.814 198.001 258.627 197.83C258.329 197.623 257.934 197.532 257.721 197.222C257.393 196.771 257.66 196.144 257.928 195.664L259.344 193.101C260.402 191.196 260.639 188.841 261.775 187.015C263.405 184.356 264.468 181.392 265.52 178.458L269.611 167.156L272.364 169.548C273.282 170.25 274.05 171.127 274.626 172.128C275.017 173.119 275.265 174.16 275.361 175.22C276.37 181.355 280.224 186.674 281.653 192.718C281.969 194.063 282.181 195.475 282.953 196.625C283.23 196.978 283.478 197.353 283.695 197.745C283.896 198.343 284.001 198.97 284.005 199.601C284.132 200.838 284.524 202.032 285.153 203.103C285.783 204.174 286.635 205.097 287.652 205.809C289.008 206.74 290.691 207.379 291.427 208.852C291.574 209.308 291.778 209.744 292.035 210.149C292.691 210.94 294.108 211.031 294.387 212.023C294.545 212.577 294.254 213.24 294.564 213.727C294.74 213.953 294.973 214.127 295.238 214.232L299.195 216.21C303.621 218.426 305.882 223.514 309.146 227.22C310.273 228.428 311.272 229.749 312.125 231.164C313.535 233.69 314.185 236.861 316.568 238.467C317.209 238.8 317.792 239.234 318.295 239.752C319.042 240.738 318.769 242.119 318.835 243.361C318.902 244.602 319.851 246.081 321.03 245.704C320.617 247.208 320.617 248.795 321.03 250.299C326.207 250.033 331.144 248.031 335.047 244.615C336.202 243.604 337.315 242.314 337.327 240.78C337.344 240.516 337.285 240.251 337.156 240.019C336.923 239.72 336.615 239.487 336.263 239.344C332.561 237.335 331.449 232.68 329.576 228.9C327.941 225.565 325.522 222.692 323.498 219.594C319.097 212.93 316.094 204.866 309.438 200.466C307.973 199.498 306.271 198.64 305.535 197.039C305.128 196.144 305.08 195.122 304.757 194.197C304.435 193.272 303.663 192.371 302.679 192.371C303.226 191.032 303.116 189.401 303.153 187.952C303.19 187.31 303.116 186.665 302.934 186.048C302.681 185.383 302.353 184.75 301.955 184.161C300.219 181.217 299.35 177.841 299.451 174.423C299.499 172.664 299.809 170.85 299.281 169.171C299.013 168.325 298.545 167.552 298.223 166.736C297.737 165.258 297.481 163.715 297.463 162.159L297.098 156.311C297.043 154.363 296.791 152.425 296.345 150.529C295.129 145.988 293.913 126.969 289.749 124.827C285.585 122.685 278.431 137.322 273.744 137.608C271.671 137.694 269.622 138.09 267.666 138.782C264.547 139.951 261.934 142.13 259.387 144.26L250.767 151.509C248.944 153.012 247.436 154.448 245.424 155.507Z" fill="#464353"/>
<path d="M204.054 31.3376C205.95 28.7449 209.208 27.3694 212.418 27.2538C215.627 27.1381 218.788 28.1485 221.663 29.5787C222.512 30.0619 223.419 30.4342 224.362 30.6864C225.882 30.9968 227.572 30.5829 228.946 31.295C230.769 32.2627 231.122 34.7276 230.964 36.7725C230.806 38.8175 230.423 41.0876 231.511 42.8587C231.897 43.3638 232.248 43.8945 232.562 44.4472C233.03 45.5001 232.757 46.7173 232.477 47.8311C231.766 47.2225 231.365 46.3034 230.733 45.5974C230.101 44.8914 229 44.4167 228.216 44.9462C227.432 45.4757 227.444 46.4373 227.402 47.3016C227.359 48.1658 227.14 49.2004 226.326 49.4804C225.985 49.5579 225.63 49.5315 225.305 49.4046C224.98 49.2776 224.7 49.056 224.502 48.7683C223.11 47.0642 223.669 44.3437 222.289 42.6274C221.505 41.6536 220.198 41.1789 219.475 40.1564C218.904 39.3531 218.758 38.3306 218.259 37.4663C217.761 36.6021 216.6 35.9692 215.828 36.5656C215.564 36.8176 215.345 37.1117 215.178 37.4359C214.696 38.1263 213.996 38.634 213.191 38.8769C212.386 39.1199 211.522 39.0839 210.74 38.7749C210.142 38.4075 209.496 38.1267 208.819 37.9411C208.377 37.9189 207.936 38.0211 207.549 38.2362C207.161 38.4513 206.841 38.7707 206.625 39.1583C206.189 39.9327 205.978 40.8141 206.017 41.7023C206.017 42.9195 206.236 44.2159 205.543 45.1897C205.279 45.5563 204.949 45.8701 204.57 46.1148C203.555 46.766 202.139 47.2042 201.203 46.4617C200.885 46.1658 200.649 45.7932 200.517 45.3797C200.385 44.9661 200.362 44.5255 200.449 44.1003C200.631 43.2531 200.871 42.4194 201.166 41.6049C201.701 39.7182 201.002 37.5942 201.586 35.817C202.197 34.2165 203.028 32.7089 204.054 31.3376V31.3376Z" fill="#464353"/>
<path d="M211.755 74.2753C211.663 74.7189 211.71 75.1798 211.888 75.596C212.069 75.8795 212.315 76.1153 212.606 76.2838C214.65 77.5588 216.975 78.3131 219.377 78.4808C219.704 78.4865 220.025 78.5699 220.313 78.7243C220.885 79.1016 220.921 79.9415 220.708 80.611C220.425 81.2425 220.278 81.927 220.277 82.6194C220.453 83.8914 221.961 84.4453 223.231 84.6339C225.012 84.8591 226.963 84.7435 228.373 83.6297C229.329 82.7574 230.057 81.6647 230.495 80.4467C233.984 72.419 235.206 63.5454 238.738 55.5422C239.005 55.0196 239.184 54.456 239.266 53.8745C239.304 53.5835 239.262 53.2878 239.147 53.018C239.032 52.7483 238.846 52.5145 238.61 52.3408C237.953 51.9331 236.932 52.1643 236.488 51.5253C236.27 51.2027 236.294 50.7645 236.099 50.4237C235.692 49.6994 234.622 49.8151 233.893 49.3951C233.321 49.0908 232.926 48.464 232.288 48.3422C231.975 48.3245 231.662 48.3802 231.374 48.5049C231.086 48.6295 230.83 48.8197 230.629 49.0604C228.556 50.9958 227.468 53.7406 226.313 56.3333C224.549 60.3076 222.485 64.1408 220.137 67.7997C220.41 67.3736 218.824 64.148 218.204 64.008C217.116 63.7889 215.724 65.6999 215.134 66.412C213.284 68.6581 212.112 71.3858 211.755 74.2753V74.2753Z" fill="#3F3D56"/>
<path opacity="0.1" d="M233.838 49.9612C233.402 49.9684 232.972 50.074 232.582 50.2699C232.191 50.4659 231.85 50.7472 231.583 51.0932C230.933 51.9391 230.805 53.059 230.641 54.1362C230.088 57.5492 228.871 60.8203 227.061 63.7645" fill="black"/>
<path opacity="0.1" d="M236.939 52.3895C236.336 52.403 235.747 52.5734 235.23 52.8839C234.713 53.1945 234.286 53.6345 233.991 54.1606C233.588 55.1179 233.338 56.1324 233.249 57.1672C232.728 59.4613 231.723 61.6174 230.301 63.4907" fill="black"/>
<path d="M381.403 171.374V163.815C381.402 158.25 379.193 152.914 375.263 148.98C371.332 145.046 366.002 142.836 360.444 142.836H62.294C56.7364 142.836 51.4063 145.046 47.4759 148.98C43.5455 152.914 41.3366 158.25 41.335 163.815V177.752L381.403 171.374Z" fill="#33323D"/>
<path d="M145.237 133.974C145.237 133.974 144.386 186.839 153.747 204.233C163.108 221.627 167.12 297.296 167.12 297.296C167.12 297.296 265.253 307.46 333.638 285.124C402.022 262.788 547.532 253.652 547.532 253.652L523.011 88.1761C523.011 88.1761 401.87 80.398 332.957 113.306C264.044 146.214 145.237 133.974 145.237 133.974Z" fill="#026E8D"/>
<path opacity="0.1" d="M145.237 133.974C145.237 133.974 144.386 186.839 153.747 204.233C163.108 221.627 167.12 297.296 167.12 297.296C167.12 297.296 265.253 307.46 333.638 285.124C402.022 262.788 547.532 253.652 547.532 253.652L523.011 88.1761C523.011 88.1761 401.87 80.398 332.957 113.306C264.044 146.214 145.237 133.974 145.237 133.974Z" fill="#535461"/>
<path d="M166.956 153.286C166.956 153.286 163.886 196.905 171.587 210.842C179.289 224.78 179.648 286.998 179.648 286.998C179.648 286.998 267.964 291.101 330.787 269.689C393.609 248.278 525.625 234.39 525.625 234.39L510.623 99.0643C510.623 99.0643 401.39 97.9384 337.637 128.077C273.885 158.216 166.956 153.286 166.956 153.286Z" fill="#068DB4"/>
<path opacity="0.1" d="M336.667 244.913C349.233 243.345 356.698 220.2 353.342 193.216C349.985 166.231 337.077 145.627 324.511 147.194C311.945 148.761 304.479 171.906 307.836 198.891C311.193 225.875 324.101 246.48 336.667 244.913Z" fill="black"/>
<path opacity="0.2" d="M456.596 7.56512C456.596 7.56512 338.908 37.3872 283.41 89.8803C227.912 142.373 111.081 167.229 111.081 167.229C111.081 167.229 126.472 217.799 140.708 231.481C154.944 245.162 181.946 315.956 181.946 315.956C181.946 315.956 278.456 295.47 336.689 253.184C394.922 210.897 530.64 157.491 530.64 157.491L456.596 7.56512Z" fill="black"/>
<path d="M109.312 159.658C109.312 159.658 124.697 210.234 138.92 223.916C153.144 237.597 180.158 308.385 180.158 308.385C180.158 308.385 276.68 287.905 334.92 245.619C393.159 203.332 528.864 149.944 528.864 149.944L454.82 0C454.82 0 337.138 29.8221 281.64 82.3152C226.143 134.808 109.312 159.658 109.312 159.658Z" fill="#026E8D"/>
<path opacity="0.1" d="M109.312 159.658C109.312 159.658 124.697 210.234 138.92 223.916C153.144 237.597 180.158 308.385 180.158 308.385C180.158 308.385 276.68 287.905 334.92 245.619C393.159 203.332 528.864 149.944 528.864 149.944L454.82 0C454.82 0 337.138 29.8221 281.64 82.3152C226.143 134.808 109.312 159.658 109.312 159.658Z" fill="#535461"/>
<path d="M135.882 171.368C135.882 171.368 146.331 213.831 157.935 224.725C169.539 235.619 188.936 294.716 188.936 294.716C188.936 294.716 274.243 271.479 327.474 231.797C380.704 192.115 502.107 138.393 502.107 138.393L446.36 14.1624C446.36 14.1624 342.057 46.6442 290.613 94.9196C239.17 143.195 135.882 171.368 135.882 171.368Z" fill="#068DB4"/>
<path opacity="0.1" d="M325.505 206.429C336.985 201.077 336.997 176.754 325.531 152.103C314.066 127.452 295.466 111.807 283.987 117.16C272.507 122.512 272.495 146.834 283.961 171.485C295.426 196.137 314.026 211.781 325.505 206.429Z" fill="black"/>
<path opacity="0.1" d="M389.451 178.793V388.765C389.451 391.15 388.982 393.511 388.07 395.714C387.158 397.917 385.822 399.919 384.138 401.605C382.453 403.291 380.454 404.628 378.253 405.54C376.053 406.452 373.694 406.921 371.312 406.92H59.479C54.671 406.918 50.0605 405.005 46.6613 401.6C43.2621 398.196 41.3525 393.579 41.3525 388.765V157.625C50.2881 160.948 50.2881 160.948 59.479 160.668H371.312C376.117 160.668 380.725 162.577 384.125 165.975C387.526 169.373 389.441 173.983 389.451 178.793V178.793Z" fill="black"/>
<path d="M389.451 181.465V391.437C389.449 396.252 387.538 400.87 384.136 404.275C380.735 407.679 376.122 409.592 371.312 409.592H59.479C54.671 409.59 50.0605 407.677 46.6613 404.272C43.2621 400.867 41.3525 396.251 41.3525 391.437V160.291C50.2881 163.608 50.2881 163.608 59.479 163.334H371.312C376.118 163.334 380.727 165.243 384.127 168.642C387.528 172.042 389.443 176.653 389.451 181.465V181.465Z" fill="#504F60"/>
<path opacity="0.1" d="M388.564 259.093V326.242H323.523C314.708 326.123 306.294 322.534 300.102 316.25C293.91 309.967 290.438 301.495 290.438 292.668C290.438 283.841 293.91 275.369 300.102 269.085C306.294 262.802 314.708 259.212 323.523 259.093H388.564Z" fill="black"/>
<path d="M389.452 257.304V324.465H324.41C315.595 324.346 307.181 320.756 300.989 314.473C294.798 308.189 291.326 299.717 291.326 290.89C291.326 282.064 294.798 273.592 300.989 267.308C307.181 261.025 315.595 257.435 324.41 257.316L389.452 257.304Z" fill="#33323D"/>
<path opacity="0.1" d="M327.528 305.762C334.749 305.762 340.603 299.901 340.603 292.671C340.603 285.441 334.749 279.579 327.528 279.579C320.307 279.579 314.453 285.441 314.453 292.671C314.453 299.901 320.307 305.762 327.528 305.762Z" fill="black"/>
<path d="M328.416 303.985C335.637 303.985 341.491 298.124 341.491 290.894C341.491 283.663 335.637 277.802 328.416 277.802C321.195 277.802 315.341 283.663 315.341 290.894C315.341 298.124 321.195 303.985 328.416 303.985Z" fill="#3F3D56"/>
<path d="M502.349 256.726C502.865 262.331 498.629 267.772 499.863 273.262C500.13 274.437 500.635 275.544 500.817 276.731C501.327 279.993 499.388 283.079 497.534 285.806L481.608 309.201C480.971 310.229 480.207 311.174 479.335 312.013C476.296 314.727 471.725 314.447 467.725 315.256C464.913 315.828 462.258 317.003 459.944 318.701C459.847 318.784 459.786 318.901 459.772 319.028C459.759 319.154 459.794 319.281 459.871 319.383C460.532 320.284 461.408 321.005 462.419 321.48C463.43 321.956 464.543 322.17 465.658 322.103C466.078 322.657 465.658 323.467 465.05 323.862C464.193 324.471 463.02 324.617 462.85 326.065C462.789 326.571 462.892 327.083 463.142 327.526C463.783 328.51 464.781 329.206 465.926 329.468C471.439 331.153 477.396 328.19 481.523 324.154C485.651 320.119 488.611 315.025 492.659 310.917C494.902 308.647 497.449 306.699 499.759 304.496C504.367 300.102 507.947 294.758 511.406 289.409C512.445 287.796 513.491 286.14 513.928 284.272C514.366 282.403 514.159 280.517 514.652 278.709C515.296 276.336 517.029 274.449 518.469 272.459C521.296 268.564 523.18 263.798 522.809 259.002C522.439 254.206 519.466 249.465 514.944 247.834C513.542 247.27 511.996 247.177 510.537 247.566C508.683 248.138 507.315 249.672 506.051 251.139L503.011 254.638C502.253 255.406 501.654 256.316 501.248 257.316C501.054 257.818 501.008 258.366 501.115 258.894C501.223 259.422 501.48 259.907 501.856 260.292" fill="#FBBEBE"/>
<path opacity="0.05" d="M502.349 256.726C502.865 262.331 498.629 267.772 499.863 273.262C500.13 274.437 500.635 275.544 500.817 276.731C501.327 279.993 499.388 283.079 497.534 285.806L481.608 309.201C480.971 310.229 480.207 311.174 479.335 312.013C476.296 314.727 471.725 314.447 467.725 315.256C464.913 315.828 462.258 317.003 459.944 318.701C459.847 318.784 459.786 318.901 459.772 319.028C459.759 319.154 459.794 319.281 459.871 319.383C460.532 320.284 461.408 321.005 462.419 321.48C463.43 321.956 464.543 322.17 465.658 322.103C466.078 322.657 465.658 323.467 465.05 323.862C464.193 324.471 463.02 324.617 462.85 326.065C462.789 326.571 462.892 327.083 463.142 327.526C463.783 328.51 464.781 329.206 465.926 329.468C471.439 331.153 477.396 328.19 481.523 324.154C485.651 320.119 488.611 315.025 492.659 310.917C494.902 308.647 497.449 306.699 499.759 304.496C504.367 300.102 507.947 294.758 511.406 289.409C512.445 287.796 513.491 286.14 513.928 284.272C514.366 282.403 514.159 280.517 514.652 278.709C515.296 276.336 517.029 274.449 518.469 272.459C521.296 268.564 523.18 263.798 522.809 259.002C522.439 254.206 519.466 249.465 514.944 247.834C513.542 247.27 511.996 247.177 510.537 247.566C508.683 248.138 507.315 249.672 506.051 251.139L503.011 254.638C502.253 255.406 501.654 256.316 501.248 257.316C501.054 257.818 501.008 258.366 501.115 258.894C501.223 259.422 501.48 259.907 501.856 260.292" fill="black"/>
<path d="M514.403 401.029C510.926 403.153 506.592 403.28 502.55 402.787C501.9 402.708 501.128 402.66 500.726 403.165C500.118 403.895 500.836 404.991 501.577 405.557C503.962 407.349 506.763 408.503 509.717 408.91C512.354 409.285 515.016 409.462 517.68 409.44C524.974 409.567 532.268 409.689 539.447 408.642C539.872 408.61 540.286 408.49 540.663 408.289C541.126 407.964 541.447 407.474 541.563 406.92C542.055 405.045 541.107 403.037 539.672 401.735C538.238 400.432 536.396 399.708 534.596 399.008L528.275 396.543C526.791 395.965 524.415 394.431 522.804 394.553C519.777 394.772 516.914 399.556 514.403 401.029Z" fill="#3F3D56"/>
<path opacity="0.05" d="M514.403 401.029C510.926 403.153 506.592 403.28 502.55 402.787C501.9 402.708 501.128 402.66 500.726 403.165C500.118 403.895 500.836 404.991 501.577 405.557C503.962 407.349 506.763 408.503 509.717 408.91C512.354 409.285 515.016 409.462 517.68 409.44C524.974 409.567 532.268 409.689 539.447 408.642C539.872 408.61 540.286 408.49 540.663 408.289C541.126 407.964 541.447 407.474 541.563 406.92C542.055 405.045 541.107 403.037 539.672 401.735C538.238 400.432 536.396 399.708 534.596 399.008L528.275 396.543C526.791 395.965 524.415 394.431 522.804 394.553C519.777 394.772 516.914 399.556 514.403 401.029Z" fill="black"/>
<path d="M518.834 317.003C516.202 320.509 513.479 324.556 514.13 328.895C514.482 331.233 515.789 333.296 516.75 335.456C518.05 338.39 518.731 341.542 519.4 344.683C520.385 349.272 521.375 353.873 521.977 358.535C522.664 363.799 519.436 379.033 519.138 384.334C519.065 385.612 518.913 386.994 518.026 387.913C517.68 388.278 517.218 388.57 517.06 389.045C516.967 389.502 517.042 389.978 517.272 390.384C518.755 393.731 521.789 396.226 525.174 397.651C528.56 399.075 536.724 401.534 540.414 401.661C540.9 401.715 541.392 401.65 541.848 401.473C542.339 401.173 542.725 400.729 542.954 400.201C545.599 395.137 543.058 377.134 543.094 371.419C543.131 366.654 544.255 361.919 544.049 357.16C543.878 353.337 542.833 349.601 542.486 345.791C541.878 339.546 543.021 333.271 544.17 327.1C545.045 322.365 545.927 317.63 547.051 312.956C547.738 310.101 548.535 307.223 550.091 304.746C551.306 302.78 553.015 301.137 554.431 299.268C558.362 294.108 560.109 287.606 559.294 281.168C559.209 280.559 550.176 283.462 549.38 283.809C546.13 285.187 543.141 287.111 540.541 289.5C538.45 291.496 536.803 294.162 534.973 296.395C532.384 299.556 529.827 302.739 527.302 305.945C524.421 309.608 521.598 313.295 518.834 317.003Z" fill="#464353"/>
<path opacity="0.05" d="M518.834 316.79C516.202 320.296 513.479 324.349 514.13 328.682C514.482 331.026 515.789 333.089 516.75 335.249C518.05 338.177 518.731 341.336 519.4 344.47C520.385 349.065 521.375 353.666 521.977 358.322C522.664 363.593 519.436 378.82 519.138 384.121C519.065 385.399 518.913 386.787 518.026 387.706C517.68 388.065 517.218 388.357 517.06 388.832C516.966 389.289 517.042 389.765 517.272 390.171C518.755 393.524 521.789 396.013 525.174 397.474C528.56 398.935 536.724 400.207 540.414 400.329C540.9 400.382 541.392 400.317 541.848 400.14C542.34 399.844 542.727 399.401 542.954 398.874C545.599 393.81 543.058 376.964 543.094 371.243C543.131 366.471 544.255 361.742 544.049 356.977C543.878 353.155 542.833 349.418 542.486 345.614C541.879 339.364 543.021 333.089 544.17 326.917C545.046 322.188 545.927 317.453 547.051 312.773C547.738 309.919 548.535 307.04 550.091 304.563C551.307 302.597 553.015 300.954 554.431 299.085C558.363 293.926 560.11 287.424 559.294 280.985C559.209 280.377 550.176 283.28 549.38 283.627C546.131 285.008 543.142 286.935 540.541 289.323C538.45 291.313 536.803 293.979 534.973 296.213C532.384 299.374 529.827 302.559 527.302 305.768C524.421 309.404 521.598 313.078 518.834 316.79Z" fill="black"/>
<path d="M489.548 239.794C497.695 239.794 504.301 233.181 504.301 225.023C504.301 216.865 497.695 210.252 489.548 210.252C481.4 210.252 474.795 216.865 474.795 225.023C474.795 233.181 481.4 239.794 489.548 239.794Z" fill="#FBBEBE"/>
<path d="M502.836 224.402C504.199 226.579 505.986 228.459 508.09 229.929C510.194 231.399 512.573 232.43 515.084 232.959L513.972 237.007C512.051 243.957 509.893 251.309 504.531 256.129C505.139 253.774 504.361 251.261 503.036 249.216C501.711 247.171 499.851 245.564 498.027 243.975L489.536 236.611C489.29 236.411 489.084 236.168 488.928 235.893C488.718 235.374 488.718 234.793 488.928 234.274C490.01 230.902 493.098 228.797 495.614 226.52C496.877 225.343 498.004 224.029 498.976 222.601C500.672 220.179 501.723 222.613 502.836 224.402Z" fill="#FBBEBE"/>
<path d="M470.115 210.173L469.781 207.398C472.109 208.006 474.321 206.022 475.811 203.971C477.3 201.92 478.68 199.504 480.947 198.646C483.701 197.611 486.619 199.254 489.251 200.642C492.197 202.279 495.431 203.333 498.776 203.746C499.309 203.764 499.838 203.85 500.35 204.002C502.064 204.61 502.879 206.765 503.128 208.718C503.377 210.672 503.31 212.747 504.155 214.488C504.763 215.809 505.894 216.789 506.587 218.091C508.41 221.585 506.648 226.362 508.55 229.789L503.821 225.449C503.389 225.054 502.782 224.64 502.301 224.975C501.924 225.242 501.894 225.82 501.742 226.283C501.286 227.634 499.596 228.036 498.375 227.5C497.153 226.965 496.259 225.802 495.335 224.743C493.244 222.272 490.752 220.1 487.834 219.047C486.555 218.568 485.189 218.367 483.827 218.457C482.464 218.547 481.137 218.927 479.932 219.57C477.726 220.818 476.109 223.727 473.404 223.83C469.696 223.97 468.152 217.056 466.438 214.324C467.065 213.851 467.506 213.173 467.684 212.407C467.862 211.642 467.765 210.838 467.41 210.136C467.659 210.033 470.06 209.747 470.115 210.173Z" fill="#464353"/>
<path d="M287.64 123.817C286.455 124.872 285.359 126.024 284.364 127.261C283.362 128.515 282.829 130.08 282.856 131.686C282.862 132.152 283.01 132.604 283.282 132.982C283.421 133.163 283.613 133.296 283.83 133.363C284.048 133.429 284.282 133.426 284.498 133.354C284.742 133.229 284.951 133.045 285.106 132.818C285.748 132.045 286.43 131.306 287.148 130.603C287.409 130.341 287.756 130.067 288.108 130.164C288.266 130.221 288.408 130.315 288.522 130.438C288.931 130.792 289.228 131.257 289.379 131.777C289.592 132.708 289.051 133.64 288.437 134.37C287.823 135.1 287.099 135.8 286.85 136.719C286.756 136.962 286.756 137.231 286.85 137.474C286.968 137.649 287.132 137.789 287.324 137.876C288.195 138.355 289.16 138.638 290.151 138.703C291.143 138.768 292.137 138.615 293.062 138.253C294.278 137.76 295.36 136.914 296.612 136.476C297.155 136.327 297.68 136.123 298.181 135.867C298.539 135.628 298.846 135.321 299.085 134.963C299.324 134.604 299.49 134.202 299.573 133.78C299.731 132.935 299.761 132.071 299.664 131.217C299.512 127.911 298.805 124.654 297.573 121.583C297.501 121.385 297.38 121.209 297.22 121.072C297.037 120.96 296.826 120.903 296.612 120.907C295.056 120.743 292.503 119.946 291.002 120.524C290.477 120.812 290.024 121.216 289.677 121.705C289.397 122.015 287.64 123.409 287.64 123.817Z" fill="#A1616A"/>
<path d="M287.148 122.441C287.148 120.956 285.324 117.371 288.223 117.134C288.223 115.546 285.98 114.56 286.4 112.874C286.534 112.314 287.008 111.857 287.062 111.285C287.245 109.66 284.315 108.778 284.801 107.22C284.984 106.611 285.628 106.258 285.768 105.656C286.096 104.25 283.585 103.623 283.537 102.18C283.537 101.693 283.81 101.237 283.786 100.75C283.786 100.141 283.257 99.6789 282.965 99.1494C282.206 97.7922 282.576 95.6925 281.19 94.9926C282.108 95.0717 282.406 93.7084 282.029 92.8746C281.652 92.0408 280.88 91.3165 280.874 90.3915C280.92 90.0562 280.92 89.7164 280.874 89.3812C280.619 88.4926 279.166 88.4195 278.923 87.5553C278.892 87.2236 278.882 86.8902 278.893 86.5572C278.796 85.8695 278.09 85.4312 277.428 85.2365C276.74 85.1195 276.077 84.8826 275.471 84.5366C275.045 84.214 274.553 83.6784 274.097 83.928C273.927 84.0314 273.841 84.2262 273.714 84.3722C273.167 85.0113 272.121 84.7313 271.434 84.2627C269.404 82.8811 268.395 80.4041 267.963 77.9879C267.532 75.5717 267.544 73.0764 267.003 70.6845C266.838 69.9391 266.619 69.2068 266.346 68.4935C266.116 67.8849 265.374 66.9294 265.325 66.3146C265.216 64.9148 268.109 65.8704 269.21 66.0103C270.278 66.1148 271.334 66.3185 272.364 66.619C273.464 67.035 274.542 67.5083 275.592 68.037C279.981 69.9785 285.281 70.2159 288.807 73.478C289.968 74.5492 290.947 75.9551 292.454 76.442C293.146 76.5747 293.828 76.7516 294.497 76.9715C296.168 77.7566 296.43 79.9781 297.341 81.5848C297.628 82.0091 297.878 82.457 298.089 82.9237C298.265 83.4742 298.347 84.0502 298.332 84.6279L298.46 88.8456C298.667 95.9116 298.873 102.996 298.119 110.019C297.876 112.338 297.512 114.724 298.198 116.951C298.381 117.56 298.636 118.132 298.806 118.747C298.957 119.468 299.034 120.202 299.037 120.938L299.135 123.671C299.168 123.883 299.121 124.1 299.001 124.279C298.899 124.362 298.78 124.42 298.653 124.451C298.526 124.482 298.393 124.483 298.265 124.456C294.466 124.115 290.624 121.972 287.038 123.269" fill="#464353"/>
<path d="M460.522 332.413C485.351 332.413 505.479 329.5 505.479 325.907C505.479 322.314 485.351 319.401 460.522 319.401C435.693 319.401 415.564 322.314 415.564 325.907C415.564 329.5 435.693 332.413 460.522 332.413Z" fill="#504F60"/>
<path d="M499.201 326.224C498.411 322.834 497.918 319.858 497.918 319.858C497.918 319.858 498.101 316.169 496.447 313.4V312.475V305.659C496.918 304.421 497.494 303.226 498.168 302.086C499.383 299.944 498.168 292.092 498.168 292.092C498.168 292.092 493.627 281.022 494.727 273.998C495.827 266.975 485.403 242.813 485.403 242.813C485.467 240.483 485.795 238.167 486.381 235.911C486.493 235.437 486.538 234.949 486.515 234.463C486.515 234.402 486.515 234.347 486.515 234.286C486.515 234.225 486.515 234.323 486.515 234.341C486.357 229.709 482.698 221.031 482.698 221.031L483.19 204.488C483.19 204.488 485.524 194.751 481.719 181.635C480.388 177.064 479.537 173.407 478.996 170.583C478.935 170.266 478.874 169.974 478.825 169.664C486.661 168.446 492.648 167.473 492.648 167.473C492.648 167.473 488.101 148.429 485.032 145.094C481.962 141.759 479.506 131.284 479.506 131.284C479.506 131.284 477.908 117.84 480.491 113.908C483.074 109.977 483.439 103.197 483.439 103.197C483.439 103.197 489.329 98.9364 490.071 97.0071C490.813 95.0778 492.034 90.8175 492.034 88.5595C492.034 86.3016 491.299 84.2992 491.542 83.082C491.785 81.8648 489.822 77.3671 490.806 75.2248C491.061 74.5667 491.193 73.8674 491.195 73.1616C491.198 73.1413 491.198 73.1209 491.195 73.1007C491.195 73.1007 491.195 73.1007 491.195 73.1007C491.205 71.226 491.032 69.3548 490.679 67.5136C488.975 66.0731 486.986 65.0091 484.843 64.3914L484.716 63.8802L484.381 62.5412C484.195 62.4177 484.002 62.304 483.804 62.2004V61.7135L483.749 59.7781L484.673 55.4326C486.497 47.8736 476.412 46.7477 476.412 46.7477C475.801 45.5882 474.783 44.6954 473.555 44.2402C471.531 43.5281 473.221 55.6091 474.163 56.4125C474.874 57.0211 477.075 60.7823 478.139 62.6447L478.309 62.949C478.142 63.0989 477.988 63.2617 477.847 63.4359L478.23 66.059L478.291 66.4607C477.622 67.2917 477.079 68.2165 476.68 69.2056C476.68 69.2056 478.503 71.2262 478.157 73.4659C477.81 75.7056 478.722 78.5478 478.765 78.7C478.655 78.5721 477.361 77.1723 476.066 77.5132C474.771 77.854 471.154 78.9434 471.154 78.9434C471.154 78.9434 468.455 79.4181 468.723 80.0146C468.99 80.611 466.899 83.2281 466.899 83.2281L459.641 76.3385C459.568 76.1316 459.489 75.9247 459.429 75.7299C459.132 74.7366 458.929 73.7179 458.821 72.6868C459.612 72.4986 460.388 72.2525 461.143 71.9504C461.905 71.6883 462.594 71.2456 463.149 70.6602C463.884 69.7898 464.024 68.6091 464.322 67.5258C464.893 65.4078 466.145 63.5272 467.015 61.5127C468.487 58.1086 468.961 54.3554 468.382 50.6915C468.271 49.5624 467.889 48.4768 467.27 47.5267C466.085 45.8956 463.933 45.2322 462.371 43.9298C460.808 42.6274 459.799 40.6372 457.976 39.6695C456.329 38.787 454.329 38.8905 452.469 39.1948C448.836 39.7946 445.346 41.0659 442.177 42.9438C441.12 43.5525 439.953 44.301 438.737 44.0759C437.691 43.8872 436.913 43.0534 436.257 42.25C436.264 42.2168 436.274 42.1842 436.287 42.1526C436.258 42.123 436.231 42.0904 436.208 42.0553C435.439 43.7645 435.053 45.6217 435.078 47.4963C435.078 47.7884 435.078 48.1049 435.114 48.3666V48.6709C435.114 48.7561 435.114 48.8413 435.114 48.9204C435.114 49.0502 435.095 49.1792 435.059 49.3039C434.906 49.6762 434.674 50.0106 434.379 50.2837C434.155 50.5375 433.952 50.8081 433.771 51.0932C433.771 50.9958 433.832 50.8984 433.868 50.795C433.404 51.4727 433.143 52.2685 433.114 53.0895C433.08 53.6871 433.276 54.275 433.661 54.7327C434.025 55.0865 434.422 55.4045 434.847 55.6822C434.702 56.4856 434.629 57.3003 434.628 58.1166C434.641 60.5368 435.279 62.9124 436.478 65.0139C437.677 67.1153 439.397 68.8714 441.472 70.1124C441.557 70.3132 441.636 70.5202 441.716 70.721C442.646 73.1555 443.345 76.016 443.035 78.633C443.035 78.8217 442.98 79.0164 442.949 79.2051C442.919 79.3938 442.767 79.4059 442.688 79.5094C442.688 79.5094 430.695 79.6311 427.874 77.075C425.054 74.5188 420.75 83.3254 420.75 83.3254C420.75 83.3254 416.453 84.1592 415.59 83.3254C414.726 82.4916 409.699 83.2098 409.699 83.2098C407.64 81.3759 404.96 80.3965 402.204 80.471C400.535 79.2008 398.693 78.1761 396.734 77.428V77.428L396.6 77.3793C395.735 77.0637 394.811 76.9472 393.895 77.0384C393.895 77.0384 387.999 72.1695 386.278 69.5403C384.558 66.9111 376.37 57.2037 376.334 57.1611V56.6925L376.243 55.2805C375.999 55.3187 375.754 55.339 375.507 55.3413C375.465 55.2013 375.404 55.037 375.343 54.8484C374.871 53.4711 374.29 52.1339 373.605 50.8497C373.605 50.8497 373.605 49.0665 374.121 48.6161C374.638 48.1658 373.908 41.6231 373.908 41.6231C373.908 41.6231 368.596 29.1891 363.836 38.4705C363.836 38.4705 354.84 44.4775 362.39 51.4766C362.39 51.4766 365.429 52.9373 365.83 54.0937C366.11 54.8423 367.131 56.942 367.818 58.354L368.128 58.9626L368.043 59.0356L368.152 60.2042L368.201 60.6545C366.778 61.464 365.812 62.2674 366.049 62.8699C366.468 63.901 366.756 64.9805 366.906 66.0834C366.906 66.0834 377.349 79.1808 378.698 84.7739C378.698 84.7739 406.703 101.438 415.912 102.625L414.283 110.932C414.045 113.186 413.924 115.451 413.918 117.718C414.04 119.501 412.812 127.596 412.812 127.596C412.812 127.596 411.213 139.501 409.864 141.168C408.514 142.836 408.757 149.975 408.757 149.975C408.439 153.392 407.829 156.777 406.934 160.09C405.584 164.612 406.563 170.211 406.563 170.211C406.563 170.211 401.901 180.923 413.073 173.662C413.073 173.662 418.544 173.321 424.878 173.102C424.878 173.309 424.878 173.522 424.878 173.711C424.878 174.526 424.878 175.409 424.835 176.334C424.75 182.469 424.714 190.941 424.993 197.319C425.486 208.627 428.926 231.006 428.926 231.006V242.271C428.704 243.328 428.594 244.405 428.598 245.485C428.525 249.448 429.579 253.351 431.637 256.738L432.5 264.236C432.5 264.236 434.518 269.178 434.555 272.148C434.547 272.388 434.519 272.626 434.47 272.86C434.391 273.238 434.359 273.625 434.373 274.011C434.257 277.419 436.306 285.574 436.306 285.574C436.306 285.574 436.427 293.784 437.655 294.265C438.707 294.673 436.251 298.994 435.521 300.236C435.502 300.16 435.488 300.082 435.479 300.004L435.327 300.248C435.073 300.913 434.944 301.618 434.944 302.329C434.875 302.89 434.966 303.459 435.207 303.969C435.448 304.48 435.829 304.912 436.306 305.214C438.64 306.644 439.892 307.831 437.91 308.306C437.181 308.419 436.459 308.572 435.746 308.762C435.746 308.671 435.673 308.574 435.643 308.489C435.363 308.598 435.13 308.801 434.983 309.062C434.835 309.324 434.783 309.629 434.835 309.925C434.853 310.89 435.101 311.837 435.558 312.688C437.521 317.094 438.883 318.774 438.883 318.774L439.825 318.671C439.686 319.031 439.502 319.373 439.278 319.687C438.919 320.198 438.444 320.615 437.892 320.904C437.377 321.213 436.804 321.41 436.208 321.483C435.543 321.504 434.889 321.666 434.29 321.958C433.691 322.249 433.16 322.664 432.731 323.174C431.516 324.763 430.738 326.924 433.157 328.822L441.94 331.865C441.94 331.865 457.052 333.831 456.249 330.435C455.447 327.039 454.961 324.069 454.961 324.069C455.026 321.996 454.61 319.935 453.745 318.05C453.587 317.742 453.408 317.445 453.21 317.161L453.745 317.107C453.745 317.107 454.851 309.602 456.322 308.178C456.663 307.85 456.742 307.57 456.663 307.399C456.815 306.991 456.426 306.754 455.933 306.614L455.824 306.912C455.343 306.807 454.852 306.752 454.359 306.748C454.359 306.748 453.867 302.822 455.465 301.392C455.594 301.229 455.688 301.041 455.742 300.84C455.795 300.639 455.807 300.429 455.775 300.224C455.787 299.685 455.73 299.147 455.605 298.623C455.589 298.657 455.571 298.689 455.55 298.72C454.748 295.154 452.025 289.488 452.025 289.488C452.025 289.488 451.903 285.921 452.888 284.491C453.873 283.061 452.76 265.088 452.76 265.088C452.76 265.088 453.131 256.403 452.025 252.356C450.919 248.309 453.374 243.543 453.374 243.543C453.374 243.543 453.374 243.452 453.374 243.288V243.227L453.235 241.857C453.231 241.886 453.231 241.914 453.235 241.943C452.985 239.642 452.517 235.473 452.171 233.55C451.678 230.811 452.298 217.726 452.298 217.726L454.505 212.127L458.438 221.773L462.614 234.627C462.614 234.627 464.681 237.341 464.729 240.105C464.729 240.238 464.729 240.372 464.729 240.506C464.695 240.791 464.679 241.078 464.681 241.364C464.606 242.988 465.052 244.594 465.951 245.947C465.951 245.947 467.057 252.033 468.778 253.561C470.498 255.089 470.498 258.083 470.498 258.083C470.498 258.083 472.583 266.896 473.537 268.43C474.364 269.732 474.406 273.298 474.4 274.412C474.4 274.613 474.4 274.729 474.4 274.729C474.4 274.729 474.692 277.881 474.68 280.523C474.68 280.851 474.68 281.168 474.68 281.466C474.683 281.444 474.683 281.421 474.68 281.399C474.679 282.121 474.594 282.84 474.425 283.541L474.388 283.663C474.388 283.511 474.388 283.365 474.431 283.219C474.003 285.013 473.799 286.852 473.823 288.696C473.768 291.861 474.248 295.61 476.163 297.826C479.482 301.636 481.567 301.161 481.567 301.161C481.567 301.161 479.974 305.92 478.005 306.876C477.93 306.911 477.861 306.956 477.798 307.01C477.798 306.912 477.762 306.821 477.75 306.73C477.53 306.967 477.363 307.248 477.258 307.554C477.153 307.86 477.114 308.185 477.142 308.507C477.002 310.6 478.321 313.984 479.573 315.561C480.038 316.017 480.608 316.351 481.233 316.534C481.134 316.604 481.03 316.667 480.923 316.723C480.704 316.843 480.479 316.951 480.248 317.046C479.928 317.182 479.59 317.27 479.245 317.307C478.578 317.325 477.923 317.485 477.324 317.777C476.724 318.069 476.194 318.486 475.768 318.999C474.552 320.582 473.774 322.742 476.193 324.641L484.977 327.684C484.977 327.684 499.991 329.614 499.201 326.224Z" fill="url(#paint0_linear)"/>
<path d="M441.509 331.847L432.999 328.804C430.652 326.905 431.4 324.745 432.585 323.156C432.993 322.65 433.505 322.236 434.086 321.945C434.667 321.653 435.304 321.489 435.953 321.464C436.529 321.391 437.083 321.194 437.576 320.886C438.116 320.593 438.578 320.176 438.925 319.669C439.546 318.682 439.881 317.542 439.892 316.376C439.892 316.376 449.229 313.638 451.782 316.376C452.237 316.872 452.618 317.432 452.912 318.038C453.761 319.928 454.176 321.985 454.128 324.057C454.128 324.057 454.602 327.027 455.374 330.423C456.146 333.819 441.509 331.847 441.509 331.847Z" fill="#2D293D"/>
<path d="M483.11 327.648L474.6 324.605C472.254 322.706 473.002 320.545 474.187 318.963C474.592 318.454 475.102 318.04 475.682 317.748C476.263 317.456 476.899 317.293 477.549 317.271C477.885 317.236 478.213 317.148 478.521 317.009C478.746 316.914 478.965 316.807 479.178 316.687C481.554 315.378 481.494 312.165 481.494 312.165C481.494 312.165 490.824 309.426 493.383 312.165C493.726 312.536 494.026 312.944 494.277 313.382C495.876 316.151 495.699 319.845 495.699 319.845C495.699 319.845 496.173 322.822 496.915 326.212C497.657 329.602 483.11 327.648 483.11 327.648Z" fill="#2D293D"/>
<path opacity="0.1" d="M451.788 316.37C452.243 316.866 452.624 317.426 452.918 318.032L438.938 319.657C439.558 318.67 439.893 317.53 439.904 316.364C439.904 316.364 449.235 313.631 451.788 316.37Z" fill="black"/>
<path opacity="0.1" d="M494.289 313.394V316.017C492.113 319.602 481.591 318.817 478.533 317.021C478.758 316.926 478.977 316.819 479.19 316.699C481.566 315.39 481.506 312.177 481.506 312.177C481.506 312.177 490.836 309.438 493.395 312.177C493.738 312.548 494.038 312.956 494.289 313.394V313.394Z" fill="black"/>
<path d="M495.949 302.086C495.298 303.229 494.743 304.424 494.289 305.659V315.062C491.906 318.987 479.548 317.679 477.877 315.536C476.205 313.394 474.461 307.819 476.339 306.851C478.217 305.884 479.786 301.137 479.786 301.137C479.786 301.137 477.761 301.611 474.552 297.801C471.342 293.991 472.297 285.544 472.892 283.523C473.488 281.503 472.892 274.717 472.892 274.717C472.892 274.717 473.014 269.951 472.066 268.405C471.117 266.859 469.093 258.059 469.093 258.059C469.093 258.059 469.093 255.083 467.428 253.537C465.762 251.991 464.692 245.917 464.692 245.917C463.718 244.399 463.3 242.591 463.507 240.798C463.859 237.822 461.483 234.609 461.483 234.609L457.44 221.749L453.635 212.108L451.496 217.702C451.496 217.702 450.888 230.793 451.38 233.526C451.872 236.258 452.596 243.525 452.596 243.525C452.596 243.525 450.219 248.284 451.289 252.332C452.359 256.379 451.97 265.076 451.97 265.076C451.97 265.076 453.04 283.042 452.085 284.473C451.131 285.903 451.252 289.475 451.252 289.475C451.252 289.475 456.115 299.944 454.584 301.374C453.052 302.804 453.514 306.73 453.514 306.73C453.514 306.73 456.839 306.73 455.416 308.16C453.994 309.59 452.918 317.088 452.918 317.088L438.542 318.774C438.542 318.774 437.229 317.113 435.326 312.688C433.424 308.263 435.679 308.763 437.594 308.282C439.509 307.801 438.299 306.62 436.038 305.19C433.776 303.76 435.089 300.546 435.089 300.546C435.089 300.546 438.536 294.716 437.345 294.241C436.153 293.766 436.038 285.55 436.038 285.55C436.038 285.55 433.661 275.812 434.257 273.171C434.852 270.529 432.354 264.248 432.354 264.248L431.521 256.75C428.978 252.495 428.05 247.466 428.907 242.582V231.018C428.907 231.018 425.576 208.645 425.102 197.337C424.798 190.095 424.883 180.211 424.981 174.046C425.041 170.589 425.102 168.294 425.102 168.294L476.454 162.938C476.454 162.938 476.406 165.312 477.384 170.577C477.913 173.4 478.734 177.058 480.023 181.629C483.706 194.72 481.451 204.476 481.451 204.476L480.971 221.025C480.971 221.025 485.487 232.089 484.539 235.899C483.966 238.161 483.644 240.48 483.579 242.813C483.579 242.813 493.681 266.975 492.611 273.998C491.542 281.022 495.936 292.093 495.936 292.093C495.936 292.093 497.14 299.944 495.949 302.086Z" fill="#464353"/>
<path opacity="0.05" d="M466.589 240.08L482.223 237.993C482.223 237.993 473.367 247.043 466.589 240.08Z" fill="black"/>
<path opacity="0.1" d="M479.961 222.698C479.961 222.698 480.496 228.237 477.11 230.318C477.11 230.318 483.171 229.369 479.961 222.698Z" fill="black"/>
<path opacity="0.1" d="M479.002 205.085C479.002 205.085 465.933 215.857 461.179 214.963C456.426 214.068 479.002 205.085 479.002 205.085Z" fill="black"/>
<path opacity="0.1" d="M447.21 245.132C447.21 245.132 437.284 247.39 436.986 251.382C436.688 255.375 447.21 245.132 447.21 245.132Z" fill="black"/>
<path opacity="0.05" d="M449.392 294.77C449.392 294.77 435.369 297.387 439.35 299.171C443.332 300.954 449.872 302.384 449.872 302.384C449.872 302.384 454.401 302.622 449.392 294.77Z" fill="black"/>
<g opacity="0.05">
<path opacity="0.05" d="M436.518 302.007C436.165 301.786 435.867 301.489 435.645 301.137C435.423 300.785 435.283 300.388 435.235 299.974L435.09 300.224C435.09 300.224 433.783 303.437 436.044 304.861C436.299 305.026 436.548 305.19 436.773 305.348C437.193 305.269 437.643 305.208 438.074 305.099C439.989 304.624 438.779 303.437 436.518 302.007Z" fill="black"/>
<path opacity="0.05" d="M454.584 301.051C454.973 300.698 454.961 299.785 454.724 298.617C454.116 299.536 453.94 300.972 453.928 302.062C454.075 301.684 454.299 301.34 454.584 301.051V301.051Z" fill="black"/>
<path opacity="0.05" d="M452.426 241.839C451.909 243.247 451.59 244.72 451.478 246.215C451.749 245.182 452.113 244.176 452.566 243.209L452.426 241.839Z" fill="black"/>
<path opacity="0.05" d="M484.545 235.595C484.638 235.167 484.681 234.73 484.672 234.292C484.496 235.181 484.374 236.003 484.283 236.727C484.362 236.356 484.447 236.003 484.545 235.595Z" fill="black"/>
<path opacity="0.05" d="M452.092 284.156C452.287 283.864 452.396 282.878 452.445 281.509C452.005 282.568 451.772 283.703 451.758 284.85C451.841 284.606 451.953 284.373 452.092 284.156V284.156Z" fill="black"/>
<path opacity="0.05" d="M455.009 306.602C454.272 308.989 453.725 311.431 453.374 313.905L438.998 315.567C438.998 315.567 437.685 313.905 435.782 309.481C435.629 309.139 435.493 308.79 435.375 308.434C434.512 308.829 434.159 309.724 435.302 312.335C437.205 316.741 438.524 318.421 438.524 318.421L452.9 316.754C452.9 316.754 453.97 309.255 455.392 307.825C456.121 307.138 455.672 306.778 455.009 306.602Z" fill="black"/>
<path opacity="0.05" d="M436.044 285.227C436.044 285.227 436.159 293.438 437.351 293.912C437.959 292.555 438.354 291.265 437.819 291.052C436.603 290.577 436.512 282.361 436.512 282.361C436.512 282.361 434.135 272.623 434.731 269.982C435.327 267.34 432.828 261.059 432.828 261.059L431.996 253.561C429.452 249.306 428.524 244.277 429.382 239.393V227.829C429.382 227.829 426.051 205.456 425.577 194.148C425.273 186.906 425.358 177.022 425.455 170.856C425.455 169.743 425.491 168.757 425.51 167.923L425.102 167.966C425.102 167.966 425.036 170.254 424.981 173.717C424.884 179.882 424.792 189.766 425.102 197.003C425.577 208.311 428.902 230.689 428.902 230.689V242.253C428.048 247.136 428.978 252.163 431.521 256.416L432.348 263.914C432.348 263.914 434.846 270.219 434.251 272.842C433.655 275.465 436.044 285.227 436.044 285.227Z" fill="black"/>
<path opacity="0.05" d="M478.363 312.359C477.196 310.667 476.417 308.736 476.084 306.705C474.619 308.032 476.303 313.181 477.908 315.226C479.567 317.368 491.931 318.677 494.32 314.745V312.481C491.08 315.664 479.932 314.386 478.363 312.359Z" fill="black"/>
<path opacity="0.05" d="M496.429 298.909C495.777 300.052 495.22 301.247 494.764 302.482V304.167C495.037 303.559 495.42 302.743 495.979 301.782C496.356 300.845 496.534 299.839 496.502 298.83C496.502 298.83 496.447 298.885 496.429 298.909Z" fill="black"/>
<path opacity="0.05" d="M479.093 300.79C479.545 299.873 479.937 298.928 480.266 297.96C480.266 297.96 478.242 298.434 475.033 294.624C472.699 291.855 472.565 286.621 472.899 283.201C472.291 285.227 471.349 293.675 474.559 297.485C476.656 299.974 478.242 300.632 479.093 300.79Z" fill="black"/>
<path opacity="0.05" d="M472.892 274.394C473.102 276.739 473.181 279.094 473.129 281.448C473.189 281.076 473.27 280.708 473.372 280.346C473.98 278.32 473.372 271.54 473.372 271.54C473.372 271.54 473.494 266.774 472.539 265.228C471.585 263.683 469.597 254.87 469.597 254.87C469.597 254.87 469.597 251.894 467.932 250.348C466.266 248.802 465.197 242.728 465.197 242.728C464.214 241.213 463.785 239.405 463.981 237.609C464.339 234.633 461.963 231.42 461.963 231.42L457.92 218.566L454.115 208.925L451.969 214.525C451.969 214.525 451.969 215.231 451.896 216.351L453.635 211.804L457.44 221.426L461.482 234.28C461.482 234.28 463.859 237.494 463.501 240.47C463.304 242.265 463.734 244.074 464.716 245.588C464.716 245.588 465.786 251.675 467.452 253.208C469.117 254.742 469.111 257.73 469.111 257.73C469.111 257.73 471.135 266.537 472.084 268.077C473.032 269.617 472.892 274.394 472.892 274.394Z" fill="black"/>
</g>
<path d="M482.873 55.4144L481.979 59.76L482.034 61.6954L482.071 63.1195L477.111 63.6307L476.557 62.6022C475.53 60.7398 473.397 56.9542 472.71 56.37C471.792 55.6031 470.157 43.516 472.102 44.2342C473.299 44.6972 474.282 45.5885 474.861 46.7356C474.861 46.7356 484.63 47.8554 482.873 55.4144Z" fill="#FFCDD3"/>
<path opacity="0.1" d="M482.071 63.1194L477.111 63.6306L476.558 62.6021C477.225 61.8416 478.135 61.3362 479.132 61.172C480.13 61.0077 481.153 61.1948 482.028 61.7013L482.071 63.1194Z" fill="black"/>
<path d="M483.324 65.4747L476.783 66.9902L476.643 66.0164L476.272 63.3933C476.272 63.3933 478.862 59.9364 482.606 62.529L482.935 63.8619L483.324 65.4747Z" fill="#3F3D56"/>
<path d="M377.373 55.8891L370.388 59.6382L369.781 58.3236C369.118 56.9298 368.127 54.8301 367.854 54.0633C367.44 52.9069 364.529 51.4462 364.529 51.4462C357.234 44.4532 365.927 38.4401 365.927 38.4401C370.534 29.1587 375.653 41.5928 375.653 41.5928C375.653 41.5928 376.37 48.1475 375.865 48.5857C375.361 49.0239 375.361 50.8194 375.361 50.8194C376.026 52.1057 376.589 53.4427 377.045 54.818C377.257 55.4813 377.373 55.8891 377.373 55.8891Z" fill="#FFCDD3"/>
<path opacity="0.1" d="M377.373 55.889L370.388 59.6381L369.78 58.3235C370.765 57.4958 374.26 54.6718 375.409 54.7874C375.957 54.856 376.511 54.8703 377.063 54.8301C377.257 55.4813 377.373 55.889 377.373 55.889Z" fill="black"/>
<path d="M378.085 58.0009L370.237 61.8717L370.079 60.1859L369.97 59.0173C369.97 59.0173 374.517 55.1161 375.86 55.2683C376.539 55.3668 377.229 55.3668 377.908 55.2683L378 56.6802L378.085 58.0009Z" fill="#3F3D56"/>
<path d="M463.853 84.281C463.853 84.281 429.643 88.1457 436.038 86.0643C440.487 84.6097 442.256 81.804 442.627 78.6392C442.931 76.0039 442.25 73.1616 441.357 70.7272C440.552 68.5675 439.534 66.4939 438.317 64.5376C438.317 64.5376 464.455 50.1377 459.234 63.229C458.428 65.2091 457.928 67.3003 457.751 69.4308C457.594 71.5481 457.822 73.6763 458.425 75.7117C459.411 79.0144 461.29 81.98 463.853 84.281V84.281Z" fill="#FFCDD3"/>
<path opacity="0.1" d="M459.216 63.2108C458.41 65.1909 457.91 67.2821 457.733 69.4126C455.271 71.488 452.572 71.348 449.101 71.348C446.438 71.348 443.484 71.9931 441.357 70.7089C440.553 68.5493 439.534 66.4757 438.317 64.5193C438.317 64.5193 464.449 50.1195 459.216 63.2108Z" fill="black"/>
<path d="M448.639 72.2608C456.451 72.2608 462.784 65.9201 462.784 58.0984C462.784 50.2767 456.451 43.9359 448.639 43.9359C440.827 43.9359 434.494 50.2767 434.494 58.0984C434.494 65.9201 440.827 72.2608 448.639 72.2608Z" fill="#FFCDD3"/>
<path opacity="0.1" d="M463.853 84.281C463.853 84.281 429.643 88.1457 436.038 86.0643C440.487 84.6097 442.256 81.804 442.627 78.6392C444.329 76.8133 447.751 75.4561 449.921 74.7501C451.928 74.0746 454.094 74.0385 456.121 74.6467C456.919 74.8872 457.678 75.2396 458.377 75.6935C459.373 79.0083 461.269 81.9812 463.853 84.281V84.281Z" fill="black"/>
<path opacity="0.1" d="M483.323 65.4748L476.782 66.9903L476.643 66.0165C477.343 65.0534 478.323 64.3297 479.448 63.9442C480.574 63.5587 481.791 63.53 482.934 63.862L483.323 65.4748Z" fill="black"/>
<path opacity="0.1" d="M378.084 58.0009L370.236 61.8717L370.078 60.1859C372.62 58.8175 375.262 57.6436 377.98 56.6742L378.084 58.0009Z" fill="black"/>
<path opacity="0.1" d="M477.384 170.589C464.127 172.707 445.283 175.409 442.292 174.496C439.806 173.741 431.88 173.82 424.98 174.058C425.041 170.601 425.102 168.306 425.102 168.306L476.454 162.951C476.454 162.951 476.406 165.324 477.384 170.589Z" fill="black"/>
<path d="M490.6 167.473C490.6 167.473 446.973 174.971 442.293 173.559C437.612 172.147 413.571 173.674 413.571 173.674C402.751 180.935 407.268 170.224 407.268 170.224C407.268 170.224 406.319 164.63 407.626 160.108C408.504 156.788 409.104 153.401 409.419 149.981C409.419 149.981 409.182 142.836 410.489 141.168C411.796 139.501 413.346 127.602 413.346 127.602C413.346 127.602 414.532 119.508 414.416 117.724C414.301 115.941 414.769 110.938 414.769 110.938L416.319 102.606C407.401 101.42 380.297 84.7558 380.297 84.7558C378.99 79.1626 368.887 66.0713 368.887 66.0713C368.74 64.9704 368.46 63.8914 368.054 62.8578C367.343 60.9528 378.042 57.1429 378.042 57.1429C378.042 57.1429 386.005 66.8808 387.67 69.5221C389.336 72.1635 395.037 77.0203 395.037 77.0203C395.923 76.929 396.818 77.0457 397.651 77.3611L397.791 77.4037C399.702 78.1548 401.494 79.1798 403.11 80.4468C405.79 80.3831 408.391 81.3652 410.362 83.1855C410.362 83.1855 415.225 82.4674 416.07 83.3012C416.914 84.135 421.06 83.3012 421.06 83.3012C421.06 83.3012 425.218 74.4945 427.953 77.0507C430.689 79.6069 442.293 79.4852 442.293 79.4852C443.837 77.4281 447.599 75.9552 449.952 75.2249C451.959 74.5521 454.124 74.516 456.152 75.1214C457.027 75.3828 457.85 75.7947 458.583 76.3386L465.641 83.2403C465.641 83.2403 467.659 80.6172 467.422 80.0268C467.185 79.4365 469.798 78.9557 469.798 78.9557C469.798 78.9557 473.245 77.8845 474.552 77.5254C475.859 77.1663 477.056 78.5844 477.166 78.7122C477.123 78.5601 476.23 75.6692 476.558 73.4781C476.886 71.2871 475.129 69.2178 475.129 69.2178C479.287 58.9809 488.679 67.5502 488.679 67.5502C488.679 67.5502 489.749 73.1434 488.8 75.2857C487.852 77.428 489.749 81.9501 489.511 83.1429C489.274 84.3358 489.992 86.3564 489.992 88.6205C489.992 90.8845 488.776 95.1631 488.089 97.0681C487.402 98.973 481.67 103.258 481.67 103.258C481.67 103.258 481.311 110.044 478.813 113.969C476.315 117.895 477.883 131.321 477.883 131.321C477.883 131.321 480.26 141.795 483.232 145.13C486.205 148.466 490.6 167.473 490.6 167.473Z" fill="#3F3D56"/>
<path opacity="0.1" d="M427.004 89.156C427.004 89.156 425.698 85.2304 424.506 84.8957C423.323 84.4601 422.172 83.9435 421.06 83.3498L421.825 81.883C421.825 81.883 426.287 83.1003 427.004 84.421C427.722 85.7416 427.004 89.156 427.004 89.156Z" fill="black"/>
<path opacity="0.1" d="M403.11 80.471C402.873 81.6882 392.29 82.7289 392.29 82.7289L397.639 77.361L397.773 77.4097C399.691 78.1648 401.489 79.1961 403.11 80.471V80.471Z" fill="black"/>
<path d="M372.498 65.0852C373.022 65.0852 373.446 64.6602 373.446 64.1358C373.446 63.6114 373.022 63.1864 372.498 63.1864C371.974 63.1864 371.55 63.6114 371.55 64.1358C371.55 64.6602 371.974 65.0852 372.498 65.0852Z" fill="#575988"/>
<path d="M373.714 66.9902C374.238 66.9902 374.662 66.5652 374.662 66.0408C374.662 65.5165 374.238 65.0914 373.714 65.0914C373.19 65.0914 372.766 65.5165 372.766 66.0408C372.766 66.5652 373.19 66.9902 373.714 66.9902Z" fill="#575988"/>
<path d="M374.905 68.7491C375.429 68.7491 375.854 68.324 375.854 67.7997C375.854 67.2753 375.429 66.8502 374.905 66.8502C374.382 66.8502 373.957 67.2753 373.957 67.7997C373.957 68.324 374.382 68.7491 374.905 68.7491Z" fill="#575988"/>
<path d="M376.151 70.648C376.675 70.648 377.1 70.2229 377.1 69.6986C377.1 69.1742 376.675 68.7491 376.151 68.7491C375.628 68.7491 375.203 69.1742 375.203 69.6986C375.203 70.2229 375.628 70.648 376.151 70.648Z" fill="#575988"/>
<path d="M488.205 70.368C488.631 70.368 488.977 70.022 488.977 69.5951C488.977 69.1682 488.631 68.8221 488.205 68.8221C487.778 68.8221 487.433 69.1682 487.433 69.5951C487.433 70.022 487.778 70.368 488.205 70.368Z" fill="#575988"/>
<path d="M488.326 72.127C488.752 72.127 489.098 71.7809 489.098 71.354C489.098 70.9271 488.752 70.5811 488.326 70.5811C487.899 70.5811 487.554 70.9271 487.554 71.354C487.554 71.7809 487.899 72.127 488.326 72.127Z" fill="#575988"/>
<path d="M488.429 73.8797C488.856 73.8797 489.201 73.5337 489.201 73.1068C489.201 72.6799 488.856 72.3338 488.429 72.3338C488.003 72.3338 487.657 72.6799 487.657 73.1068C487.657 73.5337 488.003 73.8797 488.429 73.8797Z" fill="#575988"/>
<path opacity="0.1" d="M427.047 121.413C426.932 121.273 453.732 155.154 474.533 135.575C474.552 135.581 441.685 140.042 427.047 121.413Z" fill="black"/>
<path opacity="0.1" d="M411.669 139.026C411.669 139.026 427.704 139.464 429.382 144.084V148.892C428.925 149.145 428.412 149.278 427.89 149.278C427.368 149.278 426.854 149.145 426.397 148.892C424.781 148.015 415.085 143.085 411.669 145.459V139.026Z" fill="black"/>
<path d="M411.966 139.026C411.966 139.026 427.302 139.446 428.907 143.852V148.429C428.47 148.672 427.978 148.8 427.478 148.8C426.979 148.8 426.487 148.672 426.05 148.429C424.506 147.601 415.236 142.897 411.966 145.161V139.026Z" fill="#3F3D56"/>
<path opacity="0.1" d="M420.422 104.164C422.06 107.961 424.148 111.547 426.64 114.846C429.351 118.491 432.636 121.671 436.366 124.261C436.366 124.261 420.689 106.368 420.422 104.164Z" fill="black"/>
<path opacity="0.1" d="M415.176 85.5104C415.176 85.5104 417.85 97.0741 424.744 101L415.176 85.5104Z" fill="black"/>
<path opacity="0.1" d="M411.073 86.6789C411.006 86.4659 408.696 95.8082 419.96 101C419.96 101 415.176 99.3746 411.073 86.6789Z" fill="black"/>
<path opacity="0.1" d="M481.093 78.9253C480.917 78.9253 486.649 82.5769 488.211 84.281C488.211 84.281 484.479 78.6818 481.093 78.9253Z" fill="black"/>
<path d="M444.816 70.9341C444.818 71.2431 444.884 71.5482 445.01 71.8303C445.136 72.1124 445.319 72.3652 445.547 72.5729C445.776 72.7805 446.045 72.9384 446.337 73.0366C446.63 73.1348 446.94 73.1712 447.247 73.1434C451.557 73.4112 456.049 73.5998 460.012 71.9261C460.756 71.6605 461.423 71.2176 461.957 70.6359C462.662 69.7656 462.802 68.5848 463.088 67.5015C463.647 65.3835 464.839 63.5029 465.696 61.4884C467.146 58.0849 467.632 54.3472 467.1 50.6855C466.988 49.563 466.617 48.4819 466.018 47.5268C464.875 45.8896 462.79 45.2262 461.277 43.9238C459.763 42.6213 458.79 40.6312 457.022 39.6635C455.429 38.7749 453.478 38.8844 451.685 39.1887C448.157 39.7884 444.778 41.059 441.728 42.9317C440.7 43.5403 439.576 44.2889 438.397 44.0638C437.363 43.869 436.61 42.9987 435.965 42.1831C435.136 44.1308 434.788 46.2497 434.95 48.3606C434.995 48.6703 434.985 48.9856 434.92 49.2918C434.771 49.6619 434.545 49.996 434.257 50.2716C433.193 51.4889 432.531 53.4668 433.582 54.7206C434.038 55.2623 434.743 55.5605 435.187 56.1143C435.983 57.1064 435.716 58.5488 435.698 59.8147C435.654 60.2567 435.766 60.7002 436.014 61.0685C436.244 61.2831 436.525 61.4345 436.831 61.5081C437.137 61.5817 437.456 61.5749 437.758 61.4884C438.361 61.3068 438.993 61.2468 439.618 61.3119C440.278 61.5265 440.846 61.9548 441.235 62.5291C443.199 65.0914 443.977 67.8788 444.816 70.9341Z" fill="#2D293D"/>
<g opacity="0.1">
<path opacity="0.1" d="M462.462 69.5585C461.927 70.1402 461.26 70.5831 460.517 70.8487C456.529 72.5103 452.043 72.3216 447.751 72.066C447.291 72.0706 446.835 71.9685 446.42 71.7677C445.764 71.3843 445.514 70.5809 445.314 69.8506C444.475 66.8075 443.703 64.014 441.709 61.4761C441.325 60.8907 440.756 60.4513 440.092 60.2284C439.467 60.1693 438.836 60.2292 438.232 60.4049C437.931 60.4922 437.611 60.5 437.306 60.4275C437 60.355 436.718 60.2046 436.488 59.9911C436.24 59.6228 436.128 59.1793 436.172 58.7373C436.172 57.4592 436.457 56.029 435.661 55.0369C435.217 54.4831 434.512 54.1849 434.056 53.6371C433.759 53.2333 433.576 52.7563 433.528 52.2569C433.48 51.7575 433.568 51.2543 433.783 50.801C433.023 52.0182 432.701 53.5458 433.582 54.5926C434.038 55.1343 434.743 55.4325 435.187 55.9864C435.983 56.9845 435.716 58.4208 435.698 59.6867C435.651 60.1281 435.761 60.5719 436.008 60.9405C436.238 61.1562 436.521 61.3082 436.827 61.3818C437.134 61.4554 437.455 61.4481 437.758 61.3604C438.36 61.1788 438.993 61.1188 439.618 61.1839C440.277 61.3985 440.846 61.8268 441.235 62.4012C443.223 64.9391 444.001 67.7265 444.84 70.7818C444.938 71.5336 445.313 72.2216 445.891 72.7111C446.308 72.9122 446.766 73.0122 447.229 73.0032C451.538 73.271 456.03 73.4658 459.994 71.786C460.738 71.5221 461.406 71.079 461.939 70.4957C462.207 70.1529 462.413 69.7656 462.547 69.3515C462.553 69.4307 462.51 69.4976 462.462 69.5585Z" fill="black"/>
<path opacity="0.1" d="M434.95 48.9204C435.141 48.7128 435.288 48.4685 435.382 48.2022C435.436 47.8943 435.436 47.579 435.382 47.2711C435.263 45.5359 435.488 43.7943 436.044 42.1465L435.965 42.0552C435.133 44 434.785 46.1176 434.95 48.2266C434.968 48.4575 434.968 48.6895 434.95 48.9204V48.9204Z" fill="black"/>
</g>
<path opacity="0.1" d="M442.293 79.5156C442.293 79.5156 459.964 81.8649 461.55 79.2052Z" fill="black"/>
<path opacity="0.1" d="M476.643 72.1938C476.643 72.1938 486.466 72.1938 488.624 75.8942Z" fill="black"/>
<path d="M531.599 400.937C528.686 403.545 524.9 404.962 520.992 404.905C519.995 404.905 518.615 405.094 518.609 406.092C518.633 406.385 518.734 406.666 518.901 406.908C520.135 408.966 522.082 410.498 524.372 411.211C526.499 411.856 528.773 411.746 530.992 411.631L537.465 411.296C538.681 411.229 539.897 411.168 541.112 411.016C542.328 410.864 543.653 410.614 544.924 410.407C548.045 409.963 551.202 409.816 554.352 409.969C555.191 410 556.175 409.969 556.674 409.361C557.172 408.752 556.917 407.589 556.728 406.677C556.339 404.796 556.728 402.824 556.37 400.937C555.762 397.626 552.899 395.089 549.762 393.89C546.845 392.782 541.678 391.51 538.918 393.36C536.006 395.302 534.225 398.545 531.599 400.937Z" fill="#3F3D56"/>
<path d="M538.031 290.011C538.603 292.732 541.235 294.813 541.308 297.588C541.374 299.816 539.788 301.684 538.645 303.589C537.568 305.562 536.659 307.623 535.928 309.748C533.776 315.284 531.106 320.602 527.953 325.633C526.433 328.068 524.731 330.667 525.078 333.497C525.32 334.82 525.786 336.092 526.457 337.258L531.016 346.326C532.015 348.137 532.796 350.059 533.345 352.053C533.74 353.776 533.776 355.559 534.007 357.312C534.724 362.874 537.332 368.474 535.788 373.866C535.654 374.329 535.18 374.889 534.81 374.566C536.317 377.384 537.527 380.22 537.411 383.415C537.35 385.089 536.84 386.836 537.454 388.394C537.715 389.045 538.171 389.654 538.165 390.353C538.165 390.816 537.952 391.248 537.903 391.699C537.776 392.983 538.955 394.054 540.177 394.462C541.399 394.869 542.73 394.839 543.964 395.21C546.335 395.922 548.03 397.967 550.043 399.385C552.107 400.809 554.539 401.602 557.045 401.668C557.403 401.706 557.763 401.634 558.078 401.461C558.257 401.304 558.4 401.112 558.499 400.895C558.597 400.679 558.649 400.445 558.65 400.207C558.76 399.07 558.589 397.924 558.152 396.869C557.716 395.814 557.026 394.883 556.145 394.157C555.759 393.915 555.44 393.581 555.215 393.184C555.102 392.832 555.073 392.459 555.13 392.094C555.497 387.106 555.408 382.094 554.863 377.122C554.617 375.546 554.538 373.949 554.626 372.357C554.753 371.03 555.155 369.715 555.009 368.395C554.863 367.074 554.188 365.869 553.793 364.597C553.088 362.333 553.282 359.898 553.185 357.531C553.064 353.417 552.121 349.375 551.185 345.359C550.814 343.782 550.407 342.133 549.295 340.964C548.347 339.972 546.815 339.023 547.173 337.702C547.372 337.215 547.668 336.774 548.043 336.406C548.483 335.853 548.806 335.216 548.992 334.533C549.178 333.851 549.223 333.138 549.125 332.438C549.524 332.54 549.947 332.5 550.321 332.324C550.695 332.149 550.996 331.849 551.173 331.476C558.577 327.976 564.546 320.977 567.209 313.218C567.366 312.641 567.607 312.092 567.926 311.586C568.613 310.625 569.804 310.211 570.862 309.682C574.181 308.008 576.472 304.873 578.576 301.806C579.791 300.029 581.007 298.191 581.554 296.097C581.842 294.743 581.978 293.361 581.961 291.977L582.15 284.826C582.191 284.355 582.146 283.88 582.016 283.426C581.836 283.001 581.573 282.617 581.244 282.294C579.222 280.153 576.567 278.72 573.67 278.204C571.725 277.857 569.737 277.924 567.768 277.76C563.95 277.443 560.182 276.256 556.364 276.542C550.365 276.987 545.022 281.15 542.195 286.469C541.204 288.343 540.159 289.975 538.031 290.011Z" fill="#464353"/>
<path d="M504.72 243.513C504.801 244.617 504.652 245.726 504.283 246.769C503.815 247.767 502.641 248.546 501.614 248.138C501.924 247.438 501.103 246.641 500.338 246.726C499.961 246.813 499.611 246.991 499.317 247.243C499.024 247.495 498.796 247.815 498.654 248.175C498.146 249.197 497.976 250.354 498.167 251.48C498.411 252.879 499.219 254.225 499.006 255.63C498.836 256.799 497.979 257.961 498.435 259.045C498.731 259.54 499.102 259.985 499.535 260.365C500.136 261.106 500.43 262.049 500.356 263.001C500.283 263.952 499.847 264.838 499.14 265.478L510.641 265.709C510.221 267.632 511.085 269.598 512.069 271.308C514.827 276.01 518.636 280.008 523.196 282.989C527.756 285.97 532.944 287.853 538.353 288.49C538.061 288.66 537.81 288.894 537.619 289.174C537.428 289.454 537.301 289.773 537.248 290.108C537.195 290.443 537.217 290.785 537.313 291.111C537.408 291.436 537.575 291.736 537.8 291.989C538.736 292.92 540.323 292.805 541.496 292.202C542.669 291.6 543.587 290.601 544.657 289.828C546.545 288.489 548.85 287.867 551.155 288.076C552.595 288.216 553.994 288.684 555.44 288.757C559.695 288.982 563.343 285.915 567.44 284.661C570.424 283.742 573.81 283.742 576.314 281.874C577.396 281.07 578.284 279.75 577.968 278.447C577.706 277.699 577.292 277.013 576.752 276.433C575.311 274.564 574.46 272.319 573.427 270.195C571.38 265.989 568.561 262.207 565.117 259.045C562.518 256.77 559.764 254.68 556.875 252.788C556.176 252.272 555.432 251.822 554.65 251.443C553.641 250.999 552.523 250.786 551.611 250.226C550.261 249.374 549.483 247.871 548.444 246.659C546.164 243.994 542.663 242.77 539.855 240.677C537.97 239.271 536.305 237.421 534.056 236.745C532.962 236.41 531.801 236.386 530.706 236.057C528.22 235.303 526.409 233.093 523.971 232.199C522.044 231.493 519.917 231.675 517.893 231.426C515.611 231.144 513.431 230.313 511.54 229.004C510.931 228.507 510.248 228.108 509.516 227.823C506.434 226.886 506.185 232.631 505.869 234.621C505.462 237.579 504.72 240.519 504.72 243.513Z" fill="#3F3D56"/>
<path d="M507.723 262.782C508.239 268.393 504.009 273.828 505.243 279.324C505.504 280.492 506.008 281.606 506.191 282.793C506.708 286.049 504.762 289.135 502.908 291.861L486.982 315.263C486.343 316.29 485.579 317.234 484.709 318.074C481.67 320.783 477.098 320.509 473.099 321.312C470.289 321.89 467.636 323.065 465.318 324.757C465.214 324.838 465.145 324.956 465.127 325.087C465.109 325.218 465.142 325.351 465.221 325.457C465.881 326.357 466.756 327.078 467.766 327.553C468.775 328.028 469.888 328.243 471.002 328.177C471.421 328.725 471.002 329.541 470.424 329.936C469.573 330.545 468.394 330.685 468.224 332.139C468.166 332.645 468.268 333.156 468.515 333.6C469.159 334.581 470.157 335.274 471.299 335.535C476.813 337.227 482.77 334.257 486.897 330.222C491.025 326.187 493.985 321.093 498.033 316.991C500.276 314.715 502.823 312.773 505.133 310.57C509.741 306.17 513.327 300.832 516.78 295.483C517.819 293.87 518.871 292.214 519.302 290.346C519.734 288.477 519.533 286.585 520.026 284.777C520.67 282.409 522.403 280.517 523.843 278.533C526.67 274.637 528.56 269.872 528.183 265.07C527.806 260.268 524.84 255.533 520.318 253.902C518.915 253.344 517.37 253.25 515.911 253.634C514.057 254.206 512.689 255.74 511.425 257.213L508.385 260.706C507.645 261.48 507.065 262.392 506.677 263.39C506.481 263.893 506.434 264.442 506.542 264.971C506.65 265.5 506.908 265.987 507.285 266.372" fill="#FBBEBE"/>
<path d="M515.796 239.764C513.705 239.886 511.401 240.092 509.924 241.59C509.304 242.277 508.803 243.063 508.441 243.915C507.006 246.842 505.608 249.903 505.505 253.166C505.42 255.77 506.173 258.321 506.568 260.895C506.897 263.037 506.064 265.222 505.906 267.389C508.501 266.592 511.93 265.508 514.282 264.163C515.887 263.244 517.437 262.197 519.188 261.613C521.686 260.779 525.874 262.222 528.251 263.378C528.379 261.71 527.126 258.801 527.26 257.128C527.279 256.423 527.404 255.725 527.631 255.058C527.986 254.353 528.408 253.682 528.889 253.056C529.794 251.583 530.21 249.862 530.078 248.137C529.946 246.413 529.272 244.775 528.154 243.458C526.044 241.085 522.744 240.196 519.595 239.806C517.612 239.576 515.614 239.507 513.62 239.599" fill="#3F3D56"/>
</g>
<defs>
<linearGradient id="paint0_linear" x1="429.285" y1="332.413" x2="429.285" y2="35.0075" gradientUnits="userSpaceOnUse">
<stop stop-color="#808080" stop-opacity="0.25"/>
<stop offset="0.54" stop-color="#808080" stop-opacity="0.12"/>
<stop offset="1" stop-color="#808080" stop-opacity="0.1"/>
</linearGradient>
<clipPath id="clip0">
<rect width="638" height="413" fill="white"/>
</clipPath>
</defs>
</svg>
