<svg width="661" height="291" viewBox="0 0 661 291" fill="none" xmlns="http://www.w3.org/2000/svg">
<g clip-path="url(#clip0)">
<path d="M196.65 239.6C194.377 257.412 186.021 273.707 177.107 289.405C176.812 289.939 176.509 290.466 176.198 291H83.5463C81.6724 290.513 79.8227 289.979 77.9808 289.405C67.5161 286.217 57.6366 281.355 48.7262 275.007C14.6397 250.44 1.52316 204.018 7.44759 162.421C11.1314 136.578 22.4695 110.192 44.5479 96.2736C56.2052 88.9114 71.1792 86.5185 84.5986 89.2544C84.9498 89.3182 85.3006 89.398 85.6592 89.4698C97.2047 92.0701 107.49 98.5309 113.343 108.94C123.868 127.645 117.601 150.816 112.426 171.634C107.267 192.452 104.468 217.37 119.443 232.725C114.499 218.168 119.379 200.803 131.188 190.961C140.11 183.535 152.533 180.751 163.863 183.056C164.947 183.287 166.016 183.551 167.068 183.87C169.612 184.615 172.064 185.642 174.38 186.933C192.041 196.799 199.193 219.524 196.65 239.6Z" fill="#F2F2F2"/>
<path d="M141.712 289.405C144.279 290.003 146.855 290.529 149.446 291H135.437C133.603 290.505 131.777 289.979 129.967 289.405C125.988 288.16 122.071 286.733 118.214 285.121C102.746 278.629 88.4971 268.882 77.717 255.912C72.4448 249.628 68.1396 242.593 64.9435 235.038C61.4779 226.499 59.2754 217.5 58.4055 208.325C56.4519 189.501 58.4452 170.158 62.1688 151.669C66.0114 132.506 72.2143 113.894 80.6354 96.2577C81.6481 94.144 82.6952 92.0435 83.7769 89.9564C83.8513 89.7845 83.964 89.632 84.1063 89.5103C84.2486 89.3887 84.4168 89.3012 84.598 89.2544C84.9661 89.1831 85.3474 89.2605 85.6586 89.4698C86.032 89.6841 86.3088 90.0337 86.432 90.4463C86.5552 90.859 86.5152 91.3032 86.3204 91.6872C77.6378 108.626 71.0561 126.562 66.7216 145.097C62.4798 163.179 60.0718 182.099 60.8929 200.692C61.6743 218.064 66.2116 235.15 76.505 249.355C85.9058 262.325 98.8864 272.551 113.247 279.514C122.336 283.864 131.884 287.182 141.712 289.405V289.405Z" fill="white"/>
<path d="M172.458 291H168.327C167.865 290.473 167.418 289.939 166.98 289.405C157.572 277.97 151.199 264.346 148.449 249.794C145.111 231.634 147.708 212.881 155.857 196.313C158.13 191.667 160.809 187.231 163.862 183.056C164.946 183.287 166.015 183.551 167.067 183.87C159.037 194.513 153.636 206.905 151.304 220.034C149.224 232.337 149.915 244.949 153.328 256.95C156.741 268.952 162.789 280.039 171.03 289.405C171.493 289.939 171.971 290.473 172.458 291Z" fill="white"/>
<path d="M544.531 277.435C545.131 282.135 547.336 286.436 549.689 290.579C549.767 290.72 549.847 290.859 549.929 291H574.381C574.876 290.872 575.364 290.731 575.85 290.579C578.612 289.738 581.219 288.455 583.571 286.779C592.567 280.296 596.029 268.044 594.465 257.066C593.493 250.245 590.5 243.281 584.674 239.608C581.509 237.68 577.734 237.019 574.103 237.756C574.011 237.772 573.918 237.793 573.824 237.812C572.312 238.105 570.88 238.714 569.62 239.599C568.361 240.485 567.304 241.627 566.517 242.951C563.739 247.887 565.393 254.003 566.759 259.497C568.121 264.991 568.859 271.568 564.907 275.62C565.487 273.925 565.604 272.107 565.248 270.352C564.892 268.597 564.075 266.968 562.881 265.633C561.688 264.298 560.16 263.305 558.456 262.757C556.752 262.208 554.932 262.124 553.184 262.512C552.898 262.573 552.616 262.642 552.338 262.726C551.667 262.923 551.02 263.194 550.408 263.535C545.747 266.139 543.86 272.136 544.531 277.435Z" fill="#F2F2F2"/>
<path d="M559.03 290.579C558.353 290.737 557.673 290.876 556.989 291H560.687C561.171 290.87 561.653 290.731 562.13 290.579C563.18 290.251 564.214 289.874 565.232 289.449C569.36 287.772 573.025 285.128 575.92 281.74C577.311 280.081 578.448 278.225 579.291 276.231C580.206 273.977 580.787 271.602 581.017 269.181C581.436 264.175 581.101 259.134 580.023 254.228C579.009 249.171 577.372 244.258 575.15 239.604C574.882 239.046 574.606 238.492 574.32 237.941C574.301 237.896 574.271 237.855 574.234 237.823C574.196 237.791 574.152 237.768 574.104 237.756C574.007 237.737 573.906 237.757 573.824 237.812C573.725 237.869 573.652 237.961 573.62 238.07C573.587 238.179 573.598 238.296 573.649 238.398C575.941 242.868 577.678 247.602 578.822 252.494C580 257.291 580.517 262.228 580.36 267.166C580.276 271.759 578.843 276.225 576.24 280.009C573.708 283.417 570.378 286.15 566.543 287.969C564.144 289.117 561.624 289.992 559.03 290.579Z" fill="white"/>
<path d="M550.916 291H552.006C552.128 290.861 552.246 290.72 552.362 290.579C554.845 287.561 556.527 283.966 557.252 280.125C558.133 275.332 557.448 270.383 555.297 266.01C554.697 264.784 553.99 263.613 553.185 262.512C552.898 262.573 552.616 262.642 552.339 262.726C554.458 265.535 555.883 268.806 556.499 272.271C557.048 275.518 556.865 278.846 555.965 282.014C555.064 285.181 553.468 288.107 551.293 290.579C551.171 290.72 551.044 290.861 550.916 291Z" fill="white"/>
<path d="M324.129 169.504H247.599L246.787 145.965C246.752 144.945 246.939 143.929 247.334 142.987C247.729 142.046 248.323 141.201 249.075 140.511C249.828 139.822 250.721 139.303 251.693 138.992C252.665 138.681 253.693 138.584 254.706 138.708L299.241 144.163H299.247C305.849 144.181 312.175 146.816 316.839 151.491C321.503 156.166 324.124 162.5 324.129 169.105V169.504Z" fill="#3F3D56"/>
<path d="M290.019 86.0081H236.643C235.934 86.0079 235.231 86.1476 234.575 86.4193C233.919 86.6909 233.323 87.0892 232.821 87.5913C232.319 88.0935 231.921 88.6896 231.649 89.3457C231.378 90.0018 231.238 90.7051 231.238 91.4152V144.81C231.238 145.521 231.378 146.224 231.649 146.88C231.921 147.536 232.319 148.132 232.821 148.634C233.323 149.136 233.919 149.535 234.575 149.806C235.231 150.078 235.934 150.218 236.643 150.218H290.019C290.729 150.218 291.432 150.078 292.088 149.806C292.744 149.535 293.34 149.136 293.842 148.634C294.344 148.132 294.742 147.536 295.014 146.88C295.285 146.224 295.425 145.521 295.425 144.81V91.4152C295.425 90.7051 295.285 90.0018 295.014 89.3457C294.742 88.6896 294.344 88.0935 293.842 87.5913C293.34 87.0892 292.744 86.6909 292.088 86.4193C291.432 86.1476 290.729 86.0079 290.019 86.0081V86.0081Z" fill="#CCCCCC"/>
<path d="M277.999 125.935L252.797 130.844C251.303 131.134 249.754 130.818 248.491 129.967C247.229 129.116 246.355 127.798 246.063 126.303L244.125 116.352C243.836 114.857 244.151 113.307 245.002 112.044C245.853 110.781 247.17 109.908 248.665 109.615L273.866 104.705C275.361 104.416 276.909 104.731 278.172 105.583C279.435 106.434 280.308 107.752 280.601 109.246L282.538 119.198C282.827 120.693 282.512 122.242 281.661 123.505C280.81 124.768 279.493 125.642 277.999 125.935Z" fill="#3F3D56"/>
<path d="M272.956 114.178L253.724 117.925C253.372 117.994 253.008 117.919 252.71 117.719C252.413 117.519 252.208 117.208 252.139 116.857C252.071 116.505 252.145 116.14 252.345 115.843C252.545 115.545 252.855 115.34 253.207 115.271L272.44 111.525C272.792 111.456 273.156 111.53 273.453 111.731C273.75 111.931 273.956 112.241 274.024 112.593C274.093 112.945 274.019 113.31 273.819 113.607C273.618 113.904 273.308 114.11 272.956 114.178V114.178Z" fill="white"/>
<path d="M269.219 119.727L259.271 121.665C258.919 121.733 258.554 121.659 258.257 121.459C257.96 121.258 257.755 120.948 257.686 120.596C257.618 120.244 257.692 119.88 257.892 119.582C258.092 119.285 258.402 119.08 258.754 119.011L268.702 117.073C268.876 117.039 269.055 117.04 269.229 117.075C269.403 117.111 269.568 117.18 269.716 117.279C269.863 117.378 269.989 117.505 270.087 117.653C270.185 117.801 270.253 117.967 270.287 118.142C270.321 118.316 270.32 118.495 270.285 118.669C270.249 118.843 270.18 119.008 270.081 119.155C269.982 119.303 269.854 119.429 269.706 119.527C269.559 119.625 269.393 119.693 269.219 119.727Z" fill="white"/>
<path d="M295.425 91.4152V98.512H231.238V91.4152C231.238 90.7051 231.378 90.0018 231.649 89.3457C231.921 88.6896 232.319 88.0935 232.821 87.5913C233.323 87.0892 233.919 86.6909 234.575 86.4193C235.231 86.1476 235.934 86.0079 236.643 86.0081H290.019C290.729 86.0079 291.432 86.1476 292.088 86.4193C292.744 86.6909 293.34 87.0892 293.842 87.5913C294.344 88.0935 294.742 88.6896 295.014 89.3457C295.285 90.0018 295.425 90.7051 295.425 91.4152Z" fill="#B3B3B3"/>
<path d="M423.599 100.734C423.228 99.5378 422.6 98.4371 421.758 97.5097C420.916 96.5823 419.882 95.8508 418.727 95.3668C417.572 94.8828 416.325 94.658 415.073 94.7082C413.822 94.7585 412.597 95.0825 411.485 95.6576L338.052 69.3016L334.817 87.653L408.017 107.79C409.106 109.595 410.82 110.938 412.833 111.564C414.847 112.19 417.02 112.055 418.94 111.186C420.861 110.316 422.396 108.772 423.255 106.846C424.113 104.919 424.236 102.745 423.599 100.734V100.734Z" fill="#FFB8B8"/>
<path opacity="0.2" d="M423.599 100.734C423.228 99.5378 422.6 98.4371 421.758 97.5097C420.916 96.5823 419.882 95.8508 418.727 95.3668C417.572 94.8828 416.325 94.658 415.073 94.7082C413.822 94.7585 412.597 95.0825 411.485 95.6576L338.052 69.3016L334.817 87.653L408.017 107.79C409.106 109.595 410.82 110.938 412.833 111.564C414.847 112.19 417.02 112.055 418.94 111.186C420.861 110.316 422.396 108.772 423.255 106.846C424.113 104.919 424.236 102.745 423.599 100.734V100.734Z" fill="black"/>
<path d="M351.085 72.6456L344.151 90.7681C343.953 91.2837 343.647 91.7507 343.253 92.1373C342.859 92.524 342.387 92.8211 341.867 93.0085C341.348 93.1959 340.795 93.2692 340.245 93.2234C339.695 93.1775 339.161 93.0136 338.68 92.7428L321.827 83.254C319.196 82.229 317.078 80.2022 315.939 77.6178C314.799 75.0334 314.73 72.1024 315.747 69.4674C316.764 66.8323 318.785 64.7083 321.365 63.5608C323.945 62.4134 326.875 62.3362 329.512 63.3462L348.331 67.5215C348.87 67.6412 349.376 67.8757 349.816 68.209C350.256 68.5422 350.619 68.9664 350.881 69.4527C351.142 69.939 351.296 70.4759 351.331 71.0269C351.366 71.5779 351.282 72.13 351.085 72.6456V72.6456Z" fill="#3F3D56"/>
<path d="M429.379 117.515L403.066 129.479L406.521 142.489C413.192 167.613 414.962 193.787 411.735 219.581V219.581L430.974 223.6L446.92 182.921L441.339 136.658L429.379 117.515Z" fill="#3F3D56"/>
<path d="M481.007 177.736C463.719 177.736 449.63 190.308 448.946 206.052H513.067C512.384 190.308 498.295 177.736 481.007 177.736Z" fill="#3F3D56"/>
<path d="M467.549 180.449C466.649 109.381 426.189 115.919 426.189 115.919C426.189 115.919 426.946 138.04 427.309 138.728C453.092 187.527 410.541 244.737 356.378 234.212C355.356 234.014 354.375 233.812 353.434 233.608C346.571 232.175 340.512 228.18 336.489 222.437C332.465 216.693 330.78 209.632 331.776 202.69C337.111 159.828 310.574 160.587 310.574 160.587H271.77L251.618 142.444C250.907 141.804 250.049 141.347 249.121 141.115C248.193 140.883 247.222 140.881 246.293 141.111C245.364 141.341 244.505 141.795 243.792 142.434C243.079 143.072 242.533 143.876 242.202 144.774L239.61 151.813C239.61 151.813 201.337 155.801 204.527 193.29H216.359C216.331 194.355 216.373 195.421 216.487 196.48L304.794 195.762C309.97 195.72 314.539 199.916 314.56 205.094C314.566 206.355 314.317 207.604 313.828 208.766C313.34 209.928 312.623 210.98 311.719 211.858C310.815 212.737 309.743 213.424 308.567 213.878C307.392 214.333 306.137 214.545 304.877 214.503L290.64 214.028C286.255 233.57 297.019 246.731 308.879 255.007C320.046 262.685 333.297 266.757 346.847 266.672H385.524C435.757 266.672 444.528 224.398 444.528 224.398C470.84 213.231 467.549 180.449 467.549 180.449Z" fill="#3F3D56"/>
<path d="M478.614 289.804C503.385 289.804 523.465 269.716 523.465 244.937C523.465 220.157 503.385 200.07 478.614 200.07C453.844 200.07 433.764 220.157 433.764 244.937C433.764 269.716 453.844 289.804 478.614 289.804Z" fill="#3F3D56"/>
<path d="M478.615 255.933C484.686 255.933 489.608 251.01 489.608 244.937C489.608 238.863 484.686 233.94 478.615 233.94C472.544 233.94 467.622 238.863 467.622 244.937C467.622 251.01 472.544 255.933 478.615 255.933Z" fill="white"/>
<path d="M252.168 289.804C280.682 289.804 303.796 266.68 303.796 238.157C303.796 209.633 280.682 186.51 252.168 186.51C223.655 186.51 200.54 209.633 200.54 238.157C200.54 266.68 223.655 289.804 252.168 289.804Z" fill="#3F3D56"/>
<path d="M252.169 250.815C259.157 250.815 264.823 245.148 264.823 238.157C264.823 231.166 259.157 225.498 252.169 225.498C245.18 225.498 239.515 231.166 239.515 238.157C239.515 245.148 245.18 250.815 252.169 250.815Z" fill="white"/>
<path d="M403.141 133.014L393.674 107.291C393.18 105.95 392.956 104.526 393.013 103.098C393.07 101.671 393.407 100.268 394.006 98.9715C394.605 97.6745 395.453 96.5082 396.502 95.5392C397.552 94.5702 398.781 93.8174 400.122 93.3239L427.263 83.3285C429.621 82.4599 432.127 82.0644 434.638 82.1646C437.149 82.2648 439.615 82.8587 441.897 83.9125C444.178 84.9662 446.23 86.4592 447.934 88.3061C449.639 90.153 450.963 92.3176 451.831 94.6765C452.614 96.7937 453.014 99.0334 453.012 101.291C453.002 104.157 452.353 106.985 451.114 109.57C449.874 112.154 448.074 114.429 445.846 116.231C444.236 117.523 442.426 118.543 440.487 119.253L403.141 133.014Z" fill="#3F3D56"/>
<path d="M452.614 101.291C452.611 104.099 451.98 106.87 450.766 109.402C449.551 111.934 447.785 114.161 445.597 115.919C442.24 115.033 439.115 113.427 436.442 111.211C433.768 108.995 431.608 106.224 430.114 103.089C428.619 99.9537 427.824 96.5307 427.786 93.0576C427.747 89.5844 428.465 86.1446 429.889 82.977C432.624 82.3821 435.457 82.4074 438.181 83.0512C440.905 83.695 443.45 84.9408 445.63 86.6973C447.809 88.4537 449.568 90.6762 450.776 93.2015C451.985 95.7269 452.613 98.4909 452.614 101.291V101.291Z" fill="#3F3D56"/>
<path d="M211.304 198.474C217.47 198.474 222.467 192.403 222.467 184.915C222.467 177.426 217.47 171.355 211.304 171.355C205.139 171.355 200.142 177.426 200.142 184.915C200.142 192.403 205.139 198.474 211.304 198.474Z" fill="#3F3D56"/>
<path d="M358.862 232.913H368.637L373.288 207.551L358.86 207.551L358.862 232.913Z" fill="#FFB8B8"/>
<path d="M356.369 229.72L375.62 229.72H375.621C377.232 229.72 378.827 230.037 380.316 230.654C381.804 231.271 383.157 232.175 384.296 233.314C385.435 234.454 386.339 235.807 386.955 237.296C387.572 238.785 387.889 240.381 387.889 241.992V242.391L356.37 242.392L356.369 229.72Z" fill="#2F2E41"/>
<path d="M370.209 222.504C370.095 222.504 369.98 222.498 369.866 222.487L356.337 221.502C355.79 221.451 355.262 221.275 354.794 220.988C354.325 220.701 353.929 220.31 353.636 219.845C353.342 219.38 353.159 218.854 353.101 218.308C353.043 217.761 353.111 217.209 353.3 216.693L371.405 176.002C371.535 175.639 371.587 175.253 371.56 174.869C371.533 174.485 371.427 174.11 371.249 173.769C371.07 173.424 370.821 173.12 370.517 172.879C370.213 172.637 369.862 172.462 369.486 172.366C360.972 170.139 339.129 164.212 320.22 157.276C312.119 154.304 307.017 150.01 305.056 144.512C302.47 137.264 306.295 130.654 306.46 130.377L306.588 130.159L324.38 131.777L343.669 133.419L385.939 156.093C389.481 158.01 392.172 161.19 393.475 165.001C394.778 168.813 394.598 172.975 392.971 176.66L373.483 220.376C373.201 221.009 372.742 221.547 372.161 221.925C371.58 222.302 370.902 222.503 370.209 222.504Z" fill="#2F2E41"/>
<path d="M327.474 51.2729C338.29 51.2729 347.058 42.5019 347.058 31.6822C347.058 20.8626 338.29 12.0915 327.474 12.0915C316.659 12.0915 307.891 20.8626 307.891 31.6822C307.891 42.5019 316.659 51.2729 327.474 51.2729Z" fill="#FFB8B8"/>
<path d="M353.281 235.306H363.056L367.707 209.944L353.279 209.944L353.281 235.306Z" fill="#FFB8B8"/>
<path d="M350.787 232.113L370.038 232.113H370.039C371.65 232.113 373.245 232.43 374.734 233.047C376.222 233.663 377.575 234.567 378.714 235.707C379.853 236.847 380.757 238.2 381.373 239.689C381.99 241.178 382.307 242.773 382.307 244.385V244.784L350.788 244.785L350.787 232.113Z" fill="#2F2E41"/>
<path d="M364.628 224.896C364.514 224.896 364.399 224.891 364.285 224.88L350.756 223.895C350.209 223.844 349.681 223.668 349.213 223.381C348.744 223.094 348.348 222.703 348.055 222.238C347.761 221.773 347.578 221.247 347.52 220.701C347.462 220.154 347.53 219.602 347.719 219.086L365.824 178.395C365.953 178.032 366.006 177.646 365.979 177.262C365.952 176.878 365.846 176.503 365.668 176.162C365.489 175.817 365.24 175.513 364.936 175.272C364.632 175.03 364.281 174.855 363.905 174.758C355.391 172.532 333.548 166.605 314.639 159.669C306.538 156.697 301.436 152.403 299.475 146.905C296.889 139.657 300.714 133.047 300.879 132.77L301.007 132.552L318.799 134.17L338.088 135.812L380.358 158.486C383.9 160.403 386.59 163.583 387.894 167.394C389.197 171.206 389.017 175.368 387.39 179.053L367.902 222.769C367.62 223.402 367.161 223.94 366.58 224.318C365.998 224.695 365.32 224.896 364.628 224.896Z" fill="#2F2E41"/>
<path d="M333.514 62.3816L312.783 55.2029C312.783 55.2029 299.769 65.2053 306.021 90.0185C309.285 102.823 308.334 116.339 303.31 128.56C302.705 130.072 302.008 131.546 301.222 132.972C301.222 132.972 324.345 160.889 345.873 140.151L337.501 99.8704C337.501 99.8704 350.657 73.1497 333.514 62.3816Z" fill="#3F3D56"/>
<path d="M329.906 51.9392C327.119 47.7657 324.919 41.9787 327.988 38.0078C331.017 34.0881 336.992 34.6655 341.631 32.9311C348.093 30.5153 351.84 22.9213 350.672 16.1204C349.503 9.31954 344.045 3.6818 337.544 1.37502C331.043 -0.931758 323.711 -0.181538 317.345 2.47486C309.507 5.74492 302.784 12.0706 299.965 20.0836C297.146 28.0966 298.653 37.7178 304.502 43.8767C310.772 50.4798 320.612 52.2396 329.716 52.1328" fill="#2F2E41"/>
<path d="M311.689 16.3387C308.177 19.1989 302.819 17.9285 299.048 15.4183C295.278 12.9081 292.219 9.33373 288.14 7.36564C280.949 3.89598 272.254 6.20251 265.255 10.0458C258.256 13.889 252.051 19.1986 244.658 22.2146C237.265 25.2306 227.831 25.3797 222.233 19.6848C220.855 23.6776 220.743 27.9984 221.911 32.0576C223.078 36.1168 225.47 39.7168 228.758 42.3663C232.047 45.0157 236.072 46.5857 240.286 46.862C244.499 47.1383 248.695 46.1075 252.301 43.9101C260.402 38.974 264.876 28.6245 273.962 25.9001C278.989 24.3925 284.388 25.6067 289.469 26.9219C294.551 28.237 299.849 29.6581 304.977 28.5385C310.105 27.4189 314.902 22.809 314.249 17.5992L311.689 16.3387Z" fill="#2F2E41"/>
<path d="M422.624 99.9365C422.108 98.7948 421.349 97.78 420.399 96.9636C419.45 96.1472 418.332 95.549 417.127 95.2113C415.921 94.8735 414.655 94.8043 413.42 95.0086C412.185 95.2129 411.009 95.6857 409.976 96.3938L333.853 79.3027L332.907 97.9131L408.031 108.861C409.335 110.518 411.201 111.639 413.276 112.012C415.351 112.385 417.491 111.983 419.29 110.883C421.089 109.783 422.421 108.061 423.036 106.043C423.65 104.026 423.504 101.853 422.624 99.9365V99.9365Z" fill="#FFB8B8"/>
<path d="M347.201 81.0124L342.555 99.8522C342.423 100.388 342.177 100.89 341.833 101.322C341.49 101.754 341.058 102.107 340.566 102.357C340.073 102.607 339.533 102.748 338.982 102.771C338.43 102.793 337.881 102.696 337.37 102.487L319.475 95.1509C316.736 94.4601 314.383 92.7105 312.931 90.286C311.48 87.8614 311.049 84.9599 311.734 82.2182C312.419 79.4764 314.163 77.1183 316.583 75.6614C319.004 74.2044 321.903 73.7676 324.646 74.4467L343.836 76.2673C344.385 76.3196 344.917 76.4897 345.395 76.7661C345.873 77.0425 346.285 77.4187 346.605 77.869C346.924 78.3193 347.143 78.8332 347.245 79.3756C347.348 79.918 347.333 80.4763 347.201 81.0123V81.0124Z" fill="#3F3D56"/>
<path d="M413.83 114.723C416.913 114.723 419.412 112.223 419.412 109.139C419.412 106.056 416.913 103.556 413.83 103.556C410.748 103.556 408.249 106.056 408.249 109.139C408.249 112.223 410.748 114.723 413.83 114.723Z" fill="#3F3D56"/>
<path d="M661 290.202C660.999 290.414 660.915 290.616 660.766 290.766C660.616 290.915 660.414 290.999 660.203 291H0.797346C0.585877 291 0.383068 290.916 0.233537 290.766C0.0840053 290.617 0 290.414 0 290.202C0 289.991 0.0840053 289.788 0.233537 289.638C0.383068 289.489 0.585877 289.405 0.797346 289.405H660.203C660.414 289.405 660.616 289.49 660.766 289.639C660.915 289.788 660.999 289.991 661 290.202V290.202Z" fill="#3F3D56"/>
</g>
<defs>
<clipPath id="clip0">
<rect width="661" height="291" fill="white"/>
</clipPath>
</defs>
</svg>
