<svg width="640" height="557" viewBox="0 0 640 557" fill="none" xmlns="http://www.w3.org/2000/svg">
<g clip-path="url(#clip0)">
<path d="M288.088 557C385.511 557 464.487 553.032 464.487 548.138C464.487 543.243 385.511 539.276 288.088 539.276C190.666 539.276 111.689 543.243 111.689 548.138C111.689 553.032 190.666 557 288.088 557Z" fill="#E6E6E6"/>
<path d="M87.538 175.036C135.884 175.036 175.076 135.853 175.076 87.5182C175.076 39.1832 135.884 0 87.538 0C39.1921 0 0 39.1832 0 87.5182C0 135.853 39.1921 175.036 87.538 175.036Z" fill="#E6E6E6"/>
<path d="M87.5382 160.45C127.826 160.45 160.486 127.797 160.486 87.5182C160.486 47.2391 127.826 14.5864 87.5382 14.5864C47.2499 14.5864 14.5898 47.2391 14.5898 87.5182C14.5898 127.797 47.2499 160.45 87.5382 160.45Z" fill="#3F3D56"/>
<path d="M320 175.036C368.346 175.036 407.538 135.853 407.538 87.5182C407.538 39.1832 368.346 0 320 0C271.654 0 232.462 39.1832 232.462 87.5182C232.462 135.853 271.654 175.036 320 175.036Z" fill="#E6E6E6"/>
<path d="M320 160.45C360.288 160.45 392.948 127.797 392.948 87.5182C392.948 47.2391 360.288 14.5864 320 14.5864C279.712 14.5864 247.052 47.2391 247.052 87.5182C247.052 127.797 279.712 160.45 320 160.45Z" fill="white"/>
<path d="M552.462 175.036C600.808 175.036 640 135.853 640 87.5182C640 39.1832 600.808 0 552.462 0C504.116 0 464.924 39.1832 464.924 87.5182C464.924 135.853 504.116 175.036 552.462 175.036Z" fill="#E6E6E6"/>
<path d="M552.462 160.45C592.75 160.45 625.41 127.797 625.41 87.5182C625.41 47.2391 592.75 14.5864 552.462 14.5864C512.174 14.5864 479.514 47.2391 479.514 87.5182C479.514 127.797 512.174 160.45 552.462 160.45Z" fill="white"/>
<path d="M80.7716 117.483L59.5195 90.1655L71.8781 80.5544L81.9408 93.4898L115.934 57.6144L127.301 68.3812L80.7716 117.483Z" fill="white"/>
<path d="M242.653 105.364C236.905 91.4826 235.971 78.3811 244.075 66.7435C244.219 62.8331 245.147 58.9915 246.804 55.4464C248.461 51.9014 250.814 48.7251 253.722 46.1061C256.63 43.4871 260.034 41.4787 263.733 40.1999C267.432 38.9212 271.351 38.3982 275.256 38.662L280.54 39.0189C285.995 39.3732 291.24 41.2555 295.675 44.4506C300.11 47.6457 303.555 52.0245 305.617 57.086C315.47 81.5173 315.781 113.988 313.322 148.791H241.055C245.347 132.515 247.55 117.239 242.653 105.364Z" fill="#2F2E41"/>
<path d="M149.329 147.955L130.231 139.378C128.329 138.524 126.632 137.27 125.256 135.703C123.88 134.135 122.857 132.29 122.257 130.293C121.657 128.295 121.493 126.192 121.777 124.126C122.061 122.06 122.786 120.079 123.902 118.317C125.137 116.369 126.817 114.743 128.805 113.571C130.792 112.4 133.029 111.718 135.332 111.582C137.635 111.445 139.937 111.857 142.049 112.785C144.161 113.713 146.022 115.129 147.479 116.918L156.302 127.748L197.434 164.22L224.776 145.978L237.168 166.983L192.816 193.768L149.329 147.955Z" fill="#9F616A"/>
<path d="M235.177 173.162L220.1 144.318L278.809 118.174L279.317 123.691C279.785 128.768 278.918 133.879 276.801 138.517C274.684 143.156 271.391 147.16 267.249 150.134L235.177 173.162Z" fill="#3F3D56"/>
<path d="M311.257 116.45L251.379 165.994L247.938 161.177L264.456 131.589L272.026 128.148C273.84 120.465 269.21 110.161 263.079 99.2478L291.986 95.1192C293.381 104.492 299.735 111.634 311.257 116.45Z" fill="#9F616A"/>
<path d="M383.524 458.437L373.545 473.231L294.051 428.16L305.063 373.801L383.524 458.437Z" fill="#2F2E41"/>
<path d="M278.565 528.967L262.391 521.742L258.261 332.514L242.775 229.643L302.998 218.289L315.386 245.125C345.831 286.871 301.45 414.783 278.565 528.967Z" fill="#2F2E41"/>
<path d="M279.869 526.396L283.188 533.617C283.812 534.974 284.11 536.458 284.059 537.951C284.007 539.443 283.609 540.903 282.894 542.214C282.179 543.525 281.168 544.651 279.941 545.503C278.714 546.354 277.305 546.908 275.826 547.119L231.95 553.386C229.793 553.694 227.597 553.21 225.768 552.025C223.94 550.84 222.603 549.033 222.004 546.938C221.453 545.009 221.561 542.952 222.311 541.092C223.061 539.231 224.409 537.674 226.144 536.666L263.005 518.221L279.869 526.396Z" fill="#2F2E41"/>
<path d="M381.469 455.641L389.397 455.059C390.887 454.95 392.381 455.19 393.762 455.76C395.142 456.33 396.371 457.214 397.349 458.343C398.328 459.471 399.029 460.812 399.398 462.259C399.766 463.706 399.792 465.219 399.473 466.678L389.994 509.965C389.528 512.093 388.307 513.98 386.556 515.278C384.806 516.576 382.645 517.196 380.473 517.024C378.473 516.865 376.583 516.044 375.102 514.691C373.621 513.338 372.634 511.53 372.296 509.553L367.909 468.576L381.469 455.641Z" fill="#2F2E41"/>
<path d="M273.403 108.881C288.608 108.881 300.934 96.5583 300.934 81.3572C300.934 66.1561 288.608 53.8331 273.403 53.8331C258.199 53.8331 245.873 66.1561 245.873 81.3572C245.873 96.5583 258.199 108.881 273.403 108.881Z" fill="#9F616A"/>
<path d="M301.622 222.418L241.744 234.804L240.367 194.894C231.697 185.716 251.919 148.96 258.95 131.589L267.897 128.836L252.756 156.36L305.751 113.01L316.075 115.762L318.828 165.994L301.622 222.418Z" fill="#3F3D56"/>
<path d="M305.751 246.501L292.766 262.92C291.472 264.556 289.842 265.895 287.985 266.846C286.128 267.796 284.089 268.337 282.005 268.431C279.921 268.525 277.841 268.17 275.907 267.39C273.972 266.61 272.228 265.423 270.792 263.91C269.205 262.237 268.037 260.21 267.387 257.997C266.737 255.785 266.622 253.449 267.052 251.183C267.482 248.917 268.445 246.786 269.861 244.965C271.277 243.144 273.105 241.686 275.196 240.711L287.856 234.804L333.281 203.839L322.269 172.875L345.67 165.994L360.812 215.537L305.751 246.501Z" fill="#9F616A"/>
<path d="M308.159 143.286H258.281C260.155 133.861 265.179 125.309 278.92 119.178C288.939 100.033 293.22 82.6683 278.92 71.0654C262.586 67.3034 256.26 60.472 258.281 51.0807L287.52 46.264C311.565 67.674 311.84 104.221 308.159 143.286Z" fill="#2F2E41"/>
<path d="M351.176 169.434L319.516 177.003L308.504 113.698L313.979 114.553C319.018 115.34 323.763 117.43 327.744 120.616C331.726 123.802 334.806 127.972 336.678 132.715L351.176 169.434Z" fill="#3F3D56"/>
</g>
<defs>
<clipPath id="clip0">
<rect width="640" height="557" fill="white"/>
</clipPath>
</defs>
</svg>
